<svg width="200" height="72" viewBox="0 0 200 72" fill="none" xmlns="http://www.w3.org/2000/svg">
<path d="M198.634 32.7732L198.642 32.7811C199.481 33.6245 200 34.7807 200 36.0512C200 37.3194 199.484 38.4734 198.648 39.3162L198.635 39.3292C197.792 40.1686 196.635 40.6874 195.365 40.6874C194.096 40.6874 192.942 40.1715 192.1 39.3348L192.087 39.3219C191.731 38.9646 191.433 38.5505 191.207 38.0958H166.329V65.3967C166.329 66.8978 165.72 68.2549 164.738 69.2384C163.755 70.2214 162.397 70.8296 160.897 70.8296C159.847 70.8296 158.844 70.5252 157.989 69.9828C157.139 69.4444 156.437 68.6645 155.986 67.7114L142.326 38.7474C142.233 38.5499 142.085 38.3862 141.903 38.2708C141.726 38.1589 141.516 38.0958 141.294 38.0958C140.974 38.0958 140.69 38.2202 140.489 38.4205L140.482 38.4284C140.281 38.6287 140.158 38.9128 140.158 39.2318V64.3558C140.158 66.1416 139.433 67.7598 138.263 68.9306C137.092 70.1015 135.474 70.8257 133.688 70.8257C132.387 70.8257 131.142 70.4295 130.093 69.7279C129.053 69.0331 128.214 68.0338 127.714 66.823L116.947 40.8073L103.987 65.0985C103.018 66.9136 101.577 68.3849 99.8657 69.3785C98.2132 70.3378 96.3042 70.8549 94.3197 70.8093L94.2196 70.8121C94.1875 70.8121 94.183 70.8088 94.0862 70.8037L93.9422 70.797C89.3138 70.5606 85.1097 68.5812 81.9921 65.5081C78.87 62.4304 76.8281 58.2527 76.5293 53.6289C76.5006 53.1799 76.486 52.7753 76.486 52.4147C76.486 47.5393 78.3872 43.1034 81.4891 39.808C84.4053 36.71 88.3843 34.6237 92.845 34.1286C93.0751 33.6284 93.3919 33.1749 93.7767 32.7873L93.7897 32.7738C94.6331 31.9343 95.7893 31.4155 97.0598 31.4155C98.328 31.4155 99.482 31.932 100.325 32.7681L100.33 32.7732L100.338 32.7811C101.177 33.6245 101.696 34.7807 101.696 36.0512C101.696 37.3194 101.18 38.4734 100.343 39.3162L100.33 39.3292C99.4871 40.1686 98.3303 40.6874 97.0598 40.6874C95.7916 40.6874 94.6376 40.1715 93.7953 39.3348L93.7818 39.3219C93.4577 38.9967 93.182 38.6247 92.9648 38.2168C89.6278 38.6647 86.6536 40.262 84.4554 42.5982C82.0455 45.1588 80.5686 48.6117 80.5686 52.4147C80.5686 52.7731 80.5776 53.0938 80.5956 53.374C80.8274 56.9631 82.4169 60.2102 84.847 62.6059C87.281 65.0051 90.5522 66.5501 94.1419 66.7313L94.2184 66.7346C94.1948 66.7324 94.1695 66.7301 94.2196 66.7301C94.295 66.7301 94.3692 66.7346 94.4424 66.7425C95.647 66.7639 96.8111 66.4437 97.8256 65.8547C98.8957 65.2329 99.796 64.3152 100.399 63.1849L115.386 35.0947C115.915 34.1039 117.146 33.7297 118.137 34.2575C118.571 34.4887 118.887 34.8561 119.06 35.2781L131.477 65.2757C131.66 65.7207 131.971 66.0893 132.357 66.347C132.735 66.6002 133.196 66.7431 133.688 66.7431C134.347 66.7431 134.945 66.4753 135.377 66.0437C135.808 65.6116 136.076 65.0146 136.076 64.3552V39.2313C136.076 37.7993 136.66 36.4974 137.604 35.5493L137.616 35.5375C138.564 34.5956 139.864 34.0133 141.294 34.0133C142.302 34.0133 143.266 34.3059 144.088 34.8263C144.905 35.3445 145.579 36.0928 146.01 37.0083L159.67 65.9728C159.781 66.2069 159.958 66.401 160.174 66.5383C160.385 66.6716 160.634 66.7465 160.897 66.7465C161.271 66.7465 161.608 66.5951 161.853 66.3515C162.096 66.1078 162.247 65.7697 162.247 65.3961V36.0546C162.247 34.927 163.161 34.0133 164.288 34.0133H191.204C191.429 33.5581 191.726 33.144 192.082 32.7861L192.095 32.7726C192.938 31.9332 194.094 31.4144 195.365 31.4144C196.633 31.4144 197.787 31.9309 198.63 32.767L198.635 32.7721L198.634 32.7732ZM197.552 35.9477C197.522 35.322 197.263 34.7869 196.87 34.4291L196.836 34.3987C196.443 34.0408 195.886 33.8338 195.26 33.8636C194.635 33.8934 194.099 34.1523 193.741 34.5461L193.711 34.5793C193.354 34.9726 193.147 35.5307 193.176 36.1558C193.206 36.7815 193.464 37.3166 193.858 37.6744L193.891 37.7042C194.285 38.0621 194.842 38.2691 195.468 38.2399C196.094 38.2101 196.629 37.9512 196.987 37.5574L197.016 37.5248C197.374 37.1309 197.581 36.5733 197.552 35.9477ZM119.323 58.04L119.331 58.0479C120.171 58.8908 120.689 60.047 120.689 61.318C120.689 62.5857 120.173 63.7402 119.337 64.5825L119.323 64.596C118.48 65.4355 117.324 65.9542 116.053 65.9542C114.785 65.9542 113.631 65.4377 112.789 64.6011L112.775 64.5881C111.936 63.7447 111.417 62.5885 111.417 61.318C111.417 60.0498 111.933 58.8958 112.77 58.053L112.782 58.04C113.626 57.2006 114.782 56.6818 116.053 56.6818C117.321 56.6818 118.475 57.1977 119.318 58.0344L119.323 58.04ZM14.4934 32.3709C14.1981 33.454 13.0812 34.0932 11.9981 33.7983C10.915 33.503 10.2764 32.3861 10.5712 31.303C11.0832 29.4344 16.8526 10.4074 16.8689 10.3528L16.8926 10.2729C17.8733 7.46923 19.4836 4.26213 21.4658 2.25573C22.6389 1.06798 23.9724 0.251578 25.4488 0.0501503C27.0337 -0.167032 28.6317 0.307281 30.1694 1.74541V1.75329C31.7881 3.26737 33.3844 5.96808 34.8517 10.2887C38.4009 20.7443 41.6491 32.4221 44.3447 42.1143C46.6668 50.4629 48.5736 57.3176 49.8902 60.5494C52.3675 66.6311 54.7481 67.0891 54.7549 67.0908L54.8668 67.1223C54.8753 67.1245 57.9034 68.0287 59.148 63.3779C60.8506 57.0155 60.3825 47.559 60.3813 47.532C60.333 46.4095 61.2039 45.4598 62.3264 45.4114C63.4489 45.3624 64.3987 46.2334 64.447 47.3565C64.4487 47.3857 64.9483 57.4718 63.0865 64.4306C60.9372 72.4658 54.7976 71.2932 53.8951 71.0743L53.8946 71.0771C53.8816 71.0743 49.4125 70.1831 46.1115 62.081C44.7341 58.6989 42.7896 51.7102 40.4225 43.1991C37.7522 33.5964 34.5338 22.0266 30.9931 11.5968C29.7553 7.94973 28.5445 5.79591 27.3995 4.72351L27.3955 4.72744C26.8469 4.21431 26.3816 4.03089 25.9912 4.08434C25.4927 4.15242 24.9362 4.53558 24.3679 5.11061C22.8465 6.65114 21.553 9.27477 20.7355 11.6126C20.3371 12.9269 14.9678 30.6413 14.4934 32.3709ZM22.6175 40.1518L12.096 40.1771L3.83408 67.9134C3.52518 68.9492 2.43533 69.5389 1.3995 69.2305C0.363662 68.9216 -0.225993 67.8312 0.0823379 66.7954L9.17248 36.2796L22.6158 36.2476C22.8347 35.7794 23.1307 35.3546 23.4857 34.9895C24.3055 34.1478 25.4375 33.6262 26.6872 33.6262C27.9362 33.6262 29.0688 34.1478 29.8886 34.9895C30.6943 35.8171 31.1923 36.952 31.1923 38.1983C31.1923 39.4445 30.6938 40.5794 29.8886 41.4065C29.0683 42.2488 27.9368 42.7698 26.6872 42.7698C25.4381 42.7698 24.306 42.2488 23.4857 41.4065C23.1312 41.0424 22.837 40.6182 22.6175 40.1518ZM62.1261 32.7175C63.3752 32.7175 64.5072 33.2385 65.3276 34.0808C66.1333 34.9084 66.6312 36.0433 66.6312 37.2896C66.6312 38.5353 66.1327 39.6707 65.3276 40.4978C64.5072 41.3401 63.3758 41.8611 62.1261 41.8611C60.877 41.8611 59.7444 41.3401 58.9246 40.4978C58.1189 39.6707 57.621 38.5358 57.621 37.2896C57.621 36.0427 58.1195 34.9084 58.9246 34.0808C59.7444 33.2385 60.877 32.7175 62.1261 32.7175ZM118.242 61.2145C118.212 60.5894 117.953 60.0537 117.559 59.6959L117.527 59.6661C117.133 59.3082 116.576 59.1012 115.95 59.1304C115.324 59.1603 114.789 59.4191 114.432 59.8129L114.402 59.8456C114.043 60.2394 113.836 60.797 113.866 61.4221C113.896 62.0483 114.155 62.5829 114.549 62.9407L114.582 62.9711C114.976 63.3289 115.533 63.536 116.158 63.5062C116.784 63.4763 117.319 63.2175 117.677 62.8237L117.707 62.7905C118.065 62.3966 118.271 61.8402 118.242 61.2145ZM99.2474 35.9477C99.2176 35.322 98.9587 34.7869 98.5649 34.4291L98.5322 34.3987C98.1384 34.0408 97.5814 33.8338 96.9557 33.8636C96.33 33.8934 95.795 34.1523 95.4371 34.5461L95.4073 34.5793C95.0489 34.9726 94.8418 35.5307 94.8717 36.1558C94.9015 36.7815 95.1603 37.3166 95.5542 37.6744L95.5874 37.7042C95.9812 38.0621 96.5388 38.2691 97.1639 38.2399C97.7901 38.2101 98.3246 37.9512 98.6825 37.5574L98.7123 37.5248C99.0701 37.1309 99.2766 36.5733 99.2474 35.9477ZM64.3137 37.1855C64.2844 36.5604 64.025 36.0247 63.6318 35.6669L63.5986 35.6371C63.2047 35.2792 62.6477 35.0716 62.022 35.1014C61.3969 35.1313 60.8613 35.3901 60.5034 35.7839L60.4736 35.8166C60.1158 36.2104 59.9087 36.768 59.938 37.3931C59.9678 38.0188 60.2266 38.5538 60.6205 38.9117L60.6531 38.9415C61.0469 39.2999 61.6045 39.507 62.2296 39.4766C62.8553 39.4473 63.3904 39.188 63.7482 38.7947L63.778 38.7615C64.1365 38.3676 64.3441 37.8111 64.3137 37.1855ZM28.8061 38.1983C28.8061 37.5726 28.5726 37.0251 28.1967 36.6487L28.1652 36.6172C27.7888 36.2408 27.2425 36.0079 26.6157 36.0079C25.99 36.0079 25.4426 36.2414 25.0662 36.6172L25.0347 36.6487C24.6582 37.0251 24.4253 37.572 24.4253 38.1983C24.4253 38.825 24.6588 39.3714 25.0347 39.7478L25.0662 39.7793C25.4426 40.1557 25.99 40.3886 26.6157 40.3886C27.2425 40.3886 27.7888 40.1551 28.1652 39.7793L28.1967 39.7478C28.5731 39.3714 28.8061 38.825 28.8061 38.1983Z" fill="white"/>
</svg>
