<svg width="105" height="122" viewBox="0 0 105 122" fill="none" xmlns="http://www.w3.org/2000/svg">
<path d="M8.32371 40.0117C4.07238 40.0117 0.689453 43.3074 0.689453 47.4491V78.4296C0.689453 82.5713 4.07238 85.8669 8.32371 85.8669C12.575 85.8669 15.9584 82.5713 15.9584 78.4296V47.4491C15.9584 43.3074 12.575 40.0117 8.32371 40.0117ZM97.3653 40.0117C93.1135 40.0117 89.7306 43.3074 89.7306 47.4491V78.4296C89.7306 82.5713 93.1135 85.8669 97.3653 85.8669C101.617 85.8669 105 82.5713 105 78.4296V47.4491C105 43.3074 101.617 40.0117 97.3653 40.0117Z" fill="#A4C639"/>
<path d="M40.1244 75.3652C35.8731 75.3652 32.4897 78.6609 32.4897 82.803V113.783C32.4897 117.925 35.8731 121.22 40.1244 121.22C44.3758 121.22 47.7587 117.925 47.7587 113.783V82.803C47.7587 78.6609 44.3758 75.3652 40.1244 75.3652ZM65.5649 75.3652C61.3132 75.3652 57.9303 78.6609 57.9303 82.803V113.783C57.9303 117.925 61.3132 121.22 65.5649 121.22C69.8163 121.22 73.1992 117.925 73.1992 113.783V82.803C73.1992 78.6609 69.8163 75.3652 65.5649 75.3652Z" fill="#A4C639"/>
<path d="M31.7058 0.978662C31.5252 0.980782 31.3482 1.02775 31.1915 1.11513C30.6471 1.40899 30.4683 2.01848 30.7704 2.5501L36.1488 12.0152C25.8019 17.2603 18.8126 27.2277 18.7988 38.6673H86.8893C86.8751 27.2277 79.8862 17.2599 69.5394 12.0152L74.9173 2.55052C75.2198 2.01889 75.0406 1.40899 74.4962 1.11513C74.3395 1.0277 74.1625 0.980726 73.9819 0.978662C73.5952 0.974476 73.2295 1.16285 73.0233 1.52536L67.5748 11.0926C63.1181 9.16699 58.1191 8.08573 52.8438 8.08573C47.5686 8.08573 42.57 9.16657 38.1129 11.0926L32.6644 1.52536C32.5715 1.35742 32.433 1.2176 32.264 1.12118C32.095 1.02476 31.902 0.975461 31.7062 0.978662H31.7058ZM18.7988 41.2869V89.3637C18.7965 90.4173 19.0078 91.4609 19.4206 92.4348C19.8335 93.4086 20.4396 94.2934 21.2044 95.0384C21.9692 95.7834 22.8774 96.3739 23.8771 96.776C24.8767 97.1781 25.948 97.3839 27.0295 97.3816H78.6586C79.7401 97.3839 80.8115 97.1781 81.8112 96.776C82.8108 96.3738 83.7191 95.7833 84.4839 95.0383C85.2486 94.2932 85.8548 93.4084 86.2676 92.4345C86.6804 91.4606 86.8917 90.4169 86.8893 89.3633V41.2874H18.7988V41.2869Z" fill="#A4C639"/>
</svg>
