<svg width="111" height="116" viewBox="0 0 111 116" fill="none" xmlns="http://www.w3.org/2000/svg">
<path d="M103.213 93.7763C102.376 99.805 98.1904 105.022 92.3308 107.34C89.4604 108.498 86.3516 108.847 83.2418 108.498C80.2526 108.151 77.2626 107.223 74.1537 105.486C69.8481 103.165 65.543 99.5734 60.5206 94.2407C68.4138 84.8515 73.1959 76.2734 74.9905 68.6241C75.8278 65.0302 75.947 61.7843 75.5889 58.77C75.1111 55.8725 74.0345 53.2053 72.3595 50.8874C68.6523 45.6716 62.4345 42.6573 55.4983 42.6573C48.5621 42.6573 42.344 45.7876 38.6367 50.8874C36.9618 53.2057 35.8869 55.8725 35.4078 58.77C34.9299 61.7843 35.0492 65.1458 36.0061 68.6245C37.7995 76.2729 42.7021 84.9675 50.476 94.3551C45.5729 99.689 41.1481 103.282 36.8425 105.601C33.7337 107.34 30.7436 108.267 27.7544 108.614C24.6728 108.947 21.5538 108.55 18.6658 107.456C12.8058 105.138 8.62121 99.9193 7.78351 93.8919C7.42536 90.9948 7.66427 88.0974 8.86012 84.8515C9.21827 83.6915 9.81706 82.5344 10.4141 81.1424C11.2518 79.2885 12.2088 77.3165 13.1644 75.3454L13.2849 75.115C21.5354 57.8424 30.3854 40.2234 39.5937 23.0684L39.9523 22.3716C40.9092 20.6345 41.8648 18.7807 42.8227 17.0411C43.7787 15.1859 44.8549 13.4468 46.17 11.9388C48.6814 9.15643 52.03 7.64969 55.7372 7.64969C59.4445 7.64969 62.7927 9.15643 65.304 11.9392C66.6196 13.4468 67.6958 15.1859 68.6527 17.0415C69.6096 18.7807 70.5653 20.6345 71.5222 22.3716L71.8821 23.0684C80.9698 40.339 89.8199 57.958 98.0712 75.2306V75.3454C99.0281 77.2005 99.8645 79.2885 100.821 81.1424C101.42 82.5344 102.017 83.691 102.375 84.8515C103.332 87.8649 103.691 90.7641 103.213 93.7763H103.213ZM55.4983 88.3277C49.0413 80.4464 44.8549 73.027 43.4201 66.7693C42.8231 64.1026 42.7021 61.7843 43.062 59.6975C43.3005 57.8424 44.0189 56.2188 44.9741 54.8268C47.2466 51.6998 51.0731 49.7257 55.4983 49.7257C59.9232 49.7257 63.8693 51.5822 66.0217 54.8268C66.9777 56.2188 67.6957 57.8424 67.9347 59.6975C68.2932 61.7843 68.1736 64.2182 67.5761 66.7693C66.1413 72.9123 61.9554 80.3308 55.4983 88.3277ZM109.431 82.3007C108.834 80.9096 108.235 79.4033 107.638 78.1281C106.681 76.0426 105.724 74.0706 104.887 72.2155L104.767 72.1007C96.5167 54.7121 87.6666 37.0931 78.3387 19.7082L77.9806 19.0105C77.0237 17.2718 76.0667 15.4167 75.1111 13.5623C73.9144 11.4748 72.7181 9.27454 70.8055 7.18654C66.9773 2.5499 61.4776 0 55.6171 0C49.6379 0 44.257 2.5499 40.31 6.9558C38.5171 9.04169 37.2015 11.244 36.0057 13.332C35.0487 15.1859 34.0918 17.0411 33.1353 18.7807L32.7767 19.4741C23.5694 36.8615 14.6 54.4817 6.34831 71.8691L6.22907 72.1007C5.39137 73.9546 4.43443 75.9245 3.47749 78.0125C2.83774 79.3863 2.23984 80.7781 1.68458 82.186C0.129277 86.4738 -0.348543 90.5317 0.248949 94.7039C1.56534 103.398 7.5446 110.702 15.7959 113.946C18.9043 115.222 22.1333 115.802 25.4824 115.802C26.4389 115.802 27.6347 115.686 28.5917 115.569C32.5374 115.104 36.6032 113.832 40.5489 111.628C45.4528 108.962 50.117 105.138 55.3782 99.5734C60.6395 105.138 65.4233 108.963 70.2067 111.628C74.1537 113.832 78.2191 115.104 82.1652 115.569C83.1222 115.686 84.318 115.802 85.2745 115.802C88.6232 115.802 91.9709 115.222 94.961 113.946C103.332 110.702 109.192 103.282 110.507 94.7039C111.464 90.646 110.985 86.591 109.431 82.3003L109.431 82.3007Z" fill="#E0565B"/>
</svg>
