<svg width="147" height="91" viewBox="0 0 147 91" fill="none" xmlns="http://www.w3.org/2000/svg">
<path d="M16.5459 3.19434C16.5459 3.52441 16 4.33691 14.9082 5.63184H14.6797C14.5104 5.56413 14.4046 5.31445 14.3623 4.88281C14.2692 4.01107 13.9688 3.30013 13.4609 2.75C12.9531 2.19141 12.3438 1.91211 11.6328 1.91211C10.9642 1.91211 10.3887 2.15755 9.90625 2.64844C9.42383 3.13086 9.18262 3.71061 9.18262 4.3877C9.18262 4.87858 9.33496 5.40755 9.63965 5.97461C9.94434 6.5332 10.7357 7.42188 12.0137 8.64062C13.3001 9.85938 14.1253 10.8327 14.4893 11.5605C14.8532 12.2799 15.0352 12.9655 15.0352 13.6172C15.0352 15.1237 14.3792 16.4525 13.0674 17.6035C11.764 18.7461 10.2363 19.3174 8.48438 19.3174C7.03711 19.3174 5.84375 18.9831 4.9043 18.3145C3.96484 17.6374 3.49512 17.0872 3.49512 16.6641C3.49512 16.4271 3.75326 15.877 4.26953 15.0137C4.78581 14.1504 5.08203 13.7188 5.1582 13.7188C5.42904 13.7188 5.61947 13.7992 5.72949 13.96C5.84798 14.1123 5.92839 14.4001 5.9707 14.8232C6.09766 16.1436 6.41504 17.0534 6.92285 17.5527C7.43913 18.0521 8.10775 18.3018 8.92871 18.3018C9.82585 18.3018 10.6087 17.9928 11.2773 17.375C11.946 16.7487 12.2803 16.0251 12.2803 15.2041C12.2803 14.7809 12.1491 14.3324 11.8867 13.8584C11.6328 13.376 10.9007 12.5635 9.69043 11.4209C8.48861 10.2699 7.7015 9.29655 7.3291 8.50098C6.95671 7.7054 6.77051 6.93099 6.77051 6.17773C6.77051 4.86589 7.26562 3.65983 8.25586 2.55957C9.24609 1.45931 10.5622 0.90918 12.2041 0.90918C13.4482 0.90918 14.4808 1.19694 15.3018 1.77246C16.1312 2.33952 16.5459 2.81348 16.5459 3.19434ZM30.9012 16.1943C29.547 17.4808 28.5779 18.3187 27.9939 18.708C27.41 19.0973 26.8514 19.292 26.3182 19.292C24.9809 19.292 24.3504 18.1113 24.4266 15.75C23.5802 16.9603 22.7973 17.8532 22.0779 18.4287C21.367 19.0042 20.6307 19.292 19.8689 19.292C19.1242 19.292 18.4894 18.945 17.9646 18.251C17.4484 17.5485 17.1902 16.6895 17.1902 15.6738C17.1902 14.4043 17.5372 13.194 18.2312 12.043C18.9337 10.8919 19.8309 9.96094 20.9227 9.25C22.0145 8.53906 22.9793 8.18359 23.8172 8.18359C24.8751 8.18359 25.6157 8.67025 26.0389 9.64355L28.6287 8.20898H29.3396L28.2225 11.9287C27.6469 13.7992 27.3592 15.0814 27.3592 15.7754C27.3592 16.5033 27.6173 16.8672 28.1336 16.8672C28.4637 16.8672 28.8276 16.6937 29.2254 16.3467C29.6232 15.9912 30.1818 15.4538 30.9012 14.7344V16.1943ZM21.6082 16.8926C22.4546 16.8926 23.2501 16.1732 23.9949 14.7344C24.7482 13.2871 25.1248 11.9541 25.1248 10.7354C25.1248 10.2614 25.019 9.89323 24.8074 9.63086C24.5958 9.36003 24.3123 9.22461 23.9568 9.22461C23.1105 9.22461 22.3064 9.94401 21.5447 11.3828C20.7915 12.8216 20.4148 14.1462 20.4148 15.3564C20.4148 15.8135 20.5249 16.1859 20.7449 16.4736C20.9734 16.7529 21.2612 16.8926 21.6082 16.8926ZM44.6598 16.1943C43.5849 17.2354 41.8668 18.3018 39.5055 19.3936C38.7184 21.6279 37.8339 23.2064 36.8521 24.1289C35.8704 25.0599 34.8463 25.5254 33.7799 25.5254C33.2382 25.5254 32.8023 25.3604 32.4723 25.0303C32.1507 24.7002 31.9898 24.2601 31.9898 23.71C31.9898 22.0426 33.5175 20.5319 36.5729 19.1777L37.3473 16.4482C35.7477 18.234 34.3427 19.127 33.1324 19.127C32.4807 19.127 31.9518 18.8604 31.5455 18.3271C31.1477 17.7939 30.9488 17.083 30.9488 16.1943C30.9488 14.9163 31.2281 13.5452 31.7867 12.0811L33.0055 8.85645L36.6998 8.20898L35.1129 11.9795C34.385 13.7992 34.0211 15.1702 34.0211 16.0928C34.0211 16.8545 34.2792 17.2354 34.7955 17.2354C35.3202 17.2354 35.9169 16.8122 36.5855 15.9658C37.2626 15.1195 37.8297 14.0785 38.2867 12.8428L39.734 8.85645L43.1998 8.20898L39.899 18.1367C41.8372 17.248 43.4241 16.1139 44.6598 14.7344V16.1943ZM36.2047 20.4346C35.1637 20.9001 34.3596 21.4206 33.7926 21.9961C33.234 22.5801 32.9547 23.1514 32.9547 23.71C32.9547 24.277 33.1959 24.5605 33.6783 24.5605C34.6178 24.5605 35.4599 23.1852 36.2047 20.4346ZM74.5764 16.1943C73.5438 17.2692 72.6044 18.0605 71.758 18.5684C70.9201 19.0677 70.0568 19.3174 69.1682 19.3174C68.1695 19.3174 67.3273 18.8773 66.6418 17.9971C65.9647 17.1169 65.6262 15.8304 65.6262 14.1377C65.6262 13.4352 65.715 12.5169 65.8928 11.3828C64.6232 11.4844 63.8446 11.5436 63.5568 11.5605C63.0236 14.3535 62.0842 16.3467 60.7385 17.54C59.4012 18.7249 57.8863 19.3174 56.1936 19.3174C54.9409 19.3174 53.9084 19.0296 53.0959 18.4541C52.2834 17.8701 51.8771 17.3073 51.8771 16.7656C51.8771 16.3678 52.1776 15.915 52.7785 15.4072C53.3879 14.891 53.8068 14.6328 54.0354 14.6328C54.3654 14.6328 54.5305 14.9883 54.5305 15.6992C54.5305 17.4512 55.1187 18.3271 56.2951 18.3271C57.1584 18.3271 57.8736 17.8447 58.4406 16.8799C59.0161 15.915 59.4732 14.3154 59.8117 12.0811C58.7961 12.2249 57.7889 12.7201 56.7902 13.5664C56.7225 13.4733 56.6633 13.1094 56.6125 12.4746C57.5012 11.4928 58.6776 10.8073 60.1418 10.418C60.438 9.04688 60.8104 7.92969 61.259 7.06641C61.7076 6.20312 62.8459 4.87012 64.674 3.06738C63.7938 3.41439 63.0744 3.58789 62.5158 3.58789C62.1519 3.58789 61.6949 3.49056 61.1447 3.2959C60.6031 3.10124 60.1672 3.00391 59.8371 3.00391C59.1177 3.00391 58.5295 3.26628 58.0725 3.79102C57.6154 4.30729 57.3869 4.83626 57.3869 5.37793C57.3869 5.9196 57.6747 6.41471 58.2502 6.86328C58.5126 7.02409 58.6437 7.17643 58.6437 7.32031C58.6437 7.57422 58.4745 7.8916 58.1359 8.27246C57.7974 8.64486 57.48 8.83105 57.1838 8.83105C56.8537 8.83105 56.549 8.59831 56.2697 8.13281C55.9904 7.65885 55.8508 7.13835 55.8508 6.57129C55.8508 5.31868 56.4644 4.06185 57.6916 2.80078C58.9188 1.53971 60.1376 0.90918 61.3479 0.90918C61.6102 0.90918 62.118 1.01921 62.8713 1.23926C63.6245 1.45085 64.1366 1.55664 64.4074 1.55664C64.9491 1.55664 65.4781 1.31966 65.9943 0.845703C66.6376 1.18424 66.9592 1.39583 66.9592 1.48047C66.9592 1.59896 66.701 1.91634 66.1848 2.43262C65.677 2.94043 65.258 3.66829 64.9279 4.61621C64.5979 5.56413 64.2508 7.33301 63.8869 9.92285C64.8602 9.88053 65.7108 9.80436 66.4387 9.69434C66.828 8.38249 67.2469 7.27799 67.6955 6.38086C68.1441 5.48372 68.6561 4.58236 69.2316 3.67676C69.8156 2.7627 70.26 2.2041 70.5646 2.00098C70.8778 1.79785 71.5337 1.5651 72.5324 1.30273C73.5396 1.04036 74.0474 0.90918 74.0559 0.90918C74.1574 0.90918 74.2082 0.93457 74.2082 0.985352C74.2082 1.1123 74.0178 1.44238 73.6369 1.97559C73.2561 2.50033 72.7059 3.45247 71.9865 4.83203C71.2756 6.20312 70.6747 7.66732 70.1838 9.22461C71.0979 9.07227 72.0331 8.66602 72.9895 8.00586C73.0995 8.05664 73.1672 8.13281 73.1926 8.23438C73.218 8.32747 73.2307 8.56868 73.2307 8.95801C72.5028 9.83822 71.3306 10.4645 69.7141 10.8369C69.3671 12.4873 69.1936 13.6553 69.1936 14.3408C69.1936 15.1702 69.3755 15.8304 69.7395 16.3213C70.1034 16.8037 70.59 17.0449 71.1994 17.0449C71.6903 17.0449 72.1812 16.8883 72.6721 16.5752C73.1714 16.2536 73.8062 15.64 74.5764 14.7344V16.1943ZM80.7559 3.27051C80.7559 5.30176 80.0068 6.31738 78.5088 6.31738C77.7809 6.31738 77.1589 6.09733 76.6426 5.65723C77.1335 4.91243 77.5143 4.07454 77.7852 3.14355C78.4538 3.55827 78.9912 3.76562 79.3975 3.76562C79.8545 3.76562 80.3073 3.60059 80.7559 3.27051ZM81.0098 16.1943C79.0293 18.2764 77.5482 19.3174 76.5664 19.3174C76.0247 19.3174 75.5677 19.0423 75.1953 18.4922C74.8229 17.9336 74.6367 17.2354 74.6367 16.3975C74.6367 14.5947 75.2461 12.098 76.4648 8.90723L79.6895 8.23438H79.8418L78.5723 12.208C78.0475 13.8499 77.7852 15.0221 77.7852 15.7246C77.7852 16.0039 77.8444 16.2324 77.9629 16.4102C78.0898 16.5794 78.2464 16.6641 78.4326 16.6641C78.7627 16.6641 79.0928 16.5456 79.4229 16.3086C79.7614 16.0632 80.2904 15.5384 81.0098 14.7344V16.1943ZM95.2223 16.1943C94.1559 17.2523 93.2333 18.0352 92.4547 18.543C91.676 19.0423 90.9355 19.292 90.233 19.292C89.5051 19.292 88.9127 18.9873 88.4557 18.3779C88.0071 17.7601 87.7828 16.9518 87.7828 15.9531C87.7828 15.0729 87.9944 13.9092 88.4176 12.4619L88.9762 10.5449L87.9986 10.5957L88.4049 8.60254L89.6109 8.55176L90.8043 4.59082L94.2066 3.89258L92.9117 8.31055L94.6764 8.20898L94.2574 10.1641L92.2896 10.3164L91.4391 13.1602C91.1513 14.1504 91.0074 14.9375 91.0074 15.5215C91.0074 15.9193 91.1048 16.2451 91.2994 16.499C91.5025 16.7445 91.7607 16.8672 92.0738 16.8672C92.5055 16.8672 92.9329 16.7318 93.3561 16.4609C93.7792 16.1816 94.4013 15.6061 95.2223 14.7344V16.1943ZM106.823 16.1943C106.391 16.5752 105.972 16.846 105.566 17.0068C105.16 17.1592 104.838 17.2354 104.601 17.2354C103.992 17.2354 103.386 16.9984 102.786 16.5244C101.567 18.3695 100.17 19.292 98.5961 19.292C97.6143 19.292 96.8187 18.9238 96.2094 18.1875C95.6 17.4512 95.2953 16.4736 95.2953 15.2549C95.2953 13.3252 95.9809 11.6706 97.352 10.291C98.723 8.90299 100.361 8.20898 102.265 8.20898C102.984 8.20898 103.509 8.28939 103.839 8.4502C104.178 8.60254 104.385 8.78451 104.461 8.99609C104.537 9.20768 104.576 9.47428 104.576 9.7959C104.576 11.3786 104.144 13.321 103.281 15.623C103.712 16.0208 104.165 16.2197 104.639 16.2197C105.206 16.2197 105.934 15.7246 106.823 14.7344V16.1943ZM102.633 9.09766C102.506 9.04688 102.324 9.02148 102.087 9.02148C100.987 9.02148 100.124 9.59701 99.4975 10.748C98.8796 11.8991 98.5707 13.2448 98.5707 14.7852C98.5707 15.64 98.7061 16.3044 98.977 16.7783C99.2478 17.2523 99.6244 17.4893 100.107 17.4893C100.708 17.4893 101.359 16.9349 102.062 15.8262C101.266 14.8275 100.869 13.7526 100.869 12.6016C100.869 11.2474 101.457 10.0794 102.633 9.09766ZM127.281 16.1943C126.164 17.2523 125.229 18.0352 124.476 18.543C123.722 19.0423 123.045 19.292 122.444 19.292C121.776 19.292 121.259 19.0254 120.896 18.4922C120.54 17.959 120.362 17.2354 120.362 16.3213C119.431 17.3454 118.598 18.1029 117.861 18.5938C117.125 19.0762 116.406 19.3174 115.703 19.3174C115.06 19.3174 114.544 19.0508 114.154 18.5176C113.765 17.9844 113.57 17.2607 113.57 16.3467C113.57 14.5863 114.163 12.1064 115.348 8.90723L118.725 8.23438C117.337 12.2884 116.643 14.891 116.643 16.042C116.643 16.8545 116.947 17.2607 117.557 17.2607C117.997 17.2607 118.543 16.9053 119.194 16.1943C119.846 15.4749 120.252 14.8486 120.413 14.3154L122.076 8.90723L125.529 8.20898C124.734 10.7565 124.188 12.5465 123.892 13.5791C123.595 14.6117 123.447 15.3353 123.447 15.75C123.447 16.5456 123.718 16.9434 124.26 16.9434C124.7 16.9434 125.352 16.5413 126.215 15.7373L127.281 14.7344V16.1943ZM131.391 8.75488C131.975 8.60254 132.564 8.47982 133.156 8.38672C133.748 8.28516 134.104 8.23438 134.222 8.23438C134.307 8.23438 134.349 8.26823 134.349 8.33594C134.349 8.46289 134.316 8.59408 134.248 8.72949C134.112 9.11882 134.045 9.49121 134.045 9.84668C134.045 10.2868 134.299 10.8877 134.806 11.6494C135.314 12.4111 135.568 13.1178 135.568 13.7695C135.568 15.0645 134.946 16.3128 133.702 17.5146C132.466 18.7165 131.184 19.3174 129.855 19.3174C129.28 19.3174 128.755 19.165 128.281 18.8604C127.807 18.5557 127.57 18.2298 127.57 17.8828C127.57 17.6797 127.803 17.2946 128.268 16.7275C128.742 16.1605 129.081 15.877 129.284 15.877C129.555 15.877 129.796 16.224 130.008 16.918C130.219 17.612 130.583 17.959 131.099 17.959C131.616 17.959 132.098 17.722 132.547 17.248C133.004 16.7656 133.232 16.2493 133.232 15.6992C133.232 15.166 132.944 14.4551 132.369 13.5664C131.793 12.6777 131.413 11.9329 131.226 11.332C130.245 12.9147 129 14.5355 127.494 16.1943H127.202V15.0518C129.276 12.8428 130.672 10.7438 131.391 8.75488ZM141.913 14.1123C141.413 13.3167 141.164 12.4661 141.164 11.5605C141.164 10.8158 141.392 9.85514 141.849 8.67871C142.315 7.50228 142.615 6.63477 142.751 6.07617C142.886 5.51758 142.954 4.91243 142.954 4.26074C142.954 3.736 142.916 3.28743 142.839 2.91504C142.763 2.54264 142.725 2.33105 142.725 2.28027C142.725 2.12793 143.157 1.86979 144.02 1.50586C144.892 1.14193 145.395 0.959961 145.531 0.959961C145.692 0.959961 145.844 1.20964 145.988 1.70898C146.132 2.20833 146.204 2.77116 146.204 3.39746C146.204 4.25228 146.051 5.11979 145.747 6C145.442 6.87174 144.921 7.87044 144.185 8.99609C143.457 10.1217 142.971 10.9554 142.725 11.4971C142.48 12.0387 142.357 12.5465 142.357 13.0205C142.357 13.0544 142.374 13.1855 142.408 13.4141C142.442 13.6426 142.459 13.778 142.459 13.8203C142.459 13.8965 142.277 13.9938 141.913 14.1123ZM143.144 16.2959C143.195 16.2959 143.22 16.3382 143.22 16.4229C143.22 16.5075 143.089 16.8757 142.827 17.5273C142.564 18.1706 142.289 18.6276 142.002 18.8984C141.714 19.1608 141.312 19.292 140.796 19.292C140.305 19.292 139.809 19.1735 139.31 18.9365C138.811 18.6911 138.561 18.5218 138.561 18.4287C138.561 18.4033 138.603 18.3145 138.688 18.1621C139.128 17.5697 139.467 16.791 139.704 15.8262C139.729 15.623 139.771 15.5215 139.831 15.5215C139.932 15.5215 140.046 15.5977 140.173 15.75C140.74 16.2832 141.337 16.5498 141.963 16.5498C142.234 16.5498 142.488 16.5075 142.725 16.4229C142.971 16.3382 143.11 16.2959 143.144 16.2959Z" fill="#13A049"/>
<path d="M8.48814 87.5067C21.31 83.5124 34.469 71.0988 42.0237 59.3673C46.6413 52.1968 50.5362 43.8336 54.1895 36.0002" stroke="#13A049" stroke-width="3" stroke-linecap="round"/>
<path d="M0.392094 90.7025L11.1288 80.6113L14.7299 90.3975L0.392094 90.7025Z" fill="#13A049"/>
</svg>
