<svg width="150" height="54" viewBox="0 0 150 54" fill="none" xmlns="http://www.w3.org/2000/svg">
<path d="M148.976 24.5799L148.982 24.5858C149.611 25.2184 150 26.0855 150 27.0384C150 27.9895 149.613 28.855 148.986 29.4872L148.976 29.4969C148.344 30.1265 147.476 30.5156 146.524 30.5156C145.572 30.5156 144.707 30.1286 144.075 29.5011L144.065 29.4914C143.798 29.2234 143.575 28.9129 143.405 28.5719H124.747V49.0475C124.747 50.1734 124.29 51.1912 123.554 51.9288C122.816 52.666 121.798 53.1222 120.673 53.1222C119.886 53.1222 119.133 52.8939 118.492 52.4871C117.855 52.0833 117.328 51.4984 116.99 50.7835L106.745 29.0605C106.675 28.9124 106.564 28.7896 106.427 28.7031C106.295 28.6191 106.137 28.5719 105.97 28.5719C105.731 28.5719 105.518 28.6651 105.367 28.8154L105.361 28.8213C105.211 28.9715 105.118 29.1846 105.118 29.4239V48.2668C105.118 49.6062 104.575 50.8198 103.697 51.698C102.819 52.5761 101.606 53.1192 100.266 53.1192C99.2902 53.1192 98.3563 52.8222 97.5698 52.2959C96.7899 51.7748 96.1603 51.0253 95.7856 50.1172L87.7101 30.6054L77.99 48.8238C77.2634 50.1852 76.1831 51.2887 74.8994 52.0339C73.66 52.7534 72.2282 53.1412 70.7399 53.107L70.6648 53.1091C70.6407 53.1091 70.6374 53.1066 70.5648 53.1028L70.4567 53.0977C66.9855 52.9205 63.8324 51.4359 61.4942 49.131C59.1526 46.8228 57.6212 43.6895 57.3971 40.2217C57.3756 39.8849 57.3646 39.5815 57.3646 39.311C57.3646 35.6545 58.7905 32.3276 61.1169 29.856C63.3041 27.5325 66.2884 25.9678 69.6339 25.5965C69.8065 25.2213 70.044 24.8812 70.3327 24.5904L70.3424 24.5803C70.9749 23.9507 71.8421 23.5616 72.795 23.5616C73.7461 23.5616 74.6116 23.949 75.2438 24.5761L75.2476 24.5799L75.2535 24.5858C75.8831 25.2184 76.2721 26.0855 76.2721 27.0384C76.2721 27.9895 75.8852 28.855 75.2577 29.4872L75.2476 29.4969C74.6154 30.1265 73.7478 30.5156 72.795 30.5156C71.8438 30.5156 70.9783 30.1286 70.3466 29.5011L70.3365 29.4914C70.0934 29.2475 69.8866 28.9686 69.7238 28.6626C67.221 28.9985 64.9903 30.1965 63.3416 31.9486C61.5343 33.8691 60.4266 36.4588 60.4266 39.311C60.4266 39.5798 60.4333 39.8203 60.4468 40.0305C60.6207 42.7223 61.8128 45.1576 63.6353 46.9544C65.4609 48.7538 67.9143 49.9126 70.6066 50.0484L70.6639 50.051C70.6462 50.0493 70.6272 50.0476 70.6648 50.0476C70.7213 50.0476 70.777 50.051 70.8319 50.0569C71.7354 50.0729 72.6085 49.8328 73.3693 49.391C74.1719 48.9247 74.8471 48.2364 75.2995 47.3887L86.5399 26.321C86.9361 25.5779 87.8599 25.2973 88.6026 25.6931C88.9283 25.8665 89.1655 26.1421 89.2955 26.4586L98.6079 48.9568C98.7454 49.2906 98.9784 49.567 99.2678 49.7602C99.5514 49.9501 99.897 50.0573 100.266 50.0573C100.76 50.0573 101.209 49.8564 101.533 49.5328C101.856 49.2087 102.057 48.761 102.057 48.2664V29.4235C102.057 28.3495 102.495 27.373 103.203 26.662L103.212 26.6531C103.923 25.9467 104.898 25.51 105.97 25.51C106.726 25.51 107.45 25.7294 108.066 26.1197C108.679 26.5084 109.184 27.0696 109.507 27.7562L119.753 49.4796C119.836 49.6552 119.968 49.8007 120.131 49.9037C120.289 50.0037 120.476 50.0598 120.673 50.0598C120.953 50.0598 121.206 49.9463 121.39 49.7636C121.572 49.5809 121.685 49.3273 121.685 49.0471V27.0409C121.685 26.1953 122.371 25.51 123.216 25.51H143.403C143.572 25.1686 143.795 24.858 144.062 24.5896L144.071 24.5795C144.704 23.9499 145.571 23.5608 146.524 23.5608C147.475 23.5608 148.341 23.9482 148.972 24.5753L148.977 24.5791L148.976 24.5799ZM148.164 26.9607C148.142 26.4915 147.948 26.0902 147.652 25.8218L147.627 25.799C147.332 25.5306 146.914 25.3753 146.445 25.3977C145.976 25.4201 145.574 25.6142 145.306 25.9096L145.284 25.9345C145.015 26.2294 144.86 26.6481 144.882 27.1169C144.904 27.5861 145.098 27.9874 145.394 28.2558L145.418 28.2782C145.714 28.5466 146.132 28.7019 146.601 28.6799C147.07 28.6575 147.472 28.4634 147.74 28.168L147.762 28.1436C148.031 27.8482 148.186 27.43 148.164 26.9607ZM89.4925 43.53L89.4984 43.5359C90.128 44.1681 90.5171 45.0353 90.5171 45.9885C90.5171 46.9393 90.1302 47.8052 89.5027 48.4369L89.4925 48.447C88.8604 49.0766 87.9928 49.4657 87.0399 49.4657C86.0888 49.4657 85.2233 49.0783 84.5916 48.4508L84.5815 48.4411C83.9519 47.8085 83.5628 46.9414 83.5628 45.9885C83.5628 45.0374 83.9502 44.1719 84.5772 43.5397L84.587 43.53C85.2195 42.9004 86.0867 42.5113 87.0395 42.5113C87.9907 42.5113 88.8562 42.8983 89.4883 43.5258L89.4925 43.53ZM10.8702 24.2782C10.6487 25.0905 9.81102 25.5699 8.9987 25.3488C8.18637 25.1272 7.70742 24.2896 7.92854 23.4772C8.31255 22.0758 12.6396 7.80553 12.6518 7.7646L12.6696 7.70468C13.4051 5.60192 14.6128 3.1966 16.0995 1.6918C16.9793 0.800985 17.9794 0.188684 19.0867 0.0376127C20.2754 -0.125274 21.4739 0.23046 22.6272 1.30906V1.31496C23.8412 2.45053 25.0384 4.47606 26.1389 7.71649C28.8008 15.5583 31.2369 24.3166 33.2587 31.5857C35.0002 37.8471 36.4303 42.9882 37.4178 45.4121C39.2758 49.9733 41.0612 50.3168 41.0663 50.3181L41.1502 50.3417C41.1566 50.3434 43.4277 51.0215 44.3611 47.5334C45.6381 42.7616 45.287 35.6693 45.2861 35.649C45.2498 34.8072 45.9031 34.0948 46.7449 34.0585C47.5868 34.0218 48.2991 34.6751 48.3354 35.5174C48.3367 35.5393 48.7114 43.1038 47.315 48.3229C45.703 54.3493 41.0983 53.4699 40.4215 53.3058L40.421 53.3079C40.4113 53.3058 37.0595 52.6373 34.5837 46.5607C33.5507 44.0242 32.0923 38.7827 30.317 32.3993C28.3143 25.1973 25.9005 16.52 23.2449 8.69761C22.3166 5.9623 21.4085 4.34693 20.5497 3.54263L20.5468 3.54558C20.1353 3.16073 19.7863 3.02316 19.4935 3.06325C19.1196 3.11431 18.7023 3.40169 18.2761 3.83296C17.135 4.98835 16.1649 6.95607 15.5517 8.70943C15.253 9.69519 11.2259 22.981 10.8702 24.2782ZM16.9633 30.1138L9.07212 30.1328L2.87568 50.935C2.64401 51.7119 1.82662 52.1541 1.04974 51.9229C0.272868 51.6912 -0.169373 50.8734 0.0618755 50.0965L6.87948 27.2097L16.962 27.1857C17.1261 26.8346 17.3481 26.516 17.6144 26.2421C18.2292 25.6108 19.0783 25.2196 20.0155 25.2196C20.9523 25.2196 21.8018 25.6108 22.4166 26.2421C23.0209 26.8628 23.3943 27.714 23.3943 28.6487C23.3943 29.5834 23.0204 30.4345 22.4166 31.0549C21.8013 31.6866 20.9527 32.0773 20.0155 32.0773C19.0787 32.0773 18.2296 31.6866 17.6144 31.0549C17.3485 30.7818 17.1278 30.4636 16.9633 30.1138ZM46.5947 24.5381C47.5315 24.5381 48.3805 24.9289 48.9958 25.5606C49.6001 26.1813 49.9735 27.0325 49.9735 27.9672C49.9735 28.9015 49.5997 29.753 48.9958 30.3733C48.3805 31.0051 47.5319 31.3958 46.5947 31.3958C45.6579 31.3958 44.8084 31.0051 44.1936 30.3733C43.5893 29.753 43.2159 28.9019 43.2159 27.9672C43.2159 27.0321 43.5897 26.1813 44.1936 25.5606C44.8084 24.9289 45.6579 24.5381 46.5947 24.5381ZM88.6815 45.9109C88.6591 45.442 88.465 45.0403 88.1696 44.7719L88.1451 44.7496C87.8497 44.4812 87.432 44.3259 86.9627 44.3478C86.4935 44.3702 86.0922 44.5643 85.8238 44.8597L85.8014 44.8842C85.5326 45.1796 85.3773 45.5978 85.3997 46.0666C85.4221 46.5363 85.6162 46.9371 85.9116 47.2055L85.9365 47.2283C86.2318 47.4967 86.65 47.652 87.1189 47.6296C87.5881 47.6073 87.9894 47.4131 88.2578 47.1177L88.2802 47.0929C88.5486 46.7975 88.7034 46.3801 88.6815 45.9109ZM74.4357 26.9607C74.4133 26.4915 74.2192 26.0902 73.9238 25.8218L73.8993 25.799C73.6039 25.5306 73.1861 25.3753 72.7169 25.3977C72.2477 25.4201 71.8464 25.6142 71.578 25.9096L71.5556 25.9345C71.2868 26.2294 71.1315 26.6481 71.1539 27.1169C71.1762 27.5861 71.3704 27.9874 71.6657 28.2558L71.6906 28.2782C71.986 28.5466 72.4042 28.7019 72.873 28.6799C73.3427 28.6575 73.7436 28.4634 74.012 28.168L74.0343 28.1436C74.3027 27.8482 74.4576 27.43 74.4357 26.9607ZM48.2354 27.8891C48.2134 27.4203 48.0189 27.0186 47.7239 26.7502L47.699 26.7278C47.4036 26.4594 46.9859 26.3037 46.5166 26.3261C46.0478 26.3484 45.6461 26.5426 45.3777 26.8379L45.3553 26.8624C45.0869 27.1578 44.9317 27.576 44.9536 28.0448C44.976 28.5141 45.1701 28.9154 45.4655 29.1838L45.4899 29.2061C45.7853 29.4749 46.2035 29.6302 46.6723 29.6074C47.1416 29.5855 47.5429 29.391 47.8113 29.096L47.8337 29.0711C48.1025 28.7757 48.2582 28.3584 48.2354 27.8891ZM21.6047 28.6487C21.6047 28.1794 21.4296 27.7688 21.1477 27.4865L21.124 27.4629C20.8417 27.1806 20.432 27.0059 19.9619 27.0059C19.4926 27.0059 19.0821 27.181 18.7997 27.4629L18.7761 27.4865C18.4938 27.7688 18.3191 28.179 18.3191 28.6487C18.3191 29.1188 18.4942 29.5285 18.7761 29.8108L18.7997 29.8345C19.0821 30.1168 19.4926 30.2915 19.9619 30.2915C20.432 30.2915 20.8417 30.1164 21.124 29.8345L21.1477 29.8108C21.43 29.5285 21.6047 29.1188 21.6047 28.6487Z" fill="#0A2647"/>
</svg>



