<svg width="110" height="108" viewBox="0 0 110 108" fill="none" xmlns="http://www.w3.org/2000/svg">
<path d="M24.09 0H85.91C99.2148 0 110 10.5891 110 23.652V84.348C110 97.4109 99.2148 108 85.91 108H24.09C10.7852 108 0 97.4109 0 84.348V23.652C0 10.5891 10.7852 0 24.09 0Z" fill="url(#paint0_linear_0_1)"/>
<path d="M35.2523 78.3893L35.2626 78.3927L31.5015 84.7883C30.1287 87.123 27.0882 87.9229 24.7103 86.575C22.3328 85.2271 21.5177 82.2419 22.8906 79.9072L25.6612 75.1957L25.9272 74.7435C26.402 74.0736 27.5737 72.9168 29.9177 73.1345C29.9177 73.1345 35.4336 73.7221 35.8328 76.5369C35.8328 76.5369 35.8869 77.4629 35.2523 78.3893V78.3893ZM88.595 62.0543H76.8671C76.0683 62.0016 75.7198 61.7215 75.5823 61.5586L75.5737 61.5439L63.0195 40.1945L63.0032 40.205L62.2504 39.1453C61.0163 37.2924 59.057 42.0309 59.057 42.0309C56.7173 47.3111 59.3891 53.3139 60.3202 55.1284L77.7578 84.782C79.1302 87.1162 82.1707 87.9165 84.549 86.5682C86.9265 85.2203 87.7416 82.2351 86.3683 79.9005L82.0083 72.4856C81.9236 72.3059 81.7767 71.8182 82.6709 71.8161H88.595C91.3407 71.8161 93.5665 69.6308 93.5665 66.935C93.5665 64.2392 91.3407 62.0539 88.595 62.0539V62.0543ZM65.8155 68.6896C65.8155 68.6896 66.4416 71.8161 64.0194 71.8161H20.6644C17.9187 71.8161 15.6929 69.6308 15.6929 66.935C15.6929 64.2392 17.9187 62.0539 20.6644 62.0539H31.8105C33.61 61.9518 34.0362 60.9317 34.0362 60.9317L34.0466 60.9368L48.5958 36.1947L48.5915 36.1938C48.8566 35.7158 48.6357 35.264 48.5975 35.1927L43.7923 27.0214C42.4194 24.6872 43.2341 21.7016 45.612 20.3541C47.9899 19.0062 51.0304 19.8057 52.4032 22.1403L54.6316 25.93L56.8561 22.1471C58.2289 19.8128 61.2694 19.0125 63.6473 20.3608C66.0252 21.7087 66.8399 24.6935 65.467 27.0282L45.221 61.4574C45.1325 61.6671 45.1054 61.9961 45.7641 62.0539H57.8659L57.8684 62.1699C57.8684 62.1699 64.8629 62.2767 65.8155 68.6896Z" fill="white"/>
<defs>
<linearGradient id="paint0_linear_0_1" x1="55" y1="0" x2="55" y2="108" gradientUnits="userSpaceOnUse">
<stop stop-color="#17C9FB"/>
<stop offset="1" stop-color="#1A74E8"/>
</linearGradient>
</defs>
</svg>
