<svg width="26" height="21" viewBox="0 0 26 21" fill="none" xmlns="http://www.w3.org/2000/svg">
<path d="M25.5 0.998535C24.525 1.57729 22.5688 2.36604 21.4188 2.59354C21.385 2.60229 21.3575 2.61353 21.325 2.62228C20.3088 1.61978 18.9163 0.998535 17.375 0.998535C14.2688 0.998535 11.75 3.51728 11.75 6.62353C11.75 6.78728 11.7362 7.08853 11.75 7.24853C7.55875 7.24853 4.36875 5.05353 2.08125 2.24854C1.8325 2.87354 1.72375 3.86104 1.72375 4.78854C1.72375 6.53979 3.0925 8.25979 5.22375 9.32604C4.83125 9.42729 4.39875 9.49979 3.94875 9.49979C3.2225 9.49979 2.45375 9.30853 1.75 8.72853C1.75 8.74978 1.75 8.76979 1.75 8.79229C1.75 11.2398 4.3475 12.906 6.6575 13.3698C6.18875 13.646 5.24375 13.6735 4.7825 13.6735C4.4575 13.6735 3.3075 13.5248 3 13.4673C3.6425 15.4735 5.96 16.601 8.16875 16.641C6.44125 17.996 5.2425 18.4985 1.705 18.4985H0.5C2.735 19.931 5.58125 20.9998 8.43375 20.9998C17.7213 20.9998 23 13.921 23 7.24853C23 7.14103 22.9975 6.91604 22.9938 6.68979C22.9938 6.66728 23 6.64603 23 6.62353C23 6.58978 22.99 6.55728 22.99 6.52353C22.9862 6.35353 22.9825 6.19479 22.9788 6.11229C23.9662 5.39979 24.8225 4.51104 25.5 3.49854C24.5938 3.90104 23.6213 4.17104 22.6 4.29354C23.6425 3.66854 25.1238 2.17854 25.5 0.998535Z" fill="#13A049"/>
</svg>
