<svg width="500" height="392" viewBox="0 0 500 392" fill="none" xmlns="http://www.w3.org/2000/svg">
<g clip-path="url(#clip0_769_5420)">
<path d="M498.27 379.547C497.396 383.416 495.767 387.074 493.476 390.313C493.201 390.739 492.906 391.152 492.605 391.566H436.249C436.086 391.152 435.929 390.733 435.785 390.313C433.79 384.645 432.724 378.692 432.627 372.685C432.545 367.715 433.799 361.956 438.254 359.75C439.528 359.118 440.952 358.85 442.369 358.975C443.785 359.1 445.14 359.614 446.283 360.459C447.427 361.305 448.315 362.45 448.85 363.767C449.385 365.085 449.546 366.525 449.315 367.928C450.964 363.093 453.104 358.44 455.701 354.041C457.9 350.319 460.99 346.446 465.301 346.095C470.302 345.681 474.476 350.538 475.19 355.508C475.754 359.474 474.714 363.429 473.367 367.258C474.227 365.535 475.459 364.024 476.973 362.834C478.487 361.644 480.246 360.804 482.123 360.375C484.001 359.946 485.95 359.938 487.83 360.353C489.711 360.767 491.477 361.593 493 362.771C497.888 366.549 499.498 373.493 498.27 379.547Z" fill="#F2F2F2"/>
<path d="M69.1461 213.147C69.013 213.147 68.8834 213.105 68.7762 213.026C51.8375 200.611 37.7851 198.251 28.9816 198.461C19.4532 198.686 13.844 201.881 13.7885 201.913C13.645 201.995 13.4749 202.017 13.3153 201.974C13.1557 201.931 13.0195 201.827 12.9363 201.685C12.8531 201.542 12.8297 201.372 12.8711 201.212C12.9125 201.052 13.0155 200.915 13.1575 200.83C13.3932 200.693 19.042 197.461 28.8654 197.211C37.8826 196.975 52.2538 199.362 69.5171 212.015C69.6237 212.093 69.7029 212.203 69.7434 212.329C69.7838 212.455 69.7834 212.59 69.7423 212.716C69.7011 212.841 69.6213 212.951 69.5142 213.028C69.4072 213.106 69.2783 213.148 69.1461 213.147Z" fill="#CCCCCC"/>
<path d="M153.343 283.222C153.304 283.222 153.265 283.218 153.227 283.211C134.305 279.662 116.921 267.161 100.081 244.992C94.6737 237.801 88.7546 231.01 82.3699 224.672C82.3112 224.614 82.2644 224.545 82.2321 224.47C82.1999 224.394 82.1829 224.313 82.1822 224.23C82.1814 224.148 82.1968 224.066 82.2276 223.99C82.2583 223.914 82.3038 223.844 82.3614 223.785C82.4191 223.727 82.4877 223.68 82.5634 223.648C82.6392 223.615 82.7205 223.598 82.8028 223.598C82.8851 223.597 82.9667 223.612 83.0431 223.643C83.1194 223.674 83.1889 223.719 83.2477 223.777C89.6756 230.158 95.6349 236.995 101.079 244.234C117.722 266.144 134.856 278.49 153.458 281.979C153.611 282.008 153.748 282.093 153.842 282.217C153.936 282.342 153.981 282.497 153.966 282.653C153.952 282.808 153.88 282.953 153.765 283.058C153.649 283.163 153.499 283.222 153.343 283.222Z" fill="#CCCCCC"/>
<path d="M171.398 284.022C171.236 284.021 171.081 283.959 170.965 283.847C170.849 283.736 170.78 283.583 170.773 283.422C170.766 283.261 170.822 283.103 170.928 282.982C171.034 282.861 171.183 282.785 171.344 282.771C197.108 280.516 224.568 264.736 256.364 246.464L259.442 244.695C279.205 233.346 297.718 230.194 314.469 235.322C340.304 243.232 352.939 268.522 353.064 268.776C353.137 268.926 353.148 269.098 353.094 269.255C353.04 269.412 352.926 269.542 352.777 269.615C352.628 269.688 352.455 269.699 352.298 269.645C352.141 269.591 352.012 269.477 351.938 269.328C351.816 269.078 339.403 244.261 314.09 236.517C297.687 231.499 279.511 234.616 260.066 245.782L256.988 247.551C225.064 265.897 197.493 281.741 171.453 284.019C171.435 284.021 171.416 284.022 171.398 284.022Z" fill="#CCCCCC"/>
<path d="M419.148 181.08C419.148 192.155 408.907 190.48 396.274 190.48C383.642 190.48 373.401 192.155 373.401 181.08C373.401 170.005 378.403 150.373 396.274 150.373C414.761 150.373 419.148 170.005 419.148 181.08Z" fill="#2F2E41"/>
<path d="M347.52 383.391L340.208 381.034L345.819 351.707L356.612 355.186L347.52 383.391Z" fill="#FFB8B8"/>
<path d="M347.1 391.081L323.522 383.481L323.619 383.182C324.007 381.977 324.629 380.86 325.449 379.895C326.269 378.931 327.271 378.137 328.398 377.559C329.525 376.982 330.754 376.632 332.017 376.53C333.279 376.427 334.549 376.575 335.754 376.963L350.155 381.605L347.1 391.081Z" fill="#2F2E41"/>
<path d="M437.28 383.634L429.597 383.633L425.941 354H437.281L437.28 383.634Z" fill="#FFB8B8"/>
<path d="M439.239 391.081L414.466 391.08V390.767C414.466 389.501 414.716 388.247 415.2 387.077C415.685 385.907 416.395 384.844 417.29 383.949C418.186 383.054 419.249 382.343 420.419 381.859C421.588 381.374 422.842 381.125 424.109 381.125L439.239 381.126L439.239 391.081Z" fill="#2F2E41"/>
<path d="M441.718 271.952C440.555 271.95 439.41 271.661 438.384 271.112C437.359 270.562 436.485 269.768 435.839 268.8C435.194 267.833 434.797 266.721 434.684 265.563C434.571 264.405 434.744 263.237 435.19 262.162L409.383 203.519C409.125 202.815 409.01 202.067 409.043 201.319C409.076 200.57 409.257 199.835 409.575 199.157C409.894 198.479 410.344 197.871 410.899 197.367C411.454 196.864 412.103 196.475 412.809 196.224C413.515 195.973 414.264 195.865 415.012 195.905C415.761 195.945 416.493 196.132 417.169 196.457C417.844 196.782 418.448 197.237 418.947 197.797C419.445 198.357 419.827 199.009 420.072 199.718L445.133 258.659C445.441 258.824 445.736 259.012 446.015 259.222C446.776 259.799 447.412 260.524 447.885 261.353C448.359 262.182 448.66 263.098 448.771 264.047C448.881 264.995 448.799 265.956 448.529 266.872C448.258 267.788 447.806 268.64 447.198 269.376C446.531 270.183 445.694 270.833 444.747 271.278C443.799 271.723 442.765 271.953 441.718 271.952Z" fill="#FFB8B8"/>
<path d="M350.831 276.338C349.784 276.34 348.749 276.11 347.802 275.665C346.854 275.22 346.017 274.57 345.351 273.763C344.743 273.027 344.29 272.175 344.02 271.259C343.75 270.343 343.668 269.382 343.778 268.434C343.889 267.485 344.19 266.569 344.663 265.74C345.137 264.911 345.773 264.186 346.534 263.609C346.813 263.399 347.108 263.21 347.416 263.046L372.485 204.084C372.731 203.379 373.115 202.729 373.614 202.172C374.112 201.615 374.716 201.162 375.39 200.839C376.065 200.516 376.796 200.33 377.543 200.291C378.289 200.252 379.036 200.361 379.74 200.611C380.445 200.862 381.093 201.249 381.647 201.751C382.201 202.252 382.65 202.859 382.97 203.535C383.289 204.211 383.471 204.943 383.506 205.69C383.541 206.437 383.428 207.183 383.174 207.886L357.359 266.549C357.804 267.624 357.978 268.792 357.865 269.95C357.752 271.107 357.355 272.219 356.709 273.187C356.064 274.155 355.19 274.949 354.164 275.499C353.139 276.048 351.994 276.337 350.831 276.338Z" fill="#FFB8B8"/>
<path d="M396.198 190.461C404.698 190.461 411.589 183.57 411.589 175.069C411.589 166.569 404.698 159.678 396.198 159.678C387.697 159.678 380.806 166.569 380.806 175.069C380.806 183.57 387.697 190.461 396.198 190.461Z" fill="#FFB8B8"/>
<path d="M385.242 250.361L385.114 250.26C376.719 243.632 373.576 221.388 372.45 208.718C372.207 206.111 372.989 203.513 374.629 201.472C376.269 199.432 378.639 198.111 381.236 197.788L409.601 194.197C411.095 194.008 412.613 194.156 414.042 194.629C415.472 195.102 416.778 195.89 417.864 196.933C418.95 197.976 419.789 199.249 420.319 200.659C420.849 202.069 421.057 203.579 420.928 205.079L417.875 240.539L385.242 250.361Z" fill="#0A2647"/>
<path d="M425.847 365.719C425.196 365.72 424.565 365.495 424.062 365.082C423.559 364.669 423.215 364.094 423.089 363.456L407.719 287.197C407.685 287.029 407.606 286.874 407.49 286.748C407.374 286.621 407.226 286.529 407.061 286.481C406.897 286.433 406.722 286.431 406.556 286.475C406.391 286.519 406.24 286.608 406.121 286.731L374.61 320.685L359.103 359.294C358.863 359.935 358.399 360.467 357.796 360.792C357.193 361.116 356.493 361.21 355.826 361.057L344.253 358.386C343.88 358.3 343.529 358.139 343.221 357.913C342.912 357.687 342.653 357.401 342.459 357.072C342.264 356.743 342.139 356.377 342.09 355.998C342.041 355.619 342.07 355.234 342.175 354.866L352.103 319.989C353.15 316.305 354.814 312.825 357.024 309.697L383.747 271.84L385.007 249.786L417.924 238.393L418.046 238.46C440.678 250.984 440.565 296.371 440.445 344.423C440.431 350.031 440.416 355.831 440.442 361.494C440.447 362.191 440.192 362.866 439.726 363.386C439.261 363.906 438.619 364.234 437.925 364.307L426.157 365.702C426.054 365.713 425.951 365.719 425.847 365.719Z" fill="#2F2E41"/>
<path d="M378.414 173.561H384.502L387.187 166.041L387.724 173.561H390.634L392.201 169.174L392.514 173.561H414.134C414.134 169.24 412.418 165.095 409.362 162.04C406.306 158.984 402.162 157.268 397.841 157.268H394.707C390.386 157.268 386.242 158.984 383.186 162.04C380.131 165.095 378.414 169.24 378.414 173.561Z" fill="#2F2E41"/>
<path d="M500 390.939C499.999 391.105 499.933 391.264 499.816 391.382C499.698 391.499 499.539 391.565 499.373 391.566H260.613C260.446 391.566 260.287 391.5 260.169 391.382C260.052 391.265 259.986 391.105 259.986 390.939C259.986 390.773 260.052 390.614 260.169 390.496C260.287 390.379 260.446 390.312 260.613 390.312H499.373C499.539 390.313 499.698 390.379 499.816 390.497C499.933 390.614 499.999 390.773 500 390.939Z" fill="#3F3D56"/>
<path d="M162.799 144.075L161.545 144.076L161.681 274.379L162.934 274.378L162.799 144.075Z" fill="#CCCCCC"/>
<path d="M162.164 136.512C163.488 140.07 165.746 144.483 168.136 147.218L162.173 145.068L156.216 147.231C158.599 144.491 160.848 140.072 162.164 136.512Z" fill="#CCCCCC"/>
<path d="M5.64002 210.458C4.52453 210.458 3.43409 210.127 2.50659 209.507C1.5791 208.888 0.856207 208.007 0.429328 206.976C0.00244815 205.946 -0.109249 204.811 0.108372 203.717C0.325994 202.623 0.863152 201.618 1.65192 200.83C2.44069 200.041 3.44565 199.504 4.53971 199.286C5.63376 199.068 6.76778 199.18 7.79836 199.607C8.82894 200.034 9.70979 200.757 10.3295 201.684C10.9493 202.612 11.28 203.702 11.28 204.818C11.2783 206.313 10.6836 207.747 9.62622 208.804C8.56889 209.861 7.13532 210.456 5.64002 210.458ZM5.64002 200.431C4.77242 200.431 3.9243 200.688 3.20291 201.17C2.48153 201.652 1.91927 202.337 1.58725 203.139C1.25524 203.941 1.16837 204.823 1.33763 205.674C1.50689 206.524 1.92468 207.306 2.53817 207.92C3.15165 208.533 3.93329 208.951 4.78422 209.12C5.63515 209.289 6.51717 209.203 7.31873 208.871C8.12029 208.538 8.80539 207.976 9.28741 207.255C9.76942 206.533 10.0267 205.685 10.0267 204.818C10.0254 203.655 9.56281 202.54 8.74043 201.717C7.91805 200.895 6.80304 200.432 5.64002 200.431Z" fill="#CCCCCC"/>
<path d="M75.827 223.618C74.7115 223.618 73.6211 223.287 72.6936 222.667C71.7661 222.048 71.0432 221.167 70.6163 220.136C70.1895 219.106 70.0778 217.972 70.2954 216.878C70.513 215.784 71.0502 214.779 71.8389 213.99C72.6277 213.201 73.6326 212.664 74.7267 212.446C75.8208 212.229 76.9548 212.34 77.9854 212.767C79.0159 213.194 79.8968 213.917 80.5165 214.844C81.1363 215.772 81.467 216.862 81.467 217.978C81.4653 219.473 80.8706 220.907 79.8132 221.964C78.7559 223.021 77.3223 223.616 75.827 223.618ZM75.827 213.591C74.9594 213.591 74.1113 213.849 73.3899 214.331C72.6685 214.813 72.1063 215.498 71.7743 216.299C71.4422 217.101 71.3554 217.983 71.5246 218.834C71.6939 219.685 72.1117 220.466 72.7252 221.08C73.3387 221.693 74.1203 222.111 74.9712 222.28C75.8222 222.45 76.7042 222.363 77.5057 222.031C78.3073 221.699 78.9924 221.136 79.4744 220.415C79.9564 219.694 80.2137 218.846 80.2137 217.978C80.2124 216.815 79.7498 215.7 78.9274 214.877C78.1051 214.055 76.99 213.593 75.827 213.591Z" fill="#CCCCCC"/>
<path d="M162.307 289.419C165.422 289.419 167.947 286.894 167.947 283.779C167.947 280.664 165.422 278.139 162.307 278.139C159.192 278.139 156.667 280.664 156.667 283.779C156.667 286.894 159.192 289.419 162.307 289.419Z" fill="#0A2647"/>
<path d="M210.122 2.91401C209.761 2.05564 209.155 1.32209 208.381 0.804162C207.607 0.286231 206.698 0.00664077 205.767 0H118.832C117.583 0.000664173 116.384 0.497381 115.501 1.38101C114.617 2.26464 114.12 3.46291 114.12 4.71255V114.693C114.12 115.942 114.617 117.141 115.501 118.024C116.384 118.908 117.583 119.405 118.832 119.405H205.77C207.019 119.404 208.217 118.907 209.1 118.023C209.984 117.14 210.481 115.942 210.482 114.693V4.71255C210.485 4.09521 210.363 3.4837 210.125 2.91401H210.122ZM209.433 114.693C209.432 115.665 209.045 116.597 208.358 117.284C207.67 117.971 206.739 118.358 205.767 118.359H118.832C117.86 118.359 116.928 117.972 116.24 117.285C115.553 116.598 115.166 115.666 115.166 114.693V4.71317C115.167 3.74129 115.554 2.8096 116.241 2.12238C116.929 1.43516 117.86 1.04849 118.832 1.04717H205.77C206.502 1.04994 207.217 1.27079 207.823 1.68154C208.429 2.09229 208.899 2.6743 209.173 3.3533C209.226 3.4886 209.272 3.62667 209.311 3.7669C209.394 4.07545 209.436 4.39361 209.436 4.71317L209.433 114.693Z" fill="#3F3D56"/>
<path d="M191.98 25.9653H165.794C165.239 25.9653 164.706 25.7446 164.313 25.3517C163.92 24.9588 163.699 24.426 163.699 23.8703C163.699 23.3147 163.92 22.7819 164.313 22.389C164.706 21.9961 165.239 21.7754 165.794 21.7754H191.98C192.536 21.7754 193.069 21.9961 193.461 22.389C193.854 22.7819 194.075 23.3147 194.075 23.8703C194.075 24.426 193.854 24.9588 193.461 25.3517C193.069 25.7446 192.536 25.9653 191.98 25.9653Z" fill="#0A2647"/>
<path d="M191.98 36.9633H165.794C165.239 36.9633 164.706 36.7426 164.313 36.3497C163.92 35.9569 163.699 35.424 163.699 34.8684C163.699 34.3128 163.92 33.7799 164.313 33.387C164.706 32.9942 165.239 32.7734 165.794 32.7734H191.98C192.536 32.7734 193.069 32.9942 193.461 33.387C193.854 33.7799 194.075 34.3128 194.075 34.8684C194.075 35.424 193.854 35.9569 193.461 36.3497C193.069 36.7426 192.536 36.9633 191.98 36.9633Z" fill="#0A2647"/>
<path d="M152.358 43.2261H133.222C132.597 43.2254 131.998 42.9769 131.556 42.5351C131.114 42.0932 130.865 41.4941 130.865 40.8692V18.2866C130.865 17.6617 131.114 17.0626 131.556 16.6207C131.998 16.1789 132.597 15.9304 133.222 15.9297H152.358C152.983 15.9304 153.582 16.1789 154.024 16.6207C154.466 17.0626 154.714 17.6617 154.715 18.2866V40.8692C154.714 41.4941 154.466 42.0932 154.024 42.5351C153.582 42.9769 152.983 43.2254 152.358 43.2261Z" fill="#0A2647"/>
<path d="M191.798 59.4848H132.618C132.063 59.4848 131.53 59.2641 131.137 58.8712C130.744 58.4784 130.523 57.9455 130.523 57.3899C130.523 56.8343 130.744 56.3014 131.137 55.9085C131.53 55.5156 132.063 55.2949 132.618 55.2949H191.798C192.354 55.2949 192.887 55.5156 193.28 55.9085C193.673 56.3014 193.893 56.8343 193.893 57.3899C193.893 57.9455 193.673 58.4784 193.28 58.8712C192.887 59.2641 192.354 59.4848 191.798 59.4848Z" fill="#CCCCCC"/>
<path d="M191.798 70.4829H132.618C132.063 70.4829 131.53 70.2622 131.137 69.8693C130.744 69.4764 130.523 68.9435 130.523 68.3879C130.523 67.8323 130.744 67.2994 131.137 66.9066C131.53 66.5137 132.063 66.293 132.618 66.293H191.798C192.354 66.293 192.887 66.5137 193.28 66.9066C193.673 67.2994 193.893 67.8323 193.893 68.3879C193.893 68.9435 193.673 69.4764 193.28 69.8693C192.887 70.2622 192.354 70.4829 191.798 70.4829Z" fill="#CCCCCC"/>
<path d="M191.798 81.4809H132.618C132.063 81.4809 131.53 81.2602 131.137 80.8673C130.744 80.4745 130.523 79.9416 130.523 79.386C130.523 78.8304 130.744 78.2975 131.137 77.9046C131.53 77.5117 132.063 77.291 132.618 77.291H191.798C192.074 77.291 192.346 77.3452 192.6 77.4505C192.854 77.5558 193.085 77.7101 193.28 77.9046C193.474 78.0992 193.629 78.3301 193.734 78.5843C193.839 78.8384 193.893 79.1109 193.893 79.386C193.893 79.6611 193.839 79.9335 193.734 80.1877C193.629 80.4418 193.474 80.6728 193.28 80.8673C193.085 81.0619 192.854 81.2162 192.6 81.3215C192.346 81.4267 192.074 81.4809 191.798 81.4809Z" fill="#CCCCCC"/>
<path d="M191.798 92.479H132.618C132.063 92.479 131.53 92.2583 131.137 91.8654C130.744 91.4725 130.523 90.9396 130.523 90.384C130.523 89.8284 130.744 89.2955 131.137 88.9027C131.53 88.5098 132.063 88.2891 132.618 88.2891H191.798C192.354 88.2891 192.887 88.5098 193.28 88.9027C193.673 89.2955 193.893 89.8284 193.893 90.384C193.893 90.9396 193.673 91.4725 193.28 91.8654C192.887 92.2583 192.354 92.479 191.798 92.479Z" fill="#CCCCCC"/>
<path d="M191.798 103.477H132.618C132.063 103.477 131.53 103.256 131.137 102.863C130.744 102.471 130.523 101.938 130.523 101.382C130.523 100.826 130.744 100.294 131.137 99.9007C131.53 99.5078 132.063 99.2871 132.618 99.2871H191.798C192.354 99.2871 192.887 99.5078 193.28 99.9007C193.673 100.294 193.893 100.826 193.893 101.382C193.893 101.938 193.673 102.471 193.28 102.863C192.887 103.256 192.354 103.477 191.798 103.477Z" fill="#CCCCCC"/>
</g>
<defs>
<clipPath id="clip0_769_5420">
<rect width="500" height="391.566" fill="white"/>
</clipPath>
</defs>
</svg>
