<svg width="500" height="309" viewBox="0 0 500 309" fill="none" xmlns="http://www.w3.org/2000/svg">
<g clip-path="url(#clip0_769_5413)">
<path d="M50.4683 283.141C52.544 283.87 54.7727 284.053 56.9396 283.671C59.1065 283.29 61.1386 282.357 62.8401 280.962C67.1733 277.324 68.5321 271.334 69.6373 265.786L72.907 249.375L66.0616 254.088C61.1385 257.478 56.1049 260.977 52.6965 265.886C49.2881 270.796 47.8011 277.498 50.5388 282.811" fill="#E6E6E6"/>
<path d="M51.525 304.152C50.6634 297.875 49.7769 291.516 50.3827 285.172C50.9196 279.537 52.6387 274.035 56.1385 269.522C57.9961 267.131 60.2566 265.082 62.8182 263.468C63.486 263.047 64.1008 264.105 63.4358 264.525C59.0034 267.326 55.5751 271.462 53.6451 276.338C51.5136 281.759 51.1713 287.669 51.5385 293.428C51.7604 296.91 52.232 300.37 52.7056 303.826C52.743 303.982 52.7196 304.147 52.6403 304.286C52.5609 304.426 52.4315 304.53 52.2781 304.578C52.1216 304.621 51.9548 304.599 51.8139 304.519C51.673 304.439 51.5694 304.307 51.5254 304.151L51.525 304.152Z" fill="#F2F2F2"/>
<path d="M57.7266 294.079C58.6167 295.433 59.8404 296.534 61.2797 297.277C62.719 298.02 64.3255 298.38 65.9443 298.322C70.1053 298.125 73.5729 295.222 76.6941 292.465L85.9279 284.312L79.8169 284.019C75.4221 283.809 70.9138 283.612 66.7279 284.968C62.542 286.325 58.6816 289.586 57.9163 293.918" fill="#E6E6E6"/>
<path d="M49.0898 307.76C53.2378 300.42 58.0487 292.263 66.6457 289.656C69.0359 288.934 71.5422 288.675 74.0296 288.894C74.8137 288.961 74.6178 290.17 73.8354 290.102C69.6658 289.756 65.5043 290.857 62.0515 293.22C58.7287 295.482 56.1415 298.626 53.9521 301.96C52.6108 304.003 51.4094 306.132 50.208 308.258C49.8241 308.938 48.7014 308.447 49.0898 307.76Z" fill="#F2F2F2"/>
<path d="M466.062 291.879C464.855 292.96 463.391 293.712 461.809 294.063C460.228 294.413 458.583 294.351 457.033 293.881C453.06 292.626 450.45 288.934 448.137 285.471L441.293 275.229L447.276 276.508C451.579 277.427 455.988 278.389 459.688 280.77C463.388 283.152 466.287 287.29 465.92 291.675" fill="#E6E6E6"/>
<path d="M470.916 307.313C468.781 299.158 466.215 290.042 458.57 285.324C456.443 284.015 454.087 283.124 451.626 282.7C450.851 282.565 450.731 283.783 451.505 283.918C455.624 284.649 459.366 286.777 462.101 289.944C464.735 292.98 466.432 296.681 467.697 300.464C468.472 302.781 469.089 305.147 469.707 307.509C469.905 308.265 471.116 308.077 470.916 307.313Z" fill="#F2F2F2"/>
<path d="M386.857 187.88H247.003C245.886 187.879 244.815 187.434 244.025 186.645C243.236 185.855 242.791 184.784 242.79 183.668V136.488C242.791 135.371 243.236 134.3 244.025 133.511C244.815 132.721 245.886 132.277 247.003 132.275H386.857C387.973 132.277 389.044 132.721 389.834 133.511C390.624 134.3 391.068 135.371 391.069 136.488V183.668C391.068 184.784 390.624 185.855 389.834 186.645C389.044 187.434 387.973 187.879 386.857 187.88Z" fill="#F1F1F1"/>
<path d="M301.765 144.912H264.695V149.125H301.765V144.912Z" fill="#0A2647"/>
<path d="M350.63 149.967C352.025 149.967 353.157 148.835 353.157 147.44C353.157 146.044 352.025 144.912 350.63 144.912C349.234 144.912 348.102 146.044 348.102 147.44C348.102 148.835 349.234 149.967 350.63 149.967Z" fill="#0A2647"/>
<path d="M359.054 149.967C360.45 149.967 361.582 148.835 361.582 147.44C361.582 146.044 360.45 144.912 359.054 144.912C357.658 144.912 356.527 146.044 356.527 147.44C356.527 148.835 357.658 149.967 359.054 149.967Z" fill="#0A2647"/>
<path d="M367.479 149.967C368.875 149.967 370.007 148.835 370.007 147.44C370.007 146.044 368.875 144.912 367.479 144.912C366.083 144.912 364.952 146.044 364.952 147.44C364.952 148.835 366.083 149.967 367.479 149.967Z" fill="#0A2647"/>
<path d="M386.857 247.696H247.003C245.886 247.695 244.815 247.251 244.025 246.461C243.236 245.671 242.791 244.601 242.79 243.484V196.304C242.791 195.187 243.236 194.117 244.025 193.327C244.815 192.537 245.886 192.093 247.003 192.092H386.857C387.973 192.093 389.044 192.537 389.834 193.327C390.624 194.117 391.068 195.187 391.069 196.304V243.484C391.068 244.601 390.624 245.671 389.834 246.461C389.044 247.251 387.973 247.695 386.857 247.696Z" fill="#F1F1F1"/>
<path d="M301.765 204.73H264.695V208.943H301.765V204.73Z" fill="#0A2647"/>
<path d="M350.63 209.785C352.025 209.785 353.157 208.654 353.157 207.258C353.157 205.862 352.025 204.73 350.63 204.73C349.234 204.73 348.102 205.862 348.102 207.258C348.102 208.654 349.234 209.785 350.63 209.785Z" fill="#0A2647"/>
<path d="M359.054 209.785C360.45 209.785 361.582 208.654 361.582 207.258C361.582 205.862 360.45 204.73 359.054 204.73C357.658 204.73 356.527 205.862 356.527 207.258C356.527 208.654 357.658 209.785 359.054 209.785Z" fill="#0A2647"/>
<path d="M367.479 209.785C368.875 209.785 370.007 208.654 370.007 207.258C370.007 205.862 368.875 204.73 367.479 204.73C366.083 204.73 364.952 205.862 364.952 207.258C364.952 208.654 366.083 209.785 367.479 209.785Z" fill="#0A2647"/>
<path d="M386.857 307.515H247.003C245.886 307.513 244.815 307.069 244.025 306.28C243.236 305.49 242.791 304.419 242.79 303.302V256.123C242.791 255.006 243.236 253.935 244.025 253.145C244.815 252.356 245.886 251.911 247.003 251.91H386.857C387.973 251.911 389.044 252.356 389.834 253.145C390.624 253.935 391.068 255.006 391.069 256.123V303.302C391.068 304.419 390.624 305.49 389.834 306.28C389.044 307.069 387.973 307.513 386.857 307.515Z" fill="#F1F1F1"/>
<path d="M301.765 264.547H264.695V268.759H301.765V264.547Z" fill="#0A2647"/>
<path d="M350.63 269.602C352.025 269.602 353.157 268.47 353.157 267.074C353.157 265.678 352.025 264.547 350.63 264.547C349.234 264.547 348.102 265.678 348.102 267.074C348.102 268.47 349.234 269.602 350.63 269.602Z" fill="#0A2647"/>
<path d="M359.054 269.602C360.45 269.602 361.582 268.47 361.582 267.074C361.582 265.678 360.45 264.547 359.054 264.547C357.658 264.547 356.527 265.678 356.527 267.074C356.527 268.47 357.658 269.602 359.054 269.602Z" fill="#0A2647"/>
<path d="M367.479 269.602C368.875 269.602 370.007 268.47 370.007 267.074C370.007 265.678 368.875 264.547 367.479 264.547C366.083 264.547 364.952 265.678 364.952 267.074C364.952 268.47 366.083 269.602 367.479 269.602Z" fill="#0A2647"/>
<path d="M334.133 86.205L333.979 86.0907L333.975 86.088C333.775 85.9398 333.549 85.8324 333.308 85.7718C333.067 85.7113 332.816 85.6988 332.57 85.7351C332.324 85.7714 332.088 85.8558 331.875 85.9834C331.662 86.111 331.476 86.2794 331.328 86.4789L299.848 128.863H296.385V128.049C296.385 127.848 296.305 127.656 296.163 127.514C296.021 127.372 295.829 127.292 295.628 127.292H293.562C293.361 127.292 293.169 127.372 293.027 127.514C292.885 127.656 292.805 127.848 292.805 128.049V128.863H291.609V128.049C291.609 127.848 291.529 127.656 291.387 127.514C291.245 127.372 291.053 127.292 290.852 127.292H288.786C288.585 127.292 288.392 127.372 288.251 127.514C288.109 127.656 288.029 127.848 288.029 128.049V128.863H286.837V128.049C286.837 127.848 286.757 127.656 286.615 127.514C286.473 127.372 286.281 127.292 286.08 127.292H284.014C283.813 127.292 283.62 127.372 283.478 127.514C283.336 127.656 283.257 127.848 283.257 128.049V128.863H282.061V128.049C282.061 127.848 281.981 127.656 281.839 127.514C281.697 127.372 281.505 127.292 281.304 127.292H279.238C279.037 127.292 278.844 127.372 278.702 127.514C278.56 127.656 278.481 127.848 278.481 128.049V128.863H277.289V128.049C277.289 127.848 277.209 127.656 277.067 127.514C276.925 127.372 276.732 127.292 276.532 127.292H274.465C274.366 127.292 274.268 127.312 274.176 127.35C274.084 127.388 274 127.444 273.93 127.514C273.86 127.584 273.804 127.668 273.766 127.76C273.728 127.851 273.709 127.95 273.709 128.049V128.863H272.513V128.049C272.513 127.848 272.433 127.656 272.291 127.514C272.149 127.372 271.956 127.292 271.756 127.292H269.689C269.489 127.292 269.296 127.372 269.154 127.514C269.012 127.656 268.933 127.848 268.933 128.049V128.863H267.737V128.049C267.737 127.848 267.657 127.656 267.515 127.514C267.373 127.372 267.18 127.292 266.98 127.292H264.913C264.713 127.292 264.52 127.372 264.378 127.514C264.236 127.656 264.156 127.848 264.156 128.049V128.863H262.964V128.049C262.964 127.848 262.885 127.656 262.743 127.514C262.601 127.372 262.408 127.292 262.208 127.292H260.141C259.94 127.292 259.748 127.372 259.606 127.514C259.464 127.656 259.384 127.848 259.384 128.049V128.863H258.188V128.049C258.188 127.848 258.109 127.656 257.967 127.514C257.825 127.372 257.632 127.292 257.432 127.292H255.365C255.164 127.292 254.972 127.372 254.83 127.514C254.688 127.656 254.608 127.848 254.608 128.049V128.863H253.416V128.049C253.416 127.848 253.336 127.656 253.195 127.514C253.053 127.372 252.86 127.292 252.659 127.292H250.593C250.392 127.292 250.2 127.372 250.058 127.514C249.916 127.656 249.836 127.848 249.836 128.049V128.863H248.338C248.089 128.863 247.843 128.912 247.613 129.007C247.384 129.102 247.175 129.241 247 129.417C246.824 129.593 246.684 129.801 246.589 130.031C246.494 130.261 246.445 130.507 246.445 130.755V132.56C246.445 132.809 246.494 133.055 246.589 133.284C246.684 133.514 246.824 133.723 247 133.898C247.175 134.074 247.384 134.213 247.613 134.309C247.843 134.404 248.089 134.453 248.338 134.453H299.534C300.183 134.452 300.811 134.229 301.314 133.82C301.817 133.41 302.163 132.84 302.295 132.205L302.314 132.22L334.521 88.8561L334.524 88.8523C334.823 88.4494 334.95 87.9442 334.877 87.4477C334.804 86.9513 334.536 86.5043 334.133 86.205Z" fill="#3F3D56"/>
<path d="M135.188 291.443L141.547 294.697L157.125 271.717L147.74 266.914L135.188 291.443Z" fill="#FFB7B7"/>
<path d="M134.628 288.535L147.151 294.944L147.152 294.944C149.268 296.028 150.868 297.908 151.599 300.17C152.329 302.433 152.131 304.893 151.048 307.01L150.916 307.269L130.411 296.776L134.628 288.535Z" fill="#2F2E41"/>
<path d="M208.633 300.345H215.777L219.176 272.791H208.632L208.633 300.345Z" fill="#FFB7B7"/>
<path d="M206.811 298.012L220.879 298.012H220.88C223.258 298.012 225.538 298.956 227.219 300.638C228.901 302.319 229.845 304.599 229.845 306.977V307.268L206.811 307.269L206.811 298.012Z" fill="#2F2E41"/>
<path d="M175.218 75.5943C175.218 75.5943 170.435 71.9293 170.435 80.8816L169.679 110.465L178.114 138.412L183.023 129.348L181.009 109.71L175.218 75.5943Z" fill="#2F2E41"/>
<path d="M226.39 156.51C226.39 156.51 231.938 183.525 224.911 205.695L221.028 290.937L206.79 289.827L201.798 226.589L196.99 195.155L187.005 223.816L154.092 284.465L138.93 272.631C138.93 272.631 155.732 226.785 168.145 217.159L174.37 146.254L226.39 156.51Z" fill="#2F2E41"/>
<path d="M223.758 31.0282C228.059 23.1611 225.168 13.2972 217.3 8.99662C209.433 4.69606 199.569 7.58737 195.269 15.4545C190.968 23.3216 193.86 33.1855 201.727 37.4861C209.594 41.7866 219.458 38.8954 223.758 31.0282Z" fill="#FFB7B7"/>
<path d="M208.365 26.6845C210.311 26.9377 211.779 24.9466 212.459 23.106C213.14 21.2654 213.659 19.1226 215.351 18.1284C217.663 16.7701 220.62 18.4038 223.264 17.9556C226.249 17.4495 228.19 14.2857 228.342 11.2617C228.494 8.2377 227.291 5.32923 226.11 2.54111L225.698 6.00611C225.753 4.83174 225.506 3.66286 224.98 2.61129C224.454 1.55971 223.667 0.660617 222.695 0L223.226 5.08434C223.113 4.38288 222.863 3.71066 222.489 3.10625C222.116 2.50183 221.626 1.97713 221.05 1.56226C220.473 1.14738 219.82 0.850503 219.128 0.688656C218.436 0.526809 217.719 0.503181 217.018 0.619127L217.102 3.64857C213.654 3.23858 210.176 2.828 206.718 3.14036C203.259 3.45271 199.777 4.54685 197.156 6.82432C193.235 10.2311 191.804 15.8407 192.284 21.0123C192.765 26.1839 194.9 31.0423 197.125 35.7356C197.685 36.9164 198.459 38.2489 199.757 38.3993C200.923 38.5345 201.991 37.5595 202.353 36.4427C202.633 35.2968 202.622 34.0994 202.322 32.9587C201.994 31.2155 201.58 29.4338 201.889 27.687C202.197 25.9403 203.454 24.2142 205.215 24.0001C206.975 23.786 208.777 25.7987 207.931 27.3574L208.365 26.6845Z" fill="#2F2E41"/>
<path d="M227.395 163.734L173.205 160.238L177.283 143.34L226.811 154.411L227.395 163.734Z" fill="#CBCBCB"/>
<path d="M193.976 45.381L197.375 40.6621C197.375 40.6621 201.174 41.9532 211.348 47.0176L212.067 51.4388L229.728 160.064L197.626 158.679L188.885 158.493L186.024 152.081L182.496 158.357L173.96 158.176L165.273 153.14L173.834 126.956L176.603 103.037L172.323 80.5035C172.323 80.5035 166.937 59.8112 187.681 48.6541L193.976 45.381Z" fill="#2F2E41"/>
<path d="M266.329 127.611C265.543 127.811 264.723 127.836 263.926 127.684C263.129 127.532 262.375 127.208 261.717 126.734C261.06 126.259 260.514 125.646 260.118 124.938C259.723 124.23 259.488 123.443 259.429 122.634L240.384 117.533L248.046 110.73L264.957 116.618C266.322 116.609 267.643 117.102 268.67 118.003C269.696 118.904 270.357 120.149 270.526 121.505C270.695 122.86 270.361 124.23 269.588 125.355C268.814 126.481 267.655 127.283 266.329 127.611Z" fill="#FFB7B7"/>
<path d="M257.8 124.731C257.399 124.949 256.957 125.081 256.502 125.117C256.048 125.153 255.591 125.093 255.161 124.941L223.831 113.05C216.188 110.34 209.789 104.947 205.825 97.8727L192.76 74.5664C191.842 73.5424 191.136 72.3474 190.681 71.05C190.226 69.7526 190.031 68.3781 190.108 67.0054C190.184 65.6326 190.531 64.2884 191.128 63.0497C191.724 61.8111 192.56 60.7022 193.585 59.7867C194.611 58.8711 195.807 58.1668 197.105 57.7141C198.404 57.2613 199.778 57.069 201.151 57.1482C202.524 57.2274 203.867 57.5764 205.105 58.1754C206.342 58.7744 207.45 59.6115 208.364 60.6389L230.977 96.481L259.436 113.166C259.994 113.532 260.425 114.06 260.673 114.68C260.921 115.299 260.972 115.98 260.821 116.629L259.405 122.626C259.253 123.269 258.909 123.851 258.418 124.293C258.23 124.463 258.022 124.61 257.8 124.731Z" fill="#2F2E41"/>
<path d="M499.471 308.466H0.529101C0.388774 308.466 0.254195 308.411 0.15497 308.311C0.055744 308.212 0 308.078 0 307.937C0 307.797 0.055744 307.662 0.15497 307.563C0.254195 307.464 0.388774 307.408 0.529101 307.408H499.471C499.611 307.408 499.746 307.464 499.845 307.563C499.944 307.662 500 307.797 500 307.937C500 308.078 499.944 308.212 499.845 308.311C499.746 308.411 499.611 308.466 499.471 308.466Z" fill="#CBCBCB"/>
</g>
<defs>
<clipPath id="clip0_769_5413">
<rect width="500" height="308.584" fill="white"/>
</clipPath>
</defs>
</svg>
