<svg width="400" height="484" viewBox="0 0 400 484" fill="none" xmlns="http://www.w3.org/2000/svg">
<g clip-path="url(#clip0_636_8635)">
<path d="M371.263 40.9277H55.7421C44.1677 40.9277 34.7559 50.3395 34.7559 61.9139V278.131C34.7559 289.706 44.1677 299.118 55.7421 299.118H371.263C382.838 299.118 392.25 289.706 392.25 278.131V61.9139C392.25 50.3395 382.838 40.9277 371.263 40.9277Z" fill="#F2F2F2"/>
<path d="M337.032 57.582H21.5106C9.93624 57.582 0.524414 66.9938 0.524414 78.5682V294.786C0.524414 306.36 9.93624 315.772 21.5106 315.772H337.032C348.606 315.772 358.018 306.36 358.018 294.786V78.5682C358.018 66.9938 348.606 57.582 337.032 57.582ZM355.811 231.147C355.811 276.665 318.912 313.565 273.393 313.565H21.5106C11.139 313.565 2.73117 305.157 2.73117 294.786V78.5682C2.73117 68.1966 11.139 59.7888 21.5106 59.7888H337.032C347.404 59.7888 355.811 68.1966 355.811 78.5683V231.147Z" fill="#3F3D56"/>
<path d="M45.5929 268.916L43.7256 267.74C44.9394 265.811 46.192 263.941 47.4473 262.182L49.2435 263.464C48.0125 265.188 46.7846 267.022 45.5929 268.916Z" fill="#CCCCCC"/>
<path d="M57.7608 253.189L56.1812 251.649C59.5484 248.198 63.0923 245.235 66.7139 242.844L67.9304 244.685C64.4398 246.99 61.0181 249.851 57.7608 253.189ZM112.814 239.26C110.179 239.26 107.779 238.923 105.981 238.629L106.338 236.451C108.159 236.749 110.352 237.054 112.814 237.054C114.989 237.054 117.126 236.815 119.348 236.323L119.824 238.478C117.444 239.004 115.151 239.26 112.814 239.26ZM79.7944 238.968L79.1306 236.864C81.5012 236.116 83.9568 235.556 86.4292 235.198C88.5524 234.89 90.5825 234.741 92.6346 234.741H92.7704V236.948H92.6346C90.6891 236.948 88.7631 237.09 86.7454 237.382C84.3905 237.723 82.0512 238.257 79.7944 238.968ZM132.394 232.591L130.983 230.894C134.028 228.364 136.211 225.306 138.522 222.067L139.444 220.779L141.235 222.069L140.318 223.349C137.922 226.707 135.658 229.879 132.394 232.591ZM150.091 212.357L148.733 210.617C151.708 208.296 155.069 206.415 159.007 204.868C159.678 204.604 160.319 204.368 160.934 204.159L161.646 206.247C161.061 206.447 160.452 206.67 159.814 206.921C156.076 208.391 152.896 210.168 150.091 212.357ZM176.732 204.693C175.99 204.693 175.285 204.686 174.609 204.678L174.635 202.471C175.326 202.479 176.048 202.481 176.812 202.486C179.409 202.486 183.026 202.412 187.987 201.838L188.241 204.029C183.116 204.623 179.442 204.685 176.732 204.693ZM201.665 201.803L201.227 199.64C205.191 198.838 209.802 197.884 214.366 196.707L214.918 198.843C210.301 200.034 205.656 200.996 201.665 201.803ZM227.917 194.66L227.092 192.613C231.517 190.829 235.359 188.818 238.838 186.462L240.075 188.29C236.465 190.733 232.488 192.817 227.917 194.66ZM250.214 178.891L248.423 177.602C249.039 176.747 249.571 175.914 250.085 175.108C251.605 172.729 253.176 170.268 256.918 167.248L257.18 167.038L258.547 168.77L258.304 168.964C254.842 171.759 253.435 173.963 251.945 176.296C251.415 177.127 250.865 177.987 250.214 178.891ZM270.01 162.341L269.205 160.286C273.138 158.744 277.58 157.503 282.408 156.598L282.816 158.767C278.123 159.647 273.815 160.85 270.01 162.341Z" fill="#CCCCCC"/>
<path d="M296.304 157.146L296.166 154.943C298.31 154.809 300.552 154.721 302.829 154.68L302.869 156.886C300.624 156.926 298.415 157.014 296.304 157.146Z" fill="#CCCCCC"/>
<path d="M70.2005 81.4941H39.2397C37.684 81.4941 36.415 82.7631 36.415 84.3188C36.415 85.8856 37.6839 87.1545 39.2397 87.1545H70.2005C71.7562 87.1545 73.0251 85.8856 73.0251 84.3188C73.0251 82.7631 71.7562 81.4941 70.2005 81.4941Z" fill="#E6E6E6"/>
<path d="M122.059 81.4941H91.0986C89.5428 81.4941 88.2739 82.7631 88.2739 84.3188C88.2739 85.8856 89.5428 87.1545 91.0986 87.1545H122.059C123.615 87.1545 124.884 85.8856 124.884 84.3188C124.884 82.7631 123.615 81.4941 122.059 81.4941Z" fill="#E6E6E6"/>
<path d="M173.918 81.4941H142.957C141.401 81.4941 140.132 82.7631 140.132 84.3188C140.132 85.8856 141.401 87.1545 142.957 87.1545H173.918C175.473 87.1545 176.742 85.8856 176.742 84.3188C176.742 82.7631 175.473 81.4941 173.918 81.4941Z" fill="#E6E6E6"/>
<path d="M317.745 267.225H36.3843V269.431H317.745V267.225Z" fill="#E6E6E6"/>
<path d="M302.883 106.131C282.856 106.649 267.917 112.541 258.45 123.619C254.952 127.724 253.529 130.957 252.028 134.377C250.539 137.753 249.016 141.229 245.474 145.764V142.012C247.67 138.79 248.85 136.098 250.009 133.483C251.576 129.908 253.065 126.532 256.773 122.196C266.659 110.61 282.15 104.464 302.817 103.924L302.883 106.131Z" fill="#CCCCCC"/>
<path d="M252.028 134.378C250.539 137.754 249.016 141.23 245.474 145.765C245.055 146.305 244.602 146.868 244.117 147.453C231.34 162.646 214.271 167.634 200.545 171.65C199.684 171.904 198.845 172.135 198.029 172.356C185.826 175.666 179.139 175.545 174.163 175.467C169.165 175.379 165.865 175.324 159.962 178.7C149.138 184.868 144.703 193.894 140.411 202.622C135.986 211.603 131.815 220.088 121.179 224.071C113.797 226.83 108.611 225.461 103.128 224.027C98.4161 222.78 89.9248 192.091 82.4061 187.616C66.8816 190.871 57.4478 241.604 45.6747 268.769L43.6445 267.886C55.7265 240.037 65.6789 188.873 81.9427 185.453C89.1919 183.93 98.7361 220.585 103.69 221.886C108.832 223.244 113.676 224.513 120.406 221.997C130.226 218.334 134.022 210.599 138.424 201.651C142.661 193.044 147.461 183.29 158.859 176.78C165.292 173.106 169.032 173.172 174.196 173.261C179.117 173.349 185.759 173.459 198.029 170.072C198.647 169.895 199.276 169.719 199.927 169.531C213.366 165.603 230.082 160.715 242.418 146.04C243.631 144.595 244.635 143.26 245.474 142.013C247.67 138.791 248.85 136.099 250.009 133.484C251.576 129.909 253.529 130.957 252.028 134.378Z" fill="#0A2647"/>
<path d="M134.364 386.807C133.491 383.766 131.995 381.172 130.214 379.321L123.745 349.828L109.642 353.283L117.723 382.829C117.192 385.329 117.298 388.313 118.172 391.354C120.167 398.302 125.409 402.917 129.881 401.661C134.352 400.406 136.36 393.755 134.364 386.807Z" fill="#FFB6B6"/>
<path d="M132.413 193.341C132.413 193.341 110.143 192.885 104.48 209.103C99.3252 223.865 93.2148 264.422 96.518 266.765L110.578 366.604L130.627 363.85L125.482 244.057L132.413 193.341Z" fill="#0A2647"/>
<path d="M235.543 378.665L231.593 483.486H179.183L177.064 436.515L167.752 483.486H111.579L118.586 402.741L125.824 385.76L130.723 374.252L235.543 378.665Z" fill="#2F2E41"/>
<path d="M193.615 173.437L157.204 171.23L145.066 186.678L118.585 196.608L130.723 314.669L125.206 385.285C125.206 385.285 202.442 447.074 235.543 378.665L226.716 295.912L228.923 199.918L203.545 188.884L193.615 173.437Z" fill="#0A2647"/>
<path d="M263.713 146.582C264.108 150.407 263.606 154.005 262.451 156.889L268.516 193.093L251.205 195.475L246.916 158.493C245.196 155.906 243.969 152.487 243.574 148.662C242.672 139.923 246.448 132.373 252.009 131.798C257.571 131.224 262.81 137.843 263.713 146.582Z" fill="#FFB6B6"/>
<path d="M233.559 204.064C227.592 193.863 212.788 192.902 206.157 202.685C204.345 205.359 204.85 208.365 204.417 211.977C202.58 227.31 231.962 272.618 252.293 277.835C254.961 278.52 256.481 281.397 259.173 281.976C267.15 283.691 274.577 277.359 274.147 269.211L268.624 164.713L245.423 172.626L246.908 226.88L233.559 204.064Z" fill="#0A2647"/>
<path d="M179.188 168.376C196.901 168.376 211.261 154.016 211.261 136.303C211.261 118.59 196.901 104.23 179.188 104.23C161.475 104.23 147.115 118.59 147.115 136.303C147.115 154.016 161.475 168.376 179.188 168.376Z" fill="#FFB6B6"/>
<path d="M209.062 112.752C208.786 112.819 213.284 108.435 213.476 108.339C217.889 106.132 213.354 127.703 210.166 127.096C202.321 125.607 198.933 122.649 195.888 130.031C195.038 132.083 194.509 134.4 192.854 135.868C190.581 137.865 186.807 137.7 184.954 140.083C183.464 142.003 183.894 144.827 184.998 146.99C186.101 149.164 187.778 151.006 188.782 153.224C189.908 155.718 185.108 163.651 183.276 168.109V168.12L183.266 168.146C182.779 169.315 181.622 165.947 180.401 165.611C178.94 165.208 176.788 168.658 174.46 168.031C174.449 168.031 174.438 168.02 174.427 168.02C172.21 167.402 169.738 166.74 167.289 166.078H167.277C160.381 164.203 158.638 166.895 158.307 166.818L154.026 162.338C152.557 161.268 152.723 157.815 151.687 156.887C150.84 156.129 148.727 157.882 148.105 157.152C145.052 153.577 144.35 150.001 142.551 142.941C140.907 136.486 137.497 117.166 144.504 116.294C151.113 115.467 146.28 106.264 152.934 106.606C152.536 104.929 153.276 103.131 154.478 101.895C155.67 100.648 157.259 99.8758 158.859 99.2138C166.748 95.992 165.435 93.2225 173.754 95.0982C174.582 93.9397 186.598 94.712 188.098 95.0982C188.208 95.1202 184.38 96.0361 190.305 95.0982C190.084 96.4554 193.836 97.0512 193.615 98.4084C194.443 97.2939 203.336 103.694 203.545 105.029C203.821 106.695 201.306 105.845 202.983 106.099C203.976 106.253 205.675 108.273 205.509 109.277C206.227 108.306 206.944 107.346 207.672 106.375C207.804 106.386 207.926 106.408 208.058 106.43C211.413 107.07 207.567 118.035 207.705 114.617C207.959 108.339 212.406 112.013 209.062 112.752Z" fill="#2F2E41"/>
<path d="M331.934 283.457C332.182 284.065 333.034 284.065 333.281 283.456C335.004 279.209 337.457 274.453 340.125 270.818C340.552 270.236 339.963 269.458 339.285 269.703L333.565 271.773V236.369H331.651V271.773L325.93 269.703C325.251 269.458 324.662 270.235 325.089 270.817C327.757 274.452 330.21 279.209 331.934 283.457Z" fill="#3F3D56"/>
<path d="M369.439 319.909C369.254 320.54 369.922 321.07 370.494 320.747C374.484 318.492 379.363 316.293 383.713 315.106C384.409 314.916 384.432 313.94 383.748 313.711L377.982 311.774L400 284.05L398.501 282.859L376.483 310.584L373.29 305.405C372.911 304.79 371.966 305.033 371.939 305.755C371.767 310.261 370.73 315.511 369.439 319.909Z" fill="#3F3D56"/>
<path d="M351.528 343.535H314.32C312.01 343.535 310.131 341.655 310.131 339.345C305.211 324.967 305.308 310.877 310.131 297.061C310.131 294.75 312.01 292.871 314.32 292.871H351.528C353.838 292.871 355.717 294.75 355.717 297.061V339.345C355.717 341.655 353.838 343.535 351.528 343.535Z" fill="#E6E6E6"/>
<path d="M322.292 294.119C316.265 294.119 311.379 299.005 311.379 305.032V338.448C311.379 340.568 313.097 342.286 315.217 342.286H335.793C346.107 342.286 354.469 333.925 354.469 323.611V297.957C354.469 295.838 352.75 294.119 350.63 294.119H322.292Z" fill="white"/>
<path d="M341.589 306.407H324.169C323.73 306.407 323.373 306.05 323.373 305.611C323.373 305.172 323.73 304.814 324.169 304.814H341.589C342.028 304.814 342.385 305.172 342.385 305.611C342.385 306.05 342.028 306.407 341.589 306.407Z" fill="#E6E6E6"/>
<path d="M341.589 323.392H324.169C323.73 323.392 323.373 323.034 323.373 322.595C323.373 322.156 323.73 321.799 324.169 321.799H341.589C342.028 321.799 342.385 322.156 342.385 322.595C342.385 323.034 342.028 323.392 341.589 323.392Z" fill="#E6E6E6"/>
<path d="M350.937 314.905H314.821C314.382 314.905 314.025 314.548 314.025 314.109C314.025 313.67 314.382 313.312 314.821 313.312H350.937C351.376 313.312 351.733 313.67 351.733 314.109C351.733 314.548 351.376 314.905 350.937 314.905Z" fill="#E6E6E6"/>
<path d="M351.363 330.296H336.293C335.854 330.296 335.497 329.939 335.497 329.499C335.497 329.06 335.854 328.703 336.293 328.703H351.363C351.802 328.703 352.159 329.06 352.159 329.499C352.159 329.939 351.802 330.296 351.363 330.296Z" fill="#E6E6E6"/>
<path d="M13.7517 27.2774C21.3465 27.2774 27.5034 21.2503 27.5034 13.8155C27.5034 6.38064 21.3465 0.353516 13.7517 0.353516C6.15684 0.353516 0 6.38064 0 13.8155C0 21.2503 6.15684 27.2774 13.7517 27.2774Z" fill="#0A2647"/>
<path d="M123.993 9.21081H49.9731C47.4337 9.21081 45.3677 7.14475 45.3677 4.6054C45.3677 2.06606 47.4337 0 49.9731 0H123.993C126.532 0 128.598 2.06606 128.598 4.6054C128.598 7.14475 126.532 9.21081 123.993 9.21081Z" fill="#F2F2F2"/>
<path d="M181.758 24.7987H49.9731C47.4337 24.7987 45.3677 22.7326 45.3677 20.1933C45.3677 17.654 47.4337 15.5879 49.9731 15.5879H181.758C184.298 15.5879 186.364 17.654 186.364 20.1933C186.364 22.7326 184.298 24.7987 181.758 24.7987Z" fill="#F2F2F2"/>
</g>
<defs>
<clipPath id="clip0_636_8635">
<rect width="400" height="483.486" fill="white"/>
</clipPath>
</defs>
</svg>
