<svg width="500" height="364" viewBox="0 0 500 364" fill="none" xmlns="http://www.w3.org/2000/svg">
<g clip-path="url(#clip0_769_5411)">
<path opacity="0.1" d="M491.528 290.639C479.144 316.196 453.984 333.284 427.919 344.554C407.051 353.518 384.991 359.404 362.432 362.03C358.111 362.543 353.776 362.941 349.427 363.224C338.315 363.948 327.167 363.935 316.056 363.186C309.373 362.742 302.713 362.031 296.077 361.055C273.017 357.691 250.535 351.145 229.274 341.603C223.138 338.839 217.126 335.822 211.239 332.552C201.405 327.102 191.983 320.94 183.048 314.116C181.071 312.605 179.119 311.062 177.192 309.486L176.399 308.838C174.884 307.588 173.382 306.311 171.858 305.07C169.323 302.947 166.633 301.018 163.81 299.298C163.619 299.186 163.428 299.074 163.232 298.967C162.71 298.664 162.178 298.379 161.637 298.109C160.523 297.547 159.381 297.043 158.215 296.598C152.829 294.547 147.061 293.801 141.214 293.927C140.245 293.927 139.275 293.992 138.3 294.057C136.939 294.15 135.573 294.29 134.211 294.467L133.708 294.537C129.369 295.151 125.079 296.072 120.871 297.293C114.371 299.158 107.988 301.489 101.563 303.592C98.8352 304.492 96.1028 305.35 93.3472 306.119L92.741 306.287C88.8218 307.39 84.8322 308.225 80.7998 308.787C71.6365 309.958 62.3296 309.208 53.4718 306.586L53.164 306.497L52.5952 306.329L51.8165 306.087C50.5109 305.677 49.2163 305.227 47.9325 304.739L47.1538 304.441C45.9104 303.962 44.6934 303.448 43.5029 302.898L42.7242 302.543C41.4808 301.965 40.2639 301.354 39.0733 300.711C38.6444 300.487 38.2201 300.244 37.8004 300.016C36.5322 299.307 35.2888 298.564 34.0703 297.787C32.7771 296.964 31.512 296.104 30.2748 295.209C29.7029 294.798 29.1371 294.377 28.5776 293.945C25.3522 291.478 22.3317 288.754 19.5459 285.799C19.3921 285.646 19.2475 285.487 19.103 285.333C18.3616 284.531 17.6342 283.715 16.9302 282.881C16.6691 282.573 16.4079 282.265 16.1515 281.948C15.3153 280.928 14.5087 279.886 13.7316 278.819C13.615 278.665 13.5031 278.507 13.3912 278.353C10.2053 273.947 7.56416 269.172 5.5252 264.132C5.45993 263.978 5.39931 263.819 5.34336 263.666C4.72167 262.065 4.15437 260.437 3.64147 258.784C3.43165 258.094 3.23115 257.385 3.05397 256.695C2.99336 256.49 2.9374 256.28 2.88611 256.075C0.312304 245.943 0.0185547 235.41 0.0185547 224.937C0.0185547 223.716 0.0185547 222.495 0.0185547 221.277C0.0931579 204.337 0.354268 187.109 2.85348 170.402C2.85348 170.286 2.88611 170.169 2.90477 170.057C3.74124 164.433 4.87902 158.858 6.3132 153.355C7.81421 147.582 9.73252 141.925 12.053 136.43C17.8021 122.908 26.1623 110.603 35.4458 99.1981C46.6362 85.4758 59.4587 72.8119 73.7405 62.3628C75.7921 60.8614 77.8717 59.4035 79.9792 57.9892L80.9537 57.3504C81.2941 57.1219 81.6345 56.8841 81.9748 56.6836C82.6742 56.2174 83.3736 55.7791 84.0824 55.3361L84.875 54.8419L86.3858 53.9093L86.852 53.6436L87.6587 53.1773L88.456 52.711C89.3885 52.1608 90.3319 51.6231 91.2862 51.0977C95.3614 48.8254 99.533 46.749 103.801 44.8684C105.06 44.3119 106.327 43.7757 107.601 43.2597C113.387 40.9031 119.331 38.954 125.389 37.4267C127.627 36.8609 129.879 36.3636 132.145 35.9346C134.819 35.4186 137.506 34.9912 140.207 34.6524C144.506 34.1115 148.829 33.7894 153.16 33.6872C183.617 32.9458 214.382 42.8587 238.25 61.8592C247.762 69.4315 256.309 78.3978 266.991 84.2029C276.316 89.2573 287.232 91.3508 297.219 87.3735C305.472 84.0863 310.843 82.4544 320.113 82.9533C339.294 84.0337 358.204 87.9883 376.21 94.6846C376.937 94.9504 377.665 95.2255 378.387 95.5006C425.345 113.475 465.72 149.168 486.693 195.035C487.246 196.248 487.785 197.469 488.311 198.7C500.821 227.912 505.334 262.16 491.528 290.639Z" fill="#0A2647"/>
<path opacity="0.1" d="M93.3335 129.338V306.129L92.7273 306.297C88.8081 307.399 84.8185 308.234 80.7862 308.796C71.6228 309.967 62.3159 309.218 53.4581 306.595L53.1503 306.507L52.5815 306.339L51.8028 306.096C50.4973 305.686 49.2026 305.237 47.9188 304.749L47.1401 304.45C45.8967 303.972 44.6798 303.457 43.4892 302.907L42.7106 302.553C41.4672 301.974 40.2502 301.364 39.0597 300.72C38.6307 300.496 38.2064 300.254 37.7867 300.025C36.5185 299.317 35.2751 298.574 34.0566 297.797C32.7635 296.973 31.4983 296.113 30.2611 295.218C29.6892 294.808 29.1234 294.387 28.5639 293.955C25.3385 291.488 22.3181 288.763 19.5323 285.809C19.3784 285.655 19.2339 285.497 19.0893 285.343C18.3479 284.541 17.6206 283.725 16.9165 282.89C16.6554 282.582 16.3943 282.275 16.1378 281.958C15.3016 280.938 14.495 279.895 13.7179 278.829C13.6013 278.675 13.4894 278.516 13.3775 278.363C10.1917 273.957 7.55048 269.182 5.51153 264.141C5.44625 263.987 5.38564 263.829 5.32969 263.675C4.70799 262.074 4.1407 260.447 3.6278 258.793C3.41798 258.103 3.21748 257.394 3.0403 256.704C2.97968 256.499 2.92373 256.289 2.87244 256.084C0.298632 245.952 0.00488281 235.419 0.00488281 224.947C0.00488281 223.725 0.00488281 222.505 0.00488281 221.286C0.079486 204.347 0.340596 187.118 2.8398 170.412C2.8398 170.295 2.87244 170.179 2.89109 170.067C3.72756 164.442 4.86534 158.867 6.29953 153.365H53.915V129.338H63.4083V110.039H83.8402V129.338H93.3335Z" fill="#0A2647"/>
<path opacity="0.1" d="M491.528 290.64C479.144 316.196 453.984 333.285 427.919 344.555C407.051 353.518 384.992 359.405 362.432 362.031C358.111 362.544 353.776 362.942 349.428 363.224C338.315 363.949 327.167 363.936 316.057 363.187C309.373 362.743 302.714 362.032 296.077 361.056C273.017 357.692 250.535 351.146 229.274 341.604C223.138 338.84 217.127 335.823 211.239 332.553C201.406 327.103 191.984 320.941 183.048 314.117C181.071 312.606 179.119 311.063 177.192 309.487L176.399 308.839C174.884 307.589 173.383 306.312 171.858 305.071C169.324 302.948 166.633 301.019 163.81 299.299C163.619 299.187 163.428 299.075 163.232 298.968C162.71 298.665 162.178 298.38 161.637 298.11C160.523 297.548 159.381 297.044 158.215 296.599V224.276H244.75V240.376H282.728V122.606H327.429V169.699H349.539V141.816H367.808V112.031H376.201V94.6855C376.928 94.9513 377.656 95.2264 378.378 95.5015V112.031H386.547V141.835H404.802V169.718H431.72V275.948H474.504V198.692H488.292C500.821 227.913 505.334 262.16 491.528 290.64Z" fill="#0A2647"/>
<path opacity="0.1" d="M316.066 140.328H296.086V160.308H316.066V140.328Z" fill="#0A2647"/>
<path opacity="0.1" d="M316.066 181.742H296.086V201.722H316.066V181.742Z" fill="#0A2647"/>
<path opacity="0.1" d="M316.066 223.162H296.086V243.142H316.066V223.162Z" fill="#0A2647"/>
<path opacity="0.1" d="M316.066 264.58H296.086V284.56H316.066V264.58Z" fill="#0A2647"/>
<path opacity="0.1" d="M316.066 305.994H296.086V325.974H316.066V305.994Z" fill="#0A2647"/>
<path opacity="0.1" d="M316.066 347.404V363.183C309.382 362.738 302.723 362.028 296.086 361.052V347.404H316.066Z" fill="#0A2647"/>
<path opacity="0.1" d="M234.739 250.098H164.803V259.148H234.739V250.098Z" fill="#0A2647"/>
<path opacity="0.1" d="M234.739 277.584H164.803V286.634H234.739V277.584Z" fill="#0A2647"/>
<path opacity="0.1" d="M234.739 305.07V314.116H183.058C181.081 312.605 179.129 311.062 177.201 309.486L176.409 308.838C174.893 307.588 173.392 306.311 171.867 305.07H234.739Z" fill="#0A2647"/>
<path opacity="0.1" d="M234.739 332.553V341.603H229.284C223.148 338.84 217.136 335.823 211.249 332.553H234.739Z" fill="#0A2647"/>
<path opacity="0.1" d="M362.441 194.43H349.437V207.434H362.441V194.43Z" fill="#0A2647"/>
<path opacity="0.1" d="M80.8138 133.824H67.8096V146.828H80.8138V133.824Z" fill="#0A2647"/>
<path opacity="0.1" d="M80.8138 164.039H67.8096V177.043H80.8138V164.039Z" fill="#0A2647"/>
<path opacity="0.1" d="M80.8138 194.248H67.8096V207.252H80.8138V194.248Z" fill="#0A2647"/>
<path opacity="0.1" d="M80.8138 224.463H67.8096V237.467H80.8138V224.463Z" fill="#0A2647"/>
<path opacity="0.1" d="M80.8138 254.676H67.8096V267.68H80.8138V254.676Z" fill="#0A2647"/>
<path opacity="0.1" d="M80.8138 284.887H67.8096V297.891H80.8138V284.887Z" fill="#0A2647"/>
<path opacity="0.1" d="M412.094 194.43H399.09V207.434H412.094V194.43Z" fill="#0A2647"/>
<path opacity="0.1" d="M362.441 226.51H349.437V239.514H362.441V226.51Z" fill="#0A2647"/>
<path opacity="0.1" d="M412.094 226.51H399.09V239.514H412.094V226.51Z" fill="#0A2647"/>
<path opacity="0.1" d="M362.441 258.594H349.437V271.598H362.441V258.594Z" fill="#0A2647"/>
<path opacity="0.1" d="M412.094 258.594H399.09V271.598H412.094V258.594Z" fill="#0A2647"/>
<path opacity="0.1" d="M362.441 290.678H349.437V303.682H362.441V290.678Z" fill="#0A2647"/>
<path opacity="0.1" d="M412.094 290.678H399.09V303.682H412.094V290.678Z" fill="#0A2647"/>
<path opacity="0.1" d="M362.441 322.756H349.437V335.76H362.441V322.756Z" fill="#0A2647"/>
<path opacity="0.1" d="M412.094 322.756H399.09V335.76H412.094V322.756Z" fill="#0A2647"/>
<path opacity="0.1" d="M349.437 363.224V354.836H362.441V362.03L349.437 363.224Z" fill="#0A2647"/>
<path opacity="0.1" d="M2.84424 170.072V177.533H52.5813V170.072H2.84424ZM7.2738 177.066H3.62291V170.539H7.2738V177.066ZM11.7034 177.066H8.05247V170.539H11.7034V177.066ZM16.1329 177.066H12.482V170.539H16.1329V177.066ZM20.5625 177.066H16.9116V170.539H20.5625V177.066ZM24.9921 177.066H21.3412V170.539H24.9921V177.066ZM29.4216 177.066H25.7707V170.539H29.4216V177.066ZM33.8512 177.066H30.2003V170.539H33.8512V177.066ZM38.2808 177.066H34.6299V170.539H38.2808V177.066ZM42.7103 177.066H39.0594V170.539H42.7103V177.066ZM47.1399 177.066H43.489V170.539H47.1399V177.066ZM51.8026 177.066H47.9186V170.539H51.8026V177.066Z" fill="#0A2647"/>
<path opacity="0.1" d="M2.84424 191.734V199.171H52.5813V191.734H2.84424ZM7.2738 198.705H3.62291V192.201H7.2738V198.705ZM11.7034 198.705H8.05247V192.201H11.7034V198.705ZM16.1329 198.705H12.482V192.201H16.1329V198.705ZM20.5625 198.705H16.9116V192.201H20.5625V198.705ZM24.9921 198.705H21.3412V192.201H24.9921V198.705ZM29.4216 198.705H25.7707V192.201H29.4216V198.705ZM33.8512 198.705H30.2003V192.201H33.8512V198.705ZM38.2808 198.705H34.6299V192.201H38.2808V198.705ZM42.7103 198.705H39.0594V192.201H42.7103V198.705ZM47.1399 198.705H43.489V192.201H47.1399V198.705ZM51.8026 198.705H47.9186V192.201H51.8026V198.705Z" fill="#0A2647"/>
<path opacity="0.1" d="M2.84424 213.393V220.83H52.5813V213.393H2.84424ZM7.2738 220.363H3.62291V213.859H7.2738V220.363ZM11.7034 220.363H8.05247V213.859H11.7034V220.363ZM16.1329 220.363H12.482V213.859H16.1329V220.363ZM20.5625 220.363H16.9116V213.859H20.5625V220.363ZM24.9921 220.363H21.3412V213.859H24.9921V220.363ZM29.4216 220.363H25.7707V213.859H29.4216V220.363ZM33.8512 220.363H30.2003V213.859H33.8512V220.363ZM38.2808 220.363H34.6299V213.859H38.2808V220.363ZM42.7103 220.363H39.0594V213.859H42.7103V220.363ZM47.1399 220.363H43.489V213.859H47.1399V220.363ZM51.8026 220.363H47.9186V213.859H51.8026V220.363Z" fill="#0A2647"/>
<path opacity="0.1" d="M2.84424 235.033V242.494H52.5813V235.033H2.84424ZM7.2738 242.027H3.62291V235.499H7.2738V242.027ZM11.7034 242.027H8.05247V235.499H11.7034V242.027ZM16.1329 242.027H12.482V235.499H16.1329V242.027ZM20.5625 242.027H16.9116V235.499H20.5625V242.027ZM24.9921 242.027H21.3412V235.499H24.9921V242.027ZM29.4216 242.027H25.7707V235.499H29.4216V242.027ZM33.8512 242.027H30.2003V235.499H33.8512V242.027ZM38.2808 242.027H34.6299V235.499H38.2808V242.027ZM42.7103 242.027H39.0594V235.499H42.7103V242.027ZM47.1399 242.027H43.489V235.499H47.1399V242.027ZM51.8026 242.027H47.9186V235.499H51.8026V242.027Z" fill="#0A2647"/>
<path opacity="0.1" d="M3.03564 256.709C3.21283 257.408 3.41332 258.108 3.62315 258.798V257.175H7.27404V263.703H5.32503C5.38098 263.857 5.4416 264.015 5.50688 264.169H52.6002V256.709H3.03564ZM11.7036 263.703H8.05271V257.175H11.7036V263.703ZM16.1332 263.703H12.4823V257.175H16.1332V263.703ZM20.5627 263.703H16.9118V257.175H20.5627V263.703ZM24.9923 263.703H21.3414V257.175H24.9923V263.703ZM29.4219 263.703H25.771V257.175H29.4219V263.703ZM33.8514 263.703H30.2005V257.175H33.8514V263.703ZM38.281 263.703H34.6301V257.175H38.281V263.703ZM42.7106 263.703H39.0597V257.175H42.7106V263.703ZM47.1401 263.703H43.4892V257.175H47.1401V263.703ZM51.8028 263.703H47.9188V257.175H51.8028V263.703Z" fill="#0A2647"/>
<path opacity="0.1" d="M13.3726 278.367C13.4845 278.521 13.5964 278.68 13.7129 278.833H16.1329V281.962C16.3893 282.275 16.6504 282.582 16.9115 282.895V278.838H20.5624V285.366H19.0844C19.2289 285.52 19.3735 285.678 19.5273 285.832H52.5812V278.372L13.3726 278.367ZM24.992 285.361H21.3411V278.833H24.992V285.361ZM29.4216 285.361H25.7707V278.833H29.4216V285.361ZM33.8511 285.361H30.2002V278.833H33.8511V285.361ZM38.2807 285.361H34.6298V278.833H38.2807V285.361ZM42.7103 285.361H39.0594V278.833H42.7103V285.361ZM47.1398 285.361H43.4889V278.833H47.1398V285.361ZM51.8025 285.361H47.9185V278.833H51.8025V285.361Z" fill="#0A2647"/>
<path opacity="0.1" d="M37.7866 300.025C38.2063 300.263 38.6306 300.492 39.0595 300.72V300.492H42.7104V302.553L43.4891 302.907V300.492H47.14V304.45L47.9187 304.749V300.492H51.8027V306.087L52.5814 306.329V300.025H37.7866Z" fill="#0A2647"/>
<path opacity="0.1" d="M191.152 105.489C191.152 105.489 180.036 104.818 181.361 112.604C181.293 113 181.352 113.407 181.529 113.767C181.707 114.128 181.994 114.422 182.349 114.609C182.349 114.609 182.349 114.031 183.487 114.227C183.886 114.293 184.291 114.311 184.694 114.283C185.24 114.247 185.759 114.034 186.172 113.677C186.172 113.677 189.296 112.385 190.513 107.28C190.513 107.28 191.409 106.165 191.376 105.881L189.511 106.683C189.511 106.683 190.154 108.035 189.651 109.159C189.651 109.159 189.59 106.734 189.227 106.79C189.157 106.79 188.252 107.256 188.252 107.256C188.252 107.256 189.357 109.616 188.522 111.327C188.522 111.327 188.84 108.427 187.912 107.429L186.559 108.207C186.559 108.207 187.851 110.641 186.974 112.628C186.974 112.628 187.203 109.583 186.284 108.399L185.086 109.331C185.086 109.331 186.298 111.728 185.552 113.378C185.552 113.378 185.454 109.83 184.82 109.56C184.365 109.943 183.96 110.382 183.613 110.865C183.613 110.865 184.443 112.604 183.93 113.523C183.93 113.523 183.613 111.164 183.352 111.15C183.352 111.15 182.312 112.716 182.204 113.789C182.252 112.794 182.561 111.829 183.1 110.991C182.499 111.105 181.945 111.392 181.505 111.816C181.505 111.816 181.668 110.711 183.37 110.613C183.37 110.613 184.233 109.429 184.466 109.355C184.466 109.355 182.783 109.215 181.762 109.667C181.762 109.667 182.661 108.622 184.774 109.098L185.953 108.133C185.953 108.133 183.739 107.83 182.801 108.166C182.801 108.166 183.878 107.233 186.27 107.914L187.557 107.144C186.569 106.928 185.556 106.84 184.545 106.883C184.545 106.883 185.729 106.244 187.935 106.939L188.867 106.524C188.867 106.524 187.469 106.254 187.082 106.212C186.695 106.17 186.653 106.058 186.653 106.058C187.528 105.912 188.428 106.012 189.25 106.347C189.25 106.347 191.185 105.61 191.152 105.489Z" fill="#0A2647"/>
<path opacity="0.1" d="M161.973 143.382C161.973 143.382 158.173 153.845 166.015 154.801C166.374 154.978 166.78 155.037 167.175 154.969C167.569 154.901 167.932 154.71 168.211 154.424C168.211 154.424 167.666 154.242 168.169 153.221C168.346 152.858 168.48 152.476 168.57 152.083C168.688 151.549 168.629 150.991 168.403 150.493C168.403 150.493 168.053 147.131 163.502 144.515C163.502 144.515 162.691 143.336 162.406 143.289L162.639 145.317C162.639 145.317 164.118 145.084 165.055 145.886C165.055 145.886 162.723 145.257 162.663 145.62C162.663 145.69 162.835 146.688 162.835 146.688C162.835 146.688 165.409 146.297 166.813 147.583C166.813 147.583 164.118 146.455 162.901 147.066L163.264 148.549C163.264 148.549 165.964 148.008 167.619 149.407C167.619 149.407 164.766 148.329 163.367 148.87L163.922 150.269C163.922 150.269 166.565 149.803 167.936 150.964C167.936 150.964 164.505 150.031 164.071 150.582C164.31 151.124 164.613 151.636 164.975 152.106C164.975 152.106 166.882 151.808 167.615 152.573C167.615 152.573 165.26 152.204 165.176 152.447C165.176 152.447 166.384 153.892 167.381 154.312C166.444 153.98 165.61 153.409 164.961 152.656C164.9 153.266 165.018 153.88 165.302 154.424C165.302 154.424 164.285 153.957 164.672 152.302C164.672 152.302 163.777 151.141 163.777 150.903C163.777 150.903 163.162 152.475 163.311 153.584C163.311 153.584 162.565 152.423 163.619 150.535L163.031 149.136C163.031 149.136 162.099 151.174 162.164 152.172C162.164 152.172 161.586 150.871 162.91 148.768L162.542 147.318C162.054 148.198 161.682 149.139 161.436 150.115C161.436 150.115 161.157 148.796 162.448 146.879L162.313 145.882C162.313 145.882 161.66 147.131 161.506 147.509C161.353 147.886 161.236 147.873 161.236 147.873C161.343 146.991 161.694 146.156 162.248 145.462C162.248 145.462 162.099 143.382 161.973 143.382Z" fill="#0A2647"/>
<path opacity="0.1" d="M235.657 134.561C235.657 134.561 231.862 145.043 239.7 145.975C240.06 146.152 240.467 146.21 240.862 146.141C241.258 146.072 241.621 145.88 241.901 145.593C241.901 145.593 241.351 145.411 241.859 144.394C242.037 144.031 242.17 143.648 242.255 143.252C242.375 142.718 242.317 142.16 242.092 141.662C242.092 141.662 241.742 138.3 237.192 135.685C237.192 135.685 236.376 134.51 236.091 134.463L236.329 136.487C236.329 136.487 237.807 136.258 238.744 137.06C238.744 137.06 236.413 136.431 236.348 136.79C236.348 136.864 236.52 137.857 236.52 137.857C236.52 137.857 239.094 137.47 240.502 138.753C240.502 138.753 237.807 137.629 236.585 138.235L236.954 139.722C236.954 139.722 239.653 139.177 241.309 140.58C241.309 140.58 238.45 139.499 237.052 140.039L237.606 141.438C237.606 141.438 240.25 140.972 241.621 142.133C241.621 142.133 238.194 141.201 237.756 141.755C238.002 142.3 238.315 142.813 238.688 143.28C238.688 143.28 240.591 142.977 241.327 143.746C241.327 143.746 238.973 143.378 238.889 143.625C238.889 143.625 240.092 145.066 241.09 145.49C240.153 145.16 239.32 144.589 238.674 143.835C238.612 144.444 238.729 145.058 239.01 145.602C239.01 145.602 237.998 145.136 238.385 143.485C238.385 143.485 237.49 142.32 237.485 142.086C237.485 142.086 236.874 143.662 237.019 144.767C237.019 144.767 236.273 143.611 237.327 141.718L236.739 140.319C236.739 140.319 235.807 142.357 235.872 143.35C235.872 143.35 235.294 142.054 236.618 139.951L236.245 138.496C235.757 139.377 235.386 140.317 235.14 141.294C235.14 141.294 234.865 139.974 236.156 138.058L236.021 137.06C236.021 137.06 235.368 138.31 235.21 138.687C235.051 139.065 234.939 139.051 234.939 139.051C235.05 138.169 235.402 137.335 235.956 136.64C235.956 136.64 235.788 134.565 235.657 134.561Z" fill="#0A2647"/>
<path opacity="0.1" d="M130.327 220.112C130.327 220.112 126.527 230.58 134.37 231.536C134.729 231.712 135.135 231.771 135.53 231.702C135.925 231.633 136.287 231.441 136.566 231.153C136.566 231.153 136.02 230.971 136.524 229.955C136.703 229.592 136.838 229.208 136.925 228.813C137.045 228.279 136.986 227.72 136.757 227.223C136.757 227.223 136.407 223.861 131.857 221.25C131.857 221.25 131.045 220.07 130.761 220.023L130.994 222.047C130.994 222.047 132.477 221.819 133.409 222.621C133.409 222.621 131.078 221.991 131.017 222.35C131.017 222.425 131.19 223.418 131.19 223.418C131.19 223.418 133.764 223.031 135.167 224.313C135.167 224.313 132.472 223.189 131.255 223.796L131.619 225.283C131.619 225.283 134.318 224.737 135.974 226.141C135.974 226.141 133.12 225.059 131.721 225.6L132.276 226.999C132.276 226.999 134.92 226.533 136.291 227.694C136.291 227.694 132.864 226.761 132.425 227.316C132.664 227.859 132.968 228.371 133.33 228.841C133.33 228.841 135.237 228.538 135.974 229.307C135.974 229.307 133.614 228.939 133.53 229.186C133.53 229.186 134.738 230.626 135.736 231.051C134.799 230.722 133.964 230.153 133.316 229.4C133.254 230.008 133.373 230.621 133.656 231.163C133.656 231.163 132.64 230.696 133.027 229.046C133.027 229.046 132.136 227.88 132.132 227.647C132.132 227.647 131.516 229.223 131.665 230.328C131.665 230.328 130.919 229.172 131.973 227.279L131.386 225.88C131.386 225.88 130.453 227.917 130.523 228.911C130.523 228.911 129.945 227.614 131.269 225.511L130.896 224.061C130.407 224.942 130.036 225.882 129.791 226.859C129.791 226.859 129.511 225.535 130.803 223.623L130.668 222.621C130.668 222.621 130.015 223.87 129.861 224.248C129.707 224.626 129.59 224.612 129.59 224.612C129.698 223.729 130.05 222.894 130.607 222.201C130.607 222.201 130.453 220.112 130.327 220.112Z" fill="#0A2647"/>
<path opacity="0.1" d="M115.248 121.455C115.248 121.455 111.452 131.918 119.29 132.874C119.65 133.05 120.057 133.108 120.452 133.04C120.847 132.973 121.211 132.782 121.491 132.496C121.491 132.496 120.941 132.314 121.449 131.293C121.625 130.929 121.758 130.545 121.846 130.151C121.965 129.618 121.908 129.062 121.682 128.565C121.682 128.565 121.333 125.203 116.777 122.588C116.777 122.588 115.966 121.408 115.681 121.361L115.919 123.39C115.919 123.39 117.397 123.156 118.33 123.958C118.33 123.958 115.999 123.329 115.938 123.693C115.938 123.763 116.11 124.76 116.11 124.76C116.11 124.76 118.684 124.369 120.092 125.656C120.092 125.656 117.397 124.527 116.176 125.138L116.539 126.621C116.539 126.621 119.239 126.075 120.899 127.479C120.899 127.479 118.041 126.397 116.642 126.943L117.197 128.341C117.197 128.341 119.841 127.875 121.211 129.041C121.211 129.041 117.784 128.108 117.346 128.658C117.585 129.201 117.889 129.713 118.251 130.183C118.251 130.183 120.158 129.885 120.894 130.649C120.894 130.649 118.54 130.281 118.456 130.524C118.456 130.524 119.659 131.969 120.657 132.389C119.72 132.056 118.886 131.485 118.237 130.733C118.175 131.343 118.293 131.957 118.577 132.501C118.577 132.501 117.56 132.034 117.952 130.379C117.952 130.379 117.057 129.218 117.052 128.98C117.052 128.98 116.441 130.552 116.586 131.661C116.586 131.661 115.835 130.5 116.894 128.612L116.302 127.213C116.302 127.213 115.369 129.251 115.439 130.248C115.439 130.248 114.861 128.948 116.185 126.845L115.812 125.395C115.324 126.275 114.953 127.216 114.707 128.192C114.707 128.192 114.432 126.873 115.719 124.956L115.588 123.958C115.588 123.958 114.931 125.208 114.777 125.581C114.623 125.954 114.506 125.949 114.506 125.949C114.614 125.067 114.966 124.232 115.523 123.539C115.523 123.539 115.378 121.455 115.248 121.455Z" fill="#0A2647"/>
<path opacity="0.1" d="M143.429 178.433C143.429 178.433 146.362 189.157 153.319 185.427C153.714 185.364 154.079 185.178 154.363 184.895C154.646 184.612 154.832 184.246 154.895 183.851C154.895 183.851 154.345 184.019 154.172 182.895C154.106 182.496 153.994 182.107 153.836 181.734C153.63 181.228 153.261 180.805 152.787 180.531C152.787 180.531 150.563 177.985 145.327 178.47C145.327 178.47 143.984 177.981 143.723 178.107L145.084 179.622C145.084 179.622 146.162 178.582 147.388 178.689C147.388 178.689 145.108 179.529 145.276 179.85C145.313 179.916 146.031 180.624 146.031 180.624C146.031 180.624 147.896 178.82 149.798 179.058C149.798 179.058 146.95 179.692 146.306 180.895L147.458 181.897C147.458 181.897 149.351 179.897 151.514 180.084C151.514 180.084 148.554 180.848 147.724 182.098L148.992 182.933C148.992 182.933 150.857 181.016 152.675 181.189C152.675 181.189 149.346 182.415 149.295 183.105C149.804 183.411 150.349 183.654 150.917 183.828C150.917 183.828 152.316 182.485 153.337 182.676C153.337 182.676 151.197 183.735 151.272 183.982C151.272 183.982 153.09 184.448 154.139 184.224C153.184 184.495 152.175 184.511 151.211 184.271C151.511 184.804 151.962 185.238 152.507 185.516C152.507 185.516 151.407 185.716 150.773 184.145C150.773 184.145 149.374 183.711 149.225 183.515C149.225 183.515 149.635 185.157 150.391 185.977C150.391 185.977 149.113 185.46 148.885 183.306L147.593 182.499C147.593 182.499 148.017 184.695 148.633 185.474C148.633 185.474 147.411 184.746 147.281 182.266L146.143 181.296C146.254 182.302 146.495 183.29 146.861 184.233C146.861 184.233 145.877 183.301 145.826 181.007L145.14 180.265C145.14 180.265 145.327 181.664 145.416 182.061C145.504 182.457 145.416 182.527 145.416 182.527C144.995 181.744 144.802 180.859 144.856 179.972C144.856 179.972 143.536 178.363 143.429 178.433Z" fill="#0A2647"/>
<path opacity="0.1" d="M222.994 188.009C222.994 188.009 225.926 198.733 232.879 195.003C233.275 194.942 233.642 194.756 233.926 194.473C234.21 194.19 234.397 193.823 234.459 193.427C234.459 193.427 233.904 193.595 233.732 192.495C233.67 192.095 233.559 191.706 233.401 191.334C233.191 190.828 232.821 190.405 232.347 190.131C232.347 190.131 230.123 187.585 224.887 188.074C224.887 188.074 223.544 187.58 223.287 187.706L224.644 189.221C224.644 189.221 225.721 188.182 226.948 188.289C226.948 188.289 224.668 189.128 224.84 189.45C224.873 189.515 225.595 190.224 225.595 190.224C225.595 190.224 227.461 188.419 229.363 188.657C229.363 188.657 226.509 189.291 225.866 190.494L227.022 191.497C227.022 191.497 228.887 189.497 231.074 189.683C231.074 189.683 228.118 190.448 227.288 191.697L228.556 192.532C228.556 192.532 230.421 190.616 232.235 190.788C232.235 190.788 228.906 192.014 228.859 192.704C229.367 193.011 229.91 193.254 230.477 193.427C230.477 193.427 231.876 192.084 232.897 192.276C232.897 192.276 230.762 193.334 230.832 193.581C230.832 193.581 232.65 194.047 233.704 193.824C232.747 194.094 231.736 194.11 230.771 193.87C231.072 194.403 231.523 194.835 232.067 195.115C232.067 195.115 230.967 195.316 230.333 193.744C230.333 193.744 228.934 193.311 228.789 193.115C228.789 193.115 229.195 194.756 229.95 195.577C229.95 195.577 228.673 195.059 228.444 192.905L227.153 192.089C227.153 192.089 227.577 194.285 228.197 195.064C228.197 195.064 226.976 194.336 226.845 191.856L225.703 190.886C225.813 191.893 226.056 192.88 226.425 193.824C226.425 193.824 225.437 192.891 225.386 190.597L224.7 189.856C224.7 189.856 224.887 191.254 224.975 191.651C225.064 192.047 224.975 192.117 224.975 192.117C224.555 191.334 224.362 190.449 224.416 189.562C224.416 189.562 223.101 187.939 222.994 188.009Z" fill="#0A2647"/>
<path d="M193.143 295.708C193.143 295.708 217.333 287.563 212.325 258.701L181.598 250.723L174.464 274.405L193.143 295.708Z" fill="#CED7E7"/>
<path opacity="0.1" d="M174.464 274.405L193.138 295.709C193.138 295.709 217.329 287.563 212.321 258.701L174.464 274.405Z" fill="black"/>
<path d="M72.8173 61.1785C72.8173 61.1785 76.0812 66.4894 80.5434 63.8363C85.0056 61.1832 80.7252 53.8534 80.7252 53.8534C80.7252 53.8534 72.1785 52.6831 72.8173 61.1785Z" fill="#FED253"/>
<path opacity="0.1" d="M80.5435 63.8375C80.0172 64.178 79.4268 64.4075 78.8086 64.5117C78.1905 64.6159 77.5575 64.5928 76.9486 64.4436C75.312 64.0286 74.0531 62.7697 73.377 61.9444C73.1753 61.7026 72.9884 61.4488 72.8174 61.1844C72.589 58.1536 73.5308 56.3492 74.8364 55.2861C76.6315 53.8267 79.1168 53.766 80.1892 53.8127C80.5202 53.8127 80.7114 53.8593 80.7114 53.8593L80.8 54.0085C80.9259 54.2463 81.201 54.7732 81.4947 55.4773C82.4925 57.7853 83.6815 61.9677 80.5435 63.8375Z" fill="black"/>
<path d="M195.521 257.344L212.307 258.701L243.547 258.957L218.932 289.265C218.932 289.265 211.122 289.689 209.514 290.789C207.905 291.89 185.319 291.302 185.319 291.302L181.673 275.766L195.521 257.344Z" fill="#FFA2A2"/>
<path opacity="0.05" d="M195.521 257.344L212.307 258.701L243.547 258.957L218.932 289.265C218.932 289.265 211.122 289.689 209.514 290.789C207.905 291.89 185.319 291.302 185.319 291.302L181.673 275.766L195.521 257.344Z" fill="black"/>
<path d="M178.544 175.859L182.447 182.48L183.296 194.024C183.296 194.024 186.014 203.867 188.052 206.754C190.089 209.64 190.938 217.282 190.938 217.282C190.938 217.282 191.786 224.411 192.803 225.936C193.819 227.461 195.181 238.525 195.181 238.525C195.181 238.525 204.18 256.519 212.326 258.724C212.326 258.724 171.923 271.966 193.143 295.732C193.143 295.732 178.036 299.462 174.469 295.224C170.902 290.985 161.567 228.169 161.567 228.169L164.454 175.201L178.544 175.859Z" fill="#CED7E7"/>
<path opacity="0.05" d="M178.544 175.859L182.447 182.48L183.296 194.024C183.296 194.024 186.014 203.867 188.052 206.754C190.089 209.64 190.938 217.282 190.938 217.282C190.938 217.282 191.786 224.411 192.803 225.936C193.819 227.461 195.181 238.525 195.181 238.525C195.181 238.525 204.18 256.519 212.326 258.724C212.326 258.724 171.923 271.966 193.143 295.732C193.143 295.732 178.036 299.462 174.469 295.224C170.902 290.985 161.567 228.169 161.567 228.169L164.454 175.201L178.544 175.859Z" fill="black"/>
<path d="M129.525 111.33C128.392 117.212 128.728 123.282 130.505 129.002L124.219 146.995C124.219 146.995 76.3472 120.343 80.4224 113.89C82.7305 110.23 83.0242 100.546 82.8377 92.8522C82.7025 87.0051 82.2875 82.3145 82.2875 82.3145C82.2875 82.3145 141.038 88.0915 133.218 101.501C131.449 104.549 130.201 107.871 129.525 111.33Z" fill="#FFA2A2"/>
<path opacity="0.1" d="M133.218 101.501C131.448 104.549 130.2 107.871 129.525 111.33C120.806 114.12 111.391 113.803 102.879 110.434C94.3676 107.065 87.2856 100.853 82.8373 92.8522C82.7021 87.0051 82.2871 82.3145 82.2871 82.3145C82.2871 82.3145 141.023 88.0915 133.218 101.501Z" fill="black"/>
<path d="M156.984 72.6398C156.988 78.8639 155.523 85.0011 152.709 90.5526C149.895 96.1041 145.81 100.913 140.787 104.589C135.764 108.265 129.945 110.703 123.802 111.706C117.66 112.71 111.367 112.25 105.436 110.363C99.5042 108.477 94.1018 105.217 89.6673 100.85C85.2328 96.4821 81.8915 91.1298 79.9149 85.2279C77.9383 79.326 77.3823 73.041 78.292 66.8837C79.2017 60.7264 81.5515 54.8707 85.1503 49.7925C85.7098 49.0061 86.2989 48.2383 86.9175 47.4892C90.4422 43.2052 94.8283 39.7102 99.7912 37.2312C102.484 35.8841 105.324 34.8545 108.254 34.1632C113.545 32.9097 119.037 32.7584 124.389 33.7186C129.741 34.6788 134.838 36.7301 139.364 39.7447C143.889 42.7593 147.745 46.6729 150.693 51.2419C153.641 55.8109 155.617 60.9376 156.499 66.3032C156.828 68.3992 156.99 70.518 156.984 72.6398Z" fill="#FFA2A2"/>
<path d="M172.599 235.279C172.007 238.441 172.748 244.218 173.872 250.097C173.919 250.354 173.97 250.61 174.021 250.867C174.073 251.123 174.147 251.52 174.212 251.841C174.73 254.368 175.294 256.872 175.844 259.148C176.395 261.423 176.889 263.372 177.309 264.976C177.943 267.377 178.376 268.888 178.376 268.888C178.376 268.888 178.432 270.371 178.507 272.73C178.549 274.092 178.595 275.752 178.642 277.584C178.642 278.116 178.675 278.656 178.689 279.216C178.712 280.19 178.735 281.202 178.759 282.237C178.759 282.573 178.759 282.909 178.782 283.249C178.782 284.364 178.824 285.501 178.843 286.634C178.866 288.192 178.885 289.749 178.894 291.26C178.894 291.838 178.894 292.407 178.894 292.966C178.894 294.412 178.894 295.797 178.894 297.069C178.843 300.683 178.698 303.411 178.39 304.199C178.283 304.469 178.185 304.763 178.092 305.071C177.688 306.518 177.395 307.994 177.215 309.486L176.423 308.838C174.907 307.588 173.406 306.311 171.881 305.071C169.347 302.948 166.657 301.018 163.833 299.298C163.642 299.186 163.451 299.074 163.255 298.967C162.733 298.664 162.201 298.38 161.661 298.109C160.546 297.548 159.404 297.043 158.238 296.598C152.853 294.547 147.085 293.801 141.238 293.927C138.907 294.817 137.391 295.456 137.391 295.456L134.426 296.351L133.931 296.501C130.719 297.48 126.201 298.869 124.573 299.447C121.944 300.38 99.1104 305.131 99.1104 305.131C97.0244 305.701 94.8936 306.091 92.7411 306.297C88.8219 307.399 84.8323 308.234 80.7999 308.796C71.6366 309.968 62.3297 309.218 53.4719 306.595C53.2075 306.611 52.9422 306.603 52.6792 306.572C52.8424 306.572 53.0009 306.535 53.1455 306.507L52.5766 306.339L51.7979 306.096C50.4924 305.686 49.1977 305.237 47.9139 304.749L47.1352 304.45C45.8919 303.972 44.6749 303.457 43.4844 302.907L42.7057 302.553C41.4623 301.975 40.2453 301.364 39.0548 300.72C38.6258 300.497 38.2015 300.254 37.7819 300.026C36.5136 299.317 35.2702 298.574 34.0517 297.797C33.8466 296.039 33.7393 294.864 33.7393 294.864L31.9209 285.809L31.8276 285.343L30.522 278.815L30.4288 278.349L27.5892 264.146L27.496 263.68L26.1904 257.152L26.0971 256.686L23.2203 242.493L23.127 242.026L21.8214 235.498L21.7282 235.032L18.8746 220.811L18.7814 220.345L17.4758 213.84L17.3826 213.374L16.865 210.809L16.0863 206.925C16.0863 206.925 13.6011 203.372 10.8035 199.171L10.4911 198.705C9.69376 197.525 8.87313 196.299 8.07581 195.096C7.81003 194.7 7.55359 194.308 7.29714 193.921C6.90858 193.334 6.53245 192.76 6.16876 192.201L5.91697 191.814L5.86569 191.734C1.84644 185.514 4.53682 182.81 4.53682 182.81C4.53682 182.81 6.22471 180.525 8.40219 177.504C8.50944 177.35 8.62134 177.196 8.73791 177.038C9.67045 175.732 10.6962 174.305 11.7034 172.878L12.4821 171.769C12.7758 171.354 13.0649 170.939 13.3447 170.528C13.4566 170.375 13.5638 170.216 13.6664 170.062C15.8159 166.957 17.5877 164.248 17.9514 163.287C18.5203 161.772 22.1478 157.291 25.7614 153.36C28.6103 150.255 31.4453 147.495 32.7182 146.833C35.6044 145.308 36.7934 140.379 36.7934 140.379C36.7934 140.379 43.074 138.179 43.9226 136.481C44.7713 134.784 56.6565 127.156 56.6565 127.156C56.6565 127.156 61.4637 124.06 63.4081 122.195C63.6833 121.951 63.9234 121.67 64.1215 121.36C64.7976 120.148 69.2131 119.15 71.0083 118.791C71.4745 118.698 71.7636 118.647 71.7636 118.647C72.4883 117.33 73.4044 116.128 74.482 115.08C75.214 114.431 76.1279 112.198 76.8973 110.035C77.7319 107.675 78.38 105.404 78.38 105.404C79.7415 100.821 82.4552 102.178 82.4552 102.178C82.4515 102.804 82.5109 103.429 82.6324 104.043C83.7654 109.638 89.9202 111.97 93.1514 114.585C96.7184 117.467 102.318 124.941 106.734 126.466C110.389 127.729 114.628 132.495 115.971 134.085L116.073 134.206C116.297 134.467 116.409 134.616 116.409 134.616C116.409 134.616 118.913 134.486 120.438 134.458H120.992C121.303 134.427 121.597 134.307 121.841 134.113C123.356 133.082 125.613 130.061 126.597 129.366C127.781 128.513 128.975 114.763 128.975 114.763L129.036 114.735C133.265 112.753 137.801 132.588 137.801 132.588C137.801 132.588 145.779 134.966 146.46 136.663C146.591 136.999 147.192 137.596 148.097 138.318C152.215 141.466 156.599 144.251 161.199 146.641C161.301 146.693 161.399 146.744 161.502 146.786C161.594 146.836 161.689 146.881 161.786 146.921C161.959 147.005 162.127 147.08 162.285 147.15C162.537 147.262 162.77 147.355 162.985 147.429L163.264 147.527C163.933 147.75 164.562 148.075 165.13 148.492C165.297 148.614 165.465 148.74 165.628 148.875C166.263 149.403 166.847 149.99 167.372 150.628C167.452 150.721 167.526 150.819 167.601 150.912C167.955 151.355 168.272 151.794 168.533 152.199C168.962 152.825 169.353 153.476 169.704 154.148C169.704 154.148 176.66 166.034 178.871 167.386C181.081 168.738 182.438 182.498 182.438 182.498L174.977 210.152C174.977 210.152 174.627 217.146 173.975 224.28C173.611 228.281 173.149 232.351 172.599 235.279Z" fill="#CED7E7"/>
<path d="M116.409 135.456C116.409 135.456 111.406 138.17 107.498 138.426C106.987 138.45 106.474 138.42 105.969 138.338C101.875 137.718 95.8696 134.351 95.8696 134.351L102.915 126.625L111.485 130.873L114.637 133.806L116.409 135.456Z" fill="#63667E"/>
<path opacity="0.1" d="M156.48 66.3036C156.303 66.5543 156.101 66.787 155.879 66.9983C153.426 69.3297 149.071 68.3645 145.728 67.8236C142.823 67.3487 139.985 66.5285 137.274 65.3804C134.915 64.3732 132.085 63.1423 129.963 64.5877C129.147 65.1379 128.588 66.0192 127.739 66.5041C126.891 66.989 125.809 67.0216 124.806 67.0356C121.542 67.0356 118.279 67.0729 115.094 66.3362C110.343 65.2265 105.428 62.4335 100.91 64.2753C97.3757 65.7114 95.4593 69.5582 94.5035 73.2557C94.0372 75.0695 93.6922 76.9858 92.6384 78.5245C91.5846 80.0632 89.547 81.1543 87.8125 80.4316C85.2527 79.3638 84.875 75.0182 81.7883 74.799C78.3985 74.5612 78.4405 78.0629 79.429 80.5948C80.893 84.3249 82.8094 88.0551 82.8933 91.9438C79.2502 85.4187 77.5288 77.9955 77.9282 70.5329C78.3275 63.0704 80.8314 55.8733 85.1501 49.7743C85.9017 49.3089 86.4899 48.6213 86.8333 47.8067C86.8679 47.6965 86.8959 47.5844 86.9173 47.4709C87.1737 46.17 86.451 44.8039 86.409 43.4424C86.2458 40.1179 89.8454 37.8005 93.1466 37.3809C95.3428 37.1011 97.5902 37.3156 99.791 37.2456C100.9 37.2212 102.002 37.0742 103.078 36.8073C104.935 36.251 106.673 35.358 108.207 34.1729C113.498 32.9195 118.99 32.7681 124.342 33.7284C129.694 34.6886 134.792 36.7398 139.317 39.7545C143.842 42.7691 147.699 46.6826 150.646 51.2517C153.594 55.8207 155.571 60.9474 156.452 66.3129L156.48 66.3036Z" fill="black"/>
<path d="M157.278 63.5581C157.045 64.4804 156.561 65.3199 155.879 65.9827C153.426 68.3141 149.071 67.3442 145.728 66.8034C142.823 66.3388 139.985 65.5247 137.275 64.3788C134.915 63.3763 132.085 62.1453 129.964 63.5908C129.148 64.141 128.588 65.0222 127.74 65.5071C126.891 65.9921 125.809 66.0247 124.807 66.034C121.543 66.0573 118.279 66.076 115.094 65.3393C110.343 64.2249 105.429 61.4366 100.91 63.2737C97.3761 64.7098 95.4597 68.5612 94.5038 72.2587C94.0376 74.0725 93.6925 75.9889 92.6388 77.5229C91.585 79.057 89.5474 80.1573 87.8129 79.4346C85.253 78.3669 84.8754 74.0212 81.7887 73.8021C78.3989 73.5643 78.4408 77.066 79.4293 79.5978C81.1638 84.0134 83.5232 88.4057 82.7492 93.087C81.9798 93.087 80.7069 93.059 79.9515 93.0404C80.539 92.0379 79.42 90.8443 78.3056 90.5039C77.1912 90.1635 75.8903 90.1682 75.0417 89.3569C74.1931 88.5456 74.1884 87.2913 74.277 86.1676C74.4704 83.7658 75.058 81.4123 76.0162 79.2015C76.627 77.8027 77.415 76.2873 76.9488 74.8232C76.6689 74.1596 76.3319 73.5215 75.9416 72.9162C74.9718 71.0511 75.2003 68.7197 76.0302 66.794C76.3846 65.9734 76.641 65.1994 76.9348 64.4627C77.3057 63.4155 77.8426 62.4347 78.5248 61.5578C79.5925 60.229 80.637 58.2287 79.4573 56.9931C79.1589 56.6807 79.7557 56.4662 79.5645 56.0605C79.5308 55.9912 79.5072 55.9174 79.4946 55.8414C79.4398 55.3502 79.5586 54.8553 79.8303 54.4426C79.8854 54.3353 79.9461 54.231 80.0122 54.1302C80.0658 54.0236 80.1265 53.9208 80.194 53.8224C81.2265 52.0985 82.5987 50.6026 84.2272 49.4255C85.239 48.6934 86.4234 47.9894 86.8244 46.8051C87.2906 45.4062 86.47 43.9188 86.4001 42.4408C86.2369 39.1163 89.8365 36.7989 93.1377 36.3793C96.4388 35.9596 99.8613 36.6544 103.079 35.8011C107.643 34.5981 110.851 30.5695 114.996 28.3081C117.264 27.0956 119.779 26.4174 122.349 26.3253C124.918 26.2332 127.475 26.7296 129.824 27.7766C134.664 29.9867 138.315 34.4536 143.369 36.1321C145.159 36.729 147.099 36.9668 148.712 37.9552C150.577 39.1023 151.711 41.1072 152.68 43.0842C154.158 46.0823 154.457 49.0944 155.478 52.2697C156.289 54.7876 157.413 58.0795 157.506 60.9797C157.559 61.8457 157.482 62.7148 157.278 63.5581Z" fill="#896363"/>
<g opacity="0.1">
<path d="M80.063 57.7146C80.1376 57.4161 80.1449 57.1049 80.0844 56.8033C80.024 56.5017 79.8972 56.2173 79.7133 55.9707C79.8345 56.3344 79.3076 56.5442 79.5967 56.8473C79.827 57.0894 79.988 57.3889 80.063 57.7146Z" fill="black"/>
<path d="M79.6995 54.9023C79.6445 55.0651 79.6116 55.2344 79.6016 55.4059C79.6902 55.2567 79.8114 55.1028 79.6995 54.9023Z" fill="black"/>
<path d="M156.009 64.843C153.552 67.1743 149.202 66.2091 145.849 65.6636C142.946 65.1962 140.11 64.3773 137.405 63.225C135.041 62.2179 132.215 60.9869 130.089 62.4324C129.278 62.9826 128.718 63.8638 127.865 64.3487C127.012 64.8336 125.935 64.8663 124.932 64.8756C121.668 64.8756 118.404 64.9176 115.215 64.1762C110.469 63.0665 105.554 60.2829 101.036 62.1153C97.5016 63.5561 95.5852 67.4028 94.6294 71.1003C94.1631 72.9141 93.8227 74.8305 92.7643 76.3692C91.7058 77.9079 89.6682 78.9989 87.9384 78.2809C85.3785 77.2085 85.0009 72.8675 81.9142 72.6483C79.5035 72.4758 78.8321 74.201 78.9953 76.1174C79.1352 74.6533 79.9279 73.5249 81.9142 73.6648C85.0009 73.8839 85.3785 78.2296 87.9384 79.2973C89.6682 80.0201 91.7105 78.9337 92.7643 77.3856C93.818 75.8376 94.1631 73.9306 94.6294 72.1214C95.5852 68.4239 97.5016 64.5725 101.036 63.1364C105.554 61.2993 110.469 64.069 115.215 65.1973C118.386 65.9387 121.678 65.9154 124.932 65.8921C125.935 65.8921 126.993 65.8641 127.865 65.3699C128.737 64.8756 129.264 64.0037 130.089 63.4488C132.215 62.008 135.041 63.239 137.405 64.2415C140.111 65.3932 142.946 66.2135 145.849 66.6847C149.202 67.2256 153.552 68.2001 156.009 65.8594C157.343 64.5865 157.744 62.7448 157.655 60.7305C157.58 62.3298 157.114 63.7799 156.009 64.843Z" fill="black"/>
<path d="M86.563 41.5957C86.5372 41.8279 86.5279 42.0616 86.535 42.2951C86.5817 43.2649 86.95 44.2348 87.0666 45.1813C87.2391 44.0203 86.7029 42.808 86.563 41.5957Z" fill="black"/>
<path d="M77.0883 74.6781C77.1268 74.8175 77.1563 74.9593 77.1769 75.1024C77.2525 74.6214 77.2223 74.1298 77.0883 73.6616C76.8103 72.9956 76.4733 72.3558 76.0812 71.7499C75.7309 71.0602 75.5231 70.307 75.4704 69.5352C75.3756 70.6493 75.5868 71.7682 76.0812 72.7711C76.4742 73.3748 76.8113 74.0131 77.0883 74.6781Z" fill="black"/>
<path d="M82.8746 91.9195L80.1469 91.8776C80.2105 92.0424 80.236 92.2194 80.2215 92.3954C80.207 92.5715 80.1528 92.7419 80.063 92.894C80.8323 92.894 82.1099 92.922 82.8606 92.9407C82.991 92.1426 83.0364 91.333 82.9958 90.5254C82.9852 90.9922 82.9447 91.4579 82.8746 91.9195Z" fill="black"/>
<path d="M78.4124 89.3424C77.298 89.0067 76.0018 89.0021 75.1718 88.1861C74.6833 87.6516 74.4079 86.9565 74.3978 86.2324C74.3279 87.3048 74.3978 88.4612 75.1718 89.2072C76.0018 90.0232 77.298 90.0279 78.4124 90.3636C78.775 90.469 79.1122 90.6475 79.4032 90.8881C79.6943 91.1286 79.9331 91.4262 80.105 91.7624C80.5759 90.7972 79.4942 89.6642 78.4124 89.3424Z" fill="black"/>
</g>
<path opacity="0.1" d="M163.241 298.967C162.719 298.664 162.187 298.38 161.647 298.11C160.532 297.548 159.39 297.044 158.224 296.599C152.839 294.547 147.071 293.801 141.224 293.927C138.893 294.818 137.377 295.456 137.377 295.456L134.412 296.352L133.917 296.501C133.885 296.174 133.847 295.848 133.815 295.517C133.782 295.186 133.745 294.869 133.708 294.543C132.663 284.653 131.843 274.493 131.843 274.493V265.718V264.697L131.787 238.842L131.32 230.319L131.101 226.546L131.059 225.828L130.975 224.355L130.929 223.478C130.826 223.201 130.739 222.917 130.668 222.63C130.635 222.513 130.602 222.383 130.574 222.247C130.458 221.781 130.332 221.18 130.201 220.527C129.348 216.237 128.28 209.005 128.215 207.537C128.131 205.578 126.434 193.866 126.434 193.866C126.261 187.417 120.839 175.275 119.472 172.986C118.106 170.697 116.582 156.942 117.094 156.2C117.36 155.804 117.533 153.459 117.64 151.295C117.64 151.048 117.663 150.805 117.673 150.568C117.743 148.875 117.775 147.462 117.775 147.462L123.109 146.409L124.541 146.129L124.653 146.105L124.699 146.199C124.853 146.483 125.333 147.392 125.898 148.586C125.963 148.712 126.023 148.847 126.089 148.982C126.117 149.048 126.149 149.113 126.182 149.178C127.226 151.463 128.434 154.47 128.383 156.2C128.299 159.259 131.782 166.645 131.782 166.645C132.118 168.342 139.503 185.23 139.503 185.23C139.503 185.23 145.532 201.783 145.192 204.501C144.851 207.219 148.078 225.213 148.078 225.213L151.389 243.719C152.997 247.365 155.119 255.768 155.119 255.768L155.925 260.533L156.079 261.442L158.229 274.157L159.283 280.387C159.283 280.387 159.725 283.697 160.397 287.381C160.453 287.712 160.518 288.047 160.583 288.383C160.997 290.808 161.585 293.2 162.341 295.54C162.716 296.662 163.017 297.806 163.241 298.967Z" fill="black"/>
<path d="M163.819 299.298C163.628 299.186 163.437 299.074 163.241 298.967C162.719 298.664 162.187 298.38 161.646 298.109C160.532 297.547 159.39 297.043 158.224 296.598C152.839 294.547 147.071 293.801 141.224 293.927C138.892 294.817 137.377 295.456 137.377 295.456L134.412 296.351C134.374 296.025 134.342 295.698 134.304 295.367C134.267 295.036 134.239 294.771 134.211 294.472C133.167 284.606 132.346 274.492 132.346 274.492V265.633V264.612L132.29 238.823L131.824 230.682L131.73 228.994L131.665 227.851L131.581 226.341L131.497 224.807L131.437 223.702V223.459C131.437 223.436 131.437 223.408 131.404 223.38C131.315 223.128 131.208 222.746 131.092 222.261L131.036 222.028C131.012 221.921 130.984 221.804 130.961 221.687C130.085 217.71 128.798 209.135 128.728 207.527C128.644 205.568 126.947 193.856 126.947 193.856C126.774 187.407 121.351 175.266 119.985 172.976C118.619 170.687 117.099 156.932 117.607 156.19C117.901 155.724 118.073 152.894 118.185 150.558C118.185 150.371 118.185 150.19 118.185 150.017C118.246 148.576 118.269 147.453 118.269 147.453L123.23 146.473L124.489 146.226L124.685 146.189L125.151 146.096C125.151 146.096 125.762 147.224 126.494 148.777L126.588 148.973C127.655 151.276 128.919 154.409 128.882 156.19C128.798 159.249 132.281 166.635 132.281 166.635C132.616 168.332 140.002 185.22 140.002 185.22C140.002 185.22 146.031 201.773 145.691 204.491C145.35 207.21 148.577 225.203 148.577 225.203L151.887 243.709C153.496 247.356 155.617 255.758 155.617 255.758L156.368 260.197L156.522 261.097L158.215 271.131L159.777 280.377C159.777 280.377 160.243 283.673 160.886 287.371C160.947 287.707 161.008 288.042 161.073 288.383C161.486 290.818 162.073 293.221 162.831 295.573C163.244 296.791 163.574 298.035 163.819 299.298Z" fill="#63667E"/>
<path d="M159.614 59.8266C159.614 59.8266 157.832 62.1207 156.224 62.1207C154.615 62.1207 148.353 61.8642 145.089 60.8478C141.825 59.8313 125.823 59.062 125.823 59.062C125.823 59.062 103.162 59.1459 102.398 58.3812C101.633 57.6165 88.3069 53.5413 86.95 53.7978C86.6656 53.8537 85.9709 53.975 85.043 54.1288L83.9799 54.3013C82.3713 54.5578 80.3616 54.8562 78.5245 55.0754C76.2538 55.3411 74.2582 55.4763 73.624 55.2432V53.2895C73.624 53.2895 76.2538 49.4661 76.4216 48.3704C76.5895 47.2747 78.7996 31.3888 84.572 25.705C86.9568 21.1463 90.816 17.5304 95.5201 15.4471C103.33 12.048 111.14 9.1664 111.14 9.1664L112.506 8.97057L116.913 8.31779C117.046 8.18445 117.192 8.06278 117.346 7.9541C118.568 7.02156 122.27 4.99329 127.096 9.35291L127.949 10.7144C127.949 10.7144 142.8 14.1928 149.673 26.3298C156.545 38.4668 156.891 50.352 157.399 55.7841C157.399 55.7841 157.058 57.3134 157.739 57.9056C157.986 58.1233 158.221 58.3537 158.443 58.5957C158.504 58.6563 158.564 58.7169 158.62 58.7822C158.816 58.978 158.998 59.1832 159.147 59.351C159.165 59.3642 159.181 59.3799 159.194 59.3977C159.23 59.4418 159.269 59.4839 159.31 59.5236L159.614 59.8266Z" fill="#FED253"/>
<path opacity="0.05" d="M159.613 59.828C159.613 59.828 157.832 62.1221 156.224 62.1221C154.615 62.1221 148.353 61.8656 145.089 60.8492C141.825 59.8327 125.823 59.0634 125.823 59.0634C125.823 59.0634 103.162 59.1473 102.397 58.3826C101.633 57.6179 88.3067 53.5427 86.9499 53.7992C86.6654 53.8551 85.9707 53.9764 85.0428 54.1302L84.8004 52.6382L84.7397 52.2698C84.7397 52.2698 110.459 46.7538 127.604 49.6447C144.749 52.5356 157.399 55.7528 157.399 55.7528C157.399 55.7528 157.058 57.2822 157.739 57.8744C157.985 58.0921 158.22 58.3224 158.443 58.5644C158.504 58.6251 158.564 58.6857 158.62 58.7509C158.816 58.9468 158.998 59.1519 159.147 59.3198C159.165 59.3329 159.181 59.3486 159.194 59.3664C159.23 59.4105 159.269 59.4525 159.31 59.4923L159.613 59.828Z" fill="black"/>
<path opacity="0.1" d="M157.278 63.5567C154.102 63.8038 148.251 63.0298 145.691 62.6521C144.963 62.5449 144.25 62.4143 143.532 62.2558C140.786 61.6589 132.341 59.985 127.212 60.759C121.016 61.6916 103.531 59.9944 103.531 59.9944C103.531 59.9944 92.7504 57.7889 88.4188 56.0078C86.8288 55.3503 84.171 55.1452 81.5273 55.4715C80.8531 55.5556 80.1838 55.6755 79.5223 55.8306C75.9134 56.6838 72.8686 58.6282 73.3955 61.9434C73.1938 61.7016 73.007 61.4478 72.836 61.1833C72.6075 58.1526 73.5494 56.3481 74.855 55.285L75.1627 55.1591C76.7575 54.706 78.3806 54.3586 80.0212 54.1194C80.2777 54.0774 80.5434 54.0401 80.8139 54.0075C85.4533 53.3826 92.1629 53.2428 97.8234 56.0917C97.8234 56.0917 103.083 58.5583 106.65 58.5583C110.217 58.5583 139.242 58.8147 146.036 60.7637C147.388 61.1544 148.767 61.4458 150.162 61.6356C152.639 61.9549 155.156 61.7176 157.529 60.9409C157.578 61.8205 157.493 62.7024 157.278 63.5567Z" fill="black"/>
<path opacity="0.1" d="M159.614 59.8275C159.614 59.8275 157.832 62.1216 156.224 62.1216C154.615 62.1216 148.353 61.8651 145.089 60.8486C141.825 59.8322 125.823 59.0628 125.823 59.0628C125.823 59.0628 103.162 59.1467 102.398 58.3821C101.633 57.6174 88.3069 53.5422 86.95 53.7986C86.6656 53.8546 85.9709 53.9758 85.043 54.1297L83.9799 54.3022C82.1334 54.2928 80.2955 54.5535 78.5245 55.0762C76.2538 55.342 74.2582 55.4772 73.624 55.2441V54.8571C74.1129 54.5733 74.6226 54.3271 75.1487 54.1204C78.2951 53.2393 81.5351 52.7353 84.8005 52.619C88.8711 52.4698 93.6317 52.9454 97.8141 55.0529C97.8141 55.0529 103.074 57.5195 106.641 57.5195C110.208 57.5195 139.233 57.7713 146.026 59.7249C147.38 60.112 148.759 60.4018 150.153 60.5922C153.213 60.9778 156.32 60.5316 159.147 59.3006C159.165 59.3137 159.181 59.3294 159.194 59.3472C159.23 59.3913 159.269 59.4334 159.31 59.4731L159.614 59.8275Z" fill="black"/>
<path d="M73.4607 61.8657C73.4607 61.8657 67.7722 57.534 75.1579 54.6478C75.1579 54.6478 88.0596 50.6612 97.8233 55.5804C97.8233 55.5804 103.083 58.0376 106.65 58.0376C110.217 58.0376 139.242 58.2941 146.036 60.2477C147.389 60.6353 148.768 60.9251 150.162 61.115C153.776 61.5532 157.438 60.8575 160.639 59.124C161.105 58.8676 161.525 58.737 161.651 58.8862C162.075 59.3991 161.74 62.3693 158.005 62.9614C155.091 63.4277 148.47 62.5464 145.686 62.1408C144.963 62.0335 144.245 61.8983 143.532 61.7445C140.785 61.1476 132.341 59.4737 127.189 60.2477C120.997 61.1803 103.507 59.483 103.507 59.483C103.507 59.483 92.7316 57.2776 88.3999 55.4918C84.0683 53.706 71.8474 55.2446 73.4607 61.8657Z" fill="#FED253"/>
<path opacity="0.1" d="M121.417 16.3513C120.95 15.6799 114.959 10.8819 112.516 8.94225L116.922 8.28947C117.056 8.15614 117.201 8.03447 117.355 7.92578C120.559 11.2876 121.417 16.3513 121.417 16.3513Z" fill="black"/>
<path opacity="0.1" d="M101.982 42.0863L100.029 44.9725L107.498 44.7207L107.666 41.4941L101.982 42.0863Z" fill="black"/>
<path opacity="0.1" d="M147.561 45.5684L148.409 48.1981L153.165 48.9628L151.128 45.8201L147.561 45.5684Z" fill="black"/>
<path opacity="0.1" d="M65.9072 133.852C66.4155 134.7 83.1359 156.699 87.5515 156.088C91.9671 155.477 65.9072 133.852 65.9072 133.852Z" fill="black"/>
<path opacity="0.1" d="M121.93 153.957C121.93 153.957 126.005 157.864 125.408 159.389C124.811 160.914 121.93 153.957 121.93 153.957Z" fill="black"/>
<path opacity="0.1" d="M77.4522 180.781C77.4522 180.781 73.8853 197.502 75.755 198.033C77.6247 198.565 77.4522 180.781 77.4522 180.781Z" fill="black"/>
<path opacity="0.1" d="M123.287 245.715C123.879 247.412 128.803 258.449 129.908 259.041C131.013 259.633 123.287 245.715 123.287 245.715Z" fill="black"/>
<path opacity="0.1" d="M180.498 200.389C180.325 200.981 176.082 204.464 177.015 205.737C177.947 207.01 180.498 200.389 180.498 200.389Z" fill="black"/>
<path opacity="0.1" d="M147.56 231.367C147.476 231.796 146.628 240.693 148.241 242.404C149.854 244.115 147.56 231.367 147.56 231.367Z" fill="black"/>
<path opacity="0.1" d="M191.054 277.585C189.823 278.27 188.55 278.932 187.254 279.566C185.855 280.247 184.456 280.895 183.029 281.506C182.461 281.753 181.892 281.996 181.328 282.229C180.47 282.583 179.621 282.924 178.782 283.25C176.231 284.248 173.774 285.115 171.587 285.847C170.739 286.132 169.927 286.393 169.172 286.635C165.367 287.843 162.84 288.5 162.84 288.5C162.263 288.377 161.672 288.328 161.082 288.356C160.919 288.356 160.751 288.356 160.579 288.356C159.789 288.413 159.003 288.512 158.224 288.654C153.016 289.587 145.658 292.202 141.224 293.914C138.892 294.804 137.377 295.443 137.377 295.443L134.411 296.338L133.917 296.487C130.705 297.467 126.186 298.856 124.559 299.434C121.929 300.367 99.0961 305.118 99.0961 305.118C97.0102 305.687 94.8793 306.077 92.7269 306.284C87.4229 306.77 82.0918 306.892 76.7711 306.647C71.4277 306.992 62.783 305.817 57.752 305.025L56.95 304.899C55.0056 304.582 53.77 304.353 53.77 304.353L54.4228 303.453L67.8094 284.984L67.8887 284.873L80.3614 267.672L80.8277 267.047L81.9607 265.485C81.9607 265.485 82.6415 264.553 85.2619 264.492C85.5696 264.492 85.9054 264.492 86.2737 264.492C88.4748 264.669 90.6464 265.112 92.7409 265.811L93.347 265.993C102.379 268.581 116.339 267.933 116.339 267.933C116.339 267.933 125.025 266.534 131.852 265.695L132.36 265.63C134.59 265.314 136.837 265.12 139.088 265.047C143.247 265.131 152.246 262.925 152.246 262.925C154.181 262.51 154.997 262.161 156.088 261.382C156.233 261.279 156.387 261.167 156.555 261.046C157.021 260.696 157.557 260.268 158.247 259.736C159.506 258.771 161.273 257.461 164.052 255.623C164.295 255.465 164.551 255.306 164.826 255.157C165.101 255.008 165.451 254.807 165.787 254.64C168.478 253.365 171.315 252.426 174.236 251.842C176.658 251.321 179.116 250.983 181.589 250.83H181.957C188.951 250.457 196.094 251.656 200.272 255.586C201.003 256.277 201.639 257.061 202.165 257.918C202.42 258.324 202.648 258.748 202.846 259.186C203.227 260.021 203.51 260.897 203.69 261.797C203.724 261.965 203.752 262.133 203.774 262.3C203.774 262.352 203.774 262.398 203.774 262.45C203.774 262.585 203.802 262.72 203.811 262.855C204.184 268.437 198.393 273.482 191.054 277.585Z" fill="black"/>
<path d="M53.77 303.351C53.77 303.351 68.8772 306.148 76.7711 305.64C76.7711 305.64 91.2861 306.405 99.0961 304.116C99.0961 304.116 121.943 299.36 124.559 298.427C127.175 297.494 137.377 294.436 137.377 294.436C137.377 294.436 157.24 286.117 162.84 287.474C162.84 287.474 206.809 276.102 203.667 260.738C200.524 245.375 172.771 248.858 164.034 254.626C155.296 260.393 156.573 260.995 152.237 261.927C152.237 261.927 143.238 264.133 139.079 264.049C134.92 263.965 116.329 266.935 116.329 266.935C116.329 266.935 101.731 267.616 92.7362 264.814C83.7419 262.011 81.9561 264.473 81.9561 264.473L53.77 303.351Z" fill="#FFA2A2"/>
<path opacity="0.1" d="M86.5305 263.475C86.5328 263.493 86.5328 263.512 86.5305 263.531C86.498 263.877 86.4082 264.216 86.2648 264.533C84.4743 268.925 74.3096 280.773 74.3096 280.773C73.8462 282.181 73.2869 283.555 72.6357 284.886C71.2351 287.731 69.6219 290.466 67.8098 293.069C65.1238 296.962 62.1911 300.68 59.0299 304.199H59.0066C58.6044 304.497 58.1856 304.773 57.7524 305.024C56.6566 305.677 55.0107 306.484 53.458 306.581C53.1936 306.597 52.9284 306.589 52.6654 306.558C52.8286 306.558 52.9871 306.521 53.1316 306.493L52.5628 306.325L51.7841 306.083C50.4786 305.672 49.1839 305.223 47.9001 304.735L47.1214 304.437C45.878 303.958 44.6611 303.443 43.4705 302.893L42.6918 302.539C41.4485 301.961 40.2315 301.35 39.0409 300.706C38.612 300.483 38.1877 300.24 37.768 300.012C36.4998 299.303 35.2564 298.56 34.0379 297.783C32.7448 296.959 31.4796 296.1 30.2424 295.204C29.3099 293.475 28.5405 291.941 28.1209 291.115C27.3562 289.581 27.2909 287.385 27.3842 285.795C27.3842 285.632 27.3842 285.478 27.4122 285.329C27.4914 284.331 27.6127 283.646 27.6127 283.646C26.9218 282.722 26.2985 281.75 25.7476 280.736C25.4311 280.233 25.2511 279.656 25.2254 279.062C25.2465 278.824 25.2243 278.584 25.1601 278.353C24.8011 276.88 23.2577 274.348 21.8309 272.758C20.7678 271.588 20.7025 267.214 20.8051 264.114C20.8657 262.248 20.9823 260.878 20.9823 260.878C20.7734 260.743 20.617 260.54 20.5394 260.304C20.1644 259.284 19.9109 258.223 19.784 257.143C19.784 256.989 19.742 256.835 19.7187 256.677C19.4203 254.536 19.2851 252.387 19.2851 252.387C15.8347 249.874 14.1934 245.952 13.4287 242.455L13.3308 241.989C12.9109 239.84 12.7326 237.65 12.7993 235.461C12.7993 235.251 12.7993 235.093 12.7993 234.995C12.7993 234.897 12.7993 234.878 12.7993 234.878C12.7993 234.878 13.2562 224.774 14.5338 220.83C14.5851 220.662 14.641 220.508 14.697 220.363C14.7911 220.116 14.9131 219.88 15.0607 219.659C15.527 219.039 15.858 217.869 16.1331 216.484C16.3243 215.524 16.4828 214.456 16.5994 213.393C16.7066 212.507 16.7905 211.626 16.8558 210.81C17.0377 208.627 17.0936 206.926 17.0936 206.926L16.231 202.673C15.9932 201.512 15.8114 200.342 15.6855 199.171C15.6855 199.018 15.6482 198.864 15.6295 198.705C15.4115 196.544 15.3725 194.368 15.513 192.201C15.513 192.042 15.513 191.888 15.5409 191.734C15.905 186.797 17.1958 181.973 19.3457 177.513L19.5788 177.047C19.8897 176.425 20.2161 175.814 20.558 175.215C20.8051 174.772 21.0662 174.333 21.3367 173.9C22.0536 172.738 22.8318 171.616 23.668 170.538C23.7893 170.379 23.9152 170.225 24.041 170.072C25.496 168.268 27.1129 166.601 28.8716 165.092C33.5809 161.045 37.9032 159.287 41.8292 159.152C58.9973 158.545 68.6258 188.909 70.1831 194.229C70.3323 194.742 70.4069 195.022 70.4069 195.022C70.4069 195.022 77.3637 201.983 75.3261 205.037C74.931 205.709 74.6905 206.461 74.622 207.238C74.0625 211.346 75.6665 218.111 75.6665 218.111C75.6665 218.111 76.2353 219.976 77.8952 224.443L78.3848 225.749C79.4246 228.547 79.6671 233.242 79.0702 237.448C78.4967 241.476 77.1492 245.038 74.9904 245.952C70.5748 247.817 71.7638 249.683 72.7802 251.217C73.3843 252.316 73.8883 253.468 74.2863 254.658C74.9251 256.378 75.5173 258.187 75.7411 258.891C75.8063 259.087 75.839 259.194 75.839 259.194C76.4575 258.955 77.1 258.783 77.7553 258.682C78.59 258.565 79.4153 258.649 79.5738 259.362C79.6577 259.745 80.138 260.197 80.8141 260.649C82.819 262.029 86.5305 263.475 86.5305 263.475Z" fill="black"/>
<path d="M85.5139 263.475C85.4854 263.83 85.3955 264.177 85.2481 264.501C83.467 268.898 73.293 280.774 73.293 280.774C72.8275 282.181 72.2683 283.555 71.619 284.886C70.4938 287.184 69.2214 289.407 67.8096 291.54C64.8867 295.949 61.6486 300.141 58.1205 304.083L58.0133 304.199C58.0133 304.199 57.603 304.512 56.9502 304.913C55.7838 305.657 54.4985 306.197 53.1501 306.507L52.5812 306.34L51.8026 306.097C50.497 305.687 49.2023 305.238 47.9185 304.75L47.1399 304.451C45.8965 303.972 44.6795 303.458 43.489 302.908L42.7103 302.553C41.4669 301.975 40.25 301.364 39.0594 300.721C38.6304 300.497 38.2061 300.255 37.7865 300.026C36.5182 299.318 35.2749 298.575 34.0563 297.798C32.7632 296.974 31.4981 296.114 30.2609 295.219C29.6889 294.809 29.1232 294.388 28.5637 293.955C27.9342 292.762 27.4306 291.755 27.1182 291.13C26.3536 289.596 26.2883 287.4 26.3815 285.81C26.3815 285.647 26.3815 285.493 26.4095 285.343C26.4888 284.346 26.61 283.66 26.61 283.66C26.61 283.66 26.2323 283.152 25.7754 282.462C25.5189 282.08 25.2438 281.637 24.9967 281.198C24.5304 280.378 24.1667 279.548 24.2367 279.077C24.2461 278.996 24.2461 278.915 24.2367 278.834C24.2297 278.677 24.2062 278.521 24.1668 278.368C23.8077 276.895 22.2597 274.363 20.8329 272.773C19.7698 271.602 19.7045 267.229 19.8025 264.128C19.8025 263.97 19.8025 263.816 19.8025 263.662C19.8677 262.053 19.9657 260.892 19.9657 260.892C19.4388 260.664 19.0331 258.971 18.772 257.162L18.7021 256.696C18.4037 254.556 18.2684 252.406 18.2684 252.406C14.818 249.893 13.1768 245.972 12.4167 242.475C11.8873 240.025 11.6835 237.517 11.8106 235.014C11.8106 234.94 11.8106 234.898 11.8106 234.898C11.8106 234.898 12.2116 224.742 13.4892 220.793C13.5405 220.625 13.5964 220.471 13.6524 220.327C13.7642 220.085 13.9035 219.856 14.0673 219.646C14.7761 218.657 15.247 216.28 15.5547 213.846L15.6107 213.379C15.9977 210.115 16.1049 206.912 16.1049 206.912L15.2377 202.66C15.0014 201.494 14.8196 200.327 14.6921 199.158C14.6688 199.004 14.6548 198.846 14.6362 198.692C14.4182 196.531 14.3792 194.355 14.5196 192.187C14.5196 192.029 14.5196 191.875 14.5523 191.721C14.9141 186.783 16.205 181.959 18.357 177.5C18.4316 177.341 18.5062 177.187 18.5902 177.034C19.1897 175.823 19.8559 174.646 20.5858 173.509C20.8376 173.112 21.094 172.721 21.3645 172.334C21.7888 171.718 22.2317 171.112 22.6933 170.524L23.0664 170.058C24.5089 168.261 26.1116 166.599 27.8549 165.092C32.9839 160.695 37.6466 158.998 41.8431 159.152C58.3723 159.744 67.6511 189.017 69.1758 194.23C69.325 194.742 69.3996 195.022 69.3996 195.022C69.3996 195.022 76.361 201.984 74.3234 205.038C73.9283 205.71 73.6878 206.462 73.6194 207.239C73.0552 211.346 74.6638 218.112 74.6638 218.112C74.6638 218.112 75.2326 219.977 76.8926 224.444C77.0418 224.859 77.205 225.293 77.3588 225.749C78.3986 228.547 78.6411 233.242 78.0443 237.448C77.4707 241.481 76.1279 245.039 73.9644 245.953C69.5535 247.818 70.7378 249.683 71.7589 251.217C72.3629 252.317 72.867 253.468 73.265 254.658C74.0716 256.854 74.813 259.195 74.813 259.195C75.1182 259.077 75.4295 258.976 75.7455 258.892C76.3942 258.679 77.0811 258.607 77.7598 258.682C77.9476 258.697 78.126 258.77 78.2693 258.893C78.4125 259.015 78.5133 259.18 78.5571 259.363C78.683 259.922 79.6482 260.617 80.8186 261.275C82.3382 262.102 83.9061 262.836 85.5139 263.475Z" fill="#CED7E7"/>
<path opacity="0.1" d="M24.1436 218.638C25.7568 218.554 43.0741 211.849 46.6411 214.139C50.208 216.428 72.2859 231.283 72.2859 231.283C72.2859 231.283 58.4517 213.206 46.3986 208.963C34.3455 204.72 24.1436 218.638 24.1436 218.638Z" fill="black"/>
<path opacity="0.1" d="M49.0376 245.971C49.0376 245.971 66.3549 249.449 68.9846 251.827L49.0376 245.971Z" fill="black"/>
<path opacity="0.1" d="M45.7038 271.867C45.4521 272.124 39.1761 286.21 39.6796 286.21C40.1832 286.21 45.536 277.817 45.536 277.817L45.7038 271.867Z" fill="black"/>
<path opacity="0.1" d="M57.5049 254.965C57.5049 254.965 52.4133 256.751 53.0054 256.919C53.5976 257.086 57.3324 255.73 57.5049 254.965Z" fill="black"/>
<path opacity="0.1" d="M52.4136 276.273C53.2622 278.055 55.9759 283.403 56.5727 282.554C57.1695 281.705 52.4136 276.273 52.4136 276.273Z" fill="black"/>
<path opacity="0.1" d="M115.975 135.097L115.248 136.132C115.248 136.132 109.471 132.062 107.098 130.024C104.724 127.987 99.1198 137.321 94.7042 139.867C90.2887 142.413 82.8237 143.094 82.8237 143.094C82.8237 143.094 77.0512 137.321 77.2284 135.634C77.4056 133.946 74.5147 133.428 74.3422 132.239C74.1697 131.05 73.1532 127.656 71.7964 125.958C71.0783 125.063 70.9757 122.261 71.041 119.822C71.5073 119.729 71.7964 119.678 71.7964 119.678C72.5211 118.361 73.4372 117.159 74.5147 116.111C76.0441 114.754 78.4174 106.436 78.4174 106.436C79.7743 101.852 82.488 103.209 82.488 103.209C82.488 110.171 89.6219 112.716 93.1842 115.603C96.7465 118.489 102.351 125.958 106.767 127.488C110.39 128.723 114.628 133.503 115.975 135.097Z" fill="black"/>
<path d="M115.975 134.076L115.248 135.116C115.248 135.116 109.448 131.055 107.074 129.003C104.701 126.952 99.0964 136.3 94.6808 138.846C90.2652 141.392 82.8002 142.078 82.8002 142.078C82.8002 142.078 77.0278 136.3 77.205 134.617C77.3822 132.934 74.4913 132.412 74.3188 131.218C74.1463 130.024 73.1298 126.635 71.7729 124.937C71.0549 124.042 70.9523 121.24 71.0176 118.801L71.7729 118.661C72.4977 117.345 73.4137 116.142 74.4913 115.095C76.0207 113.733 78.394 105.419 78.394 105.419C79.7508 100.836 82.4645 102.188 82.4645 102.188C82.4645 109.15 89.5984 111.7 93.1608 114.586C96.7231 117.472 102.328 124.937 106.743 126.467C110.389 127.721 114.628 132.482 115.975 134.076Z" fill="#CED7E7"/>
<path opacity="0.1" d="M116.409 135.457C116.409 135.457 111.406 138.17 107.499 138.427C106.987 138.451 106.475 138.421 105.969 138.338C105.969 138.338 110.282 135.116 114.287 134.459L116.409 135.457Z" fill="black"/>
<path opacity="0.1" d="M126.597 149.291C126.597 149.291 120.288 146.834 118.204 150.531C118.274 148.834 118.302 147.426 118.302 147.426L125.179 146.064C125.179 146.064 125.842 147.291 126.616 148.941C126.597 149.16 126.597 149.291 126.597 149.291Z" fill="black"/>
<path d="M105.969 138.338C105.969 138.338 113.527 133.801 117.16 134.183C120.969 134.579 128.35 134.859 128.35 134.859C128.35 134.859 125.804 140.632 126.145 141.821C126.485 143.01 126.569 148.782 126.569 148.782C126.569 148.782 118.932 145.812 117.659 151.328C117.659 151.328 113.499 145.131 110.697 143.261C108.838 141.918 107.236 140.25 105.969 138.338Z" fill="#63667E"/>
<path opacity="0.1" d="M148.666 143.607C146.46 143.607 138.65 138.679 136.953 135.457C135.256 132.235 132.878 135.792 130.672 136.986C129.273 137.751 123.73 136.151 120.741 134.99C122.256 133.96 125.613 131.06 126.597 130.365C127.781 129.512 128.975 115.761 128.975 115.761C133.218 113.556 137.802 133.587 137.802 133.587C137.802 133.587 145.784 135.965 146.46 137.662C146.591 137.998 147.192 138.595 148.097 139.317C149.029 141.667 149.542 143.607 148.666 143.607Z" fill="black"/>
<path d="M148.665 142.585C146.46 142.585 138.65 137.661 136.953 134.44C135.255 131.218 132.877 134.775 130.672 135.964C129.273 136.729 124.83 135.251 121.841 134.099C123.356 133.073 125.613 130.052 126.597 129.353C127.781 128.504 128.975 114.754 128.975 114.754C133.218 112.548 137.801 132.579 137.801 132.579C137.801 132.579 145.784 134.957 146.46 136.654C146.59 136.99 147.192 137.587 148.096 138.31C149.029 140.646 149.542 142.585 148.665 142.585Z" fill="#CED7E7"/>
<path d="M178.829 291.311L252.644 229.764C253.38 229.141 254.319 228.81 255.283 228.831L282.821 229.554C282.821 229.554 284.728 230.953 281.93 234.011L212.297 291.153C211.545 291.768 210.611 292.118 209.64 292.151L179.528 293.148C179.312 293.155 179.099 293.094 178.919 292.974C178.739 292.854 178.601 292.681 178.524 292.479C178.447 292.277 178.435 292.056 178.489 291.846C178.544 291.637 178.663 291.45 178.829 291.311Z" fill="#0A2647"/>
<path d="M214.536 283.739C214.536 283.739 230.659 306.829 248.573 285.352C266.487 263.876 261.307 252.592 255.875 251.996C250.443 251.399 219.879 274.913 214.536 283.739Z" fill="#FFA2A2"/>
<path opacity="0.1" d="M323.284 25.4911C323.284 25.4911 344.065 -14.8413 368.628 5.95902C368.628 5.95902 373.991 7.91269 373.585 13.5825C373.585 13.5825 371.519 12.4495 369.878 16.7811C369.275 18.3181 368.493 19.7784 367.547 21.1314C366.289 22.9593 364.473 24.3303 362.371 25.0388C362.371 25.0388 351.348 33.2964 330.931 26.9272C330.931 26.9272 325.158 27.7571 324.226 27.0391L330.935 22.1339C330.935 22.1339 334.344 27.193 339.328 27.7711C339.328 27.7711 330.935 22.5023 331.896 21.3599C332.092 21.1268 335.57 18.9213 335.57 18.9213C335.57 18.9213 341.534 27.6919 349.264 28.34C349.264 28.34 338.433 23.4022 336.88 18.082L342.322 15.0466C342.322 15.0466 348.169 24.6285 356.948 25.7009C356.948 25.7009 345.805 20.1476 343.557 14.4638L349.316 12.2164C349.316 12.2164 355.205 21.4485 362.511 22.2925C362.511 22.2925 350.285 14.5757 350.668 11.7874C350.668 11.7874 356.081 10.0435 357.741 10.272C357.741 10.272 362.119 16.7998 366.409 16.9164C366.409 16.9164 358.786 10.8922 359.289 9.96428C359.289 9.96428 366.945 9.56795 370.946 11.419C370.946 11.419 365.257 8.25307 359.289 8.76597C359.289 8.76597 361.989 5.59067 365.509 4.89126C365.509 4.89126 361.289 3.15674 357.433 8.88254C357.433 8.88254 351.479 9.42807 350.742 10.0902C350.742 10.0902 353.754 3.89811 357.461 1.26368C357.461 1.26368 351.936 2.23819 349.199 10.6311L343.361 12.7619C343.361 12.7619 346.91 4.36904 350.038 1.77658C350.038 1.77658 344.555 3.64166 341.934 13.4333L336.563 16.3522C336.563 16.3522 339.067 8.89186 341.925 5.25029C341.925 5.25029 337.211 8.07589 335.052 17.2428L331.695 19.6067C331.695 19.6067 333.621 14.1887 334.316 12.6826C335.01 11.1766 334.661 10.8642 334.661 10.8642C332.327 13.6232 330.805 16.9758 330.264 20.5486C330.264 20.5486 323.671 25.8641 323.284 25.4911Z" fill="#0A2647"/>
<path opacity="0.1" d="M409.231 47.0605C409.231 47.0605 418.622 28.834 429.719 38.234C429.719 38.234 432.144 39.1153 431.957 41.6751C431.957 41.6751 431.025 41.1669 430.284 43.1252C430.015 43.8189 429.664 44.4779 429.239 45.0882C428.672 45.9121 427.854 46.5317 426.908 46.8554C426.908 46.8554 421.923 50.5855 412.696 47.7086C412.696 47.7086 410.089 48.0817 409.67 47.7599L412.7 45.5405C412.7 45.5405 414.239 47.8299 416.496 48.0863C416.496 48.0863 412.71 45.7084 413.139 45.1908C413.223 45.0882 414.794 44.0904 414.794 44.0904C414.794 44.0904 417.489 48.0537 420.986 48.3474C420.986 48.3474 416.09 46.114 415.391 43.6847L417.853 42.3186C417.853 42.3186 420.492 46.6502 424.46 47.1351C424.46 47.1351 419.424 44.6266 418.398 42.0575L421 41.041C421 41.041 423.658 45.2141 426.959 45.5964C426.959 45.5964 421.434 42.1087 421.611 40.8498C421.611 40.8498 424.054 40.0618 424.805 40.1644C424.805 40.1644 426.782 43.1159 428.722 43.1625C428.722 43.1625 425.276 40.4442 425.504 40.0245C425.504 40.0245 428.964 39.8473 430.764 40.682C430.764 40.682 428.195 39.2505 425.504 39.4836C426.246 38.6396 427.219 38.0303 428.302 37.7305C428.302 37.7305 426.395 36.9471 424.651 39.5349C424.651 39.5349 421.961 39.7821 421.63 40.0805C421.63 40.0805 422.991 37.2828 424.665 36.0939C424.665 36.0939 422.166 36.5322 420.935 40.3276L418.324 41.3068C418.324 41.3068 419.923 37.516 421.34 36.341C421.34 36.341 418.86 37.1849 417.676 41.6052L415.251 42.9201C415.251 42.9201 416.379 39.5443 417.671 37.903C417.671 37.903 415.54 39.1806 414.57 43.321L413.05 44.3888C413.05 44.3888 413.922 41.9409 414.235 41.2601C414.547 40.5794 414.388 40.4395 414.388 40.4395C413.334 41.6905 412.646 43.2092 412.402 44.8271C412.402 44.8271 409.395 47.2284 409.231 47.0605Z" fill="#0A2647"/>
<path opacity="0.1" d="M307.477 68.2676C307.477 68.2676 316.868 50.0411 327.993 59.4411C327.993 59.4411 330.413 60.3223 330.231 62.8868C330.231 62.8868 329.298 62.3739 328.557 64.3322C328.287 65.0251 327.936 65.6839 327.513 66.2952C326.939 67.1231 326.113 67.7431 325.158 68.0624C325.158 68.0624 320.178 71.7926 310.951 68.9157C310.951 68.9157 308.344 69.2934 307.925 68.967L310.955 66.7475C310.955 66.7475 312.494 69.0369 314.746 69.298C314.746 69.298 310.96 66.9154 311.389 66.3978C311.478 66.2952 313.049 65.2974 313.049 65.2974C313.049 65.2974 315.744 69.2607 319.236 69.5545C319.236 69.5545 314.345 67.321 313.641 64.8918L316.103 63.5303C316.103 63.5303 318.747 67.8572 322.715 68.3422C322.715 68.3422 317.679 65.8336 316.653 63.2645L319.255 62.248C319.255 62.248 321.917 66.4211 325.219 66.8035C325.219 66.8035 319.693 63.3158 319.866 62.0568C319.866 62.0568 322.314 61.2688 323.064 61.3714C323.064 61.3714 325.041 64.3229 326.981 64.3742C326.981 64.3742 323.535 61.6512 323.764 61.2315C323.764 61.2315 327.219 61.0544 329.023 61.889C329.023 61.889 326.45 60.4575 323.759 60.6907C324.501 59.8466 325.474 59.2373 326.557 58.9375C326.557 58.9375 324.654 58.1542 322.911 60.742C322.911 60.742 320.22 60.9891 319.889 61.2875C319.889 61.2875 321.246 58.4899 322.925 57.3009C322.925 57.3009 320.425 57.7392 319.194 61.5346L316.551 62.5138C316.551 62.5138 318.155 58.723 319.567 57.5527C319.567 57.5527 317.092 58.392 315.907 62.8122L313.478 64.1271C313.478 64.1271 314.611 60.7513 315.903 59.11C315.903 59.11 313.772 60.3876 312.797 64.5281L311.277 65.5958C311.277 65.5958 312.149 63.1479 312.461 62.4672C312.774 61.7864 312.62 61.6465 312.62 61.6465C311.563 62.8962 310.876 64.4155 310.634 66.0341C310.634 66.0341 307.64 68.4354 307.477 68.2676Z" fill="#0A2647"/>
</g>
<defs>
<clipPath id="clip0_769_5411">
<rect width="500" height="363.756" fill="white"/>
</clipPath>
</defs>
</svg>
