<svg width="276" height="108" viewBox="0 0 276 108" fill="none" xmlns="http://www.w3.org/2000/svg">
<path d="M0 0V7.38193H53.723V0H0ZM61.3345 0V7.38193H137.892C137.892 7.38193 130.072 0 119.715 0H61.3345ZM152.91 0V7.38193H199.227L196.478 0H152.91ZM232.433 0L229.684 7.38193H275.58V0H232.433ZM0 14.3561V21.738H53.723V14.3561H0ZM61.3345 14.3666V21.738H146.776C146.776 21.738 145.778 16.0567 144.038 14.3666H61.3345ZM152.91 14.3666V21.738H204.305L201.76 14.3666H152.91ZM226.935 14.3666L224.39 21.738H275.58V14.3666H226.935ZM15.4387 28.7122V36.1036H38.7047V28.7122H15.4387ZM76.7733 28.7122V36.1036H100.039V28.7122H76.7733ZM122.669 28.7122V36.1036H145.935C145.935 36.1036 147.412 32.1998 147.412 28.7117L122.669 28.7122ZM168.349 28.7122V36.1036H209.598L206.849 28.7117L168.349 28.7122ZM221.867 28.7122L219.107 36.1041H260.561V28.7122H221.867ZM15.4387 43.0788V50.4597H38.7047V43.0788H15.4387ZM76.7733 43.0788V50.4597H136.2C136.2 50.4597 141.171 46.6718 142.755 43.0778H76.7733V43.0788ZM168.349 43.0788V50.4597H191.615V46.3504L193.092 50.4597H235.71L237.295 46.3504V50.4597H260.561V43.0788H216.886L214.568 49.3318L212.24 43.0788H168.349ZM15.4387 57.4339V64.8158H38.7047V57.4339H15.4387ZM76.7733 57.4339V64.8158H142.755C141.17 61.2334 136.2 57.4339 136.2 57.4339H76.7733ZM168.349 57.4339V64.8158H191.615V57.4339H168.349ZM195.841 57.4339L198.655 64.8158H230.611L233.285 57.4339H195.841ZM237.295 57.4339V64.8158H260.561V57.4339H237.295ZM15.4387 71.79V79.1719H38.7047V71.79H15.4387ZM76.7733 71.79V79.1719H100.039V71.79H76.7733ZM122.669 71.79V79.1719H147.412C147.412 75.688 145.935 71.79 145.935 71.79H122.669ZM168.349 71.79V79.1719H191.615V71.79H168.349ZM201.124 71.79L203.852 79.1719H225.274L228.023 71.79H201.124ZM237.295 71.79V79.1719H260.561V71.79H237.295ZM0.420469 86.1466V93.5385H54.1434V86.1461L0.420469 86.1466ZM61.3345 86.1466V93.5385H144.038C145.778 91.8458 146.776 86.1461 146.776 86.1461L61.3345 86.1466ZM153.331 86.1466V93.5385H191.615V86.1461L153.331 86.1466ZM206.418 86.1466L209.221 93.5385H220.121L222.751 86.1461L206.418 86.1466ZM237.295 86.1466V93.5385H276V86.1461L237.295 86.1466ZM0.420469 100.513V107.895H54.1434V100.513H0.420469ZM61.3345 100.513V107.884H119.715C130.072 107.884 137.892 100.512 137.892 100.512L61.3345 100.513ZM153.331 100.513V107.895H191.615V100.513H153.331ZM211.733 100.513L214.428 107.873L214.892 107.884L217.63 100.512L211.733 100.513ZM237.295 100.513V107.895H276V100.513H237.295Z" fill="#1F70C1"/>
</svg>
