<svg width="133" height="108" viewBox="0 0 133 108" fill="none" xmlns="http://www.w3.org/2000/svg">
<path d="M66.6559 0C30.9953 0 3.05695 44.28 0.413574 81.6794C11.6043 100.634 38.5903 107.759 66.6569 107.759C94.7215 107.759 121.709 100.634 132.894 81.6789C130.25 44.28 102.315 0 66.6564 0" fill="#B6DEFF"/>
<path d="M123.575 72.7712C123.575 72.7712 115.699 56.1524 107.694 46.4567C99.6827 36.757 89.8994 26.1953 84.115 26.1953C78.3336 26.1953 62.1721 54.1222 54.7578 54.1222C47.342 54.1222 43.4882 41.4624 34.3709 41.4624C25.25 41.4624 10.7593 71.9909 10.7593 71.9909L9.77734 77.1662C9.77734 77.1662 14.8116 98.9493 67.4786 98.9493C120.148 98.9493 124.357 77.5237 124.357 77.5237L123.576 72.7707" fill="#66CC66"/>
</svg>
