<svg width="500" height="385" viewBox="0 0 500 385" fill="none" xmlns="http://www.w3.org/2000/svg">
<g clip-path="url(#clip0_769_5405)">
<path opacity="0.1" d="M229.114 339.24C343.87 339.24 436.897 332.017 436.897 323.106C436.897 314.196 343.87 306.973 229.114 306.973C114.359 306.973 21.3308 314.196 21.3308 323.106C21.3308 332.017 114.359 339.24 229.114 339.24Z" fill="#0A2647"/>
<g opacity="0.1">
<path d="M413.147 231.172C411.905 227.403 406.869 225.667 401.902 227.3C401.186 227.534 400.494 227.833 399.834 228.195C399.516 228.107 399.188 228.029 398.856 227.97C399.127 226.886 399.231 225.766 399.164 224.65C400.877 223.504 402.267 221.937 403.201 220.099C404.134 218.26 404.579 216.213 404.493 214.154C406.202 213.004 407.587 211.435 408.517 209.598C409.446 207.76 409.889 205.715 409.803 203.657C411.524 202.522 412.913 200.949 413.826 199.1C416.222 194.358 415.229 189.029 411.607 187.196C407.984 185.362 403.1 187.724 400.704 192.466C399.754 194.296 399.31 196.347 399.418 198.406C397.709 199.556 396.324 201.124 395.395 202.962C394.465 204.8 394.022 206.845 394.109 208.903C392.4 210.052 391.015 211.621 390.085 213.459C389.156 215.296 388.713 217.342 388.799 219.4C387.087 220.548 385.697 222.116 384.764 223.955C383.831 225.794 383.386 227.841 383.47 229.901C381.748 231.036 380.36 232.609 379.447 234.458C378.996 235.349 378.655 236.291 378.43 237.264C377.829 236.386 377.097 235.606 376.259 234.952C376.163 234.205 375.999 233.468 375.77 232.751C374.137 227.779 369.757 224.748 365.992 225.99C362.227 227.232 360.487 232.263 362.12 237.235C362.788 239.367 364.075 241.252 365.816 242.652C365.912 243.398 366.076 244.135 366.305 244.852C367.253 247.736 369.126 249.966 371.267 251.085C371.078 251.708 370.942 252.346 370.861 252.992C368.842 254.934 367.543 257.504 367.175 260.282C365.154 262.224 363.854 264.797 363.489 267.576C362.488 268.537 361.661 269.663 361.044 270.905C358.644 275.648 359.636 280.982 363.259 282.81C366.882 284.639 371.766 282.287 374.166 277.54C374.799 276.302 375.213 274.964 375.389 273.585C377.408 271.643 378.708 269.072 379.075 266.295C381.096 264.352 382.396 261.78 382.761 259.001C384.767 257.054 386.051 254.484 386.404 251.711C388.432 249.769 389.736 247.192 390.1 244.407C390.722 243.817 391.277 243.161 391.757 242.451C393.755 242.861 395.825 242.731 397.756 242.075C398.472 241.842 399.164 241.542 399.824 241.18C401.986 241.75 404.269 241.669 406.385 240.945C411.338 239.327 414.384 234.947 413.147 231.172Z" fill="#3F3D56"/>
<g opacity="0.1">
<path d="M404.381 216.311C403.868 216.815 403.304 217.266 402.699 217.655C402.776 219.051 402.592 220.448 402.156 221.776C402.541 221.245 402.884 220.684 403.183 220.1C403.789 218.912 404.194 217.631 404.381 216.311Z" fill="black"/>
<path d="M409.69 205.814C409.177 206.319 408.614 206.77 408.008 207.159C408.085 208.555 407.901 209.952 407.466 211.28C407.852 210.748 408.195 210.185 408.493 209.599C409.097 208.411 409.501 207.133 409.69 205.814Z" fill="black"/>
<path d="M397.648 201.908C397.603 201.188 397.631 200.466 397.731 199.752C396.782 200.688 395.993 201.773 395.395 202.964C395.099 203.551 394.851 204.161 394.651 204.788C395.461 203.648 396.477 202.671 397.648 201.908Z" fill="black"/>
<path d="M363.949 265.43C364.376 264.835 364.859 264.282 365.391 263.778C365.474 263.115 365.617 262.46 365.816 261.822C365.391 262.393 365.017 263 364.697 263.636C364.401 264.214 364.151 264.814 363.949 265.43Z" fill="black"/>
<path d="M367.635 258.147C368.062 257.552 368.545 256.998 369.077 256.495C369.157 255.848 369.293 255.211 369.483 254.588C369.077 255.143 368.717 255.73 368.407 256.343C368.105 256.924 367.847 257.527 367.635 258.147Z" fill="black"/>
<path d="M399.066 226.807C398.556 227.311 397.994 227.76 397.39 228.147C397.456 229.262 397.353 230.382 397.082 231.466C397.411 231.523 397.738 231.598 398.059 231.691C398.719 231.329 399.412 231.03 400.127 230.796C405.104 229.163 410.135 230.899 411.372 234.668C411.679 235.616 411.733 236.627 411.529 237.602C413.166 235.676 413.846 233.329 413.142 231.178C411.9 227.408 406.864 225.673 401.897 227.306C401.182 227.539 400.489 227.838 399.829 228.2C399.511 228.112 399.184 228.034 398.851 227.975C398.944 227.584 399.013 227.198 399.066 226.807Z" fill="black"/>
<path d="M362.13 269.094C361.705 269.665 361.33 270.272 361.01 270.908C360.713 271.497 360.461 272.108 360.257 272.736C360.694 272.138 361.185 271.581 361.724 271.074C361.799 270.403 361.935 269.74 362.13 269.094Z" fill="black"/>
<path d="M392.315 212.404C392.27 211.684 392.298 210.962 392.398 210.248C391.449 211.184 390.659 212.269 390.061 213.46C389.766 214.048 389.517 214.657 389.318 215.284C390.127 214.144 391.144 213.167 392.315 212.404Z" fill="black"/>
<path d="M384.644 255.213C384.547 255.94 384.384 256.657 384.155 257.354C384.537 256.82 384.879 256.258 385.177 255.672C385.497 255.044 385.764 254.39 385.973 253.717C385.573 254.252 385.128 254.753 384.644 255.213Z" fill="black"/>
<path d="M377.271 269.793C377.175 270.52 377.011 271.237 376.782 271.934C377.168 271.401 377.511 270.839 377.809 270.252C378.127 269.623 378.394 268.969 378.606 268.297C378.205 268.833 377.759 269.334 377.271 269.793Z" fill="black"/>
<path d="M380.958 262.498C380.862 263.225 380.698 263.942 380.469 264.639C380.858 264.115 381.208 263.563 381.515 262.987C381.835 262.359 382.102 261.704 382.312 261.031C381.903 261.557 381.45 262.048 380.958 262.498Z" fill="black"/>
<path d="M388.33 247.923C388.234 248.649 388.071 249.364 387.841 250.059C388.225 249.528 388.566 248.967 388.863 248.382C389.187 247.743 389.455 247.078 389.665 246.393C389.267 246.942 388.82 247.454 388.33 247.923Z" fill="black"/>
<path d="M364.193 229.487C367.967 228.25 372.348 231.276 373.971 236.248C374.2 236.967 374.364 237.705 374.46 238.453C375.298 239.108 376.03 239.888 376.631 240.766C376.856 239.791 377.197 238.848 377.648 237.955C377.819 237.622 378.005 237.304 378.195 236.977C377.64 236.209 376.982 235.521 376.24 234.933C376.144 234.187 375.98 233.45 375.751 232.733C374.118 227.761 369.737 224.73 365.973 225.972C363.821 226.676 362.335 228.617 361.758 231.071C362.42 230.342 363.259 229.796 364.193 229.487Z" fill="black"/>
<path d="M381.696 233.397C381.653 232.679 381.682 231.958 381.784 231.246C380.831 232.18 380.04 233.266 379.442 234.458C379.146 235.044 378.897 235.652 378.699 236.277C379.51 235.139 380.526 234.163 381.696 233.397Z" fill="black"/>
<path d="M387.005 222.897C386.962 222.179 386.992 221.458 387.093 220.746C386.14 221.678 385.348 222.761 384.751 223.953C384.456 224.541 384.208 225.15 384.008 225.777C384.817 224.637 385.834 223.66 387.005 222.897Z" fill="black"/>
<path d="M373.585 277.082C373.489 277.811 373.325 278.53 373.096 279.228C373.899 278.115 374.515 276.878 374.919 275.566C374.52 276.11 374.073 276.617 373.585 277.082Z" fill="black"/>
</g>
<path d="M420.392 182.664C422.115 181.53 423.504 179.957 424.416 178.107C426.816 173.365 425.824 168.031 422.201 166.198C418.578 164.364 413.694 166.726 411.294 171.473C410.343 173.308 409.901 175.364 410.013 177.428C408.304 178.577 406.919 180.146 405.989 181.983C405.06 183.821 404.617 185.867 404.703 187.924C402.979 189.056 401.59 190.63 400.68 192.481C400.385 193.061 400.138 193.665 399.941 194.285C401.218 192.437 403.069 191.062 405.207 190.374C405.45 191.127 405.841 191.824 406.355 192.425C406.87 193.026 407.499 193.52 408.206 193.876C408.912 194.233 409.682 194.445 410.472 194.502C411.261 194.559 412.054 194.458 412.804 194.207C413.526 196.332 413.526 198.637 412.804 200.763C413.186 200.236 413.526 199.68 413.821 199.101C414.77 197.27 415.212 195.219 415.102 193.16C416.813 192.013 418.2 190.445 419.13 188.606C420.06 186.768 420.501 184.722 420.412 182.664H420.392Z" fill="#3F3D56"/>
<path d="M478.747 115.372C480.221 114.685 481.646 113.896 483.011 113.011L467.204 101.463L485.783 111.031C489.541 108.045 492.65 104.324 494.92 100.094C497.19 95.8649 498.573 91.2166 498.983 86.4342L467.41 86.7569L499.052 81.467C498.724 76.6798 497.422 72.0101 495.224 67.7447C493.027 63.4792 489.98 59.7081 486.272 56.663C482.564 53.6179 478.272 51.363 473.661 50.037C469.049 48.7109 464.215 48.3416 459.456 48.9518C454.697 49.562 450.112 51.1388 445.985 53.5853C441.857 56.0318 438.273 59.2964 435.453 63.1785C432.633 67.0606 430.636 71.4783 429.586 76.1602C428.535 80.842 428.453 85.6893 429.344 90.4041C427.049 91.4713 424.875 92.7826 422.861 94.3153L439.361 117.259L419.551 97.1754C415.37 101.281 412.279 106.364 410.557 111.965C408.835 117.565 408.537 123.507 409.69 129.252C403.706 132.046 398.628 136.466 395.036 142.009C391.445 147.551 389.486 153.992 389.382 160.595C389.278 167.199 391.034 173.698 394.449 179.351C397.863 185.004 402.8 189.582 408.693 192.562C414.587 195.543 421.2 196.805 427.777 196.205C434.354 195.605 440.629 193.167 445.886 189.169C451.143 185.171 455.169 179.776 457.505 173.598C459.84 167.421 460.391 160.711 459.094 154.235C466.255 150.902 472.087 145.257 475.652 138.208C479.217 131.159 480.307 123.116 478.747 115.372Z" fill="#0A2647"/>
<path opacity="0.1" d="M412.804 106.415C409.228 113.46 408.134 121.507 409.7 129.251C403.715 132.045 398.637 136.465 395.046 142.008C391.455 147.55 389.496 153.991 389.392 160.595C389.288 167.198 391.043 173.698 394.458 179.35C397.873 185.003 402.809 189.581 408.703 192.562C414.596 195.542 421.21 196.804 427.787 196.204C434.363 195.604 440.639 193.166 445.896 189.168C451.153 185.171 455.179 179.775 457.514 173.597C459.85 167.42 460.401 160.71 459.103 154.234C466.011 151.027 414.574 102.89 412.804 106.415Z" fill="black"/>
<path d="M452.474 55.4469C455.36 55.4469 457.7 53.1069 457.7 50.2205C457.7 47.3341 455.36 44.9941 452.474 44.9941C449.587 44.9941 447.248 47.3341 447.248 50.2205C447.248 53.1069 449.587 55.4469 452.474 55.4469Z" fill="#0A2647"/>
<path d="M483.001 58.8004C485.887 58.8004 488.227 56.4605 488.227 53.574C488.227 50.6876 485.887 48.3477 483.001 48.3477C480.114 48.3477 477.774 50.6876 477.774 53.574C477.774 56.4605 480.114 58.8004 483.001 58.8004Z" fill="#0A2647"/>
<path d="M494.774 105.765C497.66 105.765 500 103.425 500 100.539C500 97.6524 497.66 95.3125 494.774 95.3125C491.887 95.3125 489.547 97.6524 489.547 100.539C489.547 103.425 491.887 105.765 494.774 105.765Z" fill="#0A2647"/>
<path d="M478.885 129.216C481.771 129.216 484.111 126.876 484.111 123.99C484.111 121.104 481.771 118.764 478.885 118.764C475.998 118.764 473.658 121.104 473.658 123.99C473.658 126.876 475.998 129.216 478.885 129.216Z" fill="#0A2647"/>
<path d="M457.177 177.927C460.063 177.927 462.403 175.587 462.403 172.701C462.403 169.815 460.063 167.475 457.177 167.475C454.291 167.475 451.951 169.815 451.951 172.701C451.951 175.587 454.291 177.927 457.177 177.927Z" fill="#0A2647"/>
<path opacity="0.1" d="M457.177 177.927C460.063 177.927 462.403 175.587 462.403 172.701C462.403 169.815 460.063 167.475 457.177 167.475C454.291 167.475 451.951 169.815 451.951 172.701C451.951 175.587 454.291 177.927 457.177 177.927Z" fill="black"/>
<path d="M408.913 122.759C411.799 122.759 414.139 120.419 414.139 117.533C414.139 114.647 411.799 112.307 408.913 112.307C406.026 112.307 403.687 114.647 403.687 117.533C403.687 120.419 406.026 122.759 408.913 122.759Z" fill="#0A2647"/>
<path opacity="0.1" d="M408.913 122.759C411.799 122.759 414.139 120.419 414.139 117.533C414.139 114.647 411.799 112.307 408.913 112.307C406.026 112.307 403.687 114.647 403.687 117.533C403.687 120.419 406.026 122.759 408.913 122.759Z" fill="black"/>
<path opacity="0.1" d="M403.339 203.497C399.863 201.742 398.812 196.769 400.841 192.184C400.733 192.369 400.631 192.56 400.533 192.76C398.132 197.503 399.125 202.832 402.748 204.665C406.37 206.499 411.254 204.137 413.65 199.395C413.753 199.199 413.841 198.999 413.929 198.803C411.44 203.159 406.81 205.257 403.339 203.497Z" fill="black"/>
<path opacity="0.1" d="M398.177 213.705C394.705 211.95 393.649 206.978 395.683 202.387C395.576 202.577 395.468 202.768 395.37 202.964C392.97 207.706 393.962 213.04 397.585 214.868C401.208 216.697 406.092 214.345 408.492 209.598C408.59 209.402 408.683 209.207 408.771 209.006C406.278 213.363 401.653 215.46 398.177 213.705Z" fill="black"/>
<path opacity="0.1" d="M393.014 223.907C389.543 222.152 388.487 217.18 390.52 212.594C390.413 212.78 390.305 212.97 390.208 213.171C387.807 217.913 388.804 223.242 392.427 225.075C396.05 226.909 400.929 224.547 403.33 219.805C403.428 219.609 403.52 219.409 403.608 219.213C401.12 223.57 396.49 225.667 393.014 223.907Z" fill="black"/>
<path opacity="0.1" d="M387.871 234.141C384.395 232.386 383.343 227.414 385.372 222.828C385.265 223.014 385.162 223.205 385.059 223.4C382.664 228.143 383.656 233.476 387.279 235.31C390.902 237.143 395.786 234.782 398.182 230.035C398.284 229.839 398.372 229.643 398.46 229.443C395.957 233.775 391.327 235.872 387.871 234.141Z" fill="black"/>
<path opacity="0.1" d="M382.693 244.319C379.217 242.564 378.166 237.592 380.195 233.006C380.087 233.192 379.985 233.382 379.887 233.583C377.486 238.325 378.479 243.654 382.102 245.488C385.724 247.321 390.608 244.96 393.009 240.217C393.107 240.022 393.2 239.821 393.288 239.626C390.804 243.982 386.164 246.079 382.693 244.319Z" fill="black"/>
<path opacity="0.1" d="M377.53 254.528C374.059 252.773 373.003 247.801 375.037 243.215C374.929 243.401 374.822 243.591 374.724 243.787C372.323 248.529 373.316 253.863 376.944 255.697C380.571 257.53 385.426 255.164 387.871 250.421C387.968 250.226 388.061 250.03 388.149 249.83C385.631 254.186 381.026 256.283 377.53 254.528Z" fill="black"/>
<path opacity="0.1" d="M372.367 264.731C368.896 262.976 367.84 258.004 369.874 253.418C369.766 253.609 369.664 253.794 369.561 253.995C367.165 258.737 368.158 264.066 371.781 265.9C375.403 267.733 380.287 265.372 382.683 260.629C382.786 260.434 382.874 260.233 382.962 260.038C380.473 264.394 375.843 266.491 372.367 264.731Z" fill="black"/>
<path opacity="0.1" d="M367.209 274.94C363.733 273.185 362.682 268.213 364.711 263.627C364.603 263.813 364.501 264.003 364.403 264.199C362.002 268.941 362.995 274.275 366.618 276.109C370.24 277.942 375.125 275.581 377.525 270.833C377.623 270.638 377.711 270.442 377.799 270.242C375.31 274.598 370.68 276.676 367.209 274.94Z" fill="black"/>
<path opacity="0.1" d="M363.816 281.646C360.345 279.886 359.289 274.919 361.323 270.328C361.215 270.519 361.108 270.709 361.01 270.905C358.61 275.647 359.602 280.981 363.225 282.81C366.848 284.638 371.732 282.287 374.132 277.539C374.23 277.344 374.323 277.148 374.411 276.948C371.918 281.304 367.288 283.401 363.816 281.646Z" fill="black"/>
<path d="M457.094 236.224C457.633 234.679 457.961 233.069 458.072 231.437C458.431 231.437 458.786 231.362 459.115 231.217C459.444 231.073 459.739 230.863 459.983 230.599C460.227 230.335 460.413 230.024 460.532 229.685C460.65 229.346 460.697 228.986 460.669 228.628C460.642 228.27 460.541 227.921 460.373 227.604C460.205 227.287 459.973 227.008 459.692 226.784C459.411 226.56 459.087 226.397 458.74 226.304C458.393 226.212 458.031 226.192 457.676 226.245C457.095 223.599 455.931 221.116 454.27 218.975C452.61 216.835 450.493 215.091 448.074 213.871C448.386 213.253 448.44 212.535 448.224 211.877C448.007 211.219 447.538 210.673 446.92 210.361C446.301 210.048 445.584 209.994 444.926 210.211C444.268 210.427 443.722 210.896 443.41 211.515C443.296 211.734 443.217 211.97 443.175 212.214C440.306 211.679 437.352 211.838 434.557 212.675C431.761 213.513 429.207 215.006 427.105 217.029C425.517 216.773 423.903 216.725 422.304 216.888L420.187 226.524L420.06 217.235C417.63 217.767 415.334 218.79 413.313 220.24C411.292 221.69 409.588 223.536 408.304 225.667C407.021 227.798 406.186 230.168 405.85 232.633C405.514 235.098 405.684 237.605 406.35 240.002C407.015 242.398 408.163 244.634 409.722 246.572C411.281 248.51 413.219 250.11 415.417 251.274C417.616 252.438 420.028 253.141 422.508 253.341C424.987 253.541 427.481 253.233 429.838 252.436C430.09 252.89 430.473 253.259 430.938 253.492C431.417 253.735 431.959 253.825 432.49 253.749C433.022 253.672 433.517 253.434 433.908 253.066C434.299 252.699 434.568 252.219 434.677 251.693C434.786 251.168 434.73 250.621 434.516 250.128C435.35 249.555 436.135 248.914 436.863 248.212C440.68 248.832 444.595 248.228 448.048 246.487C451.5 244.745 454.313 241.955 456.082 238.517L446.231 236.859L457.094 236.224Z" fill="#0A2647"/>
<g opacity="0.1">
<path d="M441.875 240.902C438.237 236.101 436.008 230.416 433.441 224.959C432.41 222.72 431.256 220.539 429.984 218.428L428.058 216.184C427.735 216.457 427.413 216.741 427.08 217.039C425.493 216.782 423.879 216.735 422.279 216.897L420.162 226.534L420.035 217.245C417.605 217.777 415.31 218.8 413.289 220.25C411.268 221.699 409.563 223.546 408.28 225.677C406.997 227.808 406.162 230.178 405.826 232.643C405.489 235.107 405.659 237.615 406.325 240.011C406.991 242.408 408.138 244.644 409.697 246.582C411.257 248.52 413.195 250.12 415.393 251.284C417.591 252.448 420.004 253.151 422.483 253.351C424.963 253.55 427.457 253.242 429.813 252.445C430.065 252.9 430.449 253.268 430.913 253.501C431.392 253.745 431.934 253.834 432.466 253.758C432.997 253.682 433.492 253.444 433.884 253.076C434.275 252.708 434.543 252.229 434.652 251.703C434.761 251.177 434.705 250.631 434.492 250.138C435.326 249.565 436.111 248.924 436.839 248.221C440.576 248.826 444.408 248.259 447.81 246.598C445.539 245.03 443.535 243.107 441.875 240.902Z" fill="black"/>
</g>
<path d="M377.462 220.27C377.663 219.872 377.759 219.428 377.74 218.982C377.722 218.536 377.589 218.102 377.354 217.722C377.12 217.341 376.792 217.028 376.401 216.811C376.011 216.594 375.571 216.48 375.125 216.481C374.384 212.552 372.374 208.975 369.405 206.298C369.883 204.431 370.065 202.501 369.942 200.577L360.335 198.94L369.664 198.353C369.496 197.477 369.266 196.614 368.974 195.772C369.338 195.522 369.633 195.186 369.835 194.794C370.07 194.326 370.16 193.799 370.092 193.28C370.025 192.761 369.804 192.275 369.457 191.883C369.11 191.491 368.653 191.213 368.146 191.083C367.639 190.954 367.105 190.979 366.613 191.156C364.142 187.665 360.527 185.15 356.395 184.048C352.263 182.946 347.875 183.326 343.994 185.122C340.113 186.919 336.984 190.019 335.151 193.883C333.317 197.747 332.896 202.131 333.959 206.273C333.393 206.512 332.932 206.946 332.659 207.495C332.419 207.969 332.329 208.504 332.401 209.03C332.473 209.556 332.704 210.047 333.062 210.439C333.421 210.83 333.89 211.103 334.408 211.221C334.925 211.339 335.466 211.296 335.959 211.099C336.897 212.673 338.065 214.099 339.425 215.328C338.435 219.189 338.734 223.268 340.276 226.944L353.158 223.6L341.669 229.643C343.701 232.871 346.69 235.383 350.22 236.828C353.749 238.274 357.642 238.58 361.354 237.704C365.067 236.828 368.412 234.814 370.923 231.943C373.434 229.073 374.985 225.489 375.359 221.693C375.802 221.655 376.228 221.504 376.596 221.255C376.963 221.006 377.262 220.667 377.462 220.27Z" fill="#0A2647"/>
<path opacity="0.1" d="M377.462 220.271C377.663 219.872 377.759 219.429 377.74 218.982C377.722 218.536 377.589 218.102 377.354 217.722C377.12 217.342 376.792 217.028 376.401 216.811C376.011 216.594 375.571 216.481 375.125 216.482C374.384 212.553 372.374 208.975 369.405 206.298C369.483 205.99 369.551 205.687 369.61 205.379C369.269 205.626 368.953 205.906 368.666 206.215C366.931 208.117 366.041 210.674 364.325 212.595C362.301 214.864 359.27 216.047 356.243 216.365C353.217 216.682 350.171 216.218 347.184 215.636C344.71 215.147 342.202 214.58 339.694 214.82C339.45 214.82 339.205 214.873 338.98 214.912C339.127 215.054 339.274 215.196 339.425 215.333C338.435 219.194 338.734 223.273 340.276 226.949L353.158 223.6L341.669 229.643C343.701 232.871 346.69 235.384 350.22 236.829C353.749 238.274 357.642 238.581 361.354 237.705C365.067 236.829 368.412 234.815 370.923 231.944C373.434 229.073 374.985 225.489 375.36 221.694C375.802 221.655 376.228 221.504 376.596 221.255C376.964 221.006 377.262 220.668 377.462 220.271Z" fill="black"/>
</g>
<g opacity="0.1">
<path d="M43.7518 249.946C44.3776 248.044 46.915 247.169 49.4181 247.99C49.7782 248.108 50.1267 248.259 50.4595 248.44C50.6208 248.396 50.7871 248.357 50.9484 248.327C50.811 247.781 50.7583 247.217 50.7919 246.655C49.9327 246.074 49.236 245.283 48.768 244.357C48.3 243.432 48.0762 242.402 48.1177 241.365C47.2509 240.795 46.5521 240.003 46.0936 239.072C45.6158 238.15 45.3914 237.118 45.4434 236.08C44.5772 235.507 43.8787 234.714 43.4193 233.782C42.2166 231.397 42.7055 228.713 44.5389 227.784C46.3723 226.855 48.8266 228.053 50.0342 230.438C50.5111 231.362 50.7338 232.397 50.6795 233.435C51.5411 234.013 52.2396 234.802 52.708 235.728C53.1763 236.654 53.3987 237.684 53.3538 238.72C54.2151 239.299 54.9133 240.09 55.3815 241.016C55.8498 241.942 56.0724 242.973 56.0281 244.01C56.8897 244.588 57.5882 245.377 58.0565 246.303C58.5249 247.229 58.7473 248.259 58.7024 249.295C59.5704 249.868 60.2706 250.661 60.7313 251.593C60.9512 252.044 61.1153 252.52 61.2202 253.011C61.5214 252.568 61.8892 252.174 62.3105 251.842C62.3607 251.465 62.4458 251.094 62.5647 250.733C63.391 248.229 65.5959 246.704 67.4977 247.31C69.3996 247.917 70.2698 250.474 69.4533 252.977C69.1159 254.052 68.4677 255.003 67.5906 255.71C67.5398 256.085 67.4547 256.455 67.3364 256.815C66.9351 258.142 66.0412 259.265 64.8381 259.953C64.9324 260.273 65.0011 260.6 65.0434 260.931C65.5482 261.416 65.9665 261.983 66.2804 262.608C66.6002 263.232 66.8087 263.907 66.8964 264.603C67.403 265.087 67.823 265.654 68.1382 266.28C68.4574 266.904 68.6659 267.579 68.7542 268.274C69.262 268.759 69.6822 269.328 69.996 269.956C71.2036 272.342 70.7049 275.031 68.8813 275.95C67.0577 276.869 64.5937 275.686 63.3861 273.296C63.0677 272.671 62.8593 271.996 62.77 271.301C61.7514 270.324 61.0962 269.029 60.9122 267.629C59.8936 266.652 59.2383 265.357 59.0544 263.957C58.5481 263.473 58.1281 262.906 57.8126 262.281C57.4964 261.655 57.2881 260.981 57.1966 260.286C56.6918 259.801 56.2735 259.234 55.9596 258.609C55.6398 257.985 55.4313 257.31 55.3436 256.614C55.0289 256.321 54.7484 255.993 54.5076 255.636C53.5017 255.842 52.4593 255.778 51.4862 255.451C51.1248 255.33 50.7747 255.178 50.4399 254.996C49.3526 255.285 48.204 255.244 47.1399 254.879C44.6611 254.052 43.1309 251.847 43.7518 249.946Z" fill="#3F3D56"/>
<g opacity="0.1">
<path d="M48.1665 242.451C48.4257 242.707 48.7108 242.934 49.0172 243.131C48.9758 243.833 49.0687 244.536 49.291 245.204C49.0945 244.937 48.9212 244.654 48.7727 244.358C48.467 243.76 48.2621 243.116 48.1665 242.451Z" fill="black"/>
<path d="M45.4922 237.17C45.7527 237.422 46.0377 237.648 46.3429 237.845C46.3018 238.548 46.3947 239.253 46.6167 239.922C46.0244 239.11 45.6386 238.165 45.4922 237.17Z" fill="black"/>
<path d="M51.5694 235.201C51.5926 234.838 51.5795 234.475 51.5303 234.115C52.0082 234.587 52.4062 235.134 52.7085 235.733C52.8561 236.03 52.9804 236.337 53.0801 236.653C52.6727 236.078 52.1601 235.585 51.5694 235.201Z" fill="black"/>
<path d="M68.5341 267.203C68.3204 266.904 68.0781 266.625 67.8106 266.372C67.766 266.041 67.694 265.714 67.5955 265.395C67.8076 265.682 67.9957 265.986 68.1577 266.304C68.306 266.594 68.4319 266.894 68.5341 267.203Z" fill="black"/>
<path d="M66.6618 263.532C66.4481 263.232 66.2057 262.953 65.9382 262.7C65.8983 262.369 65.8296 262.042 65.7329 261.723C66.1357 262.268 66.4462 262.876 66.652 263.522L66.6618 263.532Z" fill="black"/>
<path d="M50.8458 247.751C51.1024 248.004 51.3861 248.229 51.6916 248.42C51.655 248.982 51.7078 249.547 51.848 250.092C51.6832 250.122 51.5201 250.159 51.3591 250.205C51.0242 250.025 50.6741 249.874 50.3129 249.755C47.8097 248.934 45.2723 249.809 44.6514 251.711C44.4958 252.184 44.4671 252.69 44.5683 253.177C44.1661 252.754 43.88 252.234 43.7378 251.668C43.5956 251.102 43.6021 250.509 43.7567 249.946C44.3825 248.044 46.9199 247.169 49.4231 247.99C49.7831 248.108 50.1317 248.259 50.4644 248.44C50.6258 248.396 50.792 248.357 50.9533 248.327C50.9063 248.137 50.8704 247.945 50.8458 247.751Z" fill="black"/>
<path d="M69.4534 269.047C69.6666 269.335 69.8547 269.641 70.0156 269.961C70.1649 270.257 70.2907 270.565 70.3921 270.88C70.1783 270.579 69.936 270.299 69.6685 270.044C69.6249 269.706 69.553 269.373 69.4534 269.047Z" fill="black"/>
<path d="M54.2437 240.496C54.2671 240.133 54.254 239.77 54.2046 239.41C54.6837 239.881 55.0818 240.428 55.3828 241.028C55.5304 241.323 55.6547 241.629 55.7544 241.943C55.3469 241.369 54.8342 240.878 54.2437 240.496Z" fill="black"/>
<path d="M58.111 262.057C58.1567 262.422 58.2369 262.782 58.3505 263.132C57.9431 262.574 57.6324 261.951 57.4314 261.289C57.6345 261.565 57.862 261.822 58.111 262.057Z" fill="black"/>
<path d="M61.8217 269.398C61.871 269.763 61.9528 270.123 62.0661 270.474C61.8697 270.207 61.6963 269.924 61.5479 269.628C61.3871 269.314 61.253 268.987 61.147 268.65C61.3517 268.917 61.5773 269.167 61.8217 269.398Z" fill="black"/>
<path d="M59.9686 265.728C60.0144 266.094 60.0946 266.454 60.2082 266.804C60.0135 266.536 59.8402 266.253 59.69 265.958C59.5286 265.644 59.3944 265.317 59.2891 264.98C59.4931 265.249 59.7205 265.5 59.9686 265.728Z" fill="black"/>
<path d="M56.253 258.38C56.2983 258.747 56.3785 259.109 56.4926 259.46C56.3072 259.192 56.1437 258.909 56.0037 258.615C55.8398 258.301 55.704 257.974 55.5979 257.637C55.7932 257.904 56.0125 258.153 56.253 258.38Z" fill="black"/>
<path d="M68.412 249.096C66.5102 248.47 64.3053 249.996 63.4839 252.518C63.365 252.88 63.2799 253.251 63.2297 253.628C62.8068 253.957 62.4374 254.35 62.1345 254.792C62.0211 254.3 61.8487 253.824 61.6212 253.374C61.5381 253.208 61.4452 253.046 61.3474 252.885C61.6249 252.5 61.9539 252.154 62.3252 251.858C62.3755 251.481 62.4606 251.11 62.5794 250.749C63.4057 248.245 65.6106 246.72 67.5125 247.326C68.0578 247.536 68.5398 247.882 68.9116 248.333C69.2834 248.784 69.5323 249.323 69.6343 249.898C69.3021 249.531 68.8813 249.255 68.412 249.096Z" fill="black"/>
<path d="M59.5923 251.066C59.6156 250.704 59.6025 250.34 59.5532 249.98C60.0323 250.451 60.4304 250.998 60.7315 251.599C60.8791 251.895 61.0033 252.202 61.103 252.518C60.6969 251.942 60.1841 251.449 59.5923 251.066Z" fill="black"/>
<path d="M56.918 245.775C56.9412 245.413 56.9281 245.049 56.8789 244.689C57.3558 245.162 57.7536 245.709 58.0572 246.308C58.2048 246.604 58.329 246.911 58.4287 247.227C58.0213 246.652 57.5087 246.159 56.918 245.775Z" fill="black"/>
<path d="M63.6796 273.07C63.7265 273.437 63.8083 273.799 63.924 274.151C63.7286 273.882 63.5553 273.597 63.4058 273.3C63.245 272.986 63.1109 272.659 63.0049 272.322C63.2096 272.589 63.4352 272.839 63.6796 273.07Z" fill="black"/>
</g>
<path d="M40.0998 225.506C39.233 224.935 38.5342 224.144 38.0757 223.213C36.8681 220.822 37.3668 218.138 39.1904 217.214C41.014 216.29 43.4781 217.478 44.6857 219.869C45.1633 220.791 45.3861 221.824 45.331 222.861C46.1923 223.44 46.8905 224.23 47.3588 225.157C47.827 226.083 48.0497 227.114 48.0053 228.151C48.8727 228.722 49.5728 229.513 50.0343 230.444C50.181 230.737 50.3052 231.041 50.4058 231.353C49.7582 230.429 48.8258 229.742 47.7511 229.397C47.6314 229.779 47.4368 230.133 47.1786 230.439C46.9204 230.745 46.6038 230.996 46.2474 231.178C45.891 231.36 45.5019 231.47 45.1028 231.5C44.7037 231.53 44.3026 231.48 43.923 231.353C43.5605 232.423 43.5605 233.583 43.923 234.653C43.7393 234.387 43.5759 234.108 43.4341 233.817C42.9563 232.895 42.7319 231.862 42.7839 230.825C41.9236 230.245 41.2261 229.454 40.758 228.528C40.2899 227.602 40.0666 226.572 40.1096 225.535L40.0998 225.506Z" fill="#3F3D56"/>
<path d="M10.7071 191.606C9.96546 191.259 9.24836 190.862 8.56079 190.418L16.5201 184.6L7.16253 189.416C5.27054 187.911 3.70544 186.037 2.563 183.906C1.42056 181.776 0.724817 179.435 0.518354 177.027L16.4272 177.193L0.484131 174.524C0.621407 172.092 1.25807 169.714 2.35446 167.538C3.45084 165.363 4.98346 163.437 6.85681 161.879C8.73017 160.322 10.9041 159.168 13.2432 158.487C15.5824 157.807 18.0365 157.616 20.4528 157.925C22.8691 158.235 25.1958 159.038 27.2878 160.287C29.3799 161.535 31.1926 163.2 32.6129 165.179C34.0331 167.158 35.0307 169.409 35.5432 171.79C36.0558 174.172 36.0725 176.633 35.5922 179.022C36.747 179.556 37.8418 180.211 38.858 180.977L30.5467 192.535L40.5252 182.424C42.6308 184.493 44.1877 187.053 45.055 189.874C45.9223 192.696 46.0726 195.689 45.4924 198.583C48.511 199.989 51.0729 202.216 52.8853 205.009C54.6977 207.803 55.6873 211.05 55.7411 214.379C55.7949 217.709 54.9106 220.986 53.1893 223.837C51.4681 226.687 48.9794 228.996 46.0078 230.499C43.0363 232.001 39.7018 232.637 36.3857 232.334C33.0696 232.031 29.9058 230.801 27.256 228.784C24.6062 226.767 22.5774 224.046 21.4017 220.93C20.2259 217.815 19.9507 214.431 20.6073 211.167C17.0046 209.488 14.0702 206.647 12.2749 203.101C10.4796 199.555 9.92748 195.508 10.7071 191.611V191.606Z" fill="#0A2647"/>
<path opacity="0.1" d="M43.9278 187.099C45.731 190.647 46.2823 194.701 45.4923 198.603C48.5109 200.009 51.0728 202.236 52.8852 205.029C54.6976 207.823 55.6872 211.07 55.741 214.399C55.7948 217.729 54.9105 221.006 53.1892 223.857C51.468 226.707 48.9793 229.016 46.0077 230.519C43.0361 232.021 39.7017 232.657 36.3856 232.354C33.0695 232.051 29.9056 230.821 27.2559 228.804C24.6061 226.787 22.5773 224.066 21.4016 220.95C20.2258 217.835 19.9505 214.451 20.6072 211.187C17.1213 209.569 43.0331 185.324 43.9278 187.099Z" fill="black"/>
<path d="M23.9416 161.421C25.3969 161.421 26.5768 160.241 26.5768 158.786C26.5768 157.33 25.3969 156.15 23.9416 156.15C22.4862 156.15 21.3064 157.33 21.3064 158.786C21.3064 160.241 22.4862 161.421 23.9416 161.421Z" fill="#0A2647"/>
<path d="M8.56072 163.112C10.0161 163.112 11.1959 161.932 11.1959 160.477C11.1959 159.022 10.0161 157.842 8.56072 157.842C7.10535 157.842 5.92554 159.022 5.92554 160.477C5.92554 161.932 7.10535 163.112 8.56072 163.112Z" fill="#0A2647"/>
<path d="M2.63518 186.77C4.09055 186.77 5.27036 185.591 5.27036 184.135C5.27036 182.68 4.09055 181.5 2.63518 181.5C1.17981 181.5 0 182.68 0 184.135C0 185.591 1.17981 186.77 2.63518 186.77Z" fill="#0A2647"/>
<path d="M10.6386 198.587C12.094 198.587 13.2738 197.407 13.2738 195.952C13.2738 194.496 12.094 193.316 10.6386 193.316C9.18323 193.316 8.00342 194.496 8.00342 195.952C8.00342 197.407 9.18323 198.587 10.6386 198.587Z" fill="#0A2647"/>
<path d="M21.5702 223.126C23.0256 223.126 24.2054 221.946 24.2054 220.491C24.2054 219.035 23.0256 217.855 21.5702 217.855C20.1149 217.855 18.9351 219.035 18.9351 220.491C18.9351 221.946 20.1149 223.126 21.5702 223.126Z" fill="#0A2647"/>
<path opacity="0.1" d="M21.5702 223.126C23.0256 223.126 24.2054 221.946 24.2054 220.491C24.2054 219.035 23.0256 217.855 21.5702 217.855C20.1149 217.855 18.9351 219.035 18.9351 220.491C18.9351 221.946 20.1149 223.126 21.5702 223.126Z" fill="black"/>
<path d="M45.8835 195.331C47.3388 195.331 48.5187 194.151 48.5187 192.696C48.5187 191.24 47.3388 190.061 45.8835 190.061C44.4281 190.061 43.2483 191.24 43.2483 192.696C43.2483 194.151 44.4281 195.331 45.8835 195.331Z" fill="#0A2647"/>
<path opacity="0.1" d="M45.8835 195.331C47.3388 195.331 48.5187 194.151 48.5187 192.696C48.5187 191.24 47.3388 190.061 45.8835 190.061C44.4281 190.061 43.2483 191.24 43.2483 192.696C43.2483 194.151 44.4281 195.331 45.8835 195.331Z" fill="black"/>
<path opacity="0.1" d="M48.6945 236.003C50.4448 235.118 50.9728 232.615 49.951 230.303C50.0048 230.401 50.0586 230.493 50.1074 230.591C51.315 232.982 50.8164 235.666 48.9879 236.59C47.1594 237.514 44.7051 236.326 43.4975 233.935C43.4486 233.837 43.3997 233.74 43.3557 233.637C44.6122 235.832 46.9443 236.888 48.6945 236.003Z" fill="black"/>
<path opacity="0.1" d="M51.2907 241.146C53.041 240.261 53.5739 237.753 52.5521 235.445C52.6059 235.538 52.6596 235.636 52.7085 235.734C53.9161 238.125 53.4174 240.809 51.5889 241.733C49.7604 242.657 47.3062 241.469 46.0986 239.078C46.0448 238.98 46.0008 238.877 45.9568 238.78C47.2133 240.985 49.5502 242.031 51.2907 241.146Z" fill="black"/>
<path opacity="0.1" d="M53.8915 246.285C55.6418 245.4 56.1747 242.896 55.148 240.584C55.2067 240.682 55.2556 240.775 55.3094 240.877C56.5169 243.263 56.0134 245.952 54.1898 246.871C52.3662 247.79 49.907 246.607 48.6994 244.217C48.6456 244.119 48.6016 244.021 48.5576 243.918C49.8092 246.113 52.1413 247.17 53.8915 246.285Z" fill="black"/>
<path opacity="0.1" d="M56.4926 251.427C58.2429 250.542 58.7758 248.039 57.7491 245.727C57.8029 245.819 57.8566 245.917 57.9055 246.015C59.118 248.406 58.6144 251.09 56.7908 252.014C54.9672 252.938 52.5032 251.75 51.2956 249.359C51.2467 249.261 51.2027 249.159 51.1587 249.061C52.4103 251.251 54.7423 252.312 56.4926 251.427Z" fill="black"/>
<path opacity="0.1" d="M59.0937 256.567C60.844 255.682 61.372 253.179 60.3502 250.871C60.4039 250.964 60.4577 251.062 60.5066 251.16C61.7142 253.55 61.2155 256.234 59.3919 257.158C57.5683 258.082 55.1042 256.89 53.8967 254.504C53.8478 254.401 53.8038 254.303 53.7549 254.205C55.0114 256.396 57.3434 257.452 59.0937 256.567Z" fill="black"/>
<path opacity="0.1" d="M61.6945 261.708C63.4448 260.824 63.9728 258.32 62.951 256.008C63.0048 256.106 63.0586 256.198 63.1074 256.296C64.315 258.687 63.8164 261.371 61.9928 262.295C60.1691 263.219 57.7051 262.031 56.4975 259.64C56.4486 259.543 56.3997 259.445 56.3557 259.342C57.6122 261.518 59.9443 262.593 61.6945 261.708Z" fill="black"/>
<path opacity="0.1" d="M64.2956 266.853C66.041 265.968 66.5739 263.46 65.5521 261.152C65.6058 261.245 65.6596 261.343 65.7085 261.441C66.9161 263.832 66.4174 266.516 64.5889 267.44C62.7604 268.364 60.3062 267.171 59.0986 264.785C59.0497 264.682 59.0008 264.584 58.9568 264.487C60.2133 266.677 62.5453 267.738 64.2956 266.853Z" fill="black"/>
<path opacity="0.1" d="M66.8915 271.992C68.6418 271.107 69.1747 268.604 68.148 266.291C68.2067 266.389 68.2556 266.482 68.3094 266.584C69.5169 268.97 69.0134 271.659 67.1898 272.578C65.3662 273.497 62.907 272.314 61.6994 269.924C61.6456 269.826 61.6016 269.728 61.5576 269.625C62.8141 271.82 65.1413 272.877 66.8915 271.992Z" fill="black"/>
<path opacity="0.1" d="M68.6174 275.369C70.3676 274.484 70.8957 271.98 69.8739 269.668C69.9276 269.766 69.9814 269.859 70.0303 269.961C71.2379 272.347 70.7392 275.036 68.9156 275.955C67.092 276.874 64.6279 275.691 63.4203 273.301C63.3715 273.203 63.3226 273.105 63.2786 273.002C64.5204 275.207 66.8524 276.253 68.6174 275.369Z" fill="black"/>
<path d="M21.6144 252.489C21.3428 251.712 21.1783 250.901 21.1255 250.079C20.9447 250.078 20.766 250.04 20.6005 249.967C20.435 249.895 20.2863 249.789 20.1637 249.656C20.0411 249.523 19.9472 249.366 19.8878 249.195C19.8285 249.025 19.805 248.843 19.8188 248.663C19.8326 248.483 19.8834 248.307 19.9681 248.148C20.0528 247.988 20.1695 247.847 20.3109 247.735C20.4523 247.622 20.6155 247.54 20.7901 247.493C20.9647 247.447 21.1471 247.436 21.3259 247.463C21.6193 246.131 22.2053 244.88 23.0416 243.802C23.8778 242.724 24.9434 241.845 26.1611 241.23C26.0036 240.918 25.9764 240.556 26.0855 240.224C26.1946 239.892 26.4311 239.617 26.7429 239.46C27.0548 239.302 27.4164 239.275 27.7483 239.384C28.0802 239.493 28.3552 239.73 28.5128 240.042C28.57 240.152 28.6096 240.271 28.6301 240.394C30.0768 240.128 31.5659 240.211 32.9739 240.636C34.382 241.062 35.6684 241.816 36.7263 242.838C37.5344 242.706 38.3566 242.683 39.1708 242.77L40.2366 247.62L40.2611 242.941C41.4733 243.221 42.6162 243.744 43.6209 244.478C44.6257 245.212 45.4714 246.141 46.1072 247.211C46.7429 248.28 47.1556 249.467 47.3202 250.7C47.4848 251.934 47.398 253.188 47.0651 254.386C46.7321 255.585 46.1598 256.704 45.3827 257.676C44.6057 258.647 43.6399 259.452 42.5436 260.04C41.4474 260.628 40.2433 260.989 39.0041 261.099C37.7648 261.21 36.516 261.068 35.3329 260.683C35.2043 260.91 35.0123 261.096 34.7805 261.216C34.5388 261.338 34.2655 261.383 33.9976 261.344C33.7297 261.306 33.4801 261.186 33.2827 261C33.0852 260.815 32.9495 260.574 32.8938 260.309C32.8382 260.044 32.8653 259.768 32.9715 259.52C32.5523 259.227 32.1582 258.9 31.7933 258.542C29.8702 258.853 27.8979 258.548 26.1589 257.67C24.42 256.792 23.0037 255.385 22.113 253.653L27.0754 252.817L21.6144 252.489Z" fill="#0A2647"/>
<g opacity="0.1">
<path d="M29.2804 254.845C31.1138 252.4 32.2383 249.565 33.529 246.817C34.0459 245.686 34.627 244.586 35.2695 243.522L36.2473 242.393C36.4135 242.534 36.5749 242.676 36.7362 242.823C37.5443 242.691 38.3665 242.667 39.1807 242.754L40.2465 247.604L40.2612 242.94C41.4734 243.22 42.6163 243.743 43.621 244.477C44.6258 245.211 45.4715 246.14 46.1073 247.21C46.743 248.279 47.1557 249.467 47.3203 250.7C47.4849 251.933 47.3981 253.187 47.0652 254.386C46.7322 255.584 46.1599 256.703 45.3828 257.675C44.6058 258.647 43.64 259.451 42.5437 260.039C41.4475 260.628 40.2434 260.988 39.0042 261.099C37.7649 261.209 36.5161 261.067 35.333 260.682C35.2044 260.91 35.0124 261.095 34.7806 261.215C34.5389 261.337 34.2656 261.382 33.9977 261.343C33.7298 261.305 33.4802 261.185 33.2828 261C33.0853 260.815 32.9496 260.573 32.8939 260.308C32.8383 260.043 32.8654 259.768 32.9717 259.519C32.5524 259.226 32.1583 258.899 31.7934 258.541C29.9101 258.843 27.9795 258.558 26.2639 257.725C27.4178 256.933 28.4365 255.961 29.2804 254.845Z" fill="black"/>
</g>
<path d="M61.7287 244.451C61.6505 244.297 61.6035 244.129 61.5904 243.957C61.5774 243.785 61.5985 243.612 61.6525 243.448C61.7066 243.283 61.7926 243.132 61.9055 243.001C62.0184 242.87 62.156 242.763 62.3105 242.686C62.495 242.592 62.6996 242.543 62.9069 242.544C63.2799 240.564 64.2914 238.761 65.7866 237.411C65.5448 236.471 65.454 235.499 65.5177 234.531L70.3529 233.72L65.6546 233.421C65.7397 232.98 65.8573 232.545 66.0066 232.121C65.8219 231.998 65.6721 231.83 65.5714 231.632C65.4539 231.396 65.4094 231.131 65.4437 230.87C65.4781 230.609 65.5897 230.364 65.7641 230.167C65.9386 229.97 66.1681 229.83 66.423 229.764C66.6779 229.698 66.9466 229.71 67.1946 229.799C68.0581 228.57 69.2119 227.574 70.5534 226.899C72.1334 226.098 73.9111 225.769 75.6734 225.952C77.4357 226.135 79.1078 226.822 80.4892 227.932C81.8706 229.041 82.9028 230.526 83.4618 232.207C84.0209 233.888 84.0832 235.695 83.6413 237.411C83.8711 237.509 84.068 237.671 84.2091 237.878C84.3501 238.084 84.4294 238.326 84.4376 238.576C84.4458 238.826 84.3826 239.073 84.2554 239.289C84.1282 239.504 83.9423 239.678 83.7195 239.792C83.5524 239.876 83.3692 239.925 83.1821 239.933C82.9949 239.941 82.8081 239.91 82.6341 239.841C82.1623 240.632 81.5739 241.347 80.8887 241.962C81.3898 243.912 81.2405 245.972 80.4634 247.829L73.9952 246.128L79.7789 249.174C78.9106 250.559 77.6894 251.689 76.2404 252.447C74.7915 253.206 73.167 253.565 71.5336 253.488C69.9001 253.411 68.3164 252.902 66.9448 252.011C65.5732 251.121 64.4631 249.882 63.7283 248.421C63.2167 247.404 62.8953 246.302 62.7798 245.17C62.5578 245.15 62.3447 245.073 62.1607 244.947C61.9767 244.821 61.8279 244.651 61.7287 244.451Z" fill="#0A2647"/>
<path opacity="0.1" d="M61.7287 244.451C61.6505 244.297 61.6035 244.129 61.5904 243.957C61.5774 243.785 61.5985 243.611 61.6525 243.447C61.7066 243.283 61.7926 243.132 61.9055 243.001C62.0184 242.87 62.156 242.763 62.3105 242.686C62.495 242.592 62.6996 242.543 62.9069 242.544C63.2799 240.564 64.2914 238.761 65.7866 237.411C65.7475 237.259 65.7132 237.103 65.6839 236.951C65.8593 237.076 66.0229 237.217 66.1728 237.372C67.0479 238.349 67.4977 239.616 68.3582 240.584C69.4363 241.696 70.8858 242.373 72.4307 242.486C73.961 242.591 75.4984 242.467 76.9922 242.119C78.2241 241.802 79.495 241.662 80.7665 241.703L81.1283 241.752L80.9034 241.962C81.4045 243.912 81.2551 245.972 80.4781 247.829L73.9952 246.128L79.7789 249.174C78.9106 250.559 77.6894 251.689 76.2404 252.447C74.7915 253.205 73.167 253.565 71.5336 253.488C69.9001 253.411 68.3164 252.902 66.9448 252.011C65.5732 251.121 64.4631 249.882 63.7283 248.421C63.2167 247.404 62.8953 246.302 62.7798 245.17C62.5578 245.15 62.3447 245.073 62.1607 244.947C61.9767 244.821 61.8279 244.651 61.7287 244.451Z" fill="black"/>
</g>
<path opacity="0.1" d="M169.331 25.379C167.398 25.0121 165.4 25.23 163.591 26.0048C162.507 26.4882 161.332 26.7381 160.145 26.7381C158.957 26.7381 157.783 26.4882 156.698 26.0048C155.416 25.4428 154.027 25.1661 152.627 25.194C151.228 25.2219 149.851 25.5536 148.592 26.1662C147.873 26.5459 147.073 26.7455 146.26 26.748C142.974 26.748 140.241 23.4381 139.674 19.0722C140.329 18.592 140.887 17.9914 141.317 17.3024C143.243 14.1978 146.206 12.2031 149.575 12.2031C152.943 12.2031 155.877 14.1587 157.803 17.2437C158.378 18.1702 159.182 18.9329 160.138 19.4587C161.094 19.9844 162.168 20.2554 163.259 20.2456H163.347C165.938 20.2309 168.202 22.3283 169.331 25.379Z" fill="#0A2647"/>
<path opacity="0.1" d="M179.315 11.6896L174.005 15.0582L177.227 9.19136C176.313 8.46331 175.183 8.06073 174.015 8.04733H173.932C173.563 8.05183 173.195 8.02402 172.832 7.96421L171.028 9.10824L171.8 7.70509C170.529 7.26268 169.428 6.43354 168.652 5.33392L165.42 7.35308L167.454 3.6521C165.571 1.38848 163.029 0 160.238 0C156.889 0 153.882 1.99472 151.975 5.09925C151.405 6.02655 150.599 6.78638 149.64 7.30158C148.681 7.81678 147.602 8.06901 146.514 8.03266H146.353C142.657 8.03266 139.655 12.2225 139.655 17.4C139.655 22.5775 142.657 26.7625 146.353 26.7625C147.166 26.76 147.966 26.5604 148.685 26.1807C149.944 25.5676 151.321 25.236 152.721 25.209C154.12 25.182 155.509 25.4602 156.791 26.0243C157.876 26.5062 159.05 26.7552 160.238 26.7552C161.425 26.7552 162.599 26.5062 163.684 26.0243C164.956 25.4722 166.332 25.2004 167.718 25.2274C169.104 25.2544 170.468 25.5795 171.717 26.1807C172.43 26.5502 173.221 26.7446 174.025 26.7478C177.726 26.7478 180.723 22.5579 180.723 17.3854C180.736 15.3991 180.251 13.4411 179.315 11.6896Z" fill="#0A2647"/>
<path opacity="0.1" d="M58.8394 93.1118C56.0787 92.5895 53.225 92.8992 50.6405 94.0016C49.0896 94.6892 47.4112 95.0423 45.7147 95.0381C44.0182 95.0339 42.3416 94.6724 40.7941 93.9772C38.9629 93.1743 36.9792 92.7791 34.9802 92.8187C32.9812 92.8584 31.0147 93.3321 29.2169 94.207C28.1886 94.7486 27.0447 95.0338 25.8826 95.0381C21.1891 95.0381 17.2828 90.3104 16.4712 84.072C17.4091 83.3886 18.2059 82.5304 18.8179 81.5444C21.5704 77.1101 25.8337 74.2598 30.62 74.2598C35.4064 74.2598 39.6158 77.0758 42.3537 81.4613C43.1765 82.7904 44.3294 83.8839 45.7002 84.6353C47.071 85.3867 48.613 85.7703 50.1761 85.749H50.2983C54.0042 85.7441 57.2407 88.741 58.8394 93.1118Z" fill="#0A2647"/>
<path opacity="0.1" d="M73.1152 73.53L65.5274 78.3408L70.1329 69.9659C68.8277 68.924 67.212 68.3476 65.5421 68.3281H65.4199C64.8927 68.3358 64.3658 68.2965 63.8456 68.2107L61.2838 69.8681L62.3887 67.8636C60.5655 67.2265 58.991 66.0285 57.8908 64.4413L53.2853 67.3747L56.1845 62.0457C53.4907 58.814 49.863 56.834 45.8736 56.834C41.0872 56.834 36.824 59.6794 34.0715 64.1137C33.2562 65.4444 32.1027 66.535 30.7285 67.2745C29.3544 68.014 27.8087 68.3758 26.249 68.3232H25.9899C20.7049 68.3232 16.4221 74.3122 16.4221 81.7044C16.4221 89.0966 20.7049 95.0857 25.9899 95.0857C27.1529 95.0826 28.2974 94.7956 29.3242 94.2496C31.1224 93.3755 33.0891 92.9027 35.0881 92.8639C37.0871 92.825 39.0707 93.2211 40.9014 94.0248C42.449 94.72 44.1256 95.0815 45.8221 95.0857C47.5186 95.0899 49.197 94.7367 50.7479 94.0492C52.5652 93.2604 54.5309 92.8719 56.5116 92.9098C58.4923 92.9478 60.4416 93.4114 62.2273 94.2692C63.2444 94.8015 64.3746 95.0815 65.5225 95.0857C70.8076 95.0857 75.0904 89.0917 75.0904 81.7044C75.1272 78.8572 74.448 76.0463 73.1152 73.53Z" fill="#0A2647"/>
<path opacity="0.1" d="M365.684 44.4464C367.617 44.0798 369.615 44.2977 371.424 45.0722C372.508 45.5558 373.681 45.8058 374.868 45.8058C376.055 45.8058 377.229 45.5558 378.312 45.0722C379.595 44.5102 380.984 44.2336 382.383 44.2614C383.783 44.2893 385.16 44.621 386.418 45.2336C387.137 45.6127 387.938 45.8123 388.75 45.8154C392.036 45.8154 394.774 42.5055 395.341 38.1396C394.685 37.6607 394.127 37.0598 393.698 36.3698C391.782 33.2555 388.785 31.2461 385.426 31.2461C382.067 31.2461 379.129 33.2017 377.203 36.2867C376.628 37.2173 375.823 37.9839 374.866 38.5123C373.908 39.0407 372.83 39.3132 371.737 39.3032H371.654C369.053 39.2983 366.784 41.3957 365.684 44.4464Z" fill="#0A2647"/>
<path opacity="0.1" d="M355.671 30.757L360.981 34.1158L357.754 28.2489C358.668 27.5215 359.798 27.119 360.966 27.1049H361.054C361.422 27.1091 361.791 27.0813 362.154 27.0218L363.953 28.1658L363.181 26.7627C364.461 26.3276 365.573 25.5017 366.359 24.4013L369.58 26.4449L367.542 22.7439C369.429 20.4803 371.942 19.0918 374.763 19.0918C378.112 19.0918 381.119 21.0865 383.025 24.191C383.595 25.1187 384.401 25.8788 385.36 26.394C386.32 26.9093 387.398 27.1613 388.486 27.1245H388.662C392.363 27.1245 395.36 31.3143 395.36 36.4918C395.36 41.6693 392.363 45.8543 388.662 45.8543C387.85 45.8507 387.05 45.6511 386.33 45.2725C385.072 44.6594 383.694 44.3278 382.295 44.3008C380.895 44.2738 379.506 44.552 378.224 45.116C377.14 45.5979 375.967 45.8468 374.78 45.8468C373.593 45.8468 372.42 45.5979 371.336 45.116C370.063 44.5638 368.687 44.292 367.3 44.319C365.913 44.346 364.548 44.6712 363.298 45.2725C362.585 45.6426 361.794 45.837 360.99 45.8396C357.294 45.8396 354.293 41.6497 354.293 36.4771C354.266 34.4851 354.74 32.5184 355.671 30.757Z" fill="#0A2647"/>
<path opacity="0.1" d="M300.983 379.818C332.034 379.818 357.206 375.44 357.206 370.04C357.206 364.639 332.034 360.262 300.983 360.262C269.931 360.262 244.759 364.639 244.759 370.04C244.759 375.44 269.931 379.818 300.983 379.818Z" fill="#0A2647"/>
<path d="M271.556 323.595L184.438 322.475L184.697 320.241L188.907 283.383H265.415L271.042 320.241L271.473 323.038L271.556 323.595Z" fill="#D0D2D5"/>
<path opacity="0.1" d="M271.473 323.037H227.999L184.438 322.475L184.697 320.24H271.042L271.473 323.037Z" fill="black"/>
<path d="M285.519 320.803H169.918V323.594H285.519V320.803Z" fill="#D0D2D5"/>
<path d="M395.81 62.0073C395.817 60.0809 395.058 58.2306 393.702 56.8629C392.345 55.4952 390.501 54.7219 388.574 54.7129H65.7427C64.788 54.7174 63.8435 54.9099 62.9632 55.2794C62.0828 55.6489 61.2839 56.1881 60.612 56.8664C59.9401 57.5447 59.4084 58.3486 59.0472 59.2324C58.686 60.1161 58.5024 61.0624 58.5069 62.0171V257.7H395.81V62.0073Z" fill="#3F3D56"/>
<path d="M58.5068 255.744V278.664C58.5068 280.583 59.2692 282.423 60.6261 283.78C61.9831 285.137 63.8235 285.9 65.7426 285.9H388.574C390.493 285.9 392.334 285.137 393.691 283.78C395.048 282.423 395.81 280.583 395.81 278.664V255.744H58.5068Z" fill="#D0D2D5"/>
<path d="M383.524 66.9844H72.47V242.896H383.524V66.9844Z" fill="white"/>
<path d="M228.835 277.203C229.978 277.204 231.105 276.945 232.133 276.446C233.16 275.948 234.061 275.221 234.766 274.323C234.98 274.049 235.176 273.762 235.353 273.463L231.212 272.763L235.685 272.793C236.114 271.86 236.348 270.849 236.372 269.823C236.396 268.796 236.211 267.775 235.827 266.823L229.828 269.933L235.362 265.865C234.843 264.972 234.145 264.195 233.312 263.582C232.479 262.97 231.529 262.536 230.522 262.306C229.514 262.076 228.47 262.056 227.454 262.247C226.438 262.438 225.472 262.835 224.617 263.415C223.761 263.995 223.034 264.745 222.48 265.617C221.926 266.49 221.558 267.467 221.398 268.489C221.238 269.51 221.29 270.553 221.55 271.553C221.81 272.553 222.273 273.49 222.91 274.303C223.613 275.205 224.512 275.934 225.538 276.437C226.565 276.939 227.693 277.201 228.835 277.203Z" fill="#0A2647"/>
<path opacity="0.1" d="M236.374 285.895L271.13 320.802L265.796 285.895H236.374Z" fill="black"/>
<path opacity="0.1" d="M383.617 67.0039H72.2256V77.2806H383.617V67.0039Z" fill="#444053"/>
<path opacity="0.3" d="M273.878 68.793H180.625C180.468 68.793 180.341 68.9199 180.341 69.0765V74.7625C180.341 74.9191 180.468 75.046 180.625 75.046H273.878C274.035 75.046 274.162 74.9191 274.162 74.7625V69.0765C274.162 68.9199 274.035 68.793 273.878 68.793Z" fill="#0A2647"/>
<path d="M271.375 72.5674H271.145L271.062 72.4941C271.346 72.1522 271.502 71.7215 271.502 71.2767C271.499 70.9117 271.388 70.5556 271.183 70.2535C270.978 69.9515 270.688 69.7169 270.35 69.5794C270.012 69.4419 269.64 69.4077 269.283 69.481C268.925 69.5544 268.597 69.732 268.34 69.9916C268.084 70.2511 267.909 70.5808 267.84 70.9392C267.77 71.2976 267.808 71.6686 267.949 72.0054C268.09 72.3421 268.328 72.6295 268.632 72.8314C268.937 73.0332 269.294 73.1404 269.659 73.1395C270.104 73.1379 270.535 72.9805 270.876 72.6946L270.959 72.7679V72.9977L272.392 74.4302L272.817 73.9999L271.375 72.5674ZM269.659 72.5674C269.403 72.5684 269.153 72.4935 268.94 72.3523C268.728 72.2111 268.561 72.0098 268.463 71.7741C268.364 71.5383 268.338 71.2786 268.387 71.0279C268.437 70.7773 268.559 70.5468 268.74 70.3658C268.92 70.1848 269.15 70.0614 269.4 70.0112C269.651 69.961 269.911 69.9863 270.147 70.0838C270.383 70.1814 270.585 70.3468 270.727 70.5592C270.869 70.7715 270.945 71.0213 270.945 71.2767C270.946 71.4462 270.914 71.6142 270.849 71.7711C270.785 71.9279 270.691 72.0705 270.571 72.1906C270.452 72.3106 270.309 72.4057 270.153 72.4704C269.996 72.5351 269.828 72.5681 269.659 72.5674Z" fill="#3F3D56"/>
<path opacity="0.8" d="M77.8234 74.0243C78.863 74.0243 79.7057 73.1816 79.7057 72.142C79.7057 71.1025 78.863 70.2598 77.8234 70.2598C76.7839 70.2598 75.9412 71.1025 75.9412 72.142C75.9412 73.1816 76.7839 74.0243 77.8234 74.0243Z" fill="#FA5959"/>
<path opacity="0.8" d="M83.0009 74.0243C84.0405 74.0243 84.8832 73.1816 84.8832 72.142C84.8832 71.1025 84.0405 70.2598 83.0009 70.2598C81.9614 70.2598 81.1187 71.1025 81.1187 72.142C81.1187 73.1816 81.9614 74.0243 83.0009 74.0243Z" fill="#FED253"/>
<path opacity="0.8" d="M88.1833 74.0243C89.2228 74.0243 90.0656 73.1816 90.0656 72.142C90.0656 71.1025 89.2228 70.2598 88.1833 70.2598C87.1437 70.2598 86.301 71.1025 86.301 72.142C86.301 73.1816 87.1437 74.0243 88.1833 74.0243Z" fill="#8CCF4D"/>
<path d="M244.475 142.467C240.207 136.796 234.023 133.217 227.139 133.217C220.255 133.217 214.071 136.796 209.802 142.467C210.746 144.781 212.142 146.884 213.909 148.651C216.093 150.834 218.783 152.443 221.739 153.334C224.695 154.225 227.825 154.37 230.851 153.758C233.877 153.146 236.705 151.794 239.082 149.824C241.459 147.854 243.312 145.327 244.475 142.467Z" fill="#0A2647"/>
<path d="M207.549 145.786C207.245 145.656 206.956 145.492 206.688 145.297C206.283 144.966 205.959 144.546 205.74 144.07C206.02 143.496 206.137 142.856 206.08 142.219C206.022 141.583 205.793 140.974 205.415 140.458C205.037 139.943 204.525 139.54 203.936 139.294C203.346 139.048 202.7 138.968 202.068 139.061C201.436 139.155 200.841 139.42 200.349 139.827C199.856 140.234 199.483 140.767 199.272 141.37C199.06 141.973 199.017 142.623 199.147 143.248C199.277 143.874 199.575 144.452 200.01 144.921C200.255 145.181 200.535 145.406 200.841 145.591C201.239 145.821 201.563 146.16 201.775 146.568C202.175 147.376 202.726 148.1 203.398 148.7C204.088 149.292 204.833 149.816 205.622 150.265C204.535 153.342 203.919 156.566 203.794 159.827C202.53 159.849 201.275 160.051 200.069 160.429C199.451 160.621 198.868 160.911 198.343 161.289C198.202 161.272 198.06 161.262 197.917 161.26C197.276 161.26 196.647 161.435 196.098 161.768C195.549 162.1 195.101 162.576 194.804 163.144C194.506 163.712 194.369 164.351 194.409 164.991C194.448 165.631 194.662 166.249 195.027 166.776C195.392 167.304 195.895 167.721 196.48 167.983C197.066 168.246 197.712 168.343 198.349 168.264C198.985 168.185 199.588 167.934 200.092 167.537C200.596 167.14 200.982 166.613 201.208 166.012C201.347 165.625 201.589 165.283 201.909 165.025C202.229 164.766 202.614 164.6 203.022 164.545C203.322 164.509 203.624 164.49 203.926 164.487C204.346 169.087 205.773 173.539 208.106 177.526C206.033 179.134 204.757 180.889 204.219 182.835C204.119 182.891 204.025 182.958 203.941 183.036C203.793 183.151 203.656 183.279 203.53 183.417C203.111 183.878 202.822 184.441 202.693 185.051C202.564 185.66 202.599 186.292 202.795 186.883C202.991 187.474 203.341 188.003 203.808 188.414C204.276 188.825 204.844 189.105 205.455 189.224C206.066 189.343 206.698 189.298 207.286 189.092C207.874 188.887 208.396 188.528 208.8 188.054C209.203 187.58 209.474 187.007 209.583 186.394C209.692 185.781 209.636 185.15 209.421 184.566C209.262 184.142 209.231 183.68 209.332 183.238C209.434 182.796 209.664 182.394 209.993 182.082C210.228 181.862 210.482 181.628 210.824 181.369C214.789 185.998 219.507 188.966 225.399 189.318V157.906C217.61 157.481 210.824 152.411 207.549 145.786ZM256.356 161.294C256.214 161.296 256.072 161.306 255.93 161.324C255.4 160.954 254.819 160.664 254.205 160.463C252.998 160.084 251.744 159.882 250.479 159.862C250.344 156.603 249.727 153.382 248.651 150.304C249.441 149.855 250.186 149.331 250.875 148.739C251.569 148.105 252.139 147.347 252.557 146.505C252.753 146.139 253.055 145.841 253.422 145.649C254.019 145.314 254.504 144.812 254.819 144.204C255.134 143.597 255.264 142.911 255.194 142.23C255.124 141.549 254.857 140.904 254.425 140.373C253.993 139.843 253.415 139.45 252.763 139.243C252.111 139.036 251.412 139.025 250.754 139.21C250.095 139.395 249.505 139.768 249.055 140.284C248.606 140.8 248.317 141.436 248.224 142.114C248.132 142.792 248.239 143.482 248.533 144.1C248.318 144.577 247.993 144.998 247.585 145.327C247.311 145.553 247.023 145.764 246.724 145.957C243.449 152.577 236.668 157.505 228.889 157.931V189.372C234.756 189.02 239.503 186.038 243.463 181.422C243.771 181.667 244.031 181.887 244.251 182.092C244.594 182.41 244.835 182.823 244.945 183.278C245.054 183.732 245.027 184.21 244.867 184.649C244.653 185.233 244.598 185.863 244.707 186.475C244.816 187.087 245.086 187.659 245.489 188.132C245.892 188.605 246.413 188.963 247 189.169C247.586 189.375 248.217 189.422 248.827 189.304C249.438 189.186 250.006 188.909 250.474 188.499C250.942 188.09 251.292 187.564 251.49 186.974C251.688 186.385 251.726 185.754 251.6 185.145C251.474 184.536 251.188 183.972 250.773 183.51C250.647 183.371 250.509 183.244 250.362 183.129C250.201 183.001 250.083 182.928 250.083 182.928C249.545 180.972 248.274 179.227 246.172 177.619C248.505 173.632 249.932 169.18 250.352 164.58C250.641 164.583 250.93 164.603 251.217 164.638C251.634 164.692 252.028 164.857 252.359 165.115C252.69 165.372 252.946 165.715 253.1 166.105C253.392 166.849 253.929 167.471 254.622 167.868C255.316 168.266 256.124 168.414 256.913 168.29C257.703 168.166 258.426 167.776 258.964 167.185C259.502 166.594 259.822 165.837 259.871 165.039C259.895 164.56 259.823 164.081 259.658 163.631C259.493 163.181 259.238 162.768 258.91 162.419C258.582 162.069 258.187 161.789 257.748 161.596C257.309 161.403 256.835 161.3 256.356 161.294Z" fill="#0A2647"/>
<path d="M332.942 364.34C332.658 363.889 332.299 363.491 331.881 363.161C329.745 361.142 328.752 358.18 328.224 355.276C327.696 352.371 327.545 349.409 326.699 346.568C326.239 345.112 325.663 343.694 324.978 342.329C324.489 341.283 323.873 339.235 322.978 338.501C322.803 338.349 322.59 338.247 322.362 338.203C321.94 337.305 321.337 336.503 320.593 335.847C319.194 334.58 317.488 333.573 316.554 331.935C316.298 331.367 315.981 330.828 315.611 330.327C314.98 329.633 313.983 329.349 313.401 328.616C312.643 327.667 312.814 326.308 312.912 325.1C313.01 323.893 312.912 322.446 311.866 321.81C311.24 321.424 310.433 321.463 309.783 321.121C308.805 320.632 308.419 319.4 308.438 318.3C308.458 317.2 308.8 316.129 308.888 315.029C309.162 311.529 306.854 308.048 307.744 304.655C308.082 303.369 308.854 302.254 309.426 301.056C309.625 300.658 309.789 300.242 309.915 299.814C311.44 300.419 313.043 300.806 314.677 300.963C311.983 294.921 312.667 287.9 311.411 281.407L311.572 281.187C312.841 279.513 313.562 277.488 313.635 275.389C313.635 272.974 312.506 270.715 311.998 268.349C311.563 266.339 311.582 264.237 311.02 262.262C310.63 261.034 310.112 259.851 309.475 258.732C308.865 257.601 308.225 256.488 307.554 255.393C306.928 253.32 306.3 251.247 305.671 249.174C304.791 246.265 303.887 243.307 302.176 240.794C301.55 239.875 301.359 238.007 300.396 237.45C299.614 237.045 298.727 236.89 297.854 237.005C296.495 236.243 295.302 235.143 295.131 233.637C295.114 233.308 295.147 232.978 295.228 232.659H295.395C297.546 232.463 298.636 230.566 299.756 228.904C301.564 226.215 300.875 222.578 299.756 219.517C299.478 218.551 298.975 217.665 298.289 216.931C296.719 215.464 294.236 215.787 292.212 215.078C291.532 214.843 290.897 214.486 290.202 214.32C288.858 214.007 287.45 214.447 286.218 215.068C284.986 215.689 283.837 216.491 282.546 216.98C281.255 217.469 279.662 217.855 279.344 219.18C279.255 219.626 279.292 220.088 279.451 220.515C279.748 221.365 280.271 222.118 280.962 222.695C280.413 223.828 280.115 225.067 280.091 226.326C280.066 227.585 280.315 228.834 280.821 229.988C281.326 231.142 282.075 232.172 283.017 233.008C283.959 233.844 285.071 234.465 286.277 234.83C286.648 235.426 286.995 236.032 287.313 236.653C287.88 237.748 288.359 239.039 288.164 240.212C287.81 240.588 287.483 240.988 287.186 241.41C285.783 243.366 284.986 245.659 284.252 247.947C283.267 250.868 282.478 253.852 281.891 256.879C280.698 259.417 279.241 261.841 278.376 264.506C276.826 264.508 275.284 264.301 273.79 263.89L269.664 262.956C268.226 262.629 266.73 262.277 265.606 261.328C265.009 260.839 264.545 260.189 263.939 259.705C263.332 259.221 262.115 258.654 261.45 259.055C261.329 259.129 261.215 259.215 261.113 259.314C260.506 258.087 259.93 256.869 259.226 255.681C258.214 254.019 256.708 252.499 254.801 252.181C253.636 251.993 252.444 252.271 251.481 252.953C250.367 253.745 249.668 255.398 250.504 256.512C250.712 256.76 250.94 256.993 251.183 257.207C251.749 257.859 252.255 258.561 252.694 259.304C254.27 261.516 256.627 263.047 259.289 263.587L259.118 264.076C258.771 265.093 258.033 266.32 258.218 267.376L276.572 273.658C277.749 274.136 278.999 274.412 280.268 274.475C280.763 274.471 281.256 274.405 281.735 274.279V275.218V275.257C281.783 281.706 280.757 288.11 280.566 294.554C280.532 295.732 280.566 296.998 281.309 297.918C282.14 298.925 283.617 299.125 284.903 298.895C285.212 298.843 285.515 298.775 285.812 298.69C286.247 300.312 286.561 301.964 286.751 303.633L287.963 312.365C288.119 313.259 288.183 314.166 288.154 315.073C288.012 317.122 286.932 318.955 286.149 320.847C285.367 322.739 284.903 325.003 285.929 326.773C286.252 327.32 286.697 327.785 286.985 328.352C287.352 329.23 287.519 330.178 287.474 331.129C287.549 333.762 287.621 336.399 287.689 339.039C287.476 339.004 287.257 339.047 287.073 339.161C286.057 339.953 286.169 343.723 286.096 344.891C286.017 346.847 286.096 348.842 285.988 350.817C285.861 353.479 285.433 356.118 284.712 358.683C284.536 359.517 284.151 360.293 283.592 360.937C283.021 361.434 282.339 361.788 281.603 361.969C279.167 362.731 276.62 363.079 274.069 362.995C273.037 362.961 271.961 362.863 271.003 363.254C270.045 363.646 269.272 364.721 269.62 365.699C269.918 366.52 270.822 366.911 271.639 367.219C273.504 367.876 275.304 368.704 277.017 369.693C277.676 370.142 278.371 370.536 279.095 370.871C279.788 371.121 280.506 371.298 281.236 371.399L289.904 372.896C291.679 373.199 293.815 373.384 294.945 371.918C295.556 371.126 295.644 370.05 295.615 369.043C295.566 367.087 295.175 365.098 295.429 363.142C295.622 361.986 295.926 360.851 296.338 359.754C297.202 357.189 298.069 354.625 298.939 352.063C299.809 349.492 300.689 346.896 301.027 344.197C301.149 343.219 301.139 342.104 300.391 341.493C300.202 341.338 299.982 341.225 299.746 341.161C299.716 338.804 299.408 336.443 299.54 334.086C299.575 333.5 299.633 332.913 299.682 332.322C300.135 332.752 300.54 333.231 300.89 333.749C301.726 335.059 302.034 336.79 303.31 337.66C304.395 338.403 306.004 338.364 306.766 339.44C307.011 339.853 307.196 340.299 307.314 340.765C307.757 341.918 308.421 342.972 309.27 343.869C309.561 344.943 309.966 345.982 310.477 346.969C311.197 348.491 311.915 350.008 312.628 351.521C313.362 353.153 314.178 354.747 315.073 356.297C315.756 357.273 316.307 358.335 316.711 359.456C317.4 361.871 316.276 364.521 314.496 366.3C312.716 368.08 310.37 369.102 308.057 370.055C307.813 370.137 307.59 370.271 307.402 370.446C307.202 370.684 307.095 370.986 307.104 371.297C307.104 372.426 308.033 373.394 309.098 373.741C310.188 374.034 311.33 374.076 312.438 373.864C318.686 373.106 324.914 371.58 330.439 368.544C331.265 368.153 331.997 367.587 332.585 366.887C332.869 366.534 333.052 366.111 333.115 365.663C333.178 365.214 333.118 364.757 332.942 364.34Z" fill="url(#paint0_linear_769_5405)"/>
<path d="M306.537 254.703C307.58 256.303 308.557 257.943 309.47 259.621C310.109 260.731 310.629 261.907 311.02 263.127C311.587 265.082 311.572 267.17 311.998 269.165C312.487 271.511 313.631 273.75 313.631 276.156C313.556 278.24 312.835 280.249 311.567 281.905C310.304 283.547 308.857 285.04 307.255 286.354C303.563 276.79 301.501 266.675 301.154 256.429C301.105 255.011 301.095 253.549 301.613 252.224C301.931 251.393 303.456 249.115 304.439 250.009C304.796 250.337 304.889 251.813 305.109 252.307C305.521 253.142 305.998 253.943 306.537 254.703Z" fill="#2F2E41"/>
<path opacity="0.1" d="M306.537 254.703C307.58 256.303 308.557 257.943 309.47 259.621C310.109 260.731 310.629 261.907 311.02 263.127C311.587 265.082 311.572 267.17 311.998 269.165C312.487 271.511 313.631 273.75 313.631 276.156C313.556 278.24 312.835 280.249 311.567 281.905C310.304 283.547 308.857 285.04 307.255 286.354C303.563 276.79 301.501 266.675 301.154 256.429C301.105 255.011 301.095 253.549 301.613 252.224C301.931 251.393 303.456 249.115 304.439 250.009C304.796 250.337 304.889 251.813 305.109 252.307C305.521 253.142 305.998 253.943 306.537 254.703Z" fill="black"/>
<path d="M177.642 188.002C173.775 191.865 173.311 193.566 170.989 194.333C168.666 195.101 160.311 199.428 162.936 204.224L169.996 208.888L170.201 209.025L171.282 212.271L160.604 231.28C160.604 231.28 143.004 223.232 141.278 235.137C139.552 247.042 140.647 250.293 140.183 256.649C139.718 263.005 140.334 264.843 138.785 264.843C137.235 264.843 136.624 260.668 136.624 260.668C136.624 260.668 136.526 260.477 136.355 260.12C134.052 255.334 118.422 220.196 143.458 196.045C143.458 196.045 155.055 195.282 157.847 181.984C159.773 172.792 166.51 173.584 170.989 175.457C172.444 176.028 173.8 176.825 175.007 177.818C176.093 178.847 177.059 179.995 177.887 181.241C179.163 183.255 179.857 185.783 177.642 188.002Z" fill="#D0D2D5"/>
<path opacity="0.1" d="M170.202 209.025L171.282 212.271L160.604 231.279C160.604 231.279 143.004 223.232 141.278 235.137C139.552 247.042 140.647 250.293 140.183 256.648C139.718 263.004 140.334 264.842 138.785 264.842C137.235 264.842 136.624 260.667 136.624 260.667C136.624 260.667 136.526 260.477 136.355 260.12C135.577 254.175 131.637 219.399 145.923 221.247C145.923 221.247 157.515 226.664 159.367 224.503C160.834 222.792 167.346 212.95 169.996 208.912L170.202 209.025Z" fill="black"/>
<path opacity="0.1" d="M177.887 181.212L170.827 189.235C170.827 189.235 162.628 200.206 160.927 199.742C160.417 199.631 159.898 199.57 159.377 199.561C158.81 199.517 158.266 199.314 157.809 198.974C157.353 198.634 157.002 198.172 156.797 197.641C156.592 197.11 156.542 196.532 156.653 195.973C156.763 195.415 157.03 194.899 157.421 194.486C160.218 191.553 165.371 185.984 165.708 184.747C166.046 183.51 169.326 178.088 170.969 175.434C172.424 176.004 173.781 176.801 174.988 177.795C176.08 178.821 177.053 179.967 177.887 181.212Z" fill="black"/>
<path d="M377.633 296.636C376.435 299.032 370.299 308.018 367.615 311.944L366.359 313.792C366.359 313.792 365.87 317.038 357.857 313.014C349.844 308.991 161.572 229.549 161.572 229.549L160.296 225.716L169.586 211.807L375.936 291.532C375.936 291.532 379.183 293.541 377.633 296.636Z" fill="#454B69"/>
<path opacity="0.1" d="M367.615 311.944L366.359 313.792C366.359 313.792 365.87 317.039 357.857 313.015C349.844 308.991 161.572 229.55 161.572 229.55L160.296 225.717L367.615 311.944Z" fill="black"/>
<path d="M254.053 260.052C252.141 259.739 250.019 259.891 248.533 261.132C247.635 261.893 247.067 262.973 246.949 264.144C246.822 265.498 247.609 267.107 248.968 267.21C249.295 267.213 249.622 267.192 249.946 267.146C250.805 267.142 251.662 267.214 252.508 267.361C254.173 267.518 255.851 267.273 257.402 266.647C258.953 266.02 260.331 265.032 261.421 263.763C262.589 262.296 261.049 261.66 259.67 261.367C257.783 260.966 255.94 260.355 254.053 260.052Z" fill="#FBBEBE"/>
<path d="M286.751 304.205L287.963 312.82C288.118 313.709 288.18 314.612 288.149 315.514C288.007 317.543 286.927 319.361 286.149 321.239C285.372 323.116 284.898 325.365 285.929 327.105C286.247 327.648 286.692 328.113 286.98 328.675C287.347 329.544 287.514 330.485 287.469 331.427L287.802 343.65C291.576 343.907 295.364 343.886 299.135 343.586C299.282 343.593 299.427 343.548 299.545 343.459C299.645 343.333 299.695 343.175 299.687 343.014C299.853 340.154 299.355 337.289 299.516 334.429C299.575 333.383 299.721 332.342 299.741 331.29C299.799 327.032 297.697 322.862 298.333 318.652C298.532 317.59 298.793 316.541 299.115 315.509C301.124 308.175 300.699 300.47 300.254 292.897C300.262 292.775 300.227 292.654 300.156 292.555C300.084 292.483 299.992 292.433 299.892 292.413C297.753 291.771 295.492 291.654 293.298 292.071C291.104 292.488 289.043 293.427 287.288 294.809C286.756 295.239 285.411 295.654 285.059 296.168C284.57 296.882 285.211 297.595 285.494 298.353C286.122 300.253 286.544 302.215 286.751 304.205Z" fill="#3F3D56"/>
<path opacity="0.1" d="M286.751 304.205L287.963 312.82C288.118 313.709 288.18 314.612 288.149 315.514C288.007 317.543 286.927 319.361 286.149 321.239C285.372 323.116 284.898 325.365 285.929 327.105C286.247 327.648 286.692 328.113 286.98 328.675C287.347 329.544 287.514 330.485 287.469 331.427L287.802 343.65C291.576 343.907 295.364 343.886 299.135 343.586C299.282 343.593 299.427 343.548 299.545 343.459C299.645 343.333 299.695 343.175 299.687 343.014C299.853 340.154 299.355 337.289 299.516 334.429C299.575 333.383 299.721 332.342 299.741 331.29C299.799 327.032 297.697 322.862 298.333 318.652C298.532 317.59 298.793 316.541 299.115 315.509C301.124 308.175 300.699 300.47 300.254 292.897C300.262 292.775 300.227 292.654 300.156 292.555C300.084 292.483 299.992 292.433 299.892 292.413C297.753 291.771 295.492 291.654 293.298 292.071C291.104 292.488 289.043 293.427 287.288 294.809C286.756 295.239 285.411 295.654 285.059 296.168C284.57 296.882 285.211 297.595 285.494 298.353C286.122 300.253 286.544 302.215 286.751 304.205Z" fill="black"/>
<path d="M309.421 301.609C308.849 302.797 308.082 303.902 307.739 305.178C306.849 308.546 309.152 312.022 308.878 315.474C308.79 316.564 308.453 317.625 308.429 318.715C308.404 319.806 308.805 321.018 309.773 321.522C310.423 321.854 311.24 321.82 311.851 322.201C312.883 322.832 313 324.264 312.897 325.467C312.795 326.67 312.623 328.014 313.386 328.953C313.968 329.681 314.965 329.965 315.591 330.654C315.963 331.149 316.28 331.684 316.535 332.248C317.468 333.881 319.175 334.878 320.573 336.159C321.971 337.44 323.154 339.318 322.529 341.092C322.069 342.393 320.778 343.195 319.536 343.806C317.271 344.926 314.879 345.771 312.413 346.324C312.149 346.404 311.868 346.419 311.597 346.368C311.322 346.267 311.076 346.099 310.883 345.879C309.441 344.466 307.95 342.984 307.285 341.083C307.166 340.622 306.982 340.18 306.737 339.772C305.974 338.702 304.366 338.741 303.281 338.002C302.009 337.137 301.701 335.421 300.87 334.125C300.039 332.83 298.822 332.057 297.937 330.918C296.441 329.021 296.074 326.489 295.003 324.323C294.549 323.404 293.967 322.543 293.605 321.585C293.24 320.437 293.015 319.248 292.935 318.045C292.246 312.335 290.491 306.586 291.596 300.934C291.84 299.692 292.217 298.489 292.373 297.208C292.642 294.994 292.217 292.725 292.544 290.515C292.552 290.238 292.623 289.966 292.751 289.72C292.878 289.473 293.06 289.259 293.282 289.093C293.547 288.974 293.834 288.916 294.123 288.922C297.022 288.767 299.928 288.832 302.816 289.117C304.283 289.259 305.925 289.557 306.806 290.755C307.554 291.782 307.514 293.155 307.754 294.402C308.052 295.937 308.83 296.773 309.646 297.976C310.462 299.179 310.022 300.367 309.421 301.609Z" fill="#3F3D56"/>
<path d="M298.142 341.336C298.915 341.336 299.77 341.287 300.367 341.776C301.11 342.387 301.119 343.507 301.002 344.46C300.66 347.139 299.785 349.716 298.91 352.282L296.309 359.914C295.897 361.003 295.592 362.13 295.399 363.278C295.145 365.233 295.536 367.189 295.585 369.145C295.585 370.122 295.522 371.208 294.91 371.995C293.805 373.418 291.649 373.251 289.875 372.973L281.216 371.506C280.486 371.409 279.768 371.233 279.075 370.983C278.352 370.649 277.657 370.258 276.997 369.814C275.284 368.835 273.483 368.017 271.619 367.37C270.808 367.067 269.898 366.68 269.605 365.864C269.258 364.886 270.03 363.811 270.988 363.419C271.947 363.028 273.017 363.126 274.054 363.155C276.603 363.237 279.147 362.893 281.583 362.139C282.317 361.959 282.997 361.607 283.568 361.112C284.148 360.46 284.543 359.665 284.712 358.809C285.45 356.261 285.889 353.636 286.022 350.987C286.125 349.031 286.056 347.075 286.135 345.12C286.184 343.961 286.071 340.231 287.088 339.434C287.865 338.837 291.063 340.485 292.114 340.725C294.09 341.178 296.115 341.383 298.142 341.336Z" fill="#2F2E41"/>
<path d="M326.665 346.773C327.511 349.575 327.643 352.537 328.19 355.417C328.738 358.297 329.706 361.235 331.842 363.239C332.258 363.569 332.616 363.966 332.903 364.413C333.084 364.831 333.145 365.292 333.08 365.743C333.015 366.194 332.827 366.619 332.536 366.97C331.946 367.665 331.215 368.227 330.39 368.617C324.87 371.629 318.657 373.149 312.394 373.902C311.287 374.11 310.148 374.068 309.059 373.78C307.994 373.418 307.05 372.46 307.07 371.336C307.059 371.027 307.164 370.726 307.363 370.49C307.553 370.316 307.778 370.184 308.023 370.104C310.331 369.155 312.672 368.123 314.457 366.373C316.241 364.623 317.361 361.973 316.672 359.597C316.263 358.484 315.709 357.43 315.024 356.463C314.13 354.926 313.314 353.345 312.579 351.726L310.428 347.213C309.798 345.893 309.162 344.534 309.054 343.077C311.757 343.198 314.455 342.765 316.984 341.806C318.165 341.324 319.265 340.665 320.245 339.85C321.077 339.156 321.834 337.86 322.954 338.765C323.854 339.488 324.421 341.527 324.949 342.559C325.635 343.914 326.209 345.324 326.665 346.773Z" fill="#2F2E41"/>
<path d="M295.14 234.722C295.356 236.599 297.174 237.836 298.91 238.579L287.924 242.085C288.633 240.726 288.061 239.063 287.357 237.685C286.784 236.593 286.13 235.546 285.401 234.551C285.294 234.399 285.172 234.209 285.25 234.033C285.32 233.918 285.429 233.832 285.558 233.793C287.817 232.786 290.144 231.745 292.613 231.378C293.327 231.275 294.676 230.992 295.209 231.715C295.742 232.439 295.038 233.857 295.14 234.722Z" fill="#FBBEBE"/>
<path opacity="0.1" d="M295.14 234.722C295.356 236.599 297.174 237.836 298.91 238.579L287.924 242.085C288.633 240.726 288.061 239.063 287.357 237.685C286.784 236.593 286.13 235.546 285.401 234.551C285.294 234.399 285.172 234.209 285.25 234.033C285.32 233.918 285.429 233.832 285.558 233.793C287.817 232.786 290.144 231.745 292.613 231.378C293.327 231.275 294.676 230.992 295.209 231.715C295.742 232.439 295.038 233.857 295.14 234.722Z" fill="black"/>
<path d="M288.755 236.243C293.513 236.243 297.37 232.386 297.37 227.628C297.37 222.87 293.513 219.014 288.755 219.014C283.998 219.014 280.141 222.87 280.141 227.628C280.141 232.386 283.998 236.243 288.755 236.243Z" fill="#FBBEBE"/>
<path d="M281.29 298.519C282.126 299.521 283.597 299.717 284.883 299.497C287.89 299.008 290.349 296.793 293.292 295.996C296.9 295.018 300.719 296.275 304.126 297.815C307.534 299.355 310.922 301.237 314.647 301.501C311.279 293.992 313.205 284.957 309.983 277.384C309.196 275.531 308.096 273.746 307.92 271.742C307.7 269.253 308.942 266.853 309.133 264.379C309.309 262.174 308.644 259.979 308.008 257.876C307.223 255.295 306.437 252.714 305.652 250.132C304.772 247.243 303.867 244.305 302.161 241.821C301.53 240.907 301.34 239.054 300.381 238.501C298.289 237.294 295.116 238.814 292.847 238.897C290.579 238.98 288.511 240.594 287.186 242.417C285.783 244.344 284.986 246.637 284.252 248.905C283.085 252.283 282.213 255.756 281.647 259.285C281.573 259.813 281.51 260.341 281.461 260.873C280.972 265.894 281.686 270.945 281.725 275.99V276.025C281.774 282.424 280.747 288.785 280.556 295.18C280.537 296.348 280.566 297.624 281.29 298.519Z" fill="#2F2E41"/>
<path opacity="0.1" d="M281.739 275.995C283.426 275.57 284.951 274.48 286.262 273.287C287.397 272.271 288.404 271.122 289.264 269.865C290.345 268.174 291.214 266.356 291.85 264.452C293.66 259.361 294.81 254.059 295.272 248.676C295.399 247.209 295.438 245.635 294.563 244.471C294.072 243.841 293.382 243.395 292.605 243.207C291.828 243.019 291.011 243.099 290.285 243.435C289.132 243.997 288.384 245.136 287.689 246.226C286.316 248.387 284.932 250.577 284.047 252.983C283.656 254.049 283.367 255.144 282.986 256.214C282.598 257.27 282.151 258.304 281.646 259.309C281.573 259.837 281.51 260.365 281.461 260.898C281.006 265.919 281.7 270.95 281.739 275.995Z" fill="black"/>
<path d="M294.539 243.528C295.414 244.691 295.375 246.28 295.253 247.727C294.792 253.111 293.641 258.413 291.83 263.504C291.2 265.424 290.331 267.257 289.244 268.96C288.384 270.217 287.376 271.366 286.242 272.383C284.58 273.898 282.556 275.253 280.302 275.272C279.034 275.212 277.784 274.94 276.606 274.465L258.248 268.217C258.062 267.171 258.8 265.949 259.147 264.942L260.125 262.042C260.404 261.241 260.727 260.375 261.455 259.94C262.183 259.505 263.337 260.101 263.944 260.585C264.55 261.069 265.009 261.705 265.606 262.199C266.735 263.138 268.226 263.49 269.664 263.812L273.785 264.736C275.279 265.145 276.822 265.351 278.371 265.347C279.52 261.837 281.705 258.747 282.942 255.266C283.324 254.2 283.612 253.1 284.008 252.035C284.888 249.629 286.277 247.444 287.65 245.278C288.34 244.193 289.088 243.053 290.246 242.486C290.974 242.147 291.795 242.065 292.575 242.254C293.356 242.443 294.048 242.892 294.539 243.528Z" fill="#2F2E41"/>
<path d="M291.503 229.574C291.438 229.007 291.262 228.459 290.985 227.961C290.841 227.711 290.621 227.514 290.357 227.398C290.093 227.282 289.799 227.253 289.518 227.315C288.657 227.584 288.369 228.914 287.469 228.958C286.863 228.987 286.428 228.371 286.237 227.794C286.047 227.218 285.944 226.558 285.489 226.152C285.173 225.915 284.809 225.748 284.423 225.663C282.336 225.003 280.18 223.785 279.486 221.708C279.322 221.286 279.283 220.826 279.373 220.383C279.691 219.068 281.329 218.672 282.575 218.197C283.822 217.723 285.02 216.911 286.242 216.295C287.464 215.679 288.882 215.244 290.227 215.557C290.909 215.772 291.58 216.021 292.236 216.305C294.26 217.009 296.739 216.682 298.308 218.144C298.994 218.869 299.497 219.747 299.775 220.705C300.87 223.746 301.564 227.354 299.751 230.024C298.631 231.671 297.546 233.554 295.394 233.754C292.891 233.964 291.899 231.696 291.503 229.574Z" fill="#2F2E41"/>
<g opacity="0.1">
<path d="M287.68 226.757C287.489 226.18 287.386 225.52 286.936 225.115C286.62 224.878 286.257 224.711 285.871 224.626C283.778 223.966 281.627 222.748 280.928 220.67C280.769 220.248 280.731 219.788 280.82 219.345C280.868 219.137 280.956 218.939 281.079 218.764C280.282 219.111 279.588 219.57 279.393 220.382C279.303 220.825 279.342 221.285 279.505 221.707C280.199 223.785 282.355 225.002 284.443 225.662C284.829 225.748 285.192 225.914 285.509 226.151C285.964 226.557 286.061 227.212 286.257 227.794C286.452 228.375 286.883 228.987 287.489 228.957C288.095 228.928 288.388 228.375 288.775 227.911C288.242 227.843 287.856 227.295 287.68 226.757Z" fill="black"/>
<path d="M296.832 232.702C294.319 232.932 293.326 230.644 292.921 228.536C292.867 227.971 292.701 227.423 292.432 226.923C292.287 226.674 292.067 226.477 291.804 226.361C291.54 226.245 291.246 226.216 290.965 226.278C290.519 226.494 290.144 226.833 289.885 227.255C290.109 227.277 290.325 227.35 290.517 227.469C290.709 227.587 290.87 227.749 290.989 227.94C291.266 228.439 291.442 228.987 291.508 229.553C291.904 231.66 292.896 233.953 295.419 233.719C296.416 233.609 297.336 233.131 298 232.379C297.632 232.551 297.237 232.66 296.832 232.702Z" fill="black"/>
</g>
<path d="M397.531 323.648C406.25 323.648 413.318 322.289 413.318 320.612C413.318 318.935 406.25 317.576 397.531 317.576C388.813 317.576 381.745 318.935 381.745 320.612C381.745 322.289 388.813 323.648 397.531 323.648Z" fill="#0A2647"/>
<path d="M397.267 321.727C398.282 321.727 399.105 320.65 399.105 319.321C399.105 317.993 398.282 316.916 397.267 316.916C396.252 316.916 395.429 317.993 395.429 319.321C395.429 320.65 396.252 321.727 397.267 321.727Z" fill="#3F3D56"/>
<path d="M397.267 318.783C398.282 318.783 399.105 317.707 399.105 316.378C399.105 315.05 398.282 313.973 397.267 313.973C396.252 313.973 395.429 315.05 395.429 316.378C395.429 317.707 396.252 318.783 397.267 318.783Z" fill="#3F3D56"/>
<path d="M397.267 315.846C398.282 315.846 399.105 314.769 399.105 313.441C399.105 312.112 398.282 311.035 397.267 311.035C396.252 311.035 395.429 312.112 395.429 313.441C395.429 314.769 396.252 315.846 397.267 315.846Z" fill="#3F3D56"/>
<path d="M397.267 312.903C398.282 312.903 399.105 311.826 399.105 310.497C399.105 309.169 398.282 308.092 397.267 308.092C396.252 308.092 395.429 309.169 395.429 310.497C395.429 311.826 396.252 312.903 397.267 312.903Z" fill="#3F3D56"/>
<path d="M397.267 309.959C398.282 309.959 399.105 308.882 399.105 307.554C399.105 306.225 398.282 305.148 397.267 305.148C396.252 305.148 395.429 306.225 395.429 307.554C395.429 308.882 396.252 309.959 397.267 309.959Z" fill="#3F3D56"/>
<path d="M397.267 307.02C398.282 307.02 399.105 305.943 399.105 304.614C399.105 303.286 398.282 302.209 397.267 302.209C396.252 302.209 395.429 303.286 395.429 304.614C395.429 305.943 396.252 307.02 397.267 307.02Z" fill="#3F3D56"/>
<path d="M397.267 304.078C398.282 304.078 399.105 303.001 399.105 301.673C399.105 300.345 398.282 299.268 397.267 299.268C396.252 299.268 395.429 300.345 395.429 301.673C395.429 303.001 396.252 304.078 397.267 304.078Z" fill="#3F3D56"/>
<path d="M404.146 281.564C404.397 281.244 404.626 280.908 404.83 280.557L400 279.765L405.227 279.799C405.725 278.708 405.997 277.527 406.026 276.328C406.055 275.129 405.839 273.936 405.393 272.823L398.382 276.46L404.845 271.708C404.239 270.664 403.424 269.756 402.451 269.04C401.479 268.325 400.37 267.817 399.193 267.548C398.016 267.28 396.796 267.257 395.609 267.48C394.423 267.703 393.295 268.168 392.296 268.846C391.296 269.523 390.447 270.399 389.801 271.419C389.155 272.439 388.726 273.581 388.54 274.774C388.355 275.967 388.416 277.186 388.722 278.354C389.027 279.522 389.569 280.615 390.315 281.564C389.922 282.061 389.585 282.598 389.308 283.168L395.58 286.429L388.892 284.185C388.425 285.57 388.311 287.05 388.559 288.491C388.807 289.932 389.411 291.288 390.315 292.437C389.295 293.736 388.661 295.295 388.485 296.936C388.309 298.578 388.599 300.236 389.321 301.721C390.043 303.206 391.168 304.458 392.567 305.333C393.967 306.209 395.584 306.674 397.235 306.674C398.886 306.674 400.504 306.209 401.904 305.333C403.303 304.458 404.428 303.206 405.15 301.721C405.872 300.236 406.161 298.578 405.986 296.936C405.81 295.295 405.176 293.736 404.156 292.437C405.377 290.886 406.042 288.968 406.042 286.993C406.042 285.019 405.377 283.101 404.156 281.549L404.146 281.564Z" fill="#0A2647"/>
<path opacity="0.1" d="M388.418 286.991C388.417 288.969 389.086 290.888 390.315 292.437C389.295 293.736 388.661 295.295 388.485 296.936C388.309 298.578 388.599 300.236 389.321 301.721C390.042 303.206 391.167 304.458 392.567 305.333C393.967 306.209 395.584 306.674 397.235 306.674C398.886 306.674 400.504 306.209 401.904 305.333C403.303 304.458 404.428 303.206 405.15 301.721C405.872 300.236 406.161 298.578 405.986 296.936C405.81 295.295 405.176 293.736 404.156 292.437C405.324 290.936 388.418 286.003 388.418 286.991Z" fill="black"/>
<path d="M72.5628 384.185C85.1157 384.185 95.2918 382.228 95.2918 379.814C95.2918 377.4 85.1157 375.443 72.5628 375.443C60.0099 375.443 49.8337 377.4 49.8337 379.814C49.8337 382.228 60.0099 384.185 72.5628 384.185Z" fill="#0A2647"/>
<path d="M72.1816 381.421C73.6424 381.421 74.8265 379.869 74.8265 377.955C74.8265 376.04 73.6424 374.488 72.1816 374.488C70.7208 374.488 69.5366 376.04 69.5366 377.955C69.5366 379.869 70.7208 381.421 72.1816 381.421Z" fill="#3F3D56"/>
<path d="M72.1816 377.188C73.6424 377.188 74.8265 375.637 74.8265 373.722C74.8265 371.808 73.6424 370.256 72.1816 370.256C70.7208 370.256 69.5366 371.808 69.5366 373.722C69.5366 375.637 70.7208 377.188 72.1816 377.188Z" fill="#3F3D56"/>
<path d="M72.1816 372.954C73.6424 372.954 74.8265 371.402 74.8265 369.488C74.8265 367.573 73.6424 366.021 72.1816 366.021C70.7208 366.021 69.5366 367.573 69.5366 369.488C69.5366 371.402 70.7208 372.954 72.1816 372.954Z" fill="#3F3D56"/>
<path d="M72.1816 368.72C73.6424 368.72 74.8265 367.168 74.8265 365.253C74.8265 363.339 73.6424 361.787 72.1816 361.787C70.7208 361.787 69.5366 363.339 69.5366 365.253C69.5366 367.168 70.7208 368.72 72.1816 368.72Z" fill="#3F3D56"/>
<path d="M72.1816 364.485C73.6424 364.485 74.8265 362.933 74.8265 361.019C74.8265 359.105 73.6424 357.553 72.1816 357.553C70.7208 357.553 69.5366 359.105 69.5366 361.019C69.5366 362.933 70.7208 364.485 72.1816 364.485Z" fill="#3F3D56"/>
<path d="M72.1816 360.247C73.6424 360.247 74.8265 358.695 74.8265 356.781C74.8265 354.866 73.6424 353.314 72.1816 353.314C70.7208 353.314 69.5366 354.866 69.5366 356.781C69.5366 358.695 70.7208 360.247 72.1816 360.247Z" fill="#3F3D56"/>
<path d="M72.1816 356.013C73.6424 356.013 74.8265 354.461 74.8265 352.546C74.8265 350.632 73.6424 349.08 72.1816 349.08C70.7208 349.08 69.5366 350.632 69.5366 352.546C69.5366 354.461 70.7208 356.013 72.1816 356.013Z" fill="#3F3D56"/>
<path d="M82.0865 323.575C82.4445 323.108 82.7712 322.618 83.0643 322.108L76.1122 320.964L83.6315 321.023C84.3522 319.452 84.7451 317.751 84.7863 316.024C84.8275 314.297 84.5161 312.579 83.871 310.976L73.7899 316.227L83.079 309.382C82.2092 307.873 81.0376 306.559 79.6374 305.523C78.2372 304.486 76.6384 303.75 74.9409 303.359C73.2433 302.968 71.4834 302.931 69.771 303.25C68.0585 303.57 66.4302 304.238 64.9878 305.215C63.5453 306.192 62.3196 307.455 61.3872 308.927C60.4548 310.398 59.8356 312.046 59.5683 313.767C59.301 315.489 59.3914 317.247 59.8338 318.932C60.2761 320.616 61.061 322.192 62.1393 323.56C61.5684 324.274 61.0766 325.048 60.6726 325.868L69.7027 330.561L60.0762 327.33C59.4015 329.333 59.2386 331.474 59.6024 333.556C59.9661 335.639 60.845 337.598 62.1589 339.254C60.6879 341.124 59.7729 343.37 59.5183 345.735C59.2637 348.101 59.6799 350.49 60.7193 352.63C61.7587 354.77 63.3793 356.575 65.3959 357.837C67.4125 359.1 69.7436 359.769 72.1227 359.769C74.5019 359.769 76.833 359.1 78.8496 357.837C80.8661 356.575 82.4868 354.77 83.5262 352.63C84.5655 350.49 84.9817 348.101 84.7272 345.735C84.4726 343.37 83.5575 341.124 82.0865 339.254C83.8447 337.02 84.8006 334.26 84.8006 331.417C84.8006 328.574 83.8447 325.814 82.0865 323.58V323.575Z" fill="#0A2647"/>
<path opacity="0.1" d="M59.4456 331.432C59.446 334.27 60.4018 337.025 62.159 339.254C60.688 341.124 59.7729 343.37 59.5183 345.736C59.2638 348.101 59.68 350.491 60.7194 352.631C61.7588 354.771 63.3794 356.575 65.396 357.838C67.4125 359.1 69.7437 359.769 72.1228 359.769C74.5019 359.769 76.8331 359.1 78.8496 357.838C80.8662 356.575 82.4868 354.771 83.5262 352.631C84.5656 350.491 84.9818 348.101 84.7272 345.736C84.4727 343.37 83.5576 341.124 82.0866 339.254C83.7733 337.093 59.4456 329.99 59.4456 331.432Z" fill="black"/>
</g>
<defs>
<linearGradient id="paint0_linear_769_5405" x1="294.261" y1="374.669" x2="287.79" y2="214.249" gradientUnits="userSpaceOnUse">
<stop stop-color="#808080" stop-opacity="0.25"/>
<stop offset="0.54" stop-color="#808080" stop-opacity="0.12"/>
<stop offset="1" stop-color="#808080" stop-opacity="0.1"/>
</linearGradient>
<clipPath id="clip0_769_5405">
<rect width="500" height="384.184" fill="white"/>
</clipPath>
</defs>
</svg>
