<svg width="500" height="344" viewBox="0 0 500 344" fill="none" xmlns="http://www.w3.org/2000/svg">
<g clip-path="url(#clip0_769_5423)">
<path d="M68.6166 341.825C48.7337 336.65 31.164 324.949 18.7239 308.598C6.28387 292.247 -0.306098 272.193 0.0104026 251.65C0.0892605 246.532 0.627405 241.306 2.779 236.661C4.9306 232.017 8.92716 227.999 13.9264 226.899C19.3823 225.698 25.1395 228.153 29.2055 231.984C33.2715 235.815 35.9374 240.87 38.3903 245.889C53.1642 276.122 64.3891 308.561 68.5917 341.947L68.6166 341.825Z" fill="#F2F2F2"/>
<path d="M11.4512 227.908L21.8056 251.434L32.16 274.96C35.4393 282.411 38.7123 289.865 42.1018 297.266C45.4615 304.603 48.9363 311.888 52.6433 319.057C56.345 326.214 60.2792 333.256 64.5496 340.091C65.0814 340.942 65.6184 341.79 66.1607 342.634C66.5359 343.219 67.474 342.677 67.0961 342.088C62.7437 335.303 58.7334 328.305 54.972 321.177C51.2066 314.042 47.6873 306.779 44.2979 299.458C40.8905 292.098 37.6141 284.678 34.3464 277.255C30.9068 269.442 27.4679 261.628 24.0295 253.815L13.6751 230.289L12.3866 227.361C12.1064 226.724 11.1728 227.275 11.4512 227.908Z" fill="white"/>
<path d="M64.2974 341.989C52.5775 344.67 40.2968 343.338 29.424 338.208C18.5511 333.077 9.71583 324.444 4.33434 313.693C2.99351 311.014 1.86216 308.156 1.72531 305.164C1.58846 302.171 2.57888 299.007 4.87728 297.086C7.38565 294.989 11.0375 294.71 14.1828 295.601C17.328 296.492 20.0768 298.397 22.7052 300.341C38.5373 312.049 53.1225 325.86 64.3174 342.059L64.2974 341.989Z" fill="#F2F2F2"/>
<path d="M3.86472 298.277L15.5917 307.696L27.3187 317.115C31.0327 320.098 34.7443 323.085 38.5022 326.012C42.2271 328.914 45.998 331.759 49.8577 334.48C53.712 337.197 57.6554 339.79 61.7178 342.186C62.2237 342.484 62.7314 342.78 63.2409 343.072C63.5937 343.274 63.9342 342.739 63.579 342.535C59.4877 340.188 55.5164 337.637 51.6393 334.952C47.758 332.264 43.9701 329.443 40.2341 326.557C36.4781 323.656 32.774 320.688 29.0736 317.717C25.1785 314.589 21.2837 311.46 17.3891 308.332L5.66211 298.913L4.20275 297.741C3.88539 297.486 3.54932 298.024 3.86472 298.277Z" fill="white"/>
<path d="M495.472 0H180.429C179.228 0.00133214 178.077 0.478858 177.228 1.3278C176.379 2.17674 175.902 3.32776 175.9 4.52834V218.007C175.902 219.208 176.379 220.359 177.228 221.208C178.077 222.057 179.228 222.534 180.429 222.536H495.472C496.673 222.534 497.824 222.057 498.673 221.208C499.522 220.359 499.999 219.208 500 218.007V4.52834C499.999 3.32776 499.522 2.17674 498.673 1.3278C497.824 0.478858 496.673 0.00133214 495.472 0ZM498.707 218.007C498.706 218.865 498.365 219.688 497.759 220.294C497.152 220.901 496.33 221.242 495.472 221.242H180.429C179.571 221.242 178.748 220.901 178.142 220.294C177.535 219.688 177.195 218.865 177.194 218.007V4.52834C177.195 3.6706 177.535 2.84809 178.142 2.24157C178.748 1.63505 179.571 1.29416 180.429 1.29381H495.472C496.33 1.29416 497.152 1.63505 497.759 2.24157C498.365 2.84809 498.706 3.6706 498.707 4.52834V218.007Z" fill="#3F3D56"/>
<path d="M499.353 18.1387H176.547V19.4325H499.353V18.1387Z" fill="#3F3D56"/>
<path d="M187.545 13.5851C189.688 13.5851 191.426 11.8474 191.426 9.7037C191.426 7.56004 189.688 5.82227 187.545 5.82227C185.401 5.82227 183.663 7.56004 183.663 9.7037C183.663 11.8474 185.401 13.5851 187.545 13.5851Z" fill="#3F3D56"/>
<path d="M198.704 13.5851C200.847 13.5851 202.585 11.8474 202.585 9.7037C202.585 7.56004 200.847 5.82227 198.704 5.82227C196.56 5.82227 194.822 7.56004 194.822 9.7037C194.822 11.8474 196.56 13.5851 198.704 13.5851Z" fill="#3F3D56"/>
<path d="M209.863 13.5851C212.007 13.5851 213.744 11.8474 213.744 9.7037C213.744 7.56004 212.007 5.82227 209.863 5.82227C207.719 5.82227 205.981 7.56004 205.981 9.7037C205.981 11.8474 207.719 13.5851 209.863 13.5851Z" fill="#3F3D56"/>
<path d="M255.384 48.1954H201.044C199.843 48.1954 198.691 47.7183 197.842 46.869C196.993 46.0198 196.516 44.868 196.516 43.667C196.516 42.466 196.993 41.3142 197.842 40.465C198.691 39.6158 199.843 39.1387 201.044 39.1387H255.384C256.585 39.1387 257.737 39.6158 258.586 40.465C259.435 41.3142 259.912 42.466 259.912 43.667C259.912 44.868 259.435 46.0198 258.586 46.869C257.737 47.7183 256.585 48.1954 255.384 48.1954Z" fill="#CCCCCC"/>
<path d="M329.778 70.1895H201.044C199.843 70.1895 198.691 69.7124 197.842 68.8632C196.993 68.0139 196.516 66.8621 196.516 65.6612C196.516 64.4602 196.993 63.3083 197.842 62.4591C198.691 61.6099 199.843 61.1328 201.044 61.1328H329.778C330.979 61.1328 332.131 61.6099 332.98 62.4591C333.83 63.3083 334.307 64.4602 334.307 65.6612C334.307 66.8621 333.83 68.0139 332.98 68.8632C332.131 69.7124 330.979 70.1895 329.778 70.1895Z" fill="#CCCCCC"/>
<path d="M371.322 78.9375C365.258 87.779 361.723 98.1086 361.1 108.812C360.476 119.515 362.787 130.185 367.783 139.671C372.78 149.157 380.272 157.098 389.451 162.638C398.63 168.178 409.147 171.106 419.869 171.107V119.717L371.322 78.9375Z" fill="#0A2647"/>
<path d="M419.869 53.3692C410.308 53.3631 400.89 55.6884 392.431 60.1436C383.971 64.5988 376.726 71.0495 371.322 78.9368L419.869 119.716V53.3692Z" fill="#CCCCCC"/>
<path d="M419.869 171.753H419.222V52.7227H419.869C435.653 52.7227 450.791 58.993 461.952 70.1543C473.114 81.3156 479.384 96.4536 479.384 112.238C479.384 128.022 473.114 143.16 461.952 154.322C450.791 165.483 435.653 171.753 419.869 171.753ZM420.515 54.0199V170.456C435.844 170.286 450.486 164.077 461.265 153.178C472.044 142.278 478.09 127.567 478.09 112.238C478.09 96.9088 472.044 82.198 461.265 71.2985C450.486 60.399 435.844 54.1903 420.515 54.0199Z" fill="#3F3D56"/>
<path d="M238.565 196.013H227.567C226.796 196.012 226.056 195.705 225.51 195.159C224.964 194.613 224.657 193.873 224.656 193.102V161.403C224.657 160.631 224.964 159.892 225.51 159.346C226.056 158.8 226.796 158.493 227.567 158.492H238.565C239.337 158.493 240.077 158.8 240.622 159.346C241.168 159.892 241.475 160.631 241.476 161.403V193.102C241.475 193.873 241.168 194.613 240.622 195.159C240.076 195.705 239.337 196.012 238.565 196.013Z" fill="#CCCCCC"/>
<path d="M270.909 196.013H259.912C259.14 196.012 258.4 195.705 257.855 195.159C257.309 194.613 257.002 193.873 257.001 193.102V146.524C257.002 145.753 257.309 145.013 257.855 144.467C258.4 143.921 259.14 143.614 259.912 143.613H270.909C271.681 143.614 272.421 143.921 272.967 144.467C273.513 145.013 273.82 145.753 273.821 146.524V193.102C273.82 193.873 273.513 194.613 272.967 195.159C272.421 195.705 271.681 196.012 270.909 196.013Z" fill="#FF6584"/>
<path d="M303.255 196.013H292.258C291.486 196.012 290.746 195.705 290.2 195.16C289.655 194.614 289.348 193.874 289.347 193.102V133.587C289.348 132.815 289.655 132.075 290.2 131.529C290.746 130.984 291.486 130.677 292.258 130.676H303.255C304.027 130.677 304.767 130.984 305.313 131.529C305.858 132.075 306.165 132.815 306.166 133.587V193.102C306.165 193.874 305.858 194.614 305.313 195.16C304.767 195.705 304.027 196.012 303.255 196.013Z" fill="#0A2647"/>
<path d="M238.565 196.336H227.568C226.71 196.335 225.888 195.994 225.281 195.387C224.675 194.781 224.334 193.959 224.333 193.101V121.942C224.334 121.084 224.675 120.262 225.281 119.655C225.888 119.049 226.71 118.708 227.568 118.707H238.565C239.422 118.708 240.245 119.049 240.851 119.655C241.457 120.262 241.798 121.084 241.799 121.942V193.101C241.798 193.959 241.457 194.781 240.851 195.387C240.245 195.994 239.422 196.335 238.565 196.336ZM227.568 120.001C227.053 120.001 226.56 120.206 226.196 120.57C225.832 120.934 225.627 121.427 225.627 121.942V193.101C225.627 193.616 225.832 194.109 226.196 194.473C226.56 194.837 227.053 195.041 227.568 195.042H238.565C239.079 195.041 239.573 194.837 239.937 194.473C240.3 194.109 240.505 193.616 240.506 193.101V121.942C240.505 121.427 240.3 120.934 239.937 120.57C239.573 120.206 239.079 120.001 238.565 120.001H227.568Z" fill="#3F3D56"/>
<path d="M270.91 196.336H259.912C259.055 196.335 258.233 195.994 257.626 195.387C257.02 194.781 256.679 193.959 256.678 193.101V121.942C256.679 121.084 257.02 120.262 257.626 119.655C258.233 119.049 259.055 118.708 259.912 118.707H270.91C271.767 118.708 272.589 119.049 273.196 119.655C273.802 120.262 274.143 121.084 274.144 121.942V193.101C274.143 193.959 273.802 194.781 273.196 195.387C272.589 195.994 271.767 196.335 270.91 196.336ZM259.912 120.001C259.398 120.001 258.904 120.206 258.541 120.57C258.177 120.934 257.972 121.427 257.972 121.942V193.101C257.972 193.616 258.177 194.109 258.541 194.473C258.904 194.837 259.398 195.041 259.912 195.042H270.91C271.424 195.041 271.918 194.837 272.281 194.473C272.645 194.109 272.85 193.616 272.85 193.101V121.942C272.85 121.427 272.645 120.934 272.281 120.57C271.918 120.206 271.424 120.001 270.91 120.001H259.912Z" fill="#3F3D56"/>
<path d="M303.255 196.336H292.258C291.4 196.335 290.578 195.994 289.972 195.387C289.366 194.781 289.024 193.959 289.023 193.101V121.942C289.024 121.084 289.366 120.262 289.972 119.655C290.578 119.049 291.4 118.708 292.258 118.707H303.255C304.113 118.708 304.935 119.049 305.541 119.655C306.148 120.262 306.489 121.084 306.49 121.942V193.101C306.489 193.959 306.148 194.781 305.541 195.387C304.935 195.994 304.113 196.335 303.255 196.336ZM292.258 120.001C291.743 120.001 291.25 120.206 290.886 120.57C290.522 120.934 290.318 121.427 290.317 121.942V193.101C290.318 193.616 290.522 194.109 290.886 194.473C291.25 194.837 291.743 195.041 292.258 195.042H303.255C303.77 195.041 304.263 194.837 304.627 194.473C304.991 194.109 305.196 193.616 305.196 193.101V121.942C305.196 121.427 304.991 120.934 304.627 120.57C304.263 120.206 303.77 120.001 303.255 120.001H292.258Z" fill="#3F3D56"/>
<path d="M72.7328 232.241C72.9842 231.324 73.0314 230.362 72.8711 229.425C72.7108 228.488 72.3469 227.597 71.8051 226.815C71.2633 226.034 70.5567 225.38 69.7351 224.901C68.9135 224.423 67.9969 224.13 67.0498 224.043L61.4865 201.605L53.3442 210.438L59.8755 230.391C59.8359 231.992 60.3847 233.551 61.4181 234.774C62.4515 235.997 63.8977 236.799 65.4825 237.027C67.0673 237.255 68.6807 236.893 70.017 236.011C71.3533 235.129 72.3196 233.788 72.7328 232.241Z" fill="#FFB8B8"/>
<path d="M57.8171 225.34C57.4397 225.183 57.0997 224.948 56.8191 224.65C56.5385 224.353 56.3237 223.999 56.1886 223.613L46.9015 195.034C44.5019 188.17 44.6775 180.667 47.3955 173.922L56.3477 151.698C56.549 150.482 56.9879 149.318 57.6394 148.272C58.291 147.226 59.1423 146.318 60.1447 145.601C61.1472 144.884 62.2811 144.372 63.4817 144.094C64.6822 143.816 65.9258 143.777 67.1415 143.979C68.3571 144.182 69.5208 144.622 70.5662 145.275C71.6116 145.927 72.5181 146.78 73.2338 147.783C73.9496 148.786 74.4606 149.921 74.7376 151.122C75.0146 152.322 75.0522 153.566 74.8482 154.781L62.4972 190.722L66.8205 219.987C66.878 220.583 66.7512 221.181 66.4573 221.703C66.1635 222.224 65.7167 222.642 65.1774 222.901L60.1905 225.28C59.6556 225.535 59.0557 225.621 58.4707 225.526C58.2463 225.49 58.0269 225.428 57.8171 225.34Z" fill="#2F2E41"/>
<path d="M103.727 335.385L111.658 335.384L115.431 304.793L103.726 304.794L103.727 335.385Z" fill="#FFB8B8"/>
<path d="M126.953 342.748L102.027 342.749L102.027 333.119L117.322 333.118C119.876 333.118 122.326 334.132 124.132 335.938C125.938 337.744 126.953 340.194 126.953 342.748Z" fill="#2F2E41"/>
<path d="M64.2655 335.385L72.1965 335.384L75.9693 304.793L64.2642 304.794L64.2655 335.385Z" fill="#FFB8B8"/>
<path d="M87.4922 342.748L62.5664 342.749L62.566 333.119L77.8614 333.118C80.4155 333.118 82.8651 334.132 84.6712 335.938C86.4773 337.744 87.4921 340.194 87.4922 342.748Z" fill="#2F2E41"/>
<path d="M105.895 210.705L112.867 265.942C113.825 273.535 114.495 281.157 114.878 288.807L116.756 326.372C116.774 326.722 116.72 327.073 116.598 327.401C116.476 327.73 116.289 328.031 116.047 328.285C115.805 328.539 115.514 328.741 115.192 328.879C114.87 329.018 114.523 329.089 114.172 329.089H103.591C102.972 329.089 102.374 328.867 101.904 328.464C101.435 328.06 101.126 327.502 101.033 326.89L91.5167 264.196C91.4708 263.893 91.3194 263.617 91.0892 263.416C90.8591 263.215 90.5651 263.101 90.2595 263.096C89.9538 263.091 89.6562 263.194 89.4193 263.388C89.1825 263.581 89.0218 263.852 88.9657 264.152L77.5015 325.555C77.3881 326.107 77.0976 326.606 76.6742 326.978C76.2508 327.35 75.7176 327.573 75.1556 327.614L65.4171 328.232C65.0555 328.259 64.6924 328.209 64.3513 328.086C64.0103 327.963 63.6988 327.77 63.4372 327.519C63.1755 327.268 62.9695 326.965 62.8325 326.63C62.6955 326.294 62.6306 325.933 62.6419 325.571L65.7867 224.937L105.895 210.705Z" fill="#2F2E41"/>
<path d="M75.0064 132.027C83.7814 132.027 90.895 124.914 90.895 116.139C90.895 107.364 83.7814 100.25 75.0064 100.25C66.2313 100.25 59.1177 107.364 59.1177 116.139C59.1177 124.914 66.2313 132.027 75.0064 132.027Z" fill="#FFB8B8"/>
<path d="M62.5521 226.23C66.4336 235.286 83.2531 241.756 87.1346 228.817C90.1363 218.816 102.026 214.611 107.273 213.221C107.932 213.045 108.496 212.616 108.843 212.028C109.189 211.44 109.29 210.739 109.123 210.077L94.4574 152.47C93.6033 149.114 91.9021 146.034 89.5166 143.524C87.1312 141.014 84.1415 139.158 80.8335 138.134C69.1766 134.524 56.8854 141.957 54.9121 153.996C54.3732 157.372 54.0298 160.776 53.8836 164.191C52.6672 189.608 59.9967 220.265 62.5521 226.23Z" fill="#0A2647"/>
<path d="M115.203 226.213C115.108 225.267 114.807 224.353 114.32 223.536C113.834 222.719 113.174 222.018 112.387 221.484C111.601 220.949 110.707 220.593 109.768 220.442C108.829 220.29 107.868 220.346 106.953 220.606L93.6966 201.668L89.2734 212.837L102.541 229.109C103.079 230.616 104.152 231.875 105.556 232.644C106.96 233.414 108.597 233.642 110.158 233.285C111.719 232.928 113.095 232.011 114.024 230.708C114.954 229.404 115.374 227.805 115.203 226.213Z" fill="#FFB8B8"/>
<path d="M98.8045 225.135C98.3957 225.124 97.9939 225.027 97.6251 224.85C97.2564 224.673 96.9289 224.421 96.6641 224.109L77.7247 200.779C73.018 195.236 70.485 188.171 70.5968 180.9L70.9619 156.943C70.7133 155.737 70.705 154.493 70.9373 153.283C71.1697 152.073 71.6381 150.921 72.3159 149.892C72.9938 148.864 73.8676 147.978 74.8876 147.287C75.9076 146.597 77.0538 146.113 78.2606 145.866C79.4674 145.618 80.7112 145.61 81.9209 145.843C83.1307 146.076 84.2826 146.545 85.311 147.224C86.3394 147.902 87.224 148.777 87.9143 149.797C88.6047 150.817 89.0872 151.964 89.3343 153.171L90.728 191.149L105.282 216.904C105.55 217.439 105.647 218.043 105.56 218.635C105.473 219.227 105.206 219.778 104.796 220.213L100.998 224.226C100.59 224.657 100.061 224.952 99.4815 225.074C99.259 225.121 99.0318 225.142 98.8045 225.135Z" fill="#2F2E41"/>
<path d="M62.9464 129.136C63.2885 129.339 63.6728 129.46 64.0694 129.49C64.4661 129.521 64.8644 129.46 65.2336 129.312C65.6028 129.164 65.9329 128.932 66.1985 128.636C66.464 128.34 66.6578 127.987 66.7649 127.604L66.7738 127.567C67.0622 126.362 66.8227 125.102 66.7399 123.865C66.6572 122.628 66.7783 121.269 67.6209 120.359C69.1915 118.664 71.9859 119.563 74.2571 119.134C75.5874 118.837 76.764 118.065 77.5665 116.964C78.3691 115.862 78.7426 114.505 78.6173 113.148C78.585 112.891 78.5342 112.634 78.4773 112.376C78.3353 111.724 78.3463 111.048 78.5094 110.402C78.6725 109.755 78.9834 109.154 79.4176 108.648C79.8517 108.141 80.3974 107.742 81.0118 107.482C81.6261 107.222 82.2924 107.108 82.9583 107.148C85.2536 107.28 87.7312 107.975 89.6302 106.275C90.3264 105.604 90.8098 104.744 91.0199 103.8C91.23 102.857 91.1577 101.872 90.8118 100.969C89.7275 97.8396 86.6628 96.201 83.63 95.3002C79.879 94.2165 75.9338 93.9822 72.081 94.6143C68.2281 95.2465 64.5646 96.7294 61.3567 98.955C59.4411 100.305 57.6522 102.002 56.8357 104.199C56.0192 106.395 56.4131 109.167 58.2542 110.617C56.8271 112.128 55.8222 113.988 55.3401 116.009C54.858 118.031 54.9156 120.144 55.5073 122.136C56.4167 125.066 60.7566 127.876 62.9464 129.136Z" fill="#2F2E41"/>
<path d="M178.615 343.792H7.1845C7.01293 343.792 6.84839 343.724 6.72707 343.602C6.60575 343.481 6.5376 343.317 6.5376 343.145C6.5376 342.973 6.60575 342.809 6.72707 342.688C6.84839 342.566 7.01293 342.498 7.1845 342.498H178.615C178.786 342.498 178.951 342.566 179.072 342.688C179.193 342.809 179.262 342.973 179.262 343.145C179.262 343.317 179.193 343.481 179.072 343.602C178.951 343.724 178.786 343.792 178.615 343.792Z" fill="#3F3D56"/>
</g>
<defs>
<clipPath id="clip0_769_5423">
<rect width="500" height="343.792" fill="white"/>
</clipPath>
</defs>
</svg>
