<svg width="500" height="368" viewBox="0 0 500 368" fill="none" xmlns="http://www.w3.org/2000/svg">
<g clip-path="url(#clip0_769_5419)">
<path d="M472.594 367.03L473.163 365.977C465.529 361.848 456.027 356.71 451.064 348.277C446.171 339.964 446.062 328.676 450.777 318.817C454.79 310.426 462.162 302.909 472.096 297.078C474.055 295.928 476.112 294.838 478.101 293.783C482.909 291.235 487.881 288.6 491.98 284.862C497.627 279.713 501.899 271.072 498.715 263.376C497.667 260.919 495.952 258.805 493.764 257.274C491.576 255.743 489.003 254.857 486.336 254.715L486.269 255.91C488.712 256.04 491.069 256.852 493.074 258.254C495.079 259.655 496.651 261.591 497.612 263.841C500.57 270.994 496.511 279.11 491.174 283.977C487.186 287.613 482.283 290.212 477.54 292.726C475.54 293.786 473.471 294.882 471.49 296.046C461.349 301.998 453.814 309.694 449.697 318.3C444.812 328.513 444.94 340.233 450.032 348.884C455.164 357.604 464.828 362.831 472.594 367.03Z" fill="#F1F1F1"/>
<path d="M478.748 261.027C484.534 261.027 489.224 258.748 489.224 255.938C489.224 253.128 484.534 250.85 478.748 250.85C472.962 250.85 468.271 253.128 468.271 255.938C468.271 258.748 472.962 261.027 478.748 261.027Z" fill="#F1F1F1"/>
<path d="M470.367 294.55C476.153 294.55 480.843 292.272 480.843 289.462C480.843 286.651 476.153 284.373 470.367 284.373C464.581 284.373 459.891 286.651 459.891 289.462C459.891 292.272 464.581 294.55 470.367 294.55Z" fill="#F1F1F1"/>
<path d="M489.523 299.939C495.309 299.939 500 297.661 500 294.85C500 292.04 495.309 289.762 489.523 289.762C483.737 289.762 479.047 292.04 479.047 294.85C479.047 297.661 483.737 299.939 489.523 299.939Z" fill="#F1F1F1"/>
<path d="M459.592 328.075C465.378 328.075 470.068 325.797 470.068 322.987C470.068 320.177 465.378 317.898 459.592 317.898C453.806 317.898 449.115 320.177 449.115 322.987C449.115 325.797 453.806 328.075 459.592 328.075Z" fill="#F1F1F1"/>
<path d="M438.638 328.075C444.424 328.075 449.115 325.797 449.115 322.987C449.115 320.177 444.424 317.898 438.638 317.898C432.853 317.898 428.162 320.177 428.162 322.987C428.162 325.797 432.853 328.075 438.638 328.075Z" fill="#F1F1F1"/>
<path d="M82.1862 263.097H45.0132C44.0066 263.096 43.0415 262.696 42.3297 261.984C41.6179 261.272 41.2175 260.307 41.2163 259.3V136.818C41.2175 135.811 41.6179 134.846 42.3297 134.135C43.0415 133.423 44.0066 133.023 45.0132 133.021H82.1862C83.1928 133.023 84.1578 133.423 84.8696 134.135C85.5814 134.846 85.9818 135.811 85.983 136.818V259.3C85.9818 260.307 85.5814 261.272 84.8696 261.984C84.1578 262.696 83.1928 263.096 82.1862 263.097Z" fill="#0A2647"/>
<path d="M149.976 263.097H112.803C111.796 263.096 110.831 262.696 110.119 261.984C109.407 261.272 109.007 260.307 109.006 259.301V88.2145C109.007 87.2079 109.407 86.2429 110.119 85.5312C110.831 84.8194 111.796 84.4191 112.803 84.418H149.976C150.982 84.4191 151.947 84.8194 152.659 85.5312C153.371 86.2429 153.771 87.2079 153.773 88.2145V259.301C153.771 260.307 153.371 261.272 152.659 261.984C151.947 262.696 150.982 263.096 149.976 263.097Z" fill="#0A2647"/>
<path d="M217.766 263.097H180.593C179.586 263.096 178.621 262.696 177.909 261.984C177.198 261.272 176.797 260.307 176.796 259.3V136.818C176.797 135.811 177.198 134.846 177.909 134.135C178.621 133.423 179.586 133.023 180.593 133.021H217.766C218.772 133.023 219.737 133.423 220.449 134.135C221.161 134.846 221.561 135.811 221.563 136.818V259.3C221.561 260.307 221.161 261.272 220.449 261.984C219.737 262.696 218.772 263.096 217.766 263.097Z" fill="#0A2647"/>
<path d="M285.555 263.096H248.382C247.398 263.118 246.446 262.748 245.735 262.069C245.023 261.389 244.609 260.456 244.585 259.472V68.8559C244.609 67.8723 245.023 66.9385 245.735 66.2591C246.446 65.5798 247.398 65.2102 248.382 65.2313H285.555C286.538 65.2102 287.49 65.5798 288.202 66.2591C288.914 66.9385 289.327 67.8723 289.352 68.8559V259.472C289.327 260.456 288.914 261.389 288.202 262.069C287.49 262.748 286.538 263.118 285.555 263.096Z" fill="#0A2647"/>
<path d="M353.345 263.097H316.172C315.165 263.096 314.2 262.695 313.488 261.984C312.777 261.272 312.376 260.307 312.375 259.3V34.4938C312.376 33.4872 312.777 32.5222 313.488 31.8105C314.2 31.0987 315.165 30.6984 316.172 30.6973H353.345C354.351 30.6984 355.316 31.0987 356.028 31.8105C356.74 32.5222 357.14 33.4872 357.142 34.4938V259.3C357.14 260.307 356.74 261.272 356.028 261.984C355.317 262.695 354.351 263.096 353.345 263.097Z" fill="#0A2647"/>
<path d="M63.6001 117.673C67.8385 117.673 71.2744 114.237 71.2744 109.999C71.2744 105.76 67.8385 102.324 63.6001 102.324C59.3617 102.324 55.9258 105.76 55.9258 109.999C55.9258 114.237 59.3617 117.673 63.6001 117.673Z" fill="#3F3D56"/>
<path d="M131.389 67.79C135.628 67.79 139.063 64.3541 139.063 60.1157C139.063 55.8773 135.628 52.4414 131.389 52.4414C127.151 52.4414 123.715 55.8773 123.715 60.1157C123.715 64.3541 127.151 67.79 131.389 67.79Z" fill="#3F3D56"/>
<path d="M199.179 117.673C203.418 117.673 206.853 114.237 206.853 109.999C206.853 105.76 203.418 102.324 199.179 102.324C194.941 102.324 191.505 105.76 191.505 109.999C191.505 114.237 194.941 117.673 199.179 117.673Z" fill="#3F3D56"/>
<path d="M266.968 43.4873C271.207 43.4873 274.643 40.0514 274.643 35.813C274.643 31.5746 271.207 28.1387 266.968 28.1387C262.73 28.1387 259.294 31.5746 259.294 35.813C259.294 40.0514 262.73 43.4873 266.968 43.4873Z" fill="#3F3D56"/>
<path d="M334.758 15.3486C338.997 15.3486 342.433 11.9127 342.433 7.6743C342.433 3.4359 338.997 0 334.758 0C330.52 0 327.084 3.4359 327.084 7.6743C327.084 11.9127 330.52 15.3486 334.758 15.3486Z" fill="#3F3D56"/>
<path d="M396.905 264.522H0.59865C0.439878 264.522 0.287609 264.458 0.17534 264.346C0.0630714 264.234 0 264.082 0 263.923C0 263.764 0.0630714 263.612 0.17534 263.5C0.287609 263.387 0.439878 263.324 0.59865 263.324H396.905C397.063 263.324 397.216 263.387 397.328 263.5C397.44 263.612 397.503 263.764 397.503 263.923C397.503 264.082 397.44 264.234 397.328 264.346C397.216 264.458 397.063 264.522 396.905 264.522Z" fill="#CBCBCB"/>
<path d="M495.682 366.891H301.72C301.561 366.891 301.409 366.828 301.296 366.715C301.184 366.603 301.121 366.451 301.121 366.292C301.121 366.133 301.184 365.981 301.296 365.869C301.409 365.756 301.561 365.693 301.72 365.693H495.682C495.841 365.693 495.993 365.756 496.106 365.869C496.218 365.981 496.281 366.133 496.281 366.292C496.281 366.451 496.218 366.603 496.106 366.715C495.993 366.828 495.841 366.891 495.682 366.891Z" fill="#CBCBCB"/>
<path d="M371.124 254.792C371.616 254.303 371.995 253.712 372.235 253.06C372.474 252.408 372.567 251.712 372.508 251.021C372.449 250.329 372.239 249.659 371.893 249.058C371.547 248.456 371.073 247.938 370.505 247.539L372.859 236.949L366.772 233.949L363.658 248.951C363.052 249.95 362.833 251.136 363.042 252.286C363.252 253.435 363.877 254.468 364.797 255.188C365.717 255.908 366.869 256.265 368.036 256.192C369.202 256.119 370.301 255.621 371.124 254.792Z" fill="#FFB7B7"/>
<path d="M437.684 255.024C438.137 254.498 438.469 253.879 438.657 253.211C438.845 252.543 438.884 251.842 438.772 251.157C438.659 250.472 438.398 249.82 438.006 249.247C437.615 248.674 437.102 248.194 436.505 247.84L438.033 237.1L431.732 234.58L429.788 249.778C429.261 250.82 429.134 252.02 429.432 253.15C429.731 254.28 430.433 255.261 431.406 255.908C432.379 256.554 433.556 256.821 434.713 256.658C435.87 256.496 436.927 255.914 437.684 255.024Z" fill="#FFB7B7"/>
<path d="M390.236 360.433L384.03 360.432L381.077 336.492L390.238 336.493L390.236 360.433Z" fill="#FFB7B7"/>
<path d="M391.82 366.45L371.807 366.449V366.196C371.807 364.13 372.628 362.149 374.088 360.688C375.549 359.227 377.53 358.406 379.596 358.406L391.82 358.407L391.82 366.45Z" fill="#2F2E41"/>
<path d="M410.994 360.433L404.788 360.432L401.835 336.492L410.995 336.493L410.994 360.433Z" fill="#FFB7B7"/>
<path d="M412.577 366.45L392.563 366.449V366.196C392.564 364.13 393.384 362.149 394.845 360.688C396.306 359.227 398.287 358.406 400.353 358.406L412.577 358.407L412.577 366.45Z" fill="#2F2E41"/>
<path d="M423.491 159.019L430.184 156.604C430.184 156.604 433.024 157.207 433.024 164.91C433.024 172.614 440.569 244.46 440.569 244.46L427.366 247.937L419.903 179.772L423.491 159.019Z" fill="#2F2E41"/>
<path d="M378.768 159.019L372.075 156.604C372.075 156.604 369.235 157.207 369.235 164.91C369.235 172.614 361.69 244.46 361.69 244.46L374.893 247.937L382.356 179.772L378.768 159.019Z" fill="#2F2E41"/>
<path d="M378.854 240.96L377.024 294.929L381.075 354.629L391.51 354.87L393.029 299.181L401.636 271.336L400.767 353.406L412.584 353.265L419.903 296.802C419.903 296.802 429.568 250.073 424.208 240.96L399.525 232.752L378.854 240.96Z" fill="#2F2E41"/>
<path d="M379.055 234.458L378.459 247.441C378.459 247.441 386.787 251.585 401.425 249.061C416.064 246.536 425.794 248.2 425.794 248.2L424.67 231.65L379.055 234.458Z" fill="#E5E5E5"/>
<path d="M371.809 156.796L391.057 148.361L392.206 143.943L410.931 144.486L411.74 148.999L430.183 156.604L422.057 184.859L422.891 204.735L433.024 240.961C433.024 240.961 424.477 248.219 403.943 245.096L400.4 237.957L398.233 245.507C398.233 245.507 380.227 252.131 375.237 243.508L378.853 181.221L371.809 156.796Z" fill="#2F2E41"/>
<path d="M401.398 139.793C408.266 139.793 413.833 134.226 413.833 127.358C413.833 120.491 408.266 114.924 401.398 114.924C394.531 114.924 388.964 120.491 388.964 127.358C388.964 134.226 394.531 139.793 401.398 139.793Z" fill="#FFB7B7"/>
<path d="M416.173 122.542C415.951 121.53 415.523 120.574 414.916 119.734C414.675 117.411 413.9 115.175 412.652 113.201C412.163 112.276 411.469 111.475 410.623 110.859C409.654 110.301 408.549 110.025 407.431 110.063C407.228 110.06 406.864 110.121 406.536 110.136C406.326 110.071 406.114 110.013 405.902 109.959C405.777 109.683 405.532 108.879 405.463 108.933L404.537 109.669C404.145 109.601 403.752 109.548 403.357 109.506C403.213 109.096 403.069 108.686 402.925 108.275C402.692 108.642 402.487 109.027 402.313 109.426C401.92 109.406 401.526 109.399 401.132 109.405L400.345 108.649C400.299 108.86 400.192 109.053 400.038 109.204C399.884 109.355 399.689 109.458 399.477 109.5C399.115 109.537 398.754 109.585 398.394 109.643C398.365 109.643 398.335 109.643 398.306 109.643C396.368 109.594 394.282 109.507 392.66 110.572C391.902 111.092 391.284 111.793 390.863 112.612C390.665 112.746 390.466 112.88 390.273 113.023C389.623 113.467 389.059 114.026 388.61 114.672C388.283 115.229 388.036 115.83 387.874 116.455C387.255 118.338 386.969 120.313 387.027 122.294C387.093 124.288 387.846 126.199 389.157 127.702C389.989 128.596 391.046 129.255 391.878 130.148C393.593 131.985 393.914 134.548 395.38 136.492C396.931 138.548 399.762 139.901 402.248 140.289C403.743 140.514 405.267 140.442 406.734 140.076C408.2 139.71 409.58 139.058 410.794 138.157C411.377 137.752 411.871 137.233 412.249 136.632C413.112 135.139 412.746 133.264 413.067 131.57C413.667 128.395 416.697 125.73 416.173 122.542Z" fill="#2F2E41"/>
<path d="M63.1904 110.478L62.4756 109.518L131.39 58.2119L198.96 108.612L267.455 34.2456L267.578 34.1953L334.052 6.75977L334.509 7.86667L268.157 35.2513L199.109 110.217L131.389 59.7049L63.1904 110.478Z" fill="#3F3D56"/>
</g>
<defs>
<clipPath id="clip0_769_5419">
<rect width="500" height="367.031" fill="white"/>
</clipPath>
</defs>
</svg>
