<svg width="500" height="388" viewBox="0 0 500 388" fill="none" xmlns="http://www.w3.org/2000/svg">
<g clip-path="url(#clip0_769_5403)">
<path d="M67.8576 375.549L73.2291 366.917L74.3021 371.85C74.4902 372.714 74.6783 373.591 74.8525 374.462C76.3782 373.159 78.0015 371.954 79.5899 370.798C84.4668 367.258 89.3414 363.714 94.2138 360.166L92.688 369.014C91.7474 374.462 90.765 380.022 88.4381 385.003C88.1802 385.568 87.9016 386.125 87.6019 386.669H64.9313C64.749 386.164 64.6228 385.64 64.5551 385.108C64.5494 385.073 64.5472 385.038 64.5483 385.003C64.1928 381.624 66.06 378.44 67.8576 375.549Z" fill="#F0F0F0"/>
<path d="M409.237 0H90.1509C87.4094 0.00435736 84.7815 1.09532 82.843 3.03381C80.9044 4.97231 79.8135 7.60022 79.8091 10.3417V225.662C79.8117 228.404 80.9022 231.033 82.841 232.972C84.7799 234.911 87.4089 236.002 90.1509 236.004H409.237C411.979 236.002 414.608 234.911 416.547 232.972C418.486 231.033 419.576 228.404 419.579 225.662V10.3416C419.575 7.6002 418.484 4.97229 416.545 3.0338C414.607 1.09531 411.979 0.00435734 409.237 0Z" fill="#E6E6E6"/>
<path d="M407.27 228.875H198.194C168.898 228.789 140.826 217.113 120.111 196.398C99.3955 175.682 87.7198 147.611 87.6343 118.315V13.0114C87.6345 11.4512 88.2537 9.95486 89.3558 8.85059C90.458 7.74633 91.9532 7.12434 93.5133 7.12109H407.27C408.831 7.12433 410.326 7.74632 411.428 8.85058C412.53 9.95485 413.149 11.4512 413.15 13.0114V222.996C413.148 224.554 412.528 226.049 411.426 227.151C410.323 228.253 408.829 228.873 407.27 228.875Z" fill="white"/>
<path d="M390.802 36.4014H97.2207C96.9155 36.3947 96.6251 36.2687 96.4116 36.0505C96.1982 35.8323 96.0786 35.5392 96.0786 35.2339C96.0786 34.9286 96.1982 34.6355 96.4116 34.4173C96.6251 34.1991 96.9155 34.0731 97.2207 34.0664H390.802C391.107 34.0731 391.397 34.1991 391.611 34.4173C391.824 34.6355 391.944 34.9286 391.944 35.2339C391.944 35.5392 391.824 35.8323 391.611 36.0505C391.397 36.2687 391.107 36.3947 390.802 36.4014Z" fill="#CACACA"/>
<path d="M117.205 28.1043C120.984 28.1043 124.047 24.9727 124.047 21.1098C124.047 17.2468 120.984 14.1152 117.205 14.1152C113.426 14.1152 110.363 17.2468 110.363 21.1098C110.363 24.9727 113.426 28.1043 117.205 28.1043Z" fill="#3F3D56"/>
<path d="M140.841 28.1043C144.62 28.1043 147.683 24.9727 147.683 21.1098C147.683 17.2468 144.62 14.1152 140.841 14.1152C137.062 14.1152 133.999 17.2468 133.999 21.1098C133.999 24.9727 137.062 28.1043 140.841 28.1043Z" fill="#3F3D56"/>
<path d="M164.477 28.1043C168.256 28.1043 171.319 24.9727 171.319 21.1098C171.319 17.2468 168.256 14.1152 164.477 14.1152C160.699 14.1152 157.635 17.2468 157.635 21.1098C157.635 24.9727 160.699 28.1043 164.477 28.1043Z" fill="#3F3D56"/>
<path d="M297.153 141.354H178.263C176.112 141.381 174.03 140.593 172.437 139.148C170.844 137.703 169.858 135.707 169.676 133.564C169.602 132.468 169.744 131.368 170.095 130.327C170.446 129.286 170.998 128.324 171.721 127.497C172.443 126.669 173.321 125.992 174.305 125.504C175.29 125.016 176.36 124.726 177.456 124.652C177.643 124.639 177.83 124.633 178.018 124.633H297.153C299.371 124.633 301.497 125.514 303.065 127.082C304.633 128.649 305.514 130.776 305.514 132.993C305.514 135.211 304.633 137.337 303.065 138.905C301.497 140.473 299.371 141.354 297.153 141.354Z" fill="#0A2647"/>
<path d="M297.374 94.5304C301.545 94.5304 304.927 91.1486 304.927 86.9771C304.927 82.8055 301.545 79.4238 297.374 79.4238C293.202 79.4238 289.82 82.8055 289.82 86.9771C289.82 91.1486 293.202 94.5304 297.374 94.5304Z" fill="#E6E6E6"/>
<path d="M296.343 90.9078C296.213 90.9078 296.084 90.8774 295.968 90.8191C295.851 90.7608 295.749 90.676 295.671 90.5717L293.611 87.8241C293.544 87.7359 293.495 87.6353 293.467 87.5282C293.439 87.4211 293.433 87.3095 293.448 87.1999C293.463 87.0903 293.5 86.9847 293.557 86.8894C293.613 86.7941 293.688 86.7108 293.776 86.6444C293.865 86.578 293.965 86.5297 294.073 86.5024C294.18 86.4751 294.292 86.4692 294.401 86.4852C294.511 86.5011 294.616 86.5386 294.711 86.5953C294.806 86.6521 294.889 86.7271 294.955 86.816L296.303 88.6134L299.766 83.4197C299.888 83.2338 300.08 83.1044 300.299 83.0599C300.517 83.0154 300.744 83.0595 300.93 83.1824C301.116 83.3054 301.245 83.4971 301.29 83.7154C301.334 83.9338 301.29 84.1609 301.167 84.3467L301.164 84.3518L297.042 90.5337C296.968 90.6455 296.868 90.7378 296.75 90.8029C296.632 90.8679 296.501 90.9038 296.367 90.9076L296.343 90.9078Z" fill="white"/>
<path d="M297.374 186.495C301.545 186.495 304.927 183.113 304.927 178.942C304.927 174.77 301.545 171.389 297.374 171.389C293.202 171.389 289.82 174.77 289.82 178.942C289.82 183.113 293.202 186.495 297.374 186.495Z" fill="#E6E6E6"/>
<path d="M296.343 182.873C296.213 182.873 296.084 182.842 295.968 182.784C295.851 182.726 295.749 182.641 295.671 182.537L293.611 179.789C293.544 179.701 293.495 179.6 293.467 179.493C293.439 179.386 293.433 179.274 293.448 179.165C293.463 179.055 293.5 178.95 293.557 178.854C293.613 178.759 293.688 178.676 293.776 178.609C293.865 178.543 293.965 178.495 294.073 178.467C294.18 178.44 294.292 178.434 294.401 178.45C294.511 178.466 294.616 178.503 294.711 178.56C294.806 178.617 294.889 178.692 294.955 178.781L296.303 180.578L299.766 175.384C299.888 175.199 300.08 175.069 300.299 175.025C300.517 174.98 300.744 175.024 300.93 175.147C301.116 175.27 301.245 175.462 301.29 175.68C301.334 175.899 301.29 176.126 301.167 176.312L301.164 176.317L297.042 182.499C296.968 182.61 296.868 182.703 296.75 182.768C296.632 182.833 296.501 182.869 296.367 182.872L296.343 182.873Z" fill="white"/>
<path d="M236.54 95.3712H178.263C176.112 95.3988 174.03 94.6107 172.437 93.1654C170.844 91.7201 169.858 89.725 169.676 87.5816C169.602 86.4856 169.744 85.3857 170.095 84.3447C170.446 83.3036 170.998 82.3419 171.721 81.5143C172.443 80.6868 173.321 80.0096 174.305 79.5215C175.29 79.0334 176.36 78.7439 177.456 78.6696C177.643 78.6569 177.83 78.6505 178.018 78.6504H236.54C238.758 78.6504 240.884 79.5312 242.452 81.0991C244.02 82.667 244.901 84.7935 244.901 87.0108C244.901 89.2281 244.02 91.3546 242.452 92.9225C240.884 94.4903 238.758 95.3712 236.54 95.3712Z" fill="#0A2647"/>
<path d="M297.153 95.7202H178.018C175.708 95.7202 173.493 94.8027 171.86 93.1695C170.227 91.5363 169.309 89.3212 169.309 87.0115C169.309 84.7018 170.227 82.4867 171.86 80.8535C173.493 79.2203 175.708 78.3027 178.018 78.3027H297.153C299.463 78.3027 301.678 79.2203 303.311 80.8535C304.945 82.4867 305.862 84.7018 305.862 87.0115C305.862 89.3212 304.945 91.5363 303.311 93.1695C301.678 94.8027 299.463 95.7202 297.153 95.7202ZM178.018 79.6961C176.078 79.6961 174.217 80.4669 172.845 81.8387C171.473 83.2106 170.702 85.0713 170.702 87.0115C170.702 88.9516 171.473 90.8123 172.845 92.1842C174.217 93.5561 176.078 94.3268 178.018 94.3268H297.153C299.094 94.3268 300.954 93.5561 302.326 92.1842C303.698 90.8123 304.469 88.9516 304.469 87.0115C304.469 85.0713 303.698 83.2106 302.326 81.8387C300.954 80.4669 299.094 79.6961 297.153 79.6961H178.018Z" fill="#3F3D56"/>
<path d="M297.153 141.701H178.018C175.708 141.701 173.493 140.783 171.86 139.15C170.227 137.517 169.309 135.302 169.309 132.992C169.309 130.682 170.227 128.467 171.86 126.834C173.493 125.201 175.708 124.283 178.018 124.283H297.153C299.463 124.283 301.678 125.201 303.311 126.834C304.945 128.467 305.862 130.682 305.862 132.992C305.862 135.302 304.945 137.517 303.311 139.15C301.678 140.783 299.463 141.701 297.153 141.701ZM178.018 125.677C176.078 125.677 174.217 126.447 172.845 127.819C171.473 129.191 170.702 131.052 170.702 132.992C170.702 134.932 171.473 136.793 172.845 138.165C174.217 139.537 176.078 140.307 178.018 140.307H297.153C299.094 140.307 300.954 139.537 302.326 138.165C303.698 136.793 304.469 134.932 304.469 132.992C304.469 131.052 303.698 129.191 302.326 127.819C300.954 126.447 299.094 125.677 297.153 125.677H178.018Z" fill="#3F3D56"/>
<path d="M211.459 187.336H178.263C176.112 187.364 174.03 186.575 172.437 185.13C170.844 183.685 169.858 181.69 169.676 179.546C169.602 178.45 169.744 177.351 170.095 176.31C170.446 175.268 170.998 174.307 171.721 173.479C172.443 172.652 173.321 171.974 174.305 171.486C175.29 170.998 176.36 170.709 177.456 170.634C177.643 170.622 177.83 170.615 178.018 170.615H211.459C213.677 170.615 215.803 171.496 217.371 173.064C218.939 174.632 219.82 176.758 219.82 178.976C219.82 181.193 218.939 183.319 217.371 184.887C215.803 186.455 213.677 187.336 211.459 187.336Z" fill="#0A2647"/>
<path d="M297.153 187.683H178.018C175.708 187.683 173.493 186.766 171.86 185.132C170.227 183.499 169.309 181.284 169.309 178.974C169.309 176.665 170.227 174.45 171.86 172.816C173.493 171.183 175.708 170.266 178.018 170.266H297.153C299.463 170.266 301.678 171.183 303.311 172.816C304.945 174.45 305.862 176.665 305.862 178.974C305.862 181.284 304.945 183.499 303.311 185.132C301.678 186.766 299.463 187.683 297.153 187.683ZM178.018 171.659C176.078 171.659 174.217 172.43 172.845 173.802C171.473 175.174 170.702 177.034 170.702 178.974C170.702 180.915 171.473 182.775 172.845 184.147C174.217 185.519 176.078 186.29 178.018 186.29H297.153C299.094 186.29 300.954 185.519 302.326 184.147C303.698 182.775 304.469 180.915 304.469 178.974C304.469 177.034 303.698 175.174 302.326 173.802C300.954 172.43 299.094 171.659 297.153 171.659H178.018Z" fill="#3F3D56"/>
<path d="M200.313 69.6693H172.445C171.706 69.6693 170.997 69.3757 170.474 68.8531C169.952 68.3304 169.658 67.6216 169.658 66.8825C169.658 66.1434 169.952 65.4346 170.474 64.9119C170.997 64.3893 171.706 64.0957 172.445 64.0957H200.313C201.052 64.0957 201.761 64.3893 202.284 64.9119C202.806 65.4346 203.1 66.1434 203.1 66.8825C203.1 67.6216 202.806 68.3304 202.284 68.8531C201.761 69.3757 201.052 69.6693 200.313 69.6693Z" fill="#CCCCCC"/>
<path d="M200.313 115.652H172.445C171.706 115.652 170.997 115.358 170.474 114.835C169.952 114.313 169.658 113.604 169.658 112.865C169.658 112.126 169.952 111.417 170.474 110.894C170.997 110.372 171.706 110.078 172.445 110.078H200.313C201.052 110.078 201.761 110.372 202.284 110.894C202.806 111.417 203.1 112.126 203.1 112.865C203.1 113.604 202.806 114.313 202.284 114.835C201.761 115.358 201.052 115.652 200.313 115.652Z" fill="#CCCCCC"/>
<path d="M200.313 161.634H172.445C171.706 161.634 170.997 161.341 170.474 160.818C169.952 160.295 169.658 159.586 169.658 158.847C169.658 158.108 169.952 157.399 170.474 156.877C170.997 156.354 171.706 156.061 172.445 156.061H200.313C201.052 156.061 201.761 156.354 202.284 156.877C202.806 157.399 203.1 158.108 203.1 158.847C203.1 159.586 202.806 160.295 202.284 160.818C201.761 161.341 201.052 161.634 200.313 161.634Z" fill="#CCCCCC"/>
<path d="M158.518 70.2694C160.191 70.2694 161.547 68.8835 161.547 67.1738C161.547 65.4641 160.191 64.0781 158.518 64.0781C156.846 64.0781 155.49 65.4641 155.49 67.1738C155.49 68.8835 156.846 70.2694 158.518 70.2694Z" fill="#3F3D56"/>
<path d="M158.518 116.252C160.191 116.252 161.547 114.866 161.547 113.156C161.547 111.447 160.191 110.061 158.518 110.061C156.846 110.061 155.49 111.447 155.49 113.156C155.49 114.866 156.846 116.252 158.518 116.252Z" fill="#3F3D56"/>
<path d="M158.518 162.234C160.191 162.234 161.547 160.848 161.547 159.139C161.547 157.429 160.191 156.043 158.518 156.043C156.846 156.043 155.49 157.429 155.49 159.139C155.49 160.848 156.846 162.234 158.518 162.234Z" fill="#3F3D56"/>
<path d="M358.066 379.137L351.168 379.136L347.886 352.529L358.067 352.53L358.066 379.137Z" fill="#FFB6B6"/>
<path d="M358.309 386.334L337.096 386.333V386.065C337.096 383.875 337.966 381.775 339.515 380.227C341.063 378.679 343.163 377.809 345.353 377.809L349.228 374.869L356.457 377.809L358.309 377.809L358.309 386.334Z" fill="#2F2E41"/>
<path d="M385.237 379.137L378.339 379.136L375.058 352.529L385.238 352.53L385.237 379.137Z" fill="#FFB6B6"/>
<path d="M385.479 386.334L364.267 386.333V386.065C364.267 383.875 365.137 381.775 366.686 380.227C368.234 378.679 370.334 377.809 372.524 377.809L376.399 374.869L383.628 377.809L385.48 377.809L385.479 386.334Z" fill="#2F2E41"/>
<path d="M334.328 212.494L329.451 229.214L335.196 300.03C335.196 300.03 332.238 304.458 334.328 304.458C336.418 304.458 339.098 305.44 337.41 308.084C335.721 310.728 341.492 320.221 341.492 320.221L349.655 370.644L360.057 370.491C360.057 370.491 365.345 367.545 362.377 364.566C359.409 361.587 357.319 361.587 360.106 358.8C362.893 356.014 362.893 356.853 362.893 354.692C362.893 352.53 365.685 326.116 359.064 315.984L361.059 274.673L365.758 315.194L375.433 369.251L385.453 369.168C385.453 369.168 390.081 364.708 390.072 361.406C390.064 358.104 387.213 357.829 389.335 355.876C391.457 353.924 391.457 323.922 385.187 307.245L385.235 232.648C385.235 232.648 391.396 215.906 385.156 209.323C378.917 202.74 334.328 212.494 334.328 212.494Z" fill="#2F2E41"/>
<path d="M397.129 183.321L401.329 139.812C401.502 137.968 400.942 136.131 399.772 134.696C398.601 133.26 396.913 132.343 395.072 132.142C393.212 131.938 391.348 132.481 389.888 133.653C388.429 134.824 387.495 136.527 387.291 138.387C387.277 138.511 387.267 138.635 387.26 138.76L384.283 184.088L381.312 211.555C380.101 211.919 379.032 212.647 378.249 213.64C377.467 214.633 377.009 215.842 376.938 217.105C376.866 218.367 377.185 219.62 377.851 220.695C378.517 221.769 379.498 222.613 380.66 223.111C381.822 223.609 383.11 223.737 384.347 223.477C385.584 223.218 386.712 222.584 387.576 221.662C388.441 220.74 389.001 219.573 389.179 218.322C389.358 217.07 389.147 215.794 388.575 214.667L397.129 183.321Z" fill="#FFB6B6"/>
<path d="M381.377 117.758L396.511 119.655C396.511 119.655 407.851 141.029 405.517 142.843C403.183 144.657 392.636 155.973 384.861 150.785C377.085 145.598 381.377 117.758 381.377 117.758Z" fill="#3F3D56"/>
<path d="M355.315 97.2508C364.187 97.2508 371.378 90.0592 371.378 81.1879C371.378 72.3166 364.187 65.125 355.315 65.125C346.444 65.125 339.252 72.3166 339.252 81.1879C339.252 90.0592 346.444 97.2508 355.315 97.2508Z" fill="#FFB6B6"/>
<path d="M361.522 95.9333C356.912 95.782 356.494 94.5645 351.884 94.4133C350.417 94.3651 348.685 94.164 347.975 92.8783C347.768 92.3966 347.677 91.8736 347.706 91.3504C347.736 90.8271 347.887 90.318 348.147 89.8629C348.673 88.9595 349.147 88.0269 349.567 87.0696C349.82 86.3188 349.886 85.5178 349.76 84.7356C349.634 83.9535 349.32 83.2138 348.844 82.5805C348.368 81.9472 347.745 81.4393 347.029 81.1008C346.312 80.7622 345.524 80.6032 344.733 80.6374C343.33 80.698 342.013 81.3576 340.614 81.4782C338.696 81.6435 334.453 75.3094 335.337 73.5984C336.196 71.9329 337.927 70.6763 338.199 68.8218C338.377 67.6088 337.876 66.4037 337.807 65.1797C337.706 63.3649 342.306 67.4569 341.464 65.8463C339.397 61.8954 358.873 56.9972 362.079 61.9462C363.277 63.7958 365.413 63.6696 367.316 64.7804C368.564 65.5085 371.714 68.0201 372.43 69.5856C373.089 71.183 373.399 72.9021 373.343 74.6288C373.372 82.6593 372.148 90.0461 365.671 94.7929" fill="#2F2E41"/>
<path d="M351.049 101.718L364.286 98.9316L374.454 103.822C374.454 103.822 398.503 113.496 398.421 123.035C398.339 132.573 394.112 153.474 389.259 155.564C384.405 157.654 393.462 164.621 390.675 168.802C387.889 172.982 383.667 201.54 383.667 201.54C383.667 201.54 393.536 221.2 385.187 225.034C376.838 228.869 341.553 232.454 339.291 227.451C337.03 222.447 337.009 225.178 331.794 223.813C326.579 222.447 331.799 203.307 336.505 201.382C341.21 199.456 343.997 157.654 343.997 157.654L336.505 125.151L347.935 109.061L351.049 101.718Z" fill="#3F3D56"/>
<path d="M341.777 191.063L353.737 149.02C354.238 147.238 354.019 145.329 353.125 143.707C352.232 142.085 350.737 140.879 348.962 140.349C347.169 139.814 345.237 140.013 343.591 140.903C341.945 141.793 340.719 143.3 340.184 145.093C340.149 145.212 340.116 145.333 340.087 145.454L329.003 189.507L321.139 215.992C319.883 216.132 318.7 216.655 317.751 217.491C316.803 218.327 316.135 219.434 315.838 220.663C315.54 221.892 315.629 223.183 316.091 224.36C316.552 225.536 317.365 226.543 318.419 227.241C319.473 227.94 320.716 228.298 321.98 228.265C323.243 228.233 324.467 227.812 325.483 227.06C326.499 226.309 327.26 225.262 327.661 224.063C328.062 222.864 328.084 221.571 327.724 220.359L341.777 191.063Z" fill="#FFB6B6"/>
<path d="M338.078 123.736L352.624 128.325C352.624 128.325 362.085 142.218 358.543 144.2C355.002 146.182 353.673 145.763 355.492 149.259C357.311 152.755 359.933 151.39 357.311 152.755C354.689 154.119 342.278 163.354 335.563 156.852C328.848 150.35 338.078 123.736 338.078 123.736Z" fill="#3F3D56"/>
<path d="M3.6905e-06 386.761C-0.000320674 386.869 0.0207397 386.977 0.0619812 387.077C0.103223 387.178 0.163837 387.269 0.240366 387.346C0.316894 387.423 0.407842 387.484 0.508006 387.526C0.608171 387.568 0.715593 387.589 0.824144 387.59H499.171C499.391 387.59 499.602 387.502 499.757 387.347C499.913 387.191 500 386.981 500 386.761C500 386.541 499.913 386.33 499.757 386.174C499.602 386.019 499.391 385.932 499.171 385.932H0.829077C0.720522 385.931 0.612971 385.952 0.512556 385.994C0.412141 386.035 0.320829 386.095 0.243842 386.172C0.166855 386.249 0.1057 386.339 0.0638628 386.44C0.0220252 386.54 0.000322526 386.647 3.6905e-06 386.756V386.761Z" fill="#CCCCCC"/>
<path d="M297.373 147.18C305.227 147.18 311.594 140.813 311.594 132.959C311.594 125.105 305.227 118.738 297.373 118.738C289.519 118.738 283.152 125.105 283.152 132.959C283.152 140.813 289.519 147.18 297.373 147.18Z" fill="#0A2647"/>
<path d="M295.434 140.36C295.188 140.36 294.946 140.303 294.726 140.193C294.507 140.084 294.315 139.924 294.168 139.728L290.289 134.555C290.037 134.219 289.929 133.797 289.988 133.382C290.047 132.966 290.269 132.592 290.605 132.34C290.941 132.088 291.362 131.98 291.778 132.04C292.193 132.099 292.568 132.321 292.82 132.656L295.358 136.04L301.877 126.262C302.108 125.912 302.469 125.668 302.88 125.585C303.292 125.501 303.719 125.584 304.069 125.815C304.419 126.047 304.663 126.408 304.746 126.819C304.83 127.23 304.747 127.657 304.516 128.007L304.509 128.017L296.75 139.656C296.61 139.866 296.421 140.04 296.199 140.163C295.978 140.285 295.73 140.353 295.478 140.36L295.434 140.36Z" fill="white"/>
</g>
<defs>
<clipPath id="clip0_769_5403">
<rect width="500" height="387.589" fill="white"/>
</clipPath>
</defs>
</svg>
