<svg width="500" height="267" viewBox="0 0 500 267" fill="none" xmlns="http://www.w3.org/2000/svg">
<g clip-path="url(#clip0_769_5410)">
<path d="M23.3867 265.703L23.4904 265.157C23.5134 265.036 25.8737 253.059 34.7216 246.109C43.5698 239.159 55.7649 239.703 55.8868 239.71L56.4429 239.738L56.3391 240.285C56.3161 240.405 53.9558 252.382 45.108 259.332C36.2597 266.282 24.0647 265.738 23.9427 265.732L23.3867 265.703ZM35.3216 246.873C27.8406 252.749 25.147 262.357 24.5706 264.773C27.055 264.784 37.0343 264.439 44.508 258.568C51.9808 252.698 54.6804 243.085 55.259 240.668C52.7731 240.658 42.7948 241.003 35.3216 246.873Z" fill="#F1F1F1"/>
<path d="M38.8402 249.538C34.7869 259.979 24.1168 265.575 24.1168 265.575C24.1168 265.575 20.0183 254.245 24.0715 243.805C28.1247 233.364 38.7948 227.768 38.7948 227.768C38.7948 227.768 42.8934 239.098 38.8402 249.538Z" fill="#F1F1F1"/>
<path d="M485.323 265.732C485.201 265.738 473.006 266.282 464.158 259.332C455.31 252.382 452.95 240.405 452.927 240.285L452.823 239.738L453.379 239.71C453.501 239.703 465.696 239.159 474.545 246.109C483.392 253.059 485.753 265.036 485.776 265.157L485.879 265.703L485.323 265.732ZM454.007 240.668C454.586 243.085 457.285 252.698 464.758 258.568C472.232 264.439 482.211 264.784 484.696 264.773C484.119 262.357 481.425 252.749 473.945 246.873C466.471 241.003 456.493 240.658 454.007 240.668Z" fill="#F1F1F1"/>
<path d="M470.426 249.538C474.479 259.979 485.149 265.575 485.149 265.575C485.149 265.575 489.247 254.245 485.194 243.805C481.141 233.364 470.471 227.768 470.471 227.768C470.471 227.768 466.372 239.098 470.426 249.538Z" fill="#F1F1F1"/>
<path d="M286.576 263.207L279.489 260.223L274.628 224.697H209.89L204.62 260.078L198.28 263.248C197.977 263.399 197.733 263.649 197.59 263.956C197.446 264.263 197.41 264.61 197.488 264.94C197.566 265.27 197.753 265.564 198.019 265.775C198.285 265.985 198.614 266.1 198.953 266.1H285.992C286.34 266.1 286.676 265.98 286.945 265.759C287.215 265.539 287.399 265.233 287.468 264.892C287.537 264.552 287.485 264.198 287.323 263.89C287.16 263.583 286.896 263.342 286.576 263.207Z" fill="#E6E6E6"/>
<path d="M401.621 229.424H83.6076C81.9391 229.42 80.3402 228.755 79.1617 227.573C77.9832 226.392 77.3213 224.792 77.3213 223.123V178.279H407.907V223.123C407.907 224.792 407.245 226.392 406.067 227.573C404.888 228.755 403.289 229.42 401.621 229.424Z" fill="#CCCCCC"/>
<path d="M408.239 199.473H77.0308V7.59501C77.0331 5.58136 77.8341 3.65085 79.258 2.227C80.6818 0.803158 82.6124 0.00225703 84.626 0H400.644C402.658 0.00225571 404.588 0.803152 406.012 2.227C407.436 3.65084 408.237 5.58135 408.239 7.59501V199.473Z" fill="#3F3D56"/>
<path d="M388.458 185.546H96.8129C95.2605 185.545 93.7722 184.927 92.6745 183.829C91.5767 182.732 90.9593 181.243 90.9575 179.691V19.7814C90.9592 18.2289 91.5767 16.7406 92.6744 15.6428C93.7722 14.5451 95.2605 13.9276 96.8129 13.9258H388.458C390.01 13.9276 391.499 14.5451 392.596 15.6428C393.694 16.7406 394.312 18.2289 394.313 19.7814V179.691C394.312 181.243 393.694 182.732 392.596 183.829C391.499 184.927 390.01 185.545 388.458 185.546Z" fill="white"/>
<path d="M499.259 266.469H0.771008C0.603135 266.473 0.438797 266.421 0.303601 266.321C0.168405 266.222 0.0699432 266.08 0.0235575 265.919C-0.00540158 265.809 -0.00877224 265.694 0.0137018 265.582C0.0361759 265.471 0.0838939 265.366 0.15319 265.276C0.222486 265.186 0.31151 265.113 0.413411 265.063C0.515312 265.013 0.627375 264.987 0.740973 264.987H499.198C499.375 264.981 499.549 265.035 499.691 265.14C499.834 265.245 499.937 265.395 499.983 265.567C500.007 265.675 500.006 265.787 499.981 265.896C499.956 266.004 499.907 266.105 499.837 266.191C499.768 266.278 499.68 266.348 499.579 266.396C499.479 266.444 499.37 266.469 499.259 266.469Z" fill="#CCCCCC"/>
<path d="M154.623 74.4023H106.638V78.9087H154.623V74.4023Z" fill="#E5E5E5"/>
<path d="M154.623 85.3301H106.638V89.8364H154.623V85.3301Z" fill="#E5E5E5"/>
<path d="M154.623 96.5H106.638V101.006H154.623V96.5Z" fill="#E5E5E5"/>
<path d="M154.623 107.67H106.638V112.176H154.623V107.67Z" fill="#E5E5E5"/>
<path d="M143.257 121.863H118.004V125.774H143.257V121.863Z" fill="#0A2647"/>
<path d="M229.29 102.352H228.831V103.728H229.29V102.352Z" fill="#E5E5E5"/>
<path d="M229.29 133.056H228.831V130.123H229.29V133.056ZM229.29 127.19H228.831V124.257H229.29V127.19ZM229.29 121.324H228.831V118.392H229.29V121.324ZM229.29 115.459H228.831V112.526H229.29V115.459ZM229.29 109.593H228.831V106.66H229.29V109.593Z" fill="#E5E5E5"/>
<path d="M229.29 135.988H228.831V137.365H229.29V135.988Z" fill="#E5E5E5"/>
<path d="M279.532 102.352H279.073V103.728H279.532V102.352Z" fill="#E5E5E5"/>
<path d="M279.532 133.056H279.073V130.123H279.532V133.056ZM279.532 127.19H279.073V124.257H279.532V127.19ZM279.532 121.324H279.073V118.392H279.532V121.324ZM279.532 115.459H279.073V112.526H279.532V115.459ZM279.532 109.593H279.073V106.66H279.532V109.593Z" fill="#E5E5E5"/>
<path d="M279.532 135.988H279.073V137.365H279.532V135.988Z" fill="#E5E5E5"/>
<path d="M304.875 75.4238H304.416V76.8003H304.875V75.4238Z" fill="#E5E5E5"/>
<path d="M304.875 133.171H304.416V130.353H304.875V133.171ZM304.875 127.534H304.416V124.715H304.875V127.534ZM304.875 121.897H304.416V119.078H304.875V121.897ZM304.875 116.26H304.416V113.441H304.875V116.26ZM304.875 110.623H304.416V107.804H304.875V110.623ZM304.875 104.986H304.416V102.167H304.875V104.986ZM304.875 99.3488H304.416V96.5303H304.875V99.3488ZM304.875 93.7118H304.416V90.8933H304.875V93.7118ZM304.875 88.0746H304.416V85.2561H304.875V88.0746ZM304.875 82.4376H304.416V79.6191H304.875V82.4376Z" fill="#E5E5E5"/>
<path d="M304.875 135.988H304.416V137.365H304.875V135.988Z" fill="#E5E5E5"/>
<path d="M329.966 64.4121H329.507V65.7886H329.966V64.4121Z" fill="#E5E5E5"/>
<path d="M329.966 133.18H329.507V130.372H329.966V133.18ZM329.966 127.564H329.507V124.756H329.966V127.564ZM329.966 121.948H329.507V119.14H329.966V121.948ZM329.966 116.332H329.507V113.524H329.966V116.332ZM329.966 110.716H329.507V107.908H329.966V110.716ZM329.966 105.1H329.507V102.292H329.966V105.1ZM329.966 99.4841H329.507V96.676H329.966V99.4841ZM329.966 93.868H329.507V91.0599H329.966V93.868ZM329.966 88.252H329.507V85.4439H329.966V88.252ZM329.966 82.6359H329.507V79.8278H329.966V82.6359ZM329.966 77.0199H329.507V74.2118H329.966V77.0199ZM329.966 71.4038H329.507V68.5957H329.966V71.4038Z" fill="#E5E5E5"/>
<path d="M329.966 135.988H329.507V137.365H329.966V135.988Z" fill="#E5E5E5"/>
<path d="M254.526 83.9121H254.067V85.2886H254.526V83.9121Z" fill="#E5E5E5"/>
<path d="M254.526 133.321H254.067V130.652H254.526V133.321ZM254.526 127.984H254.067V125.315H254.526V127.984ZM254.526 122.647H254.067V119.978H254.526V122.647ZM254.526 117.31H254.067V114.642H254.526V117.31ZM254.526 111.973H254.067V109.305H254.526V111.973ZM254.526 106.636H254.067V103.968H254.526V106.636ZM254.526 101.299H254.067V98.6308H254.526V101.299ZM254.526 95.9623H254.067V93.2939H254.526V95.9623ZM254.526 90.6254H254.067V87.957H254.526V90.6254Z" fill="#E5E5E5"/>
<path d="M254.526 135.988H254.067V137.365H254.526V135.988Z" fill="#E5E5E5"/>
<path d="M355.414 138.004H203.514C203.388 138.004 203.267 137.954 203.178 137.865C203.089 137.776 203.039 137.655 203.039 137.529V64.7234C203.039 64.5973 203.089 64.4764 203.178 64.3873C203.267 64.2981 203.388 64.248 203.514 64.248C203.64 64.248 203.761 64.2981 203.85 64.3873C203.939 64.4764 203.989 64.5973 203.989 64.7234V137.054H355.414C355.54 137.054 355.661 137.104 355.75 137.193C355.839 137.282 355.889 137.403 355.889 137.529C355.889 137.655 355.839 137.776 355.75 137.865C355.661 137.954 355.54 138.004 355.414 138.004Z" fill="#3F3D56"/>
<path d="M279.511 102.989L254.256 84.0726L229.346 102.731L228.775 101.97L254.256 82.8848L279.391 101.711L304.368 74.3777L304.468 74.3369L329.663 64.1855L330.018 65.068L304.924 75.1786L279.511 102.989Z" fill="#3F3D56"/>
<path d="M229.061 105.203C230.636 105.203 231.913 103.926 231.913 102.35C231.913 100.775 230.636 99.498 229.061 99.498C227.485 99.498 226.208 100.775 226.208 102.35C226.208 103.926 227.485 105.203 229.061 105.203Z" fill="#0A2647"/>
<path d="M254.256 86.6635C255.831 86.6635 257.108 85.3865 257.108 83.8113C257.108 82.236 255.831 80.959 254.256 80.959C252.68 80.959 251.403 82.236 251.403 83.8113C251.403 85.3865 252.68 86.6635 254.256 86.6635Z" fill="#0A2647"/>
<path d="M279.451 105.203C281.026 105.203 282.303 103.926 282.303 102.35C282.303 100.775 281.026 99.498 279.451 99.498C277.876 99.498 276.599 100.775 276.599 102.35C276.599 103.926 277.876 105.203 279.451 105.203Z" fill="#0A2647"/>
<path d="M304.646 77.6323C306.221 77.6323 307.498 76.3553 307.498 74.78C307.498 73.2047 306.221 71.9277 304.646 71.9277C303.07 71.9277 301.793 73.2047 301.793 74.78C301.793 76.3553 303.07 77.6323 304.646 77.6323Z" fill="#0A2647"/>
<path d="M329.841 67.1733C331.416 67.1733 332.693 65.8963 332.693 64.321C332.693 62.7458 331.416 61.4688 329.841 61.4688C328.265 61.4688 326.988 62.7458 326.988 64.321C326.988 65.8963 328.265 67.1733 329.841 67.1733Z" fill="#0A2647"/>
<path d="M169.621 13.9258H168.649V185.546H169.621V13.9258Z" fill="#E5E5E5"/>
<path d="M398.601 183.791C398.936 183.392 399.18 182.924 399.315 182.42C399.45 181.916 399.473 181.389 399.382 180.875C399.291 180.362 399.089 179.874 398.789 179.448C398.49 179.021 398.1 178.665 397.648 178.404L400.019 165.951L393.939 168.485L392.619 179.923C392.233 180.711 392.149 181.614 392.383 182.46C392.618 183.306 393.155 184.037 393.892 184.514C394.629 184.99 395.516 185.18 396.384 185.047C397.251 184.914 398.04 184.467 398.601 183.791Z" fill="#FFB7B7"/>
<path d="M428.92 260.206H423.771L421.322 240.346L428.921 240.346L428.92 260.206Z" fill="#FFB7B7"/>
<path d="M430.233 265.198L413.631 265.197V264.987C413.631 263.273 414.312 261.63 415.524 260.418C416.735 259.206 418.379 258.525 420.093 258.525L430.233 258.526L430.233 265.198Z" fill="#2F2E41"/>
<path d="M400.782 260.206H395.633L393.184 240.346L400.783 240.346L400.782 260.206Z" fill="#FFB7B7"/>
<path d="M400.835 265.198L384.233 265.197V264.987C384.233 263.273 384.914 261.63 386.126 260.418C387.338 259.206 388.981 258.525 390.695 258.525L400.835 258.526L400.835 265.198Z" fill="#2F2E41"/>
<path d="M400.36 176.328L395.32 187.938L391.163 254.672L401.662 254.252L404.53 222.44L413.375 194.106L418.461 225.694L420.561 253.412L429.249 253.788L432.71 176.328H400.36Z" fill="#2F2E41"/>
<path d="M425.552 119.037L410.945 119.402L402.369 123.805L401.899 156.285L396.55 178.709C396.55 178.709 429.968 181.009 434.588 177.649L429.128 152.031L436.451 124.345L425.552 119.037Z" fill="#0A2647"/>
<path d="M403.93 124.312L402.369 123.805C402.369 123.805 397.42 126.981 397.891 134.661C397.891 134.661 397.705 138.634 397.883 141.279C398.086 144.313 392.003 174.457 392.003 174.457H400.822L404.602 147.159L403.93 124.312Z" fill="#0A2647"/>
<path d="M436.222 184.211C435.886 183.812 435.643 183.344 435.508 182.84C435.373 182.336 435.35 181.809 435.44 181.295C435.531 180.782 435.734 180.294 436.033 179.867C436.333 179.44 436.722 179.084 437.174 178.824L434.803 166.371L440.884 168.905L442.203 180.343C442.59 181.131 442.674 182.034 442.439 182.88C442.205 183.726 441.668 184.457 440.931 184.933C440.193 185.41 439.307 185.6 438.439 185.467C437.571 185.334 436.782 184.887 436.222 184.211Z" fill="#FFB7B7"/>
<path d="M434.253 124.732L435.813 124.225C435.813 124.225 440.763 127.401 440.292 135.081C440.292 135.081 440.477 139.054 440.3 141.699C440.097 144.733 442.82 174.877 442.82 174.877H434L430.221 147.579L434.253 124.732Z" fill="#0A2647"/>
<path d="M429.137 105.411C429.137 107.413 428.543 109.371 427.431 111.036C426.318 112.701 424.737 113.999 422.887 114.766C421.036 115.532 419.001 115.732 417.036 115.342C415.072 114.951 413.268 113.987 411.852 112.571C410.436 111.155 409.471 109.35 409.081 107.386C408.69 105.422 408.891 103.386 409.657 101.536C410.423 99.6857 411.721 98.1043 413.386 96.9917C415.051 95.879 417.009 95.2852 419.012 95.2852C420.338 95.2819 421.652 95.5398 422.879 96.0444C424.106 96.5489 425.221 97.2901 426.161 98.2257C427.101 99.1612 427.848 100.273 428.359 101.497C428.869 102.721 429.134 104.034 429.137 105.36C429.137 105.377 429.137 105.394 429.137 105.411Z" fill="#FFB7B7"/>
<path d="M408.92 91.8113C410.106 89.2607 412.401 89.765 414.409 90.6296C416.951 90.0657 419.369 88.3774 422.108 89.3758C424.806 93.3001 433.865 92.1455 431.938 98.5343C431.935 100.065 434.818 99.1741 434.315 101.681C435.842 106.506 428.802 115.645 424.761 113.72C425.76 111.888 428.044 107.727 424.58 107.315C417.13 114.247 423.812 94.1147 414.451 99.9694C411.352 102.806 407.108 94.6484 408.92 91.8113Z" fill="#2F2E41"/>
</g>
<defs>
<clipPath id="clip0_769_5410">
<rect width="500" height="266.47" fill="white"/>
</clipPath>
</defs>
</svg>
