<svg width="500" height="320" viewBox="0 0 500 320" fill="none" xmlns="http://www.w3.org/2000/svg">
<g clip-path="url(#clip0_769_5407)">
<path d="M363.895 24.3109H35.8689C35.5358 24.3038 35.2187 24.1665 34.9856 23.9284C34.7526 23.6904 34.6221 23.3705 34.6221 23.0373C34.6221 22.7041 34.7526 22.3842 34.9856 22.1461C35.2187 21.9081 35.5358 21.7708 35.8689 21.7637H363.895C364.228 21.7708 364.545 21.9081 364.778 22.1461C365.011 22.3842 365.141 22.7041 365.141 23.0373C365.141 23.3705 365.011 23.6904 364.778 23.9284C364.545 24.1665 364.228 24.3038 363.895 24.3109Z" fill="#CACACA"/>
<path d="M57.6701 15.2608C61.7924 15.2608 65.1342 11.8445 65.1342 7.63039C65.1342 3.41624 61.7924 0 57.6701 0C53.5478 0 50.2061 3.41624 50.2061 7.63039C50.2061 11.8445 53.5478 15.2608 57.6701 15.2608Z" fill="#3F3D56"/>
<path d="M83.455 15.2608C87.5773 15.2608 90.9191 11.8445 90.9191 7.63039C90.9191 3.41624 87.5773 0 83.455 0C79.3327 0 75.991 3.41624 75.991 7.63039C75.991 11.8445 79.3327 15.2608 83.455 15.2608Z" fill="#3F3D56"/>
<path d="M109.24 15.2608C113.362 15.2608 116.704 11.8445 116.704 7.63039C116.704 3.41624 113.362 0 109.24 0C105.118 0 101.776 3.41624 101.776 7.63039C101.776 11.8445 105.118 15.2608 109.24 15.2608Z" fill="#3F3D56"/>
<path d="M348.37 1.89062H330.054C329.691 1.89785 329.345 2.04716 329.091 2.30646C328.836 2.56576 328.694 2.91439 328.694 3.2775C328.694 3.64062 328.836 3.98925 329.091 4.24855C329.345 4.50785 329.691 4.65714 330.054 4.66437H348.37C348.733 4.65714 349.079 4.50785 349.333 4.24855C349.587 3.98925 349.729 3.64062 349.729 3.2775C349.729 2.91439 349.587 2.56576 349.333 2.30646C349.079 2.04716 348.733 1.89785 348.37 1.89062Z" fill="#3F3D56"/>
<path d="M348.37 7.09766H330.054C329.691 7.10489 329.345 7.25419 329.091 7.51349C328.836 7.77279 328.694 8.12142 328.694 8.48454C328.694 8.84765 328.836 9.19628 329.091 9.45558C329.345 9.71488 329.691 9.86417 330.054 9.8714H348.37C348.733 9.86417 349.079 9.71488 349.333 9.45558C349.587 9.19628 349.729 8.84765 349.729 8.48454C349.729 8.12142 349.587 7.77279 349.333 7.51349C349.079 7.25419 348.733 7.10489 348.37 7.09766Z" fill="#3F3D56"/>
<path d="M348.37 12.2969H330.054C329.691 12.3041 329.345 12.4534 329.091 12.7127C328.836 12.972 328.694 13.3206 328.694 13.6837C328.694 14.0469 328.836 14.3955 329.091 14.6548C329.345 14.9141 329.691 15.0634 330.054 15.0706H348.37C348.733 15.0634 349.079 14.9141 349.333 14.6548C349.587 14.3955 349.729 14.0469 349.729 13.6837C349.729 13.3206 349.587 12.972 349.333 12.7127C349.079 12.4534 348.733 12.3041 348.37 12.2969Z" fill="#3F3D56"/>
<path d="M126.075 255.337L126.525 93.2462C126.538 89.9655 127.851 86.8238 130.178 84.5104C132.504 82.1971 135.653 80.9009 138.933 80.9063L261.348 81.2456C264.629 81.2585 267.77 82.5721 270.084 84.8983C272.397 87.2246 273.693 90.3735 273.688 93.6542L273.238 255.745C273.226 259.026 271.912 262.167 269.586 264.481C267.26 266.794 264.111 268.09 260.83 268.085L138.415 267.746C135.135 267.733 131.993 266.419 129.68 264.093C127.366 261.767 126.07 258.618 126.075 255.337Z" fill="#E6E6E6"/>
<path d="M135.601 206.404L135.89 102.197C135.902 99.1248 137.132 96.1825 139.311 94.016C141.489 91.8494 144.439 90.6355 147.511 90.6406L252.716 90.9323C255.789 90.9442 258.731 92.1744 260.898 94.353C263.064 96.5316 264.278 99.4807 264.273 102.553L263.873 246.792C263.861 249.865 262.631 252.807 260.452 254.974C258.274 257.14 255.324 258.354 252.252 258.349L187.08 258.168C173.394 258.115 160.287 252.635 150.637 242.931C140.986 233.226 135.579 220.09 135.601 206.404Z" fill="white"/>
<path d="M240.898 171.988H158.865C157.56 171.988 156.308 171.47 155.385 170.547C154.462 169.624 153.943 168.372 153.943 167.067C153.943 165.761 154.462 164.509 155.385 163.586C156.308 162.663 157.56 162.145 158.865 162.145H240.898C242.204 162.145 243.456 162.663 244.379 163.586C245.302 164.509 245.82 165.761 245.82 167.067C245.82 168.372 245.302 169.624 244.379 170.547C243.456 171.47 242.204 171.988 240.898 171.988Z" fill="#0A2647"/>
<path d="M176.913 144.996H158.865C157.56 144.996 156.308 144.478 155.385 143.555C154.462 142.632 153.943 141.38 153.943 140.074C153.943 138.769 154.462 137.517 155.385 136.594C156.308 135.671 157.56 135.152 158.865 135.152H176.913C178.218 135.152 179.47 135.671 180.393 136.594C181.316 137.517 181.835 138.769 181.835 140.074C181.835 141.38 181.316 142.632 180.393 143.555C179.47 144.478 178.218 144.996 176.913 144.996Z" fill="#0A2647"/>
<path d="M240.898 215.266H158.865C157.56 215.266 156.308 214.747 155.385 213.824C154.462 212.901 153.943 211.649 153.943 210.344C153.943 209.038 154.462 207.787 155.385 206.864C156.308 205.94 157.56 205.422 158.865 205.422H240.898C242.204 205.422 243.456 205.94 244.379 206.864C245.302 207.787 245.82 209.038 245.82 210.344C245.82 211.649 245.302 212.901 244.379 213.824C243.456 214.747 242.204 215.266 240.898 215.266Z" fill="#0A2647"/>
<path d="M240.898 193.627H158.865C157.56 193.627 156.308 193.109 155.385 192.186C154.462 191.262 153.943 190.011 153.943 188.705C153.943 187.4 154.462 186.148 155.385 185.225C156.308 184.302 157.56 183.783 158.865 183.783H240.898C242.204 183.783 243.456 184.302 244.379 185.225C245.302 186.148 245.82 187.4 245.82 188.705C245.82 190.011 245.302 191.262 244.379 192.186C243.456 193.109 242.204 193.627 240.898 193.627Z" fill="#0A2647"/>
<path d="M19.5845 319.896C30.4008 319.896 39.1691 311.127 39.1691 300.311C39.1691 289.495 30.4008 280.727 19.5845 280.727C8.7683 280.727 0 289.495 0 300.311C0 311.127 8.7683 319.896 19.5845 319.896Z" fill="#0A2647"/>
<path d="M16.9129 310.506C16.5747 310.506 16.2411 310.427 15.9387 310.275C15.6362 310.124 15.3731 309.905 15.1702 309.634L9.82729 302.51C9.65526 302.281 9.53002 302.021 9.45874 301.743C9.38747 301.466 9.37153 301.177 9.41186 300.894C9.4522 300.611 9.54801 300.338 9.69381 300.091C9.83961 299.845 10.0325 299.63 10.2616 299.458C10.4906 299.286 10.7513 299.161 11.0286 299.09C11.306 299.019 11.5946 299.004 11.878 299.044C12.1614 299.085 12.434 299.181 12.6802 299.327C12.9264 299.473 13.1414 299.667 13.3129 299.896L16.8084 304.556L25.7863 291.09C26.1071 290.609 26.6053 290.276 27.1716 290.163C27.7379 290.05 28.3259 290.167 28.8063 290.487C29.2868 290.807 29.6204 291.305 29.7339 291.871C29.8475 292.438 29.7315 293.026 29.4116 293.506L18.7257 309.535C18.5324 309.825 18.2724 310.065 17.9675 310.233C17.6626 310.402 17.3218 310.495 16.9735 310.505C16.9533 310.505 16.9331 310.506 16.9129 310.506Z" fill="white"/>
<path d="M19.7591 257.398H18.3491V261.628H19.7591V257.398Z" fill="#2F2E41"/>
<path d="M19.7591 249.322H18.3491V241.246H19.7591V249.322ZM19.7591 233.169H18.3491V225.092H19.7591V233.169ZM19.7591 217.016H18.3491V208.939H19.7591V217.016ZM19.7591 200.863H18.3491V192.786H19.7591V200.863ZM19.7591 184.709H18.3491V176.633H19.7591V184.709Z" fill="#2F2E41"/>
<path d="M19.7593 168.556H18.3494V163.621H23.2843V165.031H19.7593V168.556Z" fill="#2F2E41"/>
<path d="M89.8367 165.031H81.5176V163.621H89.8367V165.031ZM73.1986 165.031H64.8795V163.621H73.1986V165.031ZM56.5604 165.031H48.2414V163.621H56.5604V165.031ZM39.9223 165.031H31.6033V163.621H39.9223V165.031Z" fill="#2F2E41"/>
<path d="M102.386 163.621H98.156V165.031H102.386V163.621Z" fill="#2F2E41"/>
<path d="M473.286 214.854H471.876V219.083H473.286V214.854Z" fill="#2F2E41"/>
<path d="M473.286 205.595H471.876V196.335H473.286V205.595ZM473.286 187.076H471.876V177.816H473.286V187.076Z" fill="#2F2E41"/>
<path d="M473.286 168.556H471.876V165.031H468.351V163.621H473.286V168.556Z" fill="#2F2E41"/>
<path d="M459.587 165.031H450.823V163.621H459.587V165.031ZM442.059 165.031H433.294V163.621H442.059V165.031ZM424.53 165.031H415.766V163.621H424.53V165.031ZM407.002 165.031H398.237V163.621H407.002V165.031ZM389.473 165.031H380.709V163.621H389.473L389.473 165.031ZM371.945 165.031H363.18V163.621H371.945V165.031ZM354.416 165.031H345.652V163.621H354.416V165.031ZM336.888 165.031H328.124V163.621H336.888V165.031ZM319.359 165.031H310.595V163.621H319.359V165.031Z" fill="#2F2E41"/>
<path d="M301.831 163.621H297.601V165.031H301.831V163.621Z" fill="#2F2E41"/>
<path d="M473.025 270.548C483.841 270.548 492.609 261.78 492.609 250.963C492.609 240.147 483.841 231.379 473.025 231.379C462.208 231.379 453.44 240.147 453.44 250.963C453.44 261.78 462.208 270.548 473.025 270.548Z" fill="#0A2647"/>
<path d="M476.877 250.962L480.73 247.109C481.239 246.598 481.525 245.906 481.524 245.184C481.523 244.463 481.236 243.771 480.726 243.261C480.216 242.751 479.524 242.464 478.802 242.463C478.081 242.462 477.389 242.748 476.877 243.257L473.025 247.109L469.172 243.257C468.66 242.748 467.968 242.462 467.247 242.463C466.525 242.464 465.833 242.751 465.323 243.261C464.813 243.771 464.526 244.463 464.525 245.184C464.524 245.906 464.81 246.598 465.319 247.109L469.172 250.962L465.319 254.815C465.065 255.068 464.863 255.368 464.725 255.699C464.587 256.03 464.515 256.385 464.515 256.743C464.514 257.102 464.584 257.457 464.721 257.788C464.858 258.12 465.059 258.421 465.313 258.674C465.566 258.928 465.867 259.129 466.199 259.266C466.53 259.403 466.885 259.473 467.244 259.472C467.602 259.471 467.957 259.4 468.288 259.262C468.619 259.124 468.919 258.922 469.172 258.668L473.025 254.815L476.877 258.668C477.13 258.922 477.43 259.124 477.761 259.262C478.092 259.4 478.447 259.471 478.806 259.472C479.164 259.473 479.519 259.403 479.851 259.266C480.182 259.129 480.483 258.928 480.736 258.674C480.99 258.421 481.191 258.12 481.328 257.788C481.465 257.457 481.535 257.102 481.534 256.743C481.534 256.385 481.462 256.03 481.324 255.699C481.186 255.368 480.984 255.068 480.73 254.815L476.877 250.962Z" fill="white"/>
<path d="M418.075 133.779L422.305 158.887L462.489 137.304L418.075 133.779Z" fill="#2F2E41"/>
<path d="M413.274 289.894L404.856 289.55L402.175 256.918L414.599 257.425L413.274 289.894Z" fill="#FFB6B6"/>
<path d="M413.846 196.523C429.115 191.868 432.249 171.963 440.635 167.619C440.614 157.106 441.037 124.507 430.543 125.128C424.699 125.474 392.138 185.073 390.742 194.947C388.153 213.267 401.979 260.024 400.374 263.236L416.43 264.252L416.524 262.989C416.778 259.561 419.338 249.225 416.418 247.411L415.312 246.724C415.321 243.16 416.099 237.088 412.885 235.549C412.844 235.53 412.807 235.502 412.778 235.467C412.749 235.433 412.727 235.392 412.714 235.349C412.701 235.305 412.698 235.26 412.704 235.215C412.71 235.17 412.725 235.127 412.749 235.088L413.846 196.523Z" fill="#2F2E41"/>
<path d="M417.611 297.196L411.982 297.528L410.664 292.272L408.404 297.739L393.473 298.619C392.758 298.661 392.047 298.473 391.446 298.083C390.844 297.693 390.383 297.121 390.13 296.45C389.877 295.78 389.844 295.046 390.038 294.355C390.231 293.665 390.64 293.055 391.205 292.613L402.643 283.676L402.326 278.303L414.911 278.312L417.611 297.196Z" fill="#2F2E41"/>
<path d="M477.438 231.081L485.836 231.762L492.456 199.696L480.062 198.691L477.438 231.081Z" fill="#FFB6B6"/>
<path d="M474.146 149.817C466.615 163.052 453.141 166.212 439.17 168.527C433.095 159.948 423.836 147.987 432.748 142.411C437.711 139.306 480.733 114.188 487.374 121.627C504.714 141.048 492.344 203.546 493.409 202.164L479.675 201.965L478.866 200.989C477.789 199.691 477.089 198.123 476.841 196.455C476.592 194.787 476.806 193.082 477.457 191.527L477.96 190.326C476.945 188.905 476.352 187.226 476.252 185.483C476.152 183.739 476.548 182.003 477.395 180.476L477.569 180.162L474.146 149.817Z" fill="#2F2E41"/>
<path d="M477.218 219.385L489.711 220.902L488.745 226.197L499.014 236.456C499.521 236.963 499.853 237.618 499.961 238.327C500.07 239.036 499.949 239.761 499.616 240.396C499.283 241.031 498.756 241.543 498.112 241.857C497.468 242.171 496.74 242.271 496.034 242.143L481.321 239.457L479.741 233.757L477.795 238.814L472.247 237.802L477.218 219.385Z" fill="#2F2E41"/>
<path d="M444.574 44.2461H438.811C437.634 44.2461 436.474 44.5315 435.431 45.0778C434.389 45.6241 433.494 46.4151 432.824 47.3829L428.65 53.4109L418.252 55.3021C414.64 57.5328 411.919 60.9532 410.557 64.9743C409.196 68.9953 409.279 73.3654 410.792 77.3317C418.15 96.5765 421.702 132.647 414.55 148.584C414.55 148.584 457.937 152.514 468.834 139.419C479.732 126.324 470.949 62.5758 470.949 62.5758L454.735 53.4109L450.562 47.3831C449.892 46.4152 448.997 45.6242 447.954 45.0778C446.911 44.5315 445.752 44.2461 444.574 44.2461Z" fill="#0A2647"/>
<path d="M471.464 156.885C471.951 156.371 472.321 155.757 472.545 155.085C472.77 154.413 472.844 153.699 472.763 152.996C472.683 152.292 472.449 151.614 472.078 151.01C471.707 150.407 471.208 149.892 470.616 149.502L480.114 118.271L469.54 111.926L463.671 151.146C463.082 152.183 462.894 153.401 463.142 154.567C463.39 155.734 464.058 156.769 465.018 157.477C465.979 158.184 467.165 158.515 468.353 158.405C469.541 158.296 470.648 157.755 471.464 156.885Z" fill="#FFB6B6"/>
<path d="M480.819 121.795L468.129 116.861L468.671 110.525L453.593 77.5198C452.848 75.8884 452.471 74.1129 452.489 72.3194C452.508 70.5259 452.92 68.7584 453.698 67.1423C454.476 65.5263 455.601 64.1013 456.991 62.9686C458.382 61.8359 460.005 61.0233 461.745 60.5884C464.889 59.8063 468.214 60.3033 470.992 61.9703C473.77 63.6373 475.773 66.3382 476.562 69.4802L486.471 109.131C487.618 115.285 486.321 119.881 480.819 121.795Z" fill="#0A2647"/>
<path d="M463.265 25.0354C463.265 19.3233 460.996 13.8452 456.957 9.8062C452.918 5.76716 447.44 3.49805 441.728 3.49805C436.016 3.49805 430.538 5.76716 426.499 9.8062C422.46 13.8452 420.19 19.3233 420.19 25.0354V38.5359C420.191 39.3022 420.496 40.0368 421.038 40.5786C421.58 41.1205 422.315 41.4253 423.081 41.4264H423.61C424.22 39.6771 424.592 37.8536 424.716 36.005C425.829 37.6713 426.675 39.5002 427.226 41.4264H460.368C461.135 41.4256 461.87 41.121 462.413 40.5793C462.956 40.0376 463.263 39.3029 463.265 38.5359C465.006 34.9828 465.789 30.908 463.265 25.0354Z" fill="#2F2E41"/>
<path d="M440.86 41.2925C449.58 41.2925 456.649 34.2232 456.649 25.5027C456.649 16.7822 449.58 9.71289 440.86 9.71289C432.139 9.71289 425.07 16.7822 425.07 25.5027C425.07 34.2232 432.139 41.2925 440.86 41.2925Z" fill="#FFB8B8"/>
<path d="M424.637 25.4419C424.486 25.2677 424.374 25.0632 424.309 24.8421C424.244 24.621 424.228 24.3886 424.261 24.1605L426.131 11.1359C426.168 10.8709 426.271 10.6193 426.429 10.4039C426.588 10.1885 426.798 10.016 427.04 9.90223C436.587 5.43408 446.269 5.42842 455.816 9.8853C456.069 10.0054 456.287 10.1891 456.448 10.4185C456.609 10.648 456.707 10.9153 456.734 11.1943L458.688 21.4159C458.709 21.6389 458.683 21.8638 458.613 22.0763C458.542 22.2888 458.428 22.4843 458.277 22.6502C457.973 22.9842 457.548 30.3291 457.096 30.3291C457.478 25.9512 456.555 23.8566 453.216 25.9962C452.91 25.9955 452.611 25.908 452.353 25.7438C452.096 25.5796 451.89 25.3456 451.76 25.069L450.393 22.1408C450.305 21.9512 450.157 21.7955 449.972 21.6972C449.788 21.5989 449.576 21.5634 449.369 21.5959C449.163 21.6284 448.972 21.7273 448.827 21.8776C448.681 22.0279 448.588 22.2214 448.562 22.429L448.292 24.588C448.243 24.9766 448.054 25.334 447.761 25.5932C447.467 25.8524 447.089 25.9957 446.698 25.9962C441.118 28.7648 433.801 28.0197 425.851 25.9962C425.621 25.9963 425.393 25.9468 425.184 25.8511C424.974 25.7555 424.788 25.6159 424.637 25.4419Z" fill="#2F2E41"/>
<path d="M453.451 113.293H427.571C426.685 113.292 425.836 112.94 425.209 112.313C424.583 111.687 424.23 110.837 424.229 109.951V82.1335C424.23 81.2473 424.582 80.3977 425.209 79.7711C425.836 79.1445 426.685 78.792 427.571 78.791H453.451C454.337 78.792 455.186 79.1445 455.813 79.7711C456.44 80.3977 456.792 81.2473 456.793 82.1335V109.951C456.792 110.837 456.44 111.687 455.813 112.313C455.186 112.94 454.337 113.292 453.451 113.293Z" fill="#3F3D56"/>
<path d="M428.3 84.7985C429.37 84.7985 430.238 83.9307 430.238 82.8602C430.238 81.7897 429.37 80.9219 428.3 80.9219C427.229 80.9219 426.361 81.7897 426.361 82.8602C426.361 83.9307 427.229 84.7985 428.3 84.7985Z" fill="#E6E6E6"/>
<path d="M428.3 84.0233C428.942 84.0233 429.463 83.5026 429.463 82.8603C429.463 82.218 428.942 81.6973 428.3 81.6973C427.657 81.6973 427.137 82.218 427.137 82.8603C427.137 83.5026 427.657 84.0233 428.3 84.0233Z" fill="#3F3D56"/>
<path d="M458.042 94.5437C457.466 95.1825 456.758 95.6875 455.967 96.023C455.175 96.3585 454.32 96.5164 453.461 96.4856C452.602 96.4548 451.76 96.236 450.995 95.8447C450.23 95.4533 449.559 94.8989 449.032 94.2205L425.83 100.644L422.305 92.8894L450.36 85.6647C451.558 84.8534 453.013 84.5099 454.448 84.6993C455.882 84.8887 457.198 85.5978 458.145 86.6923C459.091 87.7867 459.604 89.1905 459.585 90.6376C459.566 92.0846 459.017 93.4745 458.042 94.5437Z" fill="#FFB8B8"/>
<path d="M428.586 100.844L422.076 102.923C414.996 110.403 412.49 104.975 404.147 104.413C402.577 104.308 401.348 103.019 400.495 100.584C399.333 97.1587 399.449 93.4294 400.822 90.0835L412.412 61.0353L417.263 57.0605L424.037 65.1777L418.836 87.4935L427.374 91.845L428.586 100.844Z" fill="#0A2647"/>
</g>
<defs>
<clipPath id="clip0_769_5407">
<rect width="500" height="319.896" fill="white"/>
</clipPath>
</defs>
</svg>
