<svg width="550" height="309" viewBox="0 0 550 309" fill="none" xmlns="http://www.w3.org/2000/svg">
<g clip-path="url(#clip0_769_5406)">
<path d="M46.5154 254.067C51.2067 261.501 56.9219 268.238 63.4926 274.078C63.6427 274.215 63.7969 274.346 63.9511 274.48L77.9799 266.145C77.8761 266.003 77.7615 265.845 77.6387 265.672C70.3139 255.475 37.2328 187.631 37.0307 172.607C37.0052 173.851 25.1254 220.544 46.5154 254.067Z" fill="#E6E6E6"/>
<path d="M60.7857 275.686C61.0023 275.784 61.2236 275.878 61.4464 275.969L71.9711 269.715C71.8069 269.62 71.6151 269.508 71.3953 269.382C67.7924 267.277 57.0719 260.953 46.5164 254.066C35.1749 246.663 24.0176 238.615 22.0815 234.453C22.4844 235.411 34.972 264.517 60.7857 275.686Z" fill="#E6E6E6"/>
<path d="M505.396 281.416C505.161 290.203 503.689 298.914 501.023 307.291C500.964 307.486 500.899 307.677 500.835 307.871H484.516C484.533 307.697 484.551 307.503 484.568 307.291C485.656 294.783 479.441 219.56 471.94 206.541C472.597 207.597 506.662 241.671 505.396 281.416Z" fill="#E6E6E6"/>
<path d="M504.172 307.291C504.036 307.485 503.894 307.679 503.748 307.871H491.506C491.599 307.705 491.706 307.511 491.831 307.291C493.853 303.641 499.839 292.728 505.395 281.415C511.364 269.258 516.845 256.639 516.383 252.072C516.526 253.102 520.658 284.502 504.172 307.291Z" fill="#E6E6E6"/>
<path d="M264.794 307.418H76.0812C71.6084 307.413 67.3201 305.634 64.1574 302.471C60.9946 299.308 59.2155 295.02 59.2104 290.547V16.8708C59.2155 12.3979 60.9946 8.10971 64.1574 4.94692C67.3201 1.78412 71.6084 0.00504909 76.0812 0H264.794C269.267 0.00504908 273.555 1.78412 276.718 4.94691C279.881 8.1097 281.66 12.3979 281.665 16.8708V290.547C281.66 295.02 279.881 299.308 276.718 302.471C273.555 305.634 269.267 307.413 264.794 307.418Z" fill="#CACACA"/>
<path d="M265.126 296.654H75.7489C74.3701 296.652 73.0483 296.104 72.0733 295.129C71.0983 294.154 70.5499 292.832 70.5483 291.453V15.9643C70.5499 14.5855 71.0983 13.2636 72.0733 12.2886C73.0483 11.3137 74.3701 10.7652 75.7489 10.7637H265.126C266.505 10.7652 267.827 11.3137 268.802 12.2886C269.777 13.2636 270.325 14.5855 270.327 15.9643V291.453C270.325 292.832 269.777 294.154 268.802 295.129C267.827 296.104 266.505 296.652 265.126 296.654Z" fill="white"/>
<path d="M169.72 6.6028C170.513 6.6028 171.155 5.96025 171.155 5.16761C171.155 4.37498 170.513 3.73242 169.72 3.73242C168.927 3.73242 168.285 4.37498 168.285 5.16761C168.285 5.96025 168.927 6.6028 169.72 6.6028Z" fill="white"/>
<path d="M549.296 308.413H0.703651C0.51703 308.413 0.338055 308.339 0.206094 308.207C0.0741334 308.075 0 307.896 0 307.71C0 307.523 0.0741334 307.344 0.206094 307.212C0.338055 307.08 0.51703 307.006 0.703651 307.006H549.296C549.483 307.006 549.662 307.08 549.794 307.212C549.926 307.344 550 307.523 550 307.71C550 307.896 549.926 308.075 549.794 308.207C549.662 308.339 549.483 308.413 549.296 308.413Z" fill="#CACACA"/>
<path d="M170.436 228.318C180.554 228.318 188.756 220.116 188.756 209.998C188.756 199.88 180.554 191.678 170.436 191.678C160.318 191.678 152.116 199.88 152.116 209.998C152.116 220.116 160.318 228.318 170.436 228.318Z" fill="#E4E4E4"/>
<path d="M181.906 174.836H158.966L145.118 107.093C144.762 103.556 145.151 99.9831 146.261 96.6054C147.37 93.2277 149.175 90.12 151.559 87.4825C153.943 84.8451 156.853 82.7365 160.102 81.2926C163.351 79.8488 166.866 79.1017 170.422 79.0996C173.977 79.0975 177.493 79.8404 180.744 81.2804C183.994 82.7204 186.907 84.8256 189.294 87.4602C191.681 90.0948 193.49 93.2004 194.603 96.5767C195.717 99.9531 196.11 103.525 195.759 107.063L181.906 174.836Z" fill="#E4E4E4"/>
<path d="M260.569 83.7797H344.412C348.458 83.7797 352.383 85.1562 355.543 87.6829C358.703 90.2097 360.909 93.7363 361.799 97.6831L404.163 285.592C404.625 287.642 404.633 289.768 404.187 291.821C403.74 293.874 402.85 295.804 401.579 297.477C400.308 299.15 398.686 300.524 396.827 301.504C394.968 302.483 392.918 303.045 390.819 303.148L304.628 307.395C300.013 307.622 295.472 306.162 291.854 303.288C288.236 300.414 285.787 296.321 284.965 291.774L260.933 158.921L256.387 133.791L249.679 96.7064C249.392 95.118 249.459 93.4858 249.875 91.9261C250.29 90.3664 251.045 88.9176 252.085 87.6831C253.125 86.4486 254.425 85.4587 255.891 84.784C257.357 84.1093 258.954 83.7663 260.569 83.7797Z" fill="#3F3D56"/>
<path d="M333.374 87.8301H343.161C345.972 87.8301 348.698 88.7914 350.887 90.5543C353.076 92.3172 354.596 94.7757 355.195 97.5218L395.859 283.898C396.093 284.971 396.093 286.082 395.858 287.155C395.624 288.228 395.16 289.237 394.5 290.115C393.839 290.992 392.997 291.717 392.031 292.239C391.065 292.761 389.997 293.069 388.901 293.141L302.989 298.771C300.565 298.93 298.168 298.191 296.254 296.695C294.341 295.199 293.045 293.051 292.614 290.66L257.916 98.0224C257.691 96.7755 257.743 95.4946 258.067 94.27C258.392 93.0454 258.981 91.9069 259.794 90.9349C260.606 89.9629 261.622 89.1811 262.77 88.6446C263.918 88.1081 265.169 87.8301 266.436 87.8301H275.721C276.619 87.8301 277.493 88.1263 278.206 88.6729C278.919 89.2196 279.432 89.986 279.666 90.8537C279.872 91.6198 280.325 92.2965 280.955 92.779C281.585 93.2616 282.356 93.5231 283.149 93.5231H327.226C328.779 93.5231 330.276 92.9368 331.415 91.8813C332.555 90.8258 333.255 89.379 333.374 87.8301Z" fill="white"/>
<path d="M376.735 147.572C377.009 147.75 377.269 147.949 377.513 148.167L405.912 140.927L407.85 134.076L418.572 135.649L416.321 148.111C416.139 149.118 415.635 150.038 414.886 150.735C414.136 151.431 413.181 151.865 412.164 151.972L379.004 155.464C378.463 156.602 377.589 157.549 376.498 158.178C375.406 158.807 374.149 159.089 372.893 158.986C371.638 158.883 370.443 158.4 369.469 157.602C368.494 156.804 367.786 155.728 367.438 154.517C367.09 153.306 367.119 152.018 367.521 150.824C367.922 149.63 368.678 148.587 369.687 147.833C370.697 147.079 371.912 146.65 373.17 146.604C374.429 146.557 375.672 146.895 376.735 147.572Z" fill="#FFB6B6"/>
<path d="M356.467 173.269C366.585 173.269 374.788 165.067 374.788 154.949C374.788 144.831 366.585 136.629 356.467 136.629C346.35 136.629 338.147 144.831 338.147 154.949C338.147 165.067 346.35 173.269 356.467 173.269Z" fill="#0A2647"/>
<path d="M367.937 119.785H344.998L331.149 52.0424C330.793 48.505 331.183 44.9323 332.292 41.5546C333.402 38.1769 335.207 35.0692 337.591 32.4318C339.975 29.7943 342.885 27.6857 346.134 26.2419C349.383 24.798 352.898 24.0509 356.453 24.0488C360.008 24.0467 363.525 24.7896 366.775 26.2296C370.026 27.6696 372.938 29.7748 375.326 32.4094C377.713 35.044 379.521 38.1496 380.635 41.526C381.748 44.9023 382.142 48.4746 381.79 52.0124L367.937 119.785Z" fill="#0A2647"/>
<path d="M420.488 141.868L413.172 148.18L402.937 157.003L398.416 133.872L397.943 131.467L397.571 129.558L407.942 111.492L416.588 111.989L417.179 112.024L417.191 112.154L417.327 113.366L419.1 129.31L419.141 129.694L420.488 141.868Z" fill="#3F3D56"/>
<path d="M372.668 300.056L365.423 300.055L361.976 272.109L372.67 272.11L372.668 300.056Z" fill="#FFB6B6"/>
<path d="M374.516 307.079L351.154 307.078V306.782C351.154 304.371 352.113 302.058 353.818 300.353C355.523 298.648 357.836 297.69 360.247 297.689H360.248L374.516 297.69L374.516 307.079Z" fill="#2F2E41"/>
<path d="M448.313 300.647L441.067 300.647L437.62 272.701L448.314 272.702L448.313 300.647Z" fill="#FFB6B6"/>
<path d="M450.16 307.67L426.798 307.67V307.374C426.799 304.962 427.757 302.65 429.462 300.945C431.167 299.239 433.48 298.281 435.891 298.281H435.892L450.16 298.282L450.16 307.67Z" fill="#2F2E41"/>
<path d="M454.103 288.34L434.601 291.295L406.228 195.275L376.095 291.886L354.229 288.931L382.596 176.647V167.783L386.437 154.486L386.035 150.887L383.24 125.718L382.028 114.802L381.95 114.097C381.884 113.506 382.041 112.91 382.389 112.428C382.738 111.945 383.254 111.61 383.837 111.487L392.937 109.572H407.812L416.588 111.989L417.191 112.155L417.463 112.232L417.327 113.366L415.27 130.611L415.158 131.556L413.172 148.18L412.735 151.827C429.873 164.237 430.464 176.647 430.464 176.647L454.103 288.34Z" fill="#2F2E41"/>
<path d="M398.577 102.096C406.594 102.096 413.092 95.5975 413.092 87.5812C413.092 79.5649 406.594 73.0664 398.577 73.0664C390.561 73.0664 384.062 79.5649 384.062 87.5812C384.062 95.5975 390.561 102.096 398.577 102.096Z" fill="#FFB6B6"/>
<path d="M413.823 148.491L385.11 152.246L385.646 156.348L414.359 152.593L413.823 148.491Z" fill="#3F3D56"/>
<path d="M346.595 153.482C346.87 153.66 347.13 153.859 347.373 154.077L375.773 146.838L377.71 139.986L388.433 141.559L386.181 154.021C386 155.028 385.496 155.948 384.746 156.645C383.997 157.341 383.042 157.775 382.024 157.882L348.864 161.374C348.324 162.512 347.45 163.459 346.358 164.088C345.267 164.717 344.01 164.999 342.754 164.896C341.499 164.793 340.304 164.31 339.33 163.512C338.355 162.714 337.647 161.638 337.299 160.427C336.951 159.216 336.979 157.928 337.381 156.734C337.783 155.54 338.539 154.497 339.548 153.743C340.557 152.989 341.772 152.561 343.031 152.514C344.29 152.467 345.533 152.805 346.595 153.482Z" fill="#FFB6B6"/>
<path d="M390.278 115.187L385.255 111.346C383.897 110.831 382.036 112.294 381.709 113.71L374.617 142.667L389.392 153.305L391.46 150.054L390.278 115.187Z" fill="#3F3D56"/>
<g opacity="0.2">
<path d="M419.1 129.311C417.846 129.808 416.568 130.242 415.27 130.611C414.857 130.735 414.431 130.853 414.011 130.965C411.246 131.733 408.404 132.192 405.537 132.336C404.303 132.389 403.067 132.355 401.837 132.236C400.518 132.104 399.214 131.847 397.943 131.468C397.902 131.456 397.854 131.444 397.813 131.432C395.17 130.682 392.748 129.305 390.751 127.419C390.305 126.985 389.888 126.521 389.504 126.031C388.4 124.679 387.591 123.112 387.127 121.43C386.663 119.748 386.555 117.988 386.809 116.262C386.858 115.949 386.926 115.639 387.01 115.334C387.233 114.503 387.527 113.692 387.891 112.911C388.05 112.545 388.228 112.184 388.417 111.83L395.094 109.572H407.812L416.588 111.989L417.179 112.025L417.191 112.155L417.463 112.232L417.327 113.366L419.1 129.311Z" fill="black"/>
</g>
<path d="M387.455 75.5637C384.741 75.231 381.762 75.4663 379.646 77.1992C377.53 78.932 376.847 82.5343 378.851 84.3961C380.624 86.0444 383.397 85.6568 385.772 86.1255C387.819 86.5842 389.652 87.716 390.979 89.3399C392.305 90.9639 393.049 92.986 393.091 95.0826C393.055 101.095 387.285 105.648 386.248 111.571C385.541 115.613 387.246 119.867 390.193 122.723C393.14 125.578 397.192 127.121 401.274 127.539C405.357 127.957 409.484 127.318 413.452 126.27C417.436 125.216 421.358 123.722 424.7 121.313C428.043 118.903 430.783 115.506 431.857 111.527C432.93 107.549 432.159 102.987 429.394 99.9327C426.227 96.4348 420.958 95.2319 418.218 91.3899C415.147 87.083 416.284 80.9497 413.798 76.2804C412.139 73.163 408.997 71.0366 405.648 69.9165C402.299 68.7964 398.722 68.5753 395.192 68.4668C393.337 68.4098 391.425 68.3908 389.696 69.0672C387.968 69.7437 386.448 71.2852 386.358 73.1393C386.269 74.9934 387.455 75.5637 387.455 75.5637Z" fill="#2F2E41"/>
</g>
<defs>
<clipPath id="clip0_769_5406">
<rect width="550" height="308.412" fill="white"/>
</clipPath>
</defs>
</svg>
