<svg width="350" height="336" viewBox="0 0 350 336" fill="none" xmlns="http://www.w3.org/2000/svg">
<g clip-path="url(#clip0_769_5408)">
<path d="M345.365 335.032H71.9222C70.6935 335.031 69.5154 334.542 68.6466 333.673C67.7777 332.804 67.289 331.626 67.2876 330.397V162.006C67.289 160.777 67.7777 159.599 68.6466 158.73C69.5154 157.861 70.6935 157.372 71.9222 157.371H345.365C346.594 157.372 347.772 157.861 348.641 158.73C349.51 159.599 349.999 160.777 350 162.006V330.397C349.999 331.626 349.51 332.804 348.641 333.673C347.772 334.542 346.594 335.031 345.365 335.032ZM71.9222 158.401C70.9665 158.402 70.0503 158.782 69.3745 159.458C68.6988 160.134 68.3186 161.05 68.3175 162.006V330.397C68.3186 331.353 68.6988 332.269 69.3745 332.945C70.0503 333.621 70.9665 334.001 71.9222 334.002H345.365C346.321 334.001 347.237 333.621 347.913 332.945C348.589 332.269 348.969 331.353 348.97 330.397V162.006C348.969 161.05 348.589 160.134 347.913 159.458C347.237 158.782 346.321 158.402 345.365 158.401H71.9222Z" fill="#3F3D56"/>
<path d="M313.781 301.92H292.153C291.812 301.919 291.485 301.783 291.243 301.542C291.002 301.301 290.866 300.973 290.866 300.632V289.303C290.866 288.962 291.002 288.634 291.243 288.393C291.485 288.152 291.812 288.016 292.153 288.016H307.731C307.935 288.016 308.132 288.097 308.277 288.242C308.422 288.387 308.503 288.583 308.503 288.788C308.503 288.993 308.422 289.189 308.277 289.334C308.132 289.479 307.935 289.561 307.731 289.561H293.183C292.978 289.561 292.782 289.642 292.637 289.787C292.492 289.932 292.411 290.128 292.411 290.333V299.602C292.411 299.807 292.492 300.003 292.637 300.148C292.782 300.293 292.978 300.374 293.183 300.375H312.751C312.956 300.374 313.153 300.293 313.297 300.148C313.442 300.003 313.524 299.807 313.524 299.602V294.692C313.524 294.487 313.605 294.291 313.75 294.146C313.895 294.001 314.091 293.92 314.296 293.92C314.501 293.92 314.698 294.001 314.843 294.146C314.987 294.291 315.069 294.487 315.069 294.692V300.632C315.068 300.973 314.933 301.301 314.691 301.542C314.45 301.783 314.123 301.919 313.781 301.92Z" fill="#3F3D56"/>
<path d="M275.589 188.269H109.257C108.642 188.269 108.053 188.025 107.618 187.591C107.184 187.156 106.939 186.567 106.939 185.952C106.939 185.337 107.184 184.748 107.618 184.313C108.053 183.879 108.642 183.635 109.257 183.635H275.589C276.203 183.635 276.793 183.879 277.227 184.313C277.662 184.748 277.906 185.337 277.906 185.952C277.906 186.567 277.662 187.156 277.227 187.591C276.793 188.025 276.203 188.269 275.589 188.269Z" fill="#CCCCCC"/>
<path d="M275.589 207.322H109.257C108.642 207.322 108.053 207.078 107.618 206.643C107.184 206.209 106.939 205.619 106.939 205.005C106.939 204.39 107.184 203.801 107.618 203.366C108.053 202.932 108.642 202.688 109.257 202.688H275.589C276.203 202.688 276.793 202.932 277.227 203.366C277.662 203.801 277.906 204.39 277.906 205.005C277.906 205.619 277.662 206.209 277.227 206.643C276.793 207.078 276.203 207.322 275.589 207.322Z" fill="#CCCCCC"/>
<path d="M275.589 226.375H109.257C108.642 226.375 108.053 226.131 107.618 225.696C107.184 225.262 106.939 224.672 106.939 224.058C106.939 223.443 107.184 222.854 107.618 222.419C108.053 221.984 108.642 221.74 109.257 221.74H275.589C276.203 221.74 276.793 221.984 277.227 222.419C277.662 222.854 277.906 223.443 277.906 224.058C277.906 224.672 277.662 225.262 277.227 225.696C276.793 226.131 276.203 226.375 275.589 226.375Z" fill="#CCCCCC"/>
<path d="M275.589 245.43H109.257C108.642 245.43 108.053 245.185 107.618 244.751C107.184 244.316 106.939 243.727 106.939 243.112C106.939 242.498 107.184 241.908 107.618 241.474C108.053 241.039 108.642 240.795 109.257 240.795H275.589C276.203 240.795 276.793 241.039 277.227 241.474C277.662 241.908 277.906 242.498 277.906 243.112C277.906 243.727 277.662 244.316 277.227 244.751C276.793 245.185 276.203 245.43 275.589 245.43Z" fill="#CCCCCC"/>
<path d="M275.589 264.482H109.257C108.642 264.482 108.053 264.238 107.618 263.804C107.184 263.369 106.939 262.78 106.939 262.165C106.939 261.55 107.184 260.961 107.618 260.526C108.053 260.092 108.642 259.848 109.257 259.848H275.589C276.203 259.848 276.793 260.092 277.227 260.526C277.662 260.961 277.906 261.55 277.906 262.165C277.906 262.78 277.662 263.369 277.227 263.804C276.793 264.238 276.203 264.482 275.589 264.482Z" fill="#CCCCCC"/>
<path d="M303.396 192.645C307.093 192.645 310.091 189.648 310.091 185.95C310.091 182.253 307.093 179.256 303.396 179.256C299.699 179.256 296.702 182.253 296.702 185.95C296.702 189.648 299.699 192.645 303.396 192.645Z" fill="#0A2647"/>
<path d="M303.396 211.699C307.093 211.699 310.091 208.702 310.091 205.005C310.091 201.308 307.093 198.311 303.396 198.311C299.699 198.311 296.702 201.308 296.702 205.005C296.702 208.702 299.699 211.699 303.396 211.699Z" fill="#FF6584"/>
<path d="M303.396 230.752C307.093 230.752 310.091 227.755 310.091 224.058C310.091 220.36 307.093 217.363 303.396 217.363C299.699 217.363 296.702 220.36 296.702 224.058C296.702 227.755 299.699 230.752 303.396 230.752Z" fill="#0A2647"/>
<path d="M303.396 249.807C307.093 249.807 310.091 246.81 310.091 243.112C310.091 239.415 307.093 236.418 303.396 236.418C299.699 236.418 296.702 239.415 296.702 243.112C296.702 246.81 299.699 249.807 303.396 249.807Z" fill="#F2F2F2"/>
<path d="M303.396 268.86C307.093 268.86 310.091 265.862 310.091 262.165C310.091 258.468 307.093 255.471 303.396 255.471C299.699 255.471 296.702 258.468 296.702 262.165C296.702 265.862 299.699 268.86 303.396 268.86Z" fill="#F2F2F2"/>
<path d="M303.225 298.294C303.035 298.294 302.847 298.257 302.672 298.184C302.497 298.112 302.337 298.005 302.203 297.871L297.636 293.304C297.491 293.159 297.41 292.963 297.41 292.758C297.41 292.553 297.491 292.357 297.636 292.212C297.783 292.071 297.979 291.993 298.182 291.993C298.385 291.993 298.581 292.071 298.728 292.212L303.043 296.526C303.092 296.573 303.157 296.6 303.225 296.6C303.293 296.6 303.358 296.573 303.407 296.526L317.764 282.17C317.911 282.03 318.106 281.951 318.31 281.951C318.513 281.951 318.709 282.03 318.856 282.17C319.001 282.315 319.082 282.511 319.082 282.716C319.082 282.921 319.001 283.117 318.856 283.262L304.247 297.871C304.113 298.005 303.953 298.112 303.778 298.184C303.603 298.257 303.415 298.294 303.225 298.294Z" fill="#0A2647"/>
<path opacity="0.1" d="M303.225 311.19C322.849 311.19 338.757 310.268 338.757 309.13C338.757 307.993 322.849 307.07 303.225 307.07C283.601 307.07 267.693 307.993 267.693 309.13C267.693 310.268 283.601 311.19 303.225 311.19Z" fill="black"/>
<path d="M41.0695 126.639H2.30727C1.69554 126.639 1.10906 126.395 0.676497 125.963C0.243938 125.53 0.000643415 124.944 0 124.332V104.028C0.000643415 103.416 0.243938 102.83 0.676497 102.397C1.10906 101.965 1.69554 101.721 2.30727 101.721H30.2253C30.4073 101.72 30.5876 101.756 30.7559 101.825C30.9241 101.895 31.0771 101.997 31.2059 102.125C31.3347 102.254 31.4369 102.407 31.5067 102.575C31.5764 102.743 31.6123 102.923 31.6123 103.105C31.6123 103.287 31.5764 103.467 31.5067 103.635C31.4369 103.804 31.3347 103.956 31.2059 104.085C31.0771 104.213 30.9241 104.315 30.7559 104.385C30.5876 104.454 30.4073 104.49 30.2253 104.489H4.15307C3.78603 104.49 3.43415 104.636 3.17462 104.895C2.91509 105.155 2.76911 105.507 2.76871 105.874V122.486C2.76911 122.853 2.91509 123.205 3.17462 123.465C3.43415 123.724 3.78603 123.87 4.15307 123.871H39.2236C39.5906 123.87 39.9425 123.724 40.2021 123.465C40.4616 123.205 40.6076 122.853 40.608 122.486V113.686C40.608 113.319 40.7538 112.967 41.0134 112.707C41.2731 112.448 41.6252 112.302 41.9923 112.302C42.3595 112.302 42.7116 112.448 42.9712 112.707C43.2309 112.967 43.3767 113.319 43.3767 113.686V124.332C43.3761 124.944 43.1328 125.53 42.7002 125.963C42.2677 126.395 41.6812 126.639 41.0695 126.639Z" fill="#3F3D56"/>
<path d="M22.1497 120.138C21.8097 120.139 21.4729 120.073 21.1587 119.943C20.8445 119.813 20.559 119.622 20.3188 119.381L12.1329 111.196C11.8735 110.936 11.7278 110.584 11.7278 110.217C11.7278 109.85 11.8735 109.498 12.1329 109.238C12.3967 108.987 12.7473 108.846 13.1119 108.846C13.4765 108.846 13.8271 108.987 14.0909 109.238L21.8234 116.971C21.9111 117.055 22.028 117.102 22.1495 117.102C22.271 117.102 22.3878 117.055 22.4755 116.971L48.2061 91.2417C48.4698 90.99 48.8204 90.8496 49.1849 90.8496C49.5494 90.8496 49.9 90.99 50.1637 91.2417C50.4232 91.5013 50.5689 91.8534 50.5688 92.2205C50.5687 92.5876 50.4228 92.9397 50.1632 93.1992L23.9811 119.381C23.7407 119.622 23.4552 119.813 23.1409 119.943C22.8266 120.072 22.4898 120.139 22.1497 120.138Z" fill="#0A2647"/>
<path d="M73.5303 159.965H120.392C121.529 159.965 122.451 159.043 122.451 157.905V147.091C122.451 145.953 121.529 145.031 120.392 145.031H73.5303C72.3927 145.031 71.4705 145.953 71.4705 147.091V157.905C71.4705 159.043 72.3927 159.965 73.5303 159.965Z" fill="#2F2E41"/>
<path d="M119.362 144.518H48.2973C47.8915 144.518 47.4897 144.597 47.1149 144.753C46.74 144.908 46.3994 145.136 46.1125 145.423C45.8255 145.709 45.598 146.05 45.4427 146.425C45.2874 146.8 45.2075 147.202 45.2075 147.607V196.528C45.2075 197.348 45.5331 198.134 46.1125 198.713C46.6919 199.293 47.4778 199.618 48.2973 199.618H57.0516C57.871 199.618 58.6569 199.293 59.2363 198.713C59.8158 198.134 60.1413 197.348 60.1413 196.528V159.451H71.4704V197.043C71.4704 197.863 71.796 198.649 72.3754 199.228C72.9548 199.808 73.7407 200.133 74.5602 200.133H83.3145C84.1339 200.133 84.9198 199.808 85.4992 199.228C86.0787 198.649 86.4042 197.863 86.4042 197.043V159.451H119.362C120.181 159.451 120.967 159.126 121.546 158.546C122.126 157.967 122.451 157.181 122.451 156.362V147.607C122.451 147.202 122.371 146.8 122.216 146.425C122.061 146.05 121.833 145.709 121.546 145.423C121.26 145.136 120.919 144.908 120.544 144.753C120.169 144.597 119.767 144.518 119.362 144.518Z" fill="#2F2E41"/>
<path d="M137.199 160.254L69.6617 158.832C69.2031 158.823 68.7523 158.711 68.3422 158.506C67.9321 158.3 67.573 158.006 67.2908 157.644C67.0086 157.282 66.8104 156.862 66.7108 156.415C66.6111 155.967 66.6124 155.503 66.7145 155.055L83.1583 83.0638C83.3142 82.3815 83.6971 81.7724 84.2443 81.336C84.7915 80.8997 85.4707 80.6621 86.1705 80.6621H103.855C109.668 80.6621 115.304 82.6632 119.816 86.3292C124.328 89.9951 127.441 95.1024 128.631 100.793L140.289 156.533C140.384 156.988 140.375 157.458 140.263 157.91C140.151 158.361 139.939 158.781 139.642 159.139C139.345 159.496 138.971 159.783 138.548 159.976C138.125 160.169 137.664 160.264 137.199 160.254Z" fill="#2F2E41"/>
<path d="M95.3746 74.2434C110.596 74.2434 122.935 61.9043 122.935 46.6832C122.935 31.4622 110.596 19.123 95.3746 19.123C80.1536 19.123 67.8145 31.4622 67.8145 46.6832C67.8145 61.9043 80.1536 74.2434 95.3746 74.2434Z" fill="#0A2647"/>
<path d="M82.8715 31.8429C79.6548 31.0841 76.1817 30.0633 73.8873 27.5307C71.9342 25.3747 71.0181 22.0474 72.7489 19.4913C74.3293 17.1573 77.4466 16.301 80.0704 15.8633C83.1201 15.3546 86.2543 15.2803 89.1161 13.9823C90.5211 13.3468 91.7472 12.3739 92.6856 11.1503C93.5567 9.92703 94.3128 8.62582 94.9442 7.26327C95.5425 5.93531 96.3419 4.7075 97.3142 3.62307C98.4198 2.54033 99.8458 1.84408 101.38 1.63821C104.832 1.11347 108.11 2.70903 110.827 4.69047C113.457 6.64697 115.844 8.91177 117.935 11.4364C122.685 17.0964 125.954 23.8474 127.45 31.0831C127.651 32.0561 129.14 31.6443 128.939 30.6724C127.509 23.8249 124.539 17.3929 120.253 11.8643C118.13 9.10768 115.692 6.60914 112.988 4.41974C110.189 2.16462 106.957 0.199271 103.275 0.0130361C101.572 -0.0861461 99.8725 0.251355 98.3369 0.993518C96.9259 1.7373 95.7383 2.84336 94.8962 4.19804C93.1614 6.82912 92.3245 10.2291 89.5256 12.0088C86.6906 13.8116 83.1411 13.8293 79.9251 14.3309C77.0647 14.7771 73.8801 15.7193 71.9437 18.0165C69.8018 20.5574 69.8823 24.0201 71.4822 26.8224C73.2598 29.9362 76.5626 31.6354 79.8793 32.6485C80.7311 32.9087 81.5942 33.1282 82.4608 33.3326C83.4277 33.5606 83.8403 32.0714 82.8715 31.8429Z" fill="#2F2E41"/>
<path d="M98.3524 55.8843C96.6494 55.8366 94.5302 55.7772 92.8988 54.5854C92.4128 54.2157 92.0134 53.7443 91.7288 53.204C91.4442 52.6638 91.2811 52.0678 91.2511 51.4579C91.2217 51.0245 91.2928 50.5903 91.459 50.189C91.6252 49.7877 91.8819 49.4302 92.2091 49.1446C93.0613 48.424 94.3062 48.2545 95.6481 48.6498L94.2582 38.4914L95.2785 38.3516L96.9127 50.2937L96.0605 49.9029C95.0721 49.4493 93.7165 49.2195 92.8739 49.9311C92.667 50.1172 92.5058 50.3485 92.4028 50.607C92.2999 50.8655 92.2579 51.1443 92.2803 51.4217C92.3052 51.8756 92.4276 52.3188 92.6392 52.7212C92.8508 53.1236 93.1465 53.4757 93.5063 53.7536C94.7759 54.6809 96.4651 54.8011 98.3811 54.8544L98.3524 55.8843Z" fill="#2F2E41"/>
<path d="M89.2119 39.3672H83.665V40.3971H89.2119V39.3672Z" fill="#2F2E41"/>
<path d="M106.72 39.3672H101.174V40.3971H106.72V39.3672Z" fill="#2F2E41"/>
<path d="M42.6581 133.309C42.0152 133.31 41.3857 133.125 40.8447 132.778C40.3038 132.43 39.8741 131.935 39.6071 131.35L36.4559 124.433C36.2737 124.033 36.1721 123.601 36.1568 123.162C36.1415 122.723 36.2129 122.285 36.367 121.873C36.521 121.461 36.7546 121.084 37.0544 120.763C37.3542 120.441 37.7145 120.182 38.1145 120L95.7615 93.7373C96.5695 93.3704 97.4901 93.339 98.3212 93.6499C99.1524 93.9608 99.8263 94.5887 100.195 95.3958L103.346 102.313C103.713 103.121 103.745 104.041 103.434 104.872C103.123 105.704 102.495 106.378 101.688 106.747L44.0408 133.008C43.6067 133.207 43.1352 133.309 42.6581 133.309Z" fill="#0A2647"/>
</g>
<defs>
<clipPath id="clip0_769_5408">
<rect width="350" height="335.032" fill="white"/>
</clipPath>
</defs>
</svg>
