<svg width="500" height="360" viewBox="0 0 500 360" fill="none" xmlns="http://www.w3.org/2000/svg">
<path opacity="0.1" d="M229.114 339.24C343.87 339.24 436.897 332.017 436.897 323.106C436.897 314.196 343.87 306.973 229.114 306.973C114.359 306.973 21.3308 314.196 21.3308 323.106C21.3308 332.017 114.359 339.24 229.114 339.24Z" fill="#0A2647"/>
<path d="M478.747 115.372C480.221 114.685 481.646 113.896 483.011 113.011L467.204 101.463L485.783 111.031C489.541 108.045 492.65 104.324 494.92 100.094C497.19 95.8649 498.573 91.2166 498.983 86.4342L467.41 86.7569L499.052 81.467C498.724 76.6798 497.422 72.0101 495.224 67.7447C493.027 63.4792 489.98 59.7081 486.272 56.663C482.564 53.6179 478.272 51.363 473.661 50.037C469.049 48.7109 464.215 48.3416 459.456 48.9518C454.697 49.562 450.112 51.1388 445.985 53.5853C441.857 56.0318 438.273 59.2964 435.453 63.1785C432.633 67.0606 430.636 71.4783 429.586 76.1602C428.535 80.842 428.453 85.6893 429.344 90.4041C427.049 91.4713 424.875 92.7826 422.861 94.3153L439.361 117.259L419.551 97.1754C415.37 101.281 412.279 106.364 410.557 111.965C408.835 117.565 408.537 123.507 409.69 129.252C403.706 132.046 398.628 136.466 395.036 142.009C391.445 147.551 389.486 153.992 389.382 160.595C389.278 167.199 391.034 173.698 394.449 179.351C397.863 185.004 402.8 189.582 408.693 192.562C414.587 195.543 421.2 196.805 427.777 196.205C434.354 195.605 440.629 193.167 445.886 189.169C451.143 185.171 455.169 179.776 457.505 173.598C459.84 167.421 460.391 160.711 459.094 154.235C466.255 150.902 472.087 145.257 475.652 138.208C479.217 131.159 480.307 123.116 478.747 115.372Z" fill="#0A2647"/>
<path d="M441.875 240.902C438.237 236.101 436.008 230.416 433.441 224.959C432.41 222.72 431.256 220.539 429.984 218.428L428.058 216.184C427.735 216.457 427.413 216.741 427.08 217.039C425.493 216.782 423.879 216.735 422.279 216.897L420.162 226.534L420.035 217.245C417.605 217.777 415.31 218.8 413.289 220.25C411.268 221.699 409.563 223.546 408.28 225.677C406.997 227.808 406.162 230.178 405.826 232.643C405.489 235.107 405.659 237.615 406.325 240.011C406.991 242.408 408.138 244.644 409.697 246.582C411.257 248.52 413.195 250.12 415.393 251.284C417.591 252.448 420.004 253.151 422.483 253.351C424.963 253.55 427.457 253.242 429.813 252.445C430.065 252.9 430.449 253.268 430.913 253.501C431.392 253.745 431.934 253.834 432.466 253.758C432.997 253.682 433.492 253.444 433.884 253.076C434.275 252.708 434.543 252.229 434.652 251.703C434.761 251.177 434.705 250.631 434.492 250.138C435.326 249.565 436.111 248.924 436.839 248.221C440.576 248.826 444.408 248.259 447.81 246.598C445.539 245.03 443.535 243.107 441.875 240.902Z" fill="black"/>
<path d="M10.7071 191.606C9.96546 191.259 9.24836 190.862 8.56079 190.418L16.5201 184.6L7.16253 189.416C5.27054 187.911 3.70544 186.037 2.563 183.906C1.42056 181.776 0.724817 179.435 0.518354 177.027L16.4272 177.193L0.484131 174.524C0.621407 172.092 1.25807 169.714 2.35446 167.538C3.45084 165.363 4.98346 163.437 6.85681 161.879C8.73017 160.322 10.9041 159.168 13.2432 158.487C15.5824 157.807 18.0365 157.616 20.4528 157.925C22.8691 158.235 25.1958 159.038 27.2878 160.287C29.3799 161.535 31.1926 163.2 32.6129 165.179C34.0331 167.158 35.0307 169.409 35.5432 171.79C36.0558 174.172 36.0725 176.633 35.5922 179.022C36.747 179.556 37.8418 180.211 38.858 180.977L30.5467 192.535L40.5252 182.424C42.6308 184.493 44.1877 187.053 45.055 189.874C45.9223 192.696 46.0726 195.689 45.4924 198.583C48.511 199.989 51.0729 202.216 52.8853 205.009C54.6977 207.803 55.6873 211.05 55.7411 214.379C55.7949 217.709 54.9106 220.986 53.1893 223.837C51.4681 226.687 48.9794 228.996 46.0078 230.499C43.0363 232.001 39.7018 232.637 36.3857 232.334C33.0696 232.031 29.9058 230.801 27.256 228.784C24.6062 226.767 22.5774 224.046 21.4017 220.93C20.2259 217.815 19.9507 214.431 20.6073 211.167C17.0046 209.488 14.0702 206.647 12.2749 203.101C10.4796 199.555 9.92748 195.508 10.7071 191.611V191.606Z" fill="#0A2647"/>
<path opacity="0.1" d="M179.315 11.6896L174.005 15.0582L177.227 9.19136C176.313 8.46331 175.183 8.06073 174.015 8.04733H173.932C173.563 8.05183 173.195 8.02402 172.832 7.96421L171.028 9.10824L171.8 7.70509C170.529 7.26268 169.428 6.43354 168.652 5.33392L165.42 7.35308L167.454 3.6521C165.571 1.38848 163.029 0 160.238 0C156.889 0 153.882 1.99472 151.975 5.09925C151.405 6.02655 150.599 6.78638 149.64 7.30158C148.681 7.81678 147.602 8.06901 146.514 8.03266H146.353C142.657 8.03266 139.655 12.2225 139.655 17.4C139.655 22.5775 142.657 26.7625 146.353 26.7625C147.166 26.76 147.966 26.5604 148.685 26.1807C149.944 25.5676 151.321 25.236 152.721 25.209C154.12 25.182 155.509 25.4602 156.791 26.0243C157.876 26.5062 159.05 26.7552 160.238 26.7552C161.425 26.7552 162.599 26.5062 163.684 26.0243C164.956 25.4722 166.332 25.2004 167.718 25.2274C169.104 25.2544 170.468 25.5795 171.717 26.1807C172.43 26.5502 173.221 26.7446 174.025 26.7478C177.726 26.7478 180.723 22.5579 180.723 17.3854C180.736 15.3991 180.251 13.4411 179.315 11.6896Z" fill="#0A2647"/>
<path opacity="0.1" d="M73.1152 73.53L65.5274 78.3408L70.1329 69.9659C68.8277 68.924 67.212 68.3476 65.5421 68.3281H65.4199C64.8927 68.3358 64.3658 68.2965 63.8456 68.2107L61.2838 69.8681L62.3887 67.8636C60.5655 67.2265 58.991 66.0285 57.8908 64.4413L53.2853 67.3747L56.1845 62.0457C53.4907 58.814 49.863 56.834 45.8736 56.834C41.0872 56.834 36.824 59.6794 34.0715 64.1137C33.2562 65.4444 32.1027 66.535 30.7285 67.2745C29.3544 68.014 27.8087 68.3758 26.249 68.3232H25.9899C20.7049 68.3232 16.4221 74.3122 16.4221 81.7044C16.4221 89.0966 20.7049 95.0857 25.9899 95.0857C27.1529 95.0826 28.2974 94.7956 29.3242 94.2496C31.1224 93.3755 33.0891 92.9027 35.0881 92.8639C37.0871 92.825 39.0707 93.2211 40.9014 94.0248C42.449 94.72 44.1256 95.0815 45.8221 95.0857C47.5186 95.0899 49.197 94.7367 50.7479 94.0492C52.5652 93.2604 54.5309 92.8719 56.5116 92.9098C58.4923 92.9478 60.4416 93.4114 62.2273 94.2692C63.2444 94.8015 64.3746 95.0815 65.5225 95.0857C70.8076 95.0857 75.0904 89.0917 75.0904 81.7044C75.1272 78.8572 74.448 76.0463 73.1152 73.53Z" fill="#0A2647"/>
<path opacity="0.1" d="M355.671 30.757L360.981 34.1158L357.754 28.2489C358.668 27.5215 359.798 27.119 360.966 27.1049H361.054C361.422 27.1091 361.791 27.0813 362.154 27.0218L363.953 28.1658L363.181 26.7627C364.461 26.3276 365.573 25.5017 366.359 24.4013L369.58 26.4449L367.542 22.7439C369.429 20.4803 371.942 19.0918 374.763 19.0918C378.112 19.0918 381.119 21.0865 383.025 24.191C383.595 25.1187 384.401 25.8788 385.36 26.394C386.32 26.9093 387.398 27.1613 388.486 27.1245H388.662C392.363 27.1245 395.36 31.3143 395.36 36.4918C395.36 41.6693 392.363 45.8543 388.662 45.8543C387.85 45.8507 387.05 45.6511 386.33 45.2725C385.072 44.6594 383.694 44.3278 382.295 44.3008C380.895 44.2738 379.506 44.552 378.224 45.116C377.14 45.5979 375.967 45.8468 374.78 45.8468C373.593 45.8468 372.42 45.5979 371.336 45.116C370.063 44.5638 368.687 44.292 367.3 44.319C365.913 44.346 364.548 44.6712 363.298 45.2725C362.585 45.6426 361.794 45.837 360.99 45.8396C357.294 45.8396 354.293 41.6497 354.293 36.4771C354.266 34.4851 354.74 32.5184 355.671 30.757Z" fill="#0A2647"/>
<path d="M271.556 323.595L184.438 322.475L184.697 320.241L188.907 283.383H265.415L271.042 320.241L271.473 323.038L271.556 323.595Z" fill="#D0D2D5"/>
<path d="M383.524 66.9844H72.47V242.896H383.524V66.9844Z" fill="white"/>
<path d="M207.549 145.786C207.245 145.656 206.956 145.492 206.688 145.297C206.283 144.966 205.959 144.546 205.74 144.07C206.02 143.496 206.137 142.856 206.08 142.219C206.022 141.583 205.793 140.974 205.415 140.458C205.037 139.943 204.525 139.54 203.936 139.294C203.346 139.048 202.7 138.968 202.068 139.061C201.436 139.155 200.841 139.42 200.349 139.827C199.856 140.234 199.483 140.767 199.272 141.37C199.06 141.973 199.017 142.623 199.147 143.248C199.277 143.874 199.575 144.452 200.01 144.921C200.255 145.181 200.535 145.406 200.841 145.591C201.239 145.821 201.563 146.16 201.775 146.568C202.175 147.376 202.726 148.1 203.398 148.7C204.088 149.292 204.833 149.816 205.622 150.265C204.535 153.342 203.919 156.566 203.794 159.827C202.53 159.849 201.275 160.051 200.069 160.429C199.451 160.621 198.868 160.911 198.343 161.289C198.202 161.272 198.06 161.262 197.917 161.26C197.276 161.26 196.647 161.435 196.098 161.768C195.549 162.1 195.101 162.576 194.804 163.144C194.506 163.712 194.369 164.351 194.409 164.991C194.448 165.631 194.662 166.249 195.027 166.776C195.392 167.304 195.895 167.721 196.48 167.983C197.066 168.246 197.712 168.343 198.349 168.264C198.985 168.185 199.588 167.934 200.092 167.537C200.596 167.14 200.982 166.613 201.208 166.012C201.347 165.625 201.589 165.283 201.909 165.025C202.229 164.766 202.614 164.6 203.022 164.545C203.322 164.509 203.624 164.49 203.926 164.487C204.346 169.087 205.773 173.539 208.106 177.526C206.033 179.134 204.757 180.889 204.219 182.835C204.119 182.891 204.025 182.958 203.941 183.036C203.793 183.151 203.656 183.279 203.53 183.417C203.111 183.878 202.822 184.441 202.693 185.051C202.564 185.66 202.599 186.292 202.795 186.883C202.991 187.474 203.341 188.003 203.808 188.414C204.276 188.825 204.844 189.105 205.455 189.224C206.066 189.343 206.698 189.298 207.286 189.092C207.874 188.887 208.396 188.528 208.8 188.054C209.203 187.58 209.474 187.007 209.583 186.394C209.692 185.781 209.636 185.15 209.421 184.566C209.262 184.142 209.231 183.68 209.332 183.238C209.434 182.796 209.664 182.394 209.993 182.082C210.228 181.862 210.482 181.628 210.824 181.369C214.789 185.998 219.507 188.966 225.399 189.318V157.906C217.61 157.481 210.824 152.411 207.549 145.786ZM256.356 161.294C256.214 161.296 256.072 161.306 255.93 161.324C255.4 160.954 254.819 160.664 254.205 160.463C252.998 160.084 251.744 159.882 250.479 159.862C250.344 156.603 249.727 153.382 248.651 150.304C249.441 149.855 250.186 149.331 250.875 148.739C251.569 148.105 252.139 147.347 252.557 146.505C252.753 146.139 253.055 145.841 253.422 145.649C254.019 145.314 254.504 144.812 254.819 144.204C255.134 143.597 255.264 142.911 255.194 142.23C255.124 141.549 254.857 140.904 254.425 140.373C253.993 139.843 253.415 139.45 252.763 139.243C252.111 139.036 251.412 139.025 250.754 139.21C250.095 139.395 249.505 139.768 249.055 140.284C248.606 140.8 248.317 141.436 248.224 142.114C248.132 142.792 248.239 143.482 248.533 144.1C248.318 144.577 247.993 144.998 247.585 145.327C247.311 145.553 247.023 145.764 246.724 145.957C243.449 152.577 236.668 157.505 228.889 157.931V189.372C234.756 189.02 239.503 186.038 243.463 181.422C243.771 181.667 244.031 181.887 244.251 182.092C244.594 182.41 244.835 182.823 244.945 183.278C245.054 183.732 245.027 184.21 244.867 184.649C244.653 185.233 244.598 185.863 244.707 186.475C244.816 187.087 245.086 187.659 245.489 188.132C245.892 188.605 246.413 188.963 247 189.169C247.586 189.375 248.217 189.422 248.827 189.304C249.438 189.186 250.006 188.909 250.474 188.499C250.942 188.09 251.292 187.564 251.49 186.974C251.688 186.385 251.726 185.754 251.6 185.145C251.474 184.536 251.188 183.972 250.773 183.51C250.647 183.371 250.509 183.244 250.362 183.129C250.201 183.001 250.083 182.928 250.083 182.928C249.545 180.972 248.274 179.227 246.172 177.619C248.505 173.632 249.932 169.18 250.352 164.58C250.641 164.583 250.93 164.603 251.217 164.638C251.634 164.692 252.028 164.857 252.359 165.115C252.69 165.372 252.946 165.715 253.1 166.105C253.392 166.849 253.929 167.471 254.622 167.868C255.316 168.266 256.124 168.414 256.913 168.29C257.703 168.166 258.426 167.776 258.964 167.185C259.502 166.594 259.822 165.837 259.871 165.039C259.895 164.56 259.823 164.081 259.658 163.631C259.493 163.181 259.238 162.768 258.91 162.419C258.582 162.069 258.187 161.789 257.748 161.596C257.309 161.403 256.835 161.3 256.356 161.294Z" fill="#0A2647"/>
<path d="M177.642 188.002C173.775 191.865 173.311 193.566 170.989 194.333C168.666 195.101 160.311 199.428 162.936 204.224L169.996 208.888L170.201 209.025L171.282 212.271L160.604 231.28C160.604 231.28 143.004 223.232 141.278 235.137C139.552 247.042 140.647 250.293 140.183 256.649C139.718 263.005 140.334 264.843 138.785 264.843C137.235 264.843 136.624 260.668 136.624 260.668C136.624 260.668 136.526 260.477 136.355 260.12C134.052 255.334 118.422 220.196 143.458 196.045C143.458 196.045 155.055 195.282 157.847 181.984C159.773 172.792 166.51 173.584 170.989 175.457C172.444 176.028 173.8 176.825 175.007 177.818C176.093 178.847 177.059 179.995 177.887 181.241C179.163 183.255 179.857 185.783 177.642 188.002Z" fill="#D0D2D5"/>
<path opacity="0.1" d="M367.615 311.944L366.359 313.792C366.359 313.792 365.87 317.039 357.857 313.015C349.844 308.991 161.572 229.55 161.572 229.55L160.296 225.717L367.615 311.944Z" fill="black"/>
<path d="M281.29 298.519C282.126 299.521 283.597 299.717 284.883 299.497C287.89 299.008 290.349 296.793 293.292 295.996C296.9 295.018 300.719 296.275 304.126 297.815C307.534 299.355 310.922 301.237 314.647 301.501C311.279 293.992 313.205 284.957 309.983 277.384C309.196 275.531 308.096 273.746 307.92 271.742C307.7 269.253 308.942 266.853 309.133 264.379C309.309 262.174 308.644 259.979 308.008 257.876C307.223 255.295 306.437 252.714 305.652 250.132C304.772 247.243 303.867 244.305 302.161 241.821C301.53 240.907 301.34 239.054 300.381 238.501C298.289 237.294 295.116 238.814 292.847 238.897C290.579 238.98 288.511 240.594 287.186 242.417C285.783 244.344 284.986 246.637 284.252 248.905C283.085 252.283 282.213 255.756 281.647 259.285C281.573 259.813 281.51 260.341 281.461 260.873C280.972 265.894 281.686 270.945 281.725 275.99V276.025C281.774 282.424 280.747 288.785 280.556 295.18C280.537 296.348 280.566 297.624 281.29 298.519Z" fill="#2F2E41"/>
<path opacity="0.1" d="M388.418 286.991C388.417 288.969 389.086 290.888 390.315 292.437C389.295 293.736 388.661 295.295 388.485 296.936C388.309 298.578 388.599 300.236 389.321 301.721C390.042 303.206 391.167 304.458 392.567 305.333C393.967 306.209 395.584 306.674 397.235 306.674C398.886 306.674 400.504 306.209 401.904 305.333C403.303 304.458 404.428 303.206 405.15 301.721C405.872 300.236 406.161 298.578 405.986 296.936C405.81 295.295 405.176 293.736 404.156 292.437C405.324 290.936 388.418 286.003 388.418 286.991Z" fill="black"/>
<path opacity="0.1" d="M59.4456 331.432C59.446 334.27 60.4018 337.025 62.159 339.254C60.688 341.124 59.7729 343.37 59.5183 345.736C59.2638 348.101 59.68 350.491 60.7194 352.631C61.7588 354.771 63.3794 356.575 65.396 357.838C67.4125 359.1 69.7437 359.769 72.1228 359.769C74.5019 359.769 76.8331 359.1 78.8496 357.838C80.8662 356.575 82.4868 354.771 83.5262 352.631C84.5656 350.491 84.9818 348.101 84.7272 345.736C84.4727 343.37 83.5576 341.124 82.0866 339.254C83.7733 337.093 59.4456 329.99 59.4456 331.432Z" fill="black"/>
</svg>
