<svg width="500" height="298" viewBox="0 0 500 298" fill="none" xmlns="http://www.w3.org/2000/svg">
<g clip-path="url(#clip0_769_5425)">
<path d="M416.337 295.415C411.767 291.553 408.991 285.453 409.719 279.514C410.447 273.576 414.956 268.116 420.804 266.855C426.653 265.594 433.32 269.085 435.097 274.798C436.074 263.783 437.201 252.307 443.057 242.927C448.36 234.433 457.544 228.355 467.498 227.268C477.452 226.181 487.932 230.287 494.14 238.144C500.348 246 501.868 257.422 497.52 266.442C494.317 273.086 488.416 278.031 482.234 282.054C462.255 294.944 438.294 300.186 414.759 296.815" fill="#F2F2F2"/>
<path d="M484.297 230.515C476.084 237.205 468.549 244.687 461.802 252.853C451.243 265.589 442.698 279.868 436.466 295.193C436.009 296.311 437.825 296.798 438.276 295.692C448.473 270.786 464.753 248.833 485.625 231.843C486.562 231.08 485.227 229.758 484.297 230.515Z" fill="white"/>
<path d="M245.715 18.8031C245.715 18.9378 245.661 19.0668 245.566 19.162C245.471 19.2572 245.342 19.3109 245.207 19.3113H244.963C244.587 18.9861 244.221 18.6456 243.865 18.2949H245.207C245.342 18.2953 245.471 18.349 245.566 18.4442C245.661 18.5394 245.715 18.6685 245.715 18.8031Z" fill="#F2F2F2"/>
<path d="M257.912 0H130.353C129.41 0.00104785 128.506 0.376177 127.839 1.04309C127.172 1.71001 126.797 2.61424 126.796 3.5574V72.6727C126.797 73.6158 127.172 74.5201 127.839 75.187C128.506 75.8539 129.41 76.229 130.353 76.2301H257.912C258.855 76.229 259.759 75.8539 260.426 75.187C261.093 74.5201 261.468 73.6158 261.469 72.6727V3.5574C261.468 2.61424 261.093 1.71001 260.426 1.04309C259.759 0.376177 258.855 0.00104785 257.912 0ZM260.453 72.6727C260.452 73.3465 260.185 73.9927 259.708 74.4691C259.232 74.9456 258.585 75.2134 257.912 75.2137H130.353C129.679 75.2134 129.033 74.9456 128.557 74.4691C128.08 73.9927 127.813 73.3465 127.812 72.6727V3.5574C127.813 2.88357 128.08 2.23741 128.557 1.76094C129.033 1.28446 129.679 1.01667 130.353 1.0164H257.912C258.585 1.01667 259.232 1.28446 259.708 1.76094C260.185 2.23741 260.452 2.88357 260.453 3.5574V72.6727Z" fill="#3F3D56"/>
<path d="M180.523 30.0647C179.003 26.4158 176.64 23.3768 173.204 21.3643C169.601 19.2451 165.48 17.4817 161.333 16.8465C157.182 16.2327 152.949 16.4696 148.892 17.5427C148.364 17.6799 147.815 17.8273 147.266 17.9899C145.839 18.3583 144.483 18.9592 143.251 19.7686C143.21 19.794 143.17 19.8194 143.129 19.8499C141.554 21.0086 140.476 22.9194 139.592 24.6321C138.754 26.2736 138.225 28.0828 138.682 29.9174C139.178 31.5909 140.21 33.055 141.62 34.0846C142.601 34.8571 143.886 35.8328 145.197 35.8531C145.508 35.8601 145.816 35.8083 146.107 35.7007C146.198 35.6687 146.285 35.626 146.366 35.5736C146.895 35.7323 147.441 35.8228 147.993 35.843C150.224 35.9446 152.455 34.9994 154.747 34.2269C155.284 34.0394 155.834 33.8917 156.393 33.7848C157.394 33.5669 158.433 33.6019 159.417 33.8864C159.599 33.9377 159.777 34.0005 159.951 34.0744C161.649 34.8706 163.081 36.1392 164.077 37.7284C165.048 39.1717 165.688 40.8132 166.755 42.2006C167.285 42.9156 167.959 43.5112 168.734 43.949C169.509 44.3867 170.367 44.6568 171.253 44.7416C173.916 45.0363 177.26 44.894 179.552 43.2932C180.174 42.8683 180.707 42.3263 181.122 41.6975C181.163 41.6365 181.203 41.5755 181.239 41.5145C183.348 38.0435 181.966 33.5154 180.523 30.0647ZM145.411 24.7337C145.919 24.7896 146.432 24.8506 146.941 24.9065C145.969 25.0801 145.059 25.5059 144.303 26.1414C144.016 26.3853 143.749 26.6521 143.505 26.9393C143.515 26.919 143.515 26.8936 143.525 26.8732C143.674 26.4055 143.919 25.9738 144.244 25.6055C144.568 25.2372 144.966 24.9404 145.411 24.7337ZM176.05 37.642C176.142 37.6217 176.238 37.6064 176.33 37.5912C176.476 37.5684 176.615 37.5128 176.736 37.4285C176.736 37.4438 176.742 37.4641 176.742 37.4794C176.742 37.5474 176.747 37.6153 176.757 37.6826C176.731 37.7233 176.711 37.764 176.686 37.8046C176.472 37.7487 176.264 37.6928 176.05 37.642ZM174.632 25.2826C175.758 26.3452 176.715 27.572 177.473 28.9213C176.576 27.8253 175.585 26.8101 174.511 25.8873C174.591 25.6959 174.633 25.4903 174.632 25.2826ZM173.398 39.7002C173.354 39.7746 173.321 39.8551 173.301 39.9391C173.164 39.9441 173.021 39.9492 172.879 39.9492H172.808C172.803 39.9289 172.793 39.9035 172.788 39.8832C172.757 39.7917 172.732 39.7002 172.701 39.6087C172.935 39.6392 173.164 39.6697 173.398 39.7002ZM162.532 28.3013C162.546 28.1985 162.549 28.0947 162.542 27.9913C162.654 28.0757 162.785 28.1315 162.923 28.1539C162.939 28.159 162.959 28.159 162.974 28.164C163.071 28.22 163.162 28.2708 163.259 28.3267L163.228 28.3724C162.995 28.347 162.761 28.3267 162.532 28.3013ZM170.582 25.7704H170.567C170.232 25.5621 169.896 25.3537 169.556 25.1555C169.901 25.3486 170.247 25.557 170.582 25.7704ZM168.712 35.2941C168.66 35.3467 168.615 35.4066 168.58 35.472C168.554 35.4364 168.534 35.4059 168.509 35.3703C168.573 35.3358 168.641 35.3101 168.712 35.2941ZM164.158 25.3385C164.046 25.2488 163.921 25.1752 163.787 25.1199C163.133 24.8674 162.462 24.6586 161.78 24.4948C161.678 24.3983 161.577 24.3017 161.48 24.2001C162.057 24.3117 162.627 24.4559 163.188 24.6321C163.906 24.8623 164.61 25.1338 165.297 25.4452C164.916 25.4045 164.54 25.3689 164.158 25.3385ZM160.286 18.9656C161.748 19.1608 163.189 19.4909 164.59 19.9515C164.448 19.916 164.306 19.8855 164.164 19.8499C162.817 19.545 161.445 19.2197 160.062 18.9402C160.139 18.9504 160.21 18.9555 160.286 18.9656Z" fill="#CCCCCC"/>
<path d="M165.761 58.4314C164.479 58.3957 162.884 58.3508 161.656 57.4536C161.29 57.1753 160.989 56.8204 160.775 56.4137C160.561 56.0071 160.438 55.5584 160.415 55.0993C160.393 54.7731 160.446 54.4461 160.572 54.1439C160.697 53.8418 160.89 53.5727 161.136 53.3576C161.502 53.0843 161.931 52.907 162.383 52.8419C162.836 52.7768 163.297 52.826 163.725 52.9849L162.679 45.3377L163.447 45.2324L164.677 54.2227L164.036 53.9284C163.292 53.5872 162.271 53.4139 161.637 53.9497C161.481 54.0898 161.36 54.2639 161.282 54.4586C161.205 54.6532 161.173 54.863 161.19 55.0719C161.209 55.4136 161.301 55.7473 161.46 56.0502C161.619 56.3531 161.842 56.6182 162.113 56.8274C163.069 57.5258 164.34 57.6159 165.783 57.6565L165.761 58.4314Z" fill="#3F3D56"/>
<path d="M158.88 45.9961H154.704V46.7714H158.88V45.9961Z" fill="#3F3D56"/>
<path d="M172.061 45.9961H167.885V46.7714H172.061V45.9961Z" fill="#3F3D56"/>
<path d="M147.449 35.2909C144.086 34.9074 141.482 31.6854 141.196 28.4163C140.855 24.5271 143.12 20.8333 146.228 18.6509C149.477 16.3685 153.526 15.4154 157.443 15.2056C165.084 14.8254 172.594 17.3007 178.512 22.1502C181.447 24.5881 184.189 27.6935 185.228 31.4444C186.13 34.702 185.396 38.3924 182.776 40.6738C182.128 41.2329 181.371 41.6516 180.553 41.9035C179.735 42.1554 178.873 42.2349 178.023 42.1372C175.99 41.9261 174.114 40.8572 172.491 39.6767C169.332 37.3803 166.74 34.1813 162.892 32.9813C160.07 32.1014 156.409 32.8759 154.685 35.4273C154.294 36.0114 154.04 36.6766 153.943 37.3729C153.908 37.5214 153.93 37.6779 154.005 37.8107C154.081 37.9435 154.204 38.0427 154.35 38.0883C154.498 38.1283 154.657 38.1081 154.791 38.0321C154.925 37.9561 155.023 37.8303 155.065 37.6821C155.518 34.4685 159.469 33.2694 162.242 34.0033C166.285 35.0733 168.999 38.681 172.316 40.9731C174.033 42.2533 176.055 43.0607 178.182 43.3146C180.026 43.4593 181.856 42.8971 183.301 41.7422C186.134 39.5046 187.218 35.656 186.591 32.1909C185.866 28.1784 183.165 24.7394 180.202 22.0769C174.194 16.7362 166.395 13.8552 158.359 14.0077C154.26 14.1019 149.983 14.9481 146.451 17.1146C143.026 19.2161 140.378 22.732 140.032 26.8188C139.728 30.416 141.658 34.1784 144.971 35.7544C145.752 36.1244 146.589 36.3608 147.449 36.4539C148.191 36.5385 148.185 35.3748 147.449 35.2909Z" fill="#3F3D56"/>
<path d="M245.715 18.8031C245.715 18.9378 245.661 19.0668 245.566 19.162C245.471 19.2572 245.342 19.3109 245.207 19.3113H203.535C203.4 19.3113 203.271 19.2578 203.175 19.1625C203.08 19.0672 203.026 18.9379 203.026 18.8031C203.026 18.6683 203.08 18.5391 203.175 18.4438C203.271 18.3485 203.4 18.2949 203.535 18.2949H245.207C245.342 18.2953 245.471 18.349 245.566 18.4442C245.661 18.5394 245.715 18.6685 245.715 18.8031Z" fill="#3F3D56"/>
<path d="M245.207 26.9344H203.535C203.4 26.9344 203.271 26.8808 203.175 26.7855C203.08 26.6902 203.026 26.561 203.026 26.4262C203.026 26.2914 203.08 26.1621 203.175 26.0668C203.271 25.9715 203.4 25.918 203.535 25.918H245.207C245.342 25.918 245.471 25.9715 245.566 26.0668C245.662 26.1621 245.715 26.2914 245.715 26.4262C245.715 26.561 245.662 26.6902 245.566 26.7855C245.471 26.8808 245.342 26.9344 245.207 26.9344Z" fill="#3F3D56"/>
<path d="M245.207 34.5574H203.535C203.4 34.5574 203.271 34.5039 203.175 34.4086C203.08 34.3133 203.026 34.184 203.026 34.0492C203.026 33.9144 203.08 33.7852 203.175 33.6899C203.271 33.5946 203.4 33.541 203.535 33.541H245.207C245.342 33.541 245.471 33.5946 245.566 33.6899C245.662 33.7852 245.715 33.9144 245.715 34.0492C245.715 34.184 245.662 34.3133 245.566 34.4086C245.471 34.5039 245.342 34.5574 245.207 34.5574Z" fill="#3F3D56"/>
<path d="M245.207 42.1805H203.535C203.4 42.1805 203.271 42.1269 203.175 42.0316C203.08 41.9363 203.026 41.807 203.026 41.6723C203.026 41.5375 203.08 41.4082 203.175 41.3129C203.271 41.2176 203.4 41.1641 203.535 41.1641H245.207C245.342 41.1641 245.471 41.2176 245.566 41.3129C245.662 41.4082 245.715 41.5375 245.715 41.6723C245.715 41.807 245.662 41.9363 245.566 42.0316C245.471 42.1269 245.342 42.1805 245.207 42.1805Z" fill="#3F3D56"/>
<path d="M245.207 49.8035H203.535C203.4 49.8035 203.271 49.75 203.175 49.6547C203.08 49.5593 203.026 49.4301 203.026 49.2953C203.026 49.1605 203.08 49.0313 203.175 48.936C203.271 48.8407 203.4 48.7871 203.535 48.7871H245.207C245.342 48.7871 245.471 48.8407 245.566 48.936C245.662 49.0313 245.715 49.1605 245.715 49.2953C245.715 49.4301 245.662 49.5593 245.566 49.6547C245.471 49.75 245.342 49.8035 245.207 49.8035Z" fill="#3F3D56"/>
<path d="M245.207 57.4266H203.535C203.4 57.4266 203.271 57.373 203.175 57.2777C203.08 57.1824 203.026 57.0531 203.026 56.9184C203.026 56.7836 203.08 56.6543 203.175 56.559C203.271 56.4637 203.4 56.4102 203.535 56.4102H245.207C245.342 56.4102 245.471 56.4637 245.566 56.559C245.662 56.6543 245.715 56.7836 245.715 56.9184C245.715 57.0531 245.662 57.1824 245.566 57.2777C245.471 57.373 245.342 57.4266 245.207 57.4266Z" fill="#3F3D56"/>
<path d="M94.5919 125.3C93.1756 125.304 91.8083 124.782 90.7547 123.836C90.165 123.31 89.6891 122.669 89.356 121.953C89.023 121.236 88.8399 120.459 88.818 119.669L66.266 103.268C65.5855 102.773 65.0204 102.136 64.6095 101.402C64.1987 100.668 63.9518 99.8532 63.886 99.0144C63.8202 98.1756 63.937 97.3325 64.2283 96.5432C64.5196 95.7539 64.9786 95.0371 65.5735 94.4421L82.3635 77.6521C83.0553 76.9603 83.9368 76.4891 84.8965 76.2982C85.8561 76.1073 86.8508 76.2053 87.7548 76.5797C88.6587 76.9541 89.4313 77.5882 89.9749 78.4018C90.5185 79.2153 90.8086 80.1718 90.8086 81.1502C90.6714 83.7169 89.6598 86.1593 87.9418 88.0712L76.5416 99.4715L94.4346 113.734C94.4897 113.73 94.5449 113.727 94.6009 113.727C96.0782 113.727 97.4997 114.292 98.5739 115.306C99.6481 116.321 100.294 117.707 100.379 119.182C100.463 120.657 99.9807 122.108 99.0297 123.239C98.0787 124.37 96.7313 125.094 95.2637 125.263C95.0406 125.288 94.8164 125.3 94.5919 125.3Z" fill="#FFB8B8"/>
<path d="M121.39 222.176L127.442 219.917L121.608 195.502L112.677 198.836L121.39 222.176Z" fill="#FFB8B8"/>
<path d="M141.209 221.18L122.191 228.28L119.448 220.932L131.378 216.478C133.258 215.776 135.339 215.85 137.165 216.683C138.99 217.516 140.41 219.04 141.112 220.919L141.209 221.18Z" fill="#2F2E41"/>
<path d="M66.9512 223.285H73.4104L76.483 198.371L66.9502 198.372L66.9512 223.285Z" fill="#FFB8B8"/>
<path d="M85.8672 229.281L65.567 229.282L65.5667 221.439L78.3013 221.438C80.3078 221.438 82.2322 222.235 83.651 223.654C85.0699 225.073 85.8671 226.997 85.8672 229.004L85.8672 229.281Z" fill="#2F2E41"/>
<path d="M73.9221 216.486C73.8497 216.486 73.777 216.483 73.704 216.476L66.8571 215.823C66.3017 215.77 65.7849 215.516 65.4038 215.109C65.0227 214.702 64.8036 214.169 64.7878 213.611C64.3927 198.784 63.3974 123.95 82.6548 106.801C82.9886 106.507 83.4025 106.32 83.8434 106.264C87.3316 105.786 99.0998 104.613 104.081 109.623C104.397 109.939 104.616 110.338 104.712 110.774L126.518 211.595C126.585 211.905 126.587 212.226 126.523 212.537C126.459 212.848 126.332 213.142 126.148 213.401C125.964 213.66 125.729 213.878 125.457 214.041C125.184 214.204 124.881 214.308 124.566 214.348L116.205 215.393C115.904 215.431 115.597 215.408 115.304 215.326C115.011 215.244 114.737 215.104 114.499 214.915C114.261 214.726 114.062 214.491 113.916 214.224C113.77 213.957 113.679 213.664 113.647 213.361C112.815 205.257 107.817 164.091 91.0652 149.499C90.8385 149.3 90.5653 149.161 90.2709 149.094C89.9764 149.028 89.67 149.037 89.3798 149.12C89.0956 149.199 88.8361 149.349 88.6258 149.556C88.4156 149.763 88.2615 150.02 88.1782 150.303C85.0771 160.45 75.0486 195.035 76.2011 214.062C76.2203 214.373 76.1757 214.685 76.0698 214.978C75.964 215.272 75.7992 215.54 75.5857 215.767C75.3722 215.994 75.1145 216.175 74.8283 216.299C74.5422 216.422 74.2338 216.486 73.9221 216.486Z" fill="#2F2E41"/>
<path d="M87.0991 65.5478C93.9927 65.5478 99.581 59.9595 99.581 53.0659C99.581 46.1723 93.9927 40.584 87.0991 40.584C80.2055 40.584 74.6172 46.1723 74.6172 53.0659C74.6172 59.9595 80.2055 65.5478 87.0991 65.5478Z" fill="#FFB8B8"/>
<path d="M74.8438 76.5737C74.8438 76.5737 86.4346 62.8754 95.918 73.9394C102.02 81.0583 105.247 90.1972 104.969 99.5691L104.611 111.61L82.7466 108.185L74.8438 76.5737Z" fill="#0A2647"/>
<path d="M105.304 103.117C105.213 103.117 105.121 103.115 105.03 103.111C104.096 103.072 103.182 102.831 102.35 102.405C101.518 101.978 100.788 101.376 100.212 100.64L86.0251 82.5516C85.4213 81.7817 85.0593 80.85 84.985 79.8744C84.9107 78.8988 85.1273 77.9231 85.6075 77.0706C86.0877 76.2181 86.8099 75.5271 87.6827 75.0851C88.5556 74.643 89.54 74.4697 90.5113 74.5871L92.5087 74.8286C93.7841 75.0524 94.9445 75.7061 95.797 76.681L106.988 90.9498L123.295 74.8978C123.298 74.8427 123.302 74.7876 123.308 74.732C123.445 73.6023 123.911 72.5379 124.649 71.6719C125.387 70.8058 126.364 70.1766 127.458 69.8629C128.552 69.5492 129.714 69.565 130.798 69.9082C131.883 70.2515 132.843 70.9069 133.557 71.7927C134.272 72.6784 134.709 73.7551 134.814 74.8881C134.92 76.0211 134.689 77.16 134.151 78.1625C133.613 79.165 132.791 79.9865 131.788 80.5244C130.785 81.0622 129.646 81.2924 128.513 81.1863L110.039 101.053C109.434 101.704 108.701 102.224 107.886 102.579C107.072 102.934 106.192 103.117 105.304 103.117Z" fill="#FFB8B8"/>
<path d="M89.123 55.2256L94.4857 48.9078C95.8677 47.2796 97.3133 45.5062 97.5087 43.3795C97.723 41.0483 96.305 38.7823 94.3665 37.4698C92.4279 36.1573 90.0475 35.6634 87.7135 35.4822C83.3845 35.146 78.8293 35.8614 75.2706 38.3491C71.7119 40.8368 69.3837 45.3281 70.2514 49.5825C70.9346 52.9323 73.4522 56.1413 72.4737 59.4172C71.403 63.0015 67.0122 64.1012 63.4273 65.1701C57.41 66.9642 51.6643 70.4961 48.5108 75.9259C45.3574 81.3556 45.3711 88.8426 49.5748 93.507C52.2968 96.5272 56.4022 98.0545 60.4616 98.2844C64.5209 98.5142 68.5613 97.5582 72.4112 96.2505C75.9567 95.0461 79.4639 93.4971 82.2552 91.0012C85.0466 88.5053 87.0574 84.9335 86.9703 81.1901C86.8874 77.6226 84.9764 74.3728 84.1913 70.8918C83.5721 67.9768 83.7346 64.95 84.6623 62.1181C85.5901 59.2862 87.2502 56.75 89.4742 54.7666" fill="#2F2E41"/>
<path d="M349.388 181.427H221.83C220.887 181.426 219.982 181.051 219.316 180.384C218.649 179.717 218.274 178.813 218.272 177.87V108.755C218.274 107.812 218.649 106.907 219.316 106.24C219.982 105.573 220.887 105.198 221.83 105.197H349.388C350.331 105.198 351.236 105.573 351.902 106.24C352.569 106.907 352.945 107.812 352.946 108.755V177.87C352.945 178.813 352.569 179.717 351.902 180.384C351.236 181.051 350.331 181.426 349.388 181.427ZM221.83 106.214C221.156 106.214 220.51 106.482 220.034 106.959C219.558 107.435 219.29 108.081 219.289 108.755V177.87C219.29 178.544 219.558 179.189 220.034 179.666C220.51 180.142 221.156 180.41 221.83 180.411H349.388C350.062 180.41 350.708 180.142 351.184 179.666C351.66 179.189 351.928 178.544 351.929 177.87V108.755C351.928 108.081 351.66 107.435 351.184 106.959C350.708 106.482 350.062 106.214 349.388 106.214H221.83Z" fill="#3F3D56"/>
<path d="M272.001 135.262C270.478 131.617 268.114 128.577 264.681 126.562C261.075 124.444 256.958 122.681 252.811 122.045C248.659 121.432 244.426 121.669 240.369 122.742C238.413 123.248 236.257 123.837 234.607 125.05C233.03 126.209 231.95 128.116 231.07 129.83C230.228 131.471 229.703 133.279 230.159 135.118C230.655 136.792 231.687 138.256 233.098 139.285C234.299 140.233 235.978 141.489 237.584 140.901C237.675 140.867 237.762 140.823 237.843 140.77C240.616 141.614 243.373 140.387 246.22 139.426C247.95 138.842 249.69 138.547 251.428 139.275C253.125 140.07 254.558 141.337 255.554 142.925C256.526 144.372 257.166 146.014 258.232 147.4C258.762 148.114 259.436 148.709 260.21 149.146C260.984 149.583 261.842 149.853 262.727 149.939C266.167 150.324 270.732 149.969 272.714 146.712C274.826 143.242 273.444 138.716 272.001 135.262ZM236.888 129.932C237.398 129.99 237.908 130.047 238.418 130.105C237.446 130.28 236.537 130.707 235.78 131.342C235.493 131.585 235.226 131.851 234.983 132.139C234.99 132.115 234.994 132.093 235.001 132.07C235.151 131.603 235.396 131.171 235.721 130.804C236.046 130.436 236.443 130.139 236.888 129.932ZM254.016 133.19C254.129 133.275 254.261 133.331 254.401 133.354C254.417 133.357 254.433 133.36 254.45 133.362C254.545 133.417 254.64 133.471 254.735 133.524C254.724 133.539 254.716 133.556 254.706 133.571C254.473 133.547 254.239 133.524 254.006 133.5C254.023 133.398 254.026 133.293 254.016 133.19ZM260.19 140.491C260.139 140.545 260.093 140.605 260.055 140.67C260.032 140.637 260.009 140.603 259.986 140.57C260.049 140.533 260.118 140.506 260.19 140.491ZM264.178 144.807C264.409 144.837 264.64 144.867 264.872 144.898C264.829 144.973 264.797 145.054 264.777 145.138C264.614 145.144 264.448 145.146 264.283 145.147L264.178 144.807ZM267.527 142.839L267.806 142.791C267.952 142.767 268.091 142.712 268.214 142.629C268.215 142.645 268.216 142.661 268.217 142.678C268.219 142.734 268.224 142.803 268.231 142.882C268.208 142.922 268.185 142.962 268.161 143.001C267.949 142.947 267.738 142.893 267.527 142.839ZM255.634 130.54C255.523 130.447 255.398 130.373 255.263 130.321C254.608 130.068 253.937 129.858 253.255 129.693C253.153 129.597 253.053 129.499 252.956 129.397C253.532 129.511 254.101 129.656 254.662 129.832C255.38 130.062 256.085 130.333 256.773 130.643C256.393 130.601 256.013 130.566 255.634 130.54ZM262.041 130.969C261.706 130.76 261.37 130.555 261.032 130.354C261.378 130.549 261.721 130.754 262.058 130.969L262.041 130.969ZM268.948 134.121C268.052 133.025 267.06 132.009 265.985 131.087C266.068 130.896 266.11 130.69 266.108 130.482C267.234 131.544 268.192 132.771 268.948 134.121ZM256.066 125.148C255.924 125.115 255.783 125.082 255.641 125.05C254.294 124.746 252.922 124.419 251.538 124.141C251.612 124.15 251.686 124.157 251.761 124.166C253.223 124.36 254.664 124.688 256.066 125.148Z" fill="#0A2647"/>
<path d="M257.238 163.629C255.956 163.593 254.36 163.548 253.132 162.651C252.766 162.373 252.466 162.018 252.251 161.611C252.037 161.204 251.914 160.756 251.892 160.297C251.869 159.97 251.923 159.643 252.048 159.341C252.173 159.039 252.366 158.77 252.613 158.555C252.979 158.282 253.408 158.104 253.86 158.039C254.312 157.974 254.773 158.023 255.202 158.182L254.155 150.535L254.924 150.43L256.154 159.42L255.512 159.126C254.769 158.785 253.748 158.611 253.113 159.147C252.958 159.287 252.836 159.461 252.759 159.656C252.681 159.85 252.65 160.06 252.667 160.269C252.685 160.611 252.777 160.945 252.937 161.247C253.096 161.55 253.319 161.815 253.59 162.025C254.545 162.723 255.817 162.813 257.259 162.854L257.238 163.629Z" fill="#3F3D56"/>
<path d="M250.357 151.195H246.181V151.971H250.357V151.195Z" fill="#3F3D56"/>
<path d="M263.537 151.195H259.361V151.971H263.537V151.195Z" fill="#3F3D56"/>
<path d="M238.925 140.488C235.563 140.105 232.958 136.883 232.672 133.614C232.332 129.724 234.597 126.031 237.704 123.848C240.954 121.566 245.002 120.613 248.919 120.403C256.561 120.023 264.071 122.498 269.989 127.347C272.924 129.785 275.665 132.891 276.704 136.642C277.607 139.899 276.872 143.59 274.252 145.871C273.604 146.43 272.847 146.849 272.029 147.101C271.211 147.353 270.35 147.432 269.499 147.334C267.467 147.123 265.591 146.054 263.967 144.874C260.809 142.578 258.216 139.379 254.368 138.179C251.547 137.299 247.886 138.073 246.161 140.625C245.77 141.209 245.517 141.874 245.42 142.57C245.384 142.719 245.407 142.875 245.482 143.008C245.557 143.141 245.68 143.24 245.826 143.286C245.975 143.326 246.133 143.305 246.267 143.229C246.401 143.153 246.5 143.028 246.542 142.879C246.994 139.666 250.946 138.467 253.718 139.201C257.761 140.271 260.475 143.878 263.792 146.17C265.509 147.451 267.532 148.258 269.659 148.512C271.502 148.657 273.332 148.094 274.777 146.939C277.611 144.702 278.694 140.853 278.068 137.388C277.342 133.376 274.642 129.937 271.678 127.274C265.671 121.934 257.872 119.052 249.835 119.205C245.736 119.299 241.459 120.145 237.928 122.312C234.503 124.413 231.855 127.929 231.509 132.016C231.204 135.613 233.134 139.376 236.447 140.952C237.228 141.322 238.066 141.558 238.925 141.651C239.668 141.736 239.662 140.572 238.925 140.488Z" fill="#3F3D56"/>
<path d="M336.683 124.509H295.01C294.875 124.509 294.746 124.455 294.651 124.36C294.556 124.264 294.502 124.135 294.502 124C294.502 123.866 294.556 123.736 294.651 123.641C294.746 123.546 294.875 123.492 295.01 123.492H336.683C336.817 123.492 336.947 123.546 337.042 123.641C337.137 123.736 337.191 123.866 337.191 124C337.191 124.135 337.137 124.264 337.042 124.36C336.947 124.455 336.817 124.509 336.683 124.509Z" fill="#3F3D56"/>
<path d="M336.683 132.132H295.01C294.875 132.132 294.746 132.078 294.651 131.983C294.556 131.887 294.502 131.758 294.502 131.623C294.502 131.489 294.556 131.359 294.651 131.264C294.746 131.169 294.875 131.115 295.01 131.115H336.683C336.817 131.115 336.947 131.169 337.042 131.264C337.137 131.359 337.191 131.489 337.191 131.623C337.191 131.758 337.137 131.887 337.042 131.983C336.947 132.078 336.817 132.132 336.683 132.132Z" fill="#3F3D56"/>
<path d="M336.683 139.755H295.01C294.875 139.755 294.746 139.701 294.651 139.606C294.556 139.511 294.502 139.381 294.502 139.246C294.502 139.112 294.556 138.982 294.651 138.887C294.746 138.792 294.875 138.738 295.01 138.738H336.683C336.817 138.738 336.947 138.792 337.042 138.887C337.137 138.982 337.191 139.112 337.191 139.246C337.191 139.381 337.137 139.511 337.042 139.606C336.947 139.701 336.817 139.755 336.683 139.755Z" fill="#3F3D56"/>
<path d="M336.683 147.378H295.01C294.875 147.378 294.746 147.324 294.651 147.229C294.556 147.134 294.502 147.004 294.502 146.87C294.502 146.735 294.556 146.605 294.651 146.51C294.746 146.415 294.875 146.361 295.01 146.361H336.683C336.817 146.361 336.947 146.415 337.042 146.51C337.137 146.605 337.191 146.735 337.191 146.87C337.191 147.004 337.137 147.134 337.042 147.229C336.947 147.324 336.817 147.378 336.683 147.378Z" fill="#3F3D56"/>
<path d="M336.683 155.001H295.01C294.875 155.001 294.746 154.947 294.651 154.852C294.556 154.757 294.502 154.627 294.502 154.493C294.502 154.358 294.556 154.229 294.651 154.133C294.746 154.038 294.875 153.984 295.01 153.984H336.683C336.817 153.984 336.947 154.038 337.042 154.133C337.137 154.229 337.191 154.358 337.191 154.493C337.191 154.627 337.137 154.757 337.042 154.852C336.947 154.947 336.817 155.001 336.683 155.001Z" fill="#3F3D56"/>
<path d="M336.683 162.624H295.01C294.875 162.624 294.746 162.57 294.651 162.475C294.556 162.38 294.502 162.25 294.502 162.116C294.502 161.981 294.556 161.852 294.651 161.756C294.746 161.661 294.875 161.607 295.01 161.607H336.683C336.817 161.607 336.947 161.661 337.042 161.756C337.137 161.852 337.191 161.981 337.191 162.116C337.191 162.25 337.137 162.38 337.042 162.475C336.947 162.57 336.817 162.624 336.683 162.624Z" fill="#3F3D56"/>
<path d="M414.532 107.573C421.896 107.573 427.866 101.603 427.866 94.2389C427.866 86.8744 421.896 80.9043 414.532 80.9043C407.167 80.9043 401.197 86.8744 401.197 94.2389C401.197 101.603 407.167 107.573 414.532 107.573Z" fill="#FFB8B8"/>
<path d="M374.792 290.702L368.45 288.681L373.229 263.258L382.588 266.241L374.792 290.702Z" fill="#FFB8B8"/>
<path d="M364.21 285.329L376.728 289.319L374.273 297.02L354.342 290.667L354.434 290.379C354.744 289.406 355.243 288.503 355.903 287.723C356.562 286.942 357.368 286.299 358.276 285.83C359.184 285.361 360.175 285.075 361.193 284.99C362.211 284.904 363.236 285.019 364.21 285.329Z" fill="#2F2E41"/>
<path d="M420.93 290.57H414.274L411.106 264.896H420.93V290.57Z" fill="#FFB8B8"/>
<path d="M409.218 288.668H422.356V296.75H401.438V296.448C401.437 295.426 401.639 294.415 402.03 293.471C402.421 292.527 402.994 291.669 403.716 290.947C404.439 290.224 405.296 289.651 406.24 289.26C407.184 288.869 408.196 288.668 409.218 288.668Z" fill="#2F2E41"/>
<path d="M420.736 282.239L418.49 281.904C411.676 280.889 411.268 280.828 410.187 280.353C409.634 280.11 409.595 276.443 409.927 255.829C410.17 240.698 410.473 221.866 409.885 211.757C409.861 211.358 409.703 210.979 409.437 210.681C409.171 210.382 408.812 210.183 408.418 210.113C408.025 210.044 407.619 210.109 407.267 210.298C406.916 210.488 406.638 210.79 406.479 211.157C401.409 222.864 392.903 249.064 387.275 266.4C385.317 272.431 383.771 277.194 382.793 280.049C382.604 280.589 382.22 281.039 381.717 281.312C381.214 281.584 380.627 281.659 380.072 281.522C375.44 280.364 375.75 279.872 369.153 278.165C368.582 278.02 368.09 277.659 367.779 277.159C367.468 276.659 367.363 276.057 367.485 275.481C368.678 269.854 390.514 178.618 392.185 169.946C392.242 169.649 392.357 169.366 392.523 169.114C392.69 168.862 392.904 168.645 393.155 168.476C393.406 168.307 393.687 168.19 393.984 168.13C394.28 168.071 394.585 168.071 394.882 168.13C399.798 169.121 402.789 170.172 407.647 171.188C412.889 172.285 418.31 173.419 423.598 174.477C424.124 174.583 424.596 174.872 424.929 175.293C426.237 176.945 428.177 177.873 430.231 178.855C431.616 179.517 428.478 179.457 429.684 180.412C434.568 184.278 427.545 262.785 423.301 280.516C423.165 281.071 422.827 281.555 422.352 281.874C421.878 282.193 421.301 282.323 420.736 282.239Z" fill="#2F2E41"/>
<path d="M416.716 193.259C416.565 192.57 416.566 191.856 416.72 191.167C416.874 190.479 417.178 189.833 417.609 189.274C418.04 188.715 418.588 188.258 419.215 187.934C419.842 187.61 420.532 187.428 421.237 187.4L432.015 175.234L438.708 183.32L426.313 192.375C426.282 193.562 425.816 194.697 425.004 195.564C424.192 196.432 423.091 196.971 421.908 197.08C420.725 197.189 419.543 196.86 418.586 196.156C417.629 195.452 416.964 194.421 416.716 193.259Z" fill="#FFB8B8"/>
<path d="M420.216 105.907C419.437 102.603 423.373 95.4954 422.594 92.192C422.067 89.9549 416.806 91.4756 415.579 89.5326C414.351 87.5895 412.295 86.0154 409.997 85.9896C407.355 85.9599 404.756 87.9195 402.253 87.0726C399.723 86.2162 398.914 82.7514 400.033 80.3257C401.152 77.9001 403.561 76.3544 405.942 75.1432C409.996 73.0807 414.717 71.5746 419.056 72.9392C421.679 73.7641 423.872 75.5515 425.995 77.2997C427.929 78.8932 429.897 80.5229 431.249 82.6332C433.899 86.7673 433.739 92.3375 431.474 96.6946C429.21 101.052 425.085 104.249 420.539 106.105" fill="#2F2E41"/>
<path d="M387.473 182.781C388.912 180.377 391.097 169.112 393.792 150.204C395.626 137.296 397.225 124.181 398.018 117.481C398.079 116.939 398.278 116.421 398.594 115.977C398.91 115.532 399.335 115.175 399.827 114.94C400.341 114.691 400.853 114.456 401.362 114.234C407.929 111.378 414.585 110.431 421.143 111.421C427.691 112.427 433.833 115.225 438.889 119.507L438.948 119.563L438.964 119.644C438.992 119.793 441.746 134.634 436.105 144.662C430.541 154.556 430.476 180.758 430.476 181.021V181.358L430.152 181.266C421.497 178.792 388.061 183.119 387.724 183.163L387.203 183.231L387.473 182.781Z" fill="#CCCCCC"/>
<path d="M422.991 184.792L439.994 162.121L431.226 143.333L431.863 121.051L439.051 119.723L439.127 119.761C442.619 121.803 445.326 124.957 446.815 128.718C448.412 132.71 451.724 146.292 454.221 156.983C454.873 159.734 454.808 162.607 454.032 165.326C453.256 168.045 451.795 170.52 449.788 172.512L428.93 193.37L422.991 184.792Z" fill="#CCCCCC"/>
<path d="M351.613 139.863C352.02 139.286 352.548 138.805 353.16 138.455C353.772 138.104 354.454 137.892 355.157 137.833C355.86 137.774 356.568 137.871 357.23 138.115C357.892 138.359 358.492 138.746 358.989 139.247L375.239 138.997L373.785 149.392L358.74 146.351C357.842 147.129 356.691 147.55 355.503 147.536C354.315 147.522 353.173 147.072 352.295 146.272C351.416 145.472 350.862 144.378 350.736 143.197C350.611 142.016 350.923 140.829 351.613 139.863Z" fill="#FFB8B8"/>
<path d="M359.77 148.955L362.094 138.783L390.299 136.041L398.031 117.445L398.258 116.896L401.297 114.275L401.361 114.234C407.929 111.378 414.584 110.431 421.143 111.421L421.373 111.456L421.358 111.688C421.211 114.068 420.6 116.396 419.56 118.541C416.642 124.593 398.691 150.319 398.51 150.578L398.43 150.692L359.77 148.955Z" fill="#CCCCCC"/>
<path d="M494.987 297.805H301.363C301.228 297.805 301.099 297.752 301.003 297.657C300.908 297.561 300.854 297.432 300.854 297.297C300.854 297.162 300.908 297.033 301.003 296.938C301.099 296.843 301.228 296.789 301.363 296.789H494.987C495.122 296.789 495.251 296.843 495.346 296.938C495.442 297.033 495.495 297.162 495.495 297.297C495.495 297.432 495.442 297.561 495.346 297.657C495.251 297.752 495.122 297.805 494.987 297.805Z" fill="#3F3D56"/>
<path d="M194.133 229.198H0.508201C0.373417 229.198 0.244158 229.144 0.148852 229.049C0.0535459 228.954 0 228.825 0 228.69C0 228.555 0.0535459 228.426 0.148852 228.33C0.244158 228.235 0.373417 228.182 0.508201 228.182H194.133C194.267 228.182 194.397 228.235 194.492 228.33C194.587 228.426 194.641 228.555 194.641 228.69C194.641 228.825 194.587 228.954 194.492 229.049C194.397 229.144 194.267 229.198 194.133 229.198Z" fill="#3F3D56"/>
</g>
<defs>
<clipPath id="clip0_769_5425">
<rect width="500" height="297.829" fill="white"/>
</clipPath>
</defs>
</svg>
