<svg width="500" height="411" viewBox="0 0 500 411" fill="none" xmlns="http://www.w3.org/2000/svg">
<g clip-path="url(#clip0_769_5424)">
<path d="M256.441 97.5499H254.188V35.7613C254.188 26.2768 250.421 17.1808 243.714 10.4742C237.007 3.7677 227.911 4.66487e-09 218.427 4.66487e-09H87.5168C82.8205 -7.58458e-05 78.1703 0.924843 73.8315 2.72195C69.4927 4.51905 65.5503 7.15315 62.2295 10.4738C58.9087 13.7945 56.2745 17.7368 54.4773 22.0755C52.68 26.4143 51.755 31.0645 51.7549 35.7607V374.738C51.7549 379.434 52.6799 384.084 54.4771 388.423C56.2742 392.762 58.9084 396.704 62.2291 400.025C65.5499 403.345 69.4922 405.979 73.8309 407.777C78.1697 409.574 82.82 410.499 87.5162 410.499H218.425C227.91 410.499 237.006 406.731 243.712 400.025C250.419 393.318 254.187 384.222 254.187 374.738V141.532H256.439L256.441 97.5499Z" fill="#3F3D56"/>
<path d="M246.895 33.3663V377.132C246.894 384.323 244.037 391.219 238.953 396.305C233.868 401.39 226.973 404.248 219.782 404.251H86.1857C78.9919 404.252 72.0922 401.395 67.0043 396.31C61.9164 391.224 59.0568 384.326 59.0547 377.132V33.3663C59.0568 26.1728 61.9162 19.2746 67.0039 14.1891C72.0916 9.10356 78.991 6.24713 86.1845 6.24805H102.39C101.595 8.20491 101.292 10.3273 101.508 12.4286C101.725 14.5299 102.455 16.5459 103.633 18.2992C104.811 20.0526 106.402 21.4898 108.266 22.4843C110.129 23.4789 112.209 24.0004 114.321 24.0031H190.486C192.599 24.0004 194.678 23.4789 196.542 22.4843C198.406 21.4898 199.997 20.0526 201.175 18.2992C202.353 16.5459 203.082 14.5299 203.299 12.4286C203.516 10.3273 203.213 8.20491 202.417 6.24805H219.776C226.967 6.24927 233.864 9.10605 238.949 14.1903C244.034 19.2746 246.892 26.1702 246.895 33.3611V33.3663Z" fill="white"/>
<path d="M215.882 330.501H92.5022C88.0648 330.496 83.8106 328.731 80.6728 325.593C77.5351 322.456 75.7702 318.201 75.7651 313.764V140.196C75.7651 98.0545 110.05 63.7695 152.192 63.7695H215.882C220.319 63.7745 224.573 65.5395 227.711 68.6772C230.849 71.8148 232.614 76.069 232.619 80.5063V313.764C232.614 318.201 230.849 322.456 227.711 325.593C224.573 328.731 220.319 330.496 215.882 330.501Z" fill="#E6E6E6"/>
<path d="M85.1115 372.283C90.0172 372.283 93.994 368.306 93.994 363.4C93.994 358.494 90.0172 354.518 85.1115 354.518C80.2058 354.518 76.229 358.494 76.229 363.4C76.229 368.306 80.2058 372.283 85.1115 372.283Z" fill="#E6E6E6"/>
<path d="M223.447 372.283C228.353 372.283 232.33 368.306 232.33 363.4C232.33 358.494 228.353 354.518 223.447 354.518C218.542 354.518 214.565 358.494 214.565 363.4C214.565 368.306 218.542 372.283 223.447 372.283Z" fill="#E6E6E6"/>
<path d="M224.651 330.159L219.145 336.16L193.379 317.777L201.506 308.92L224.651 330.159Z" fill="#FFB6B6"/>
<path d="M231.873 333.967L214.118 353.316L213.873 353.092C211.876 351.259 210.688 348.708 210.572 345.999C210.456 343.291 211.42 340.647 213.252 338.65L213.253 338.65L213.814 332.655L222.547 328.521L224.097 326.832L231.873 333.967Z" fill="#2F2E41"/>
<path d="M228.251 397.125L220.107 397.124L216.233 365.711L228.253 365.712L228.251 397.125Z" fill="#FFB6B6"/>
<path d="M230.329 405.02L204.068 405.019V404.686C204.069 401.976 205.146 399.376 207.062 397.459C208.979 395.542 211.579 394.465 214.29 394.465H214.29L219.087 390.826L228.037 394.466L230.329 394.466L230.329 405.02Z" fill="#2F2E41"/>
<path d="M188.922 238.545C188.922 238.545 139.17 286.581 170.623 301.45H180.344C180.344 301.45 183.266 291.071 189.954 282.319C190.872 281.117 194.313 281.361 195.268 280.19C201.103 273.037 207.428 266.894 211.797 267.138L214.656 300.306L213.245 310.028C212.357 316.148 212.591 322.378 213.935 328.414L212.94 367.214L230.385 367.224C230.385 367.224 231.089 358.131 231.679 346.757C231.836 343.711 233.147 341.588 233.273 338.345C233.574 330.57 232.576 321.52 232.384 315.175L245.536 245.407L188.922 238.545Z" fill="#2F2E41"/>
<path d="M211.902 136.766L203.79 147.618L184.346 159.054L195.782 188.79L196.216 210.916L195.152 213.585L196.354 217.956C196.354 217.956 195.799 223.071 192.841 226.869C187.67 233.51 179.773 240.727 187.776 242.546C200.357 245.406 244.963 251.695 247.25 246.549C248.041 244.769 247.943 237.241 247.476 228.154C247.389 226.455 245.512 224.607 245.402 222.826C245.32 221.49 247.009 220.233 246.917 218.878C245.896 203.777 244.391 188.219 244.391 188.219L248.867 146.585L230.962 141.964L228.952 136.839L211.902 136.766Z" fill="#0A2647"/>
<path d="M168.234 298.596L170.893 301.956C170.893 301.956 195.351 319.067 196.191 320.666L200.056 324.324L209.408 314.326L204.545 308.23C200.653 303.352 195.624 299.502 189.899 297.017L182.445 290.404L168.234 298.596Z" fill="#2F2E41"/>
<path d="M183.775 250.571L188.229 207.46L189.404 189.717L176.938 187.463C176.938 187.463 175.071 199.66 173.438 206.818C171.827 213.882 175.585 249.624 175.685 250.567C174.769 251.385 174.124 252.463 173.834 253.656C173.544 254.85 173.623 256.103 174.061 257.25C174.499 258.398 175.275 259.385 176.286 260.082C177.298 260.779 178.497 261.152 179.725 261.153C180.953 261.154 182.152 260.781 183.164 260.085C184.176 259.389 184.953 258.403 185.392 257.256C185.831 256.109 185.911 254.855 185.623 253.662C185.334 252.468 184.69 251.39 183.775 250.571Z" fill="#FFB9B9"/>
<path d="M167.668 214.703L189.188 220.166L189.039 214.126L190.672 212.393L193.935 195.298L198.617 185.284L197.4 151.039L185.509 157.346L185.494 157.357C183.418 159.642 181.681 162.213 180.337 164.993C175.854 174.106 171.548 194.18 169.294 205.839C169.216 206.084 169.067 206.299 168.865 206.457C167.747 207.484 167.017 208.865 166.799 210.367C166.581 211.869 166.888 213.401 167.668 214.703Z" fill="#0A2647"/>
<path d="M295.466 225.71C295.466 225.71 269.267 198.09 269.023 197.569C267.193 183.672 261.929 177.541 261.14 178.207L247.555 182.913C247.555 182.913 251.596 195.71 254.332 203.311C256.946 210.573 287.077 228.313 287.579 229.189C287.04 230.381 286.874 231.709 287.105 232.997C287.337 234.285 287.953 235.472 288.874 236.402C289.795 237.332 290.976 237.96 292.262 238.204C293.547 238.448 294.877 238.295 296.074 237.767C297.271 237.239 298.28 236.36 298.966 235.246C299.653 234.132 299.986 232.836 299.92 231.53C299.854 230.223 299.393 228.967 298.597 227.927C297.802 226.888 296.71 226.115 295.466 225.71Z" fill="#FFB9B9"/>
<path d="M236.584 147.537C236.584 147.537 249.92 141.001 255.093 153.838C257.928 161.085 265.181 178.673 268.795 189.5C268.819 189.569 268.852 189.634 268.894 189.694C269.86 191.13 270.382 192.82 270.393 194.551C270.392 194.677 270.405 194.803 270.432 194.926C270.432 194.926 255.777 197.781 251.418 205.463L249.689 203.586L249.382 202.272L236.738 168.535L236.584 147.537Z" fill="#0A2647"/>
<path d="M454.371 199.928H298.237C296.845 199.927 295.512 199.373 294.528 198.39C293.544 197.406 292.991 196.072 292.989 194.681V171.814C292.991 170.423 293.544 169.089 294.528 168.105C295.512 167.121 296.845 166.568 298.237 166.566H454.371C455.763 166.568 457.096 167.121 458.08 168.105C459.064 169.089 459.617 170.423 459.619 171.814V194.681C459.617 196.072 459.064 197.406 458.08 198.39C457.096 199.373 455.763 199.927 454.371 199.928Z" fill="#E6E6E6"/>
<path d="M439.201 196.388H301.777C300.385 196.386 299.052 195.833 298.068 194.849C297.084 193.865 296.531 192.531 296.529 191.14V175.355C296.531 173.964 297.084 172.63 298.068 171.646C299.052 170.662 300.385 170.109 301.777 170.107H450.832C452.223 170.109 453.557 170.662 454.54 171.646C455.524 172.63 456.077 173.964 456.079 175.355V179.509C456.074 183.984 454.294 188.274 451.13 191.439C447.966 194.603 443.676 196.383 439.201 196.388Z" fill="white"/>
<path d="M391.797 181.621H329.043C328.684 181.621 328.34 181.478 328.086 181.224C327.833 180.97 327.69 180.626 327.69 180.267C327.69 179.908 327.833 179.564 328.086 179.31C328.34 179.057 328.684 178.914 329.043 178.914H391.797C392.156 178.914 392.501 179.057 392.754 179.31C393.008 179.564 393.151 179.908 393.151 180.267C393.151 180.626 393.008 180.97 392.754 181.224C392.501 181.478 392.156 181.621 391.797 181.621Z" fill="#0A2647"/>
<path d="M423.565 187.156H329.043C328.684 187.156 328.34 187.013 328.086 186.759C327.833 186.506 327.69 186.161 327.69 185.802C327.69 185.444 327.833 185.099 328.086 184.846C328.34 184.592 328.684 184.449 329.043 184.449H423.565C423.924 184.449 424.268 184.592 424.522 184.846C424.775 185.099 424.918 185.444 424.918 185.802C424.918 186.161 424.775 186.506 424.522 186.759C424.268 187.013 423.924 187.156 423.565 187.156Z" fill="#E6E6E6"/>
<path d="M454.371 248.446H298.237C296.845 248.444 295.512 247.891 294.528 246.907C293.544 245.923 292.991 244.59 292.989 243.199V220.331C292.991 218.94 293.544 217.606 294.528 216.623C295.512 215.639 296.845 215.086 298.237 215.084H454.371C455.763 215.086 457.096 215.639 458.08 216.623C459.064 217.606 459.617 218.94 459.619 220.331V243.199C459.617 244.59 459.064 245.923 458.08 246.907C457.096 247.891 455.763 248.444 454.371 248.446Z" fill="#E6E6E6"/>
<path d="M439.201 244.905H301.777C300.385 244.904 299.052 244.35 298.068 243.367C297.084 242.383 296.531 241.049 296.529 239.658V223.872C296.531 222.481 297.084 221.147 298.068 220.164C299.052 219.18 300.385 218.627 301.777 218.625H450.832C452.223 218.627 453.557 219.18 454.54 220.164C455.524 221.147 456.077 222.481 456.079 223.872V228.027C456.074 232.502 454.294 236.792 451.13 239.956C447.966 243.12 443.676 244.9 439.201 244.905Z" fill="white"/>
<path d="M391.797 230.138H329.043C328.866 230.138 328.69 230.103 328.525 230.035C328.361 229.967 328.212 229.868 328.086 229.742C327.961 229.616 327.861 229.467 327.793 229.303C327.725 229.139 327.69 228.963 327.69 228.785C327.69 228.607 327.725 228.431 327.793 228.267C327.861 228.103 327.961 227.954 328.086 227.828C328.212 227.702 328.361 227.603 328.525 227.535C328.69 227.467 328.866 227.432 329.043 227.432H391.797C392.156 227.432 392.501 227.574 392.754 227.828C393.008 228.082 393.151 228.426 393.151 228.785C393.151 229.144 393.008 229.488 392.754 229.742C392.501 229.996 392.156 230.138 391.797 230.138Z" fill="#0A2647"/>
<path d="M423.565 235.671H329.043C328.866 235.671 328.69 235.636 328.525 235.568C328.361 235.5 328.212 235.401 328.086 235.275C327.961 235.149 327.861 235 327.793 234.836C327.725 234.672 327.69 234.496 327.69 234.318C327.69 234.14 327.725 233.964 327.793 233.8C327.861 233.636 327.961 233.487 328.086 233.361C328.212 233.236 328.361 233.136 328.525 233.068C328.69 233 328.866 232.965 329.043 232.965H423.565C423.924 232.965 424.268 233.107 424.522 233.361C424.775 233.615 424.918 233.959 424.918 234.318C424.918 234.677 424.775 235.021 424.522 235.275C424.268 235.529 423.924 235.671 423.565 235.671Z" fill="#E6E6E6"/>
<path d="M454.371 296.962H298.237C296.845 296.96 295.512 296.407 294.528 295.423C293.544 294.439 292.991 293.105 292.989 291.714V268.847C292.991 267.456 293.544 266.122 294.528 265.138C295.512 264.155 296.845 263.601 298.237 263.6H454.371C455.763 263.601 457.096 264.155 458.08 265.138C459.064 266.122 459.617 267.456 459.619 268.847V291.714C459.617 293.105 459.064 294.439 458.08 295.423C457.096 296.407 455.763 296.96 454.371 296.962Z" fill="#E6E6E6"/>
<path d="M439.201 293.423H301.777C300.385 293.421 299.052 292.868 298.068 291.884C297.084 290.9 296.531 289.567 296.529 288.175V272.39C296.531 270.999 297.084 269.665 298.068 268.681C299.052 267.698 300.385 267.144 301.777 267.143H450.832C452.223 267.144 453.557 267.698 454.54 268.681C455.524 269.665 456.077 270.999 456.079 272.39V276.544C456.074 281.019 454.294 285.31 451.13 288.474C447.966 291.638 443.676 293.418 439.201 293.423Z" fill="white"/>
<path d="M391.797 278.654H329.043C328.684 278.654 328.34 278.511 328.086 278.257C327.833 278.004 327.69 277.659 327.69 277.301C327.69 276.942 327.833 276.597 328.086 276.344C328.34 276.09 328.684 275.947 329.043 275.947H391.797C392.156 275.947 392.501 276.09 392.754 276.344C393.008 276.597 393.151 276.942 393.151 277.301C393.151 277.659 393.008 278.004 392.754 278.257C392.501 278.511 392.156 278.654 391.797 278.654Z" fill="#0A2647"/>
<path d="M423.565 284.189H329.043C328.684 284.189 328.34 284.046 328.086 283.793C327.833 283.539 327.69 283.195 327.69 282.836C327.69 282.477 327.833 282.133 328.086 281.879C328.34 281.625 328.684 281.482 329.043 281.482H423.565C423.924 281.482 424.268 281.625 424.522 281.879C424.775 282.133 424.918 282.477 424.918 282.836C424.918 283.195 424.775 283.539 424.522 283.793C424.268 284.046 423.924 284.189 423.565 284.189Z" fill="#E6E6E6"/>
<path d="M220.45 133.282C229.469 133.282 236.78 125.971 236.78 116.953C236.78 107.934 229.469 100.623 220.45 100.623C211.432 100.623 204.121 107.934 204.121 116.953C204.121 125.971 211.432 133.282 220.45 133.282Z" fill="#FFB9B9"/>
<path d="M208.443 127.455C208.248 127.456 208.053 127.424 207.867 127.362C207.139 127.042 206.529 126.501 206.127 125.814C203.315 121.771 201.957 116.38 202.092 109.79C202.149 107.003 202.464 103.439 204.417 100.598C206.058 98.2086 209.379 96.3127 212.474 97.2644C212.439 96.6455 212.577 96.029 212.871 95.4836C213.166 94.9383 213.606 94.4855 214.143 94.1759C215.316 93.458 216.727 93.3259 217.972 93.2089C221.115 92.9142 224.364 92.6097 227.547 93.2128C231.116 93.8898 234.034 95.7292 235.553 98.2595L235.584 98.339L235.893 99.8384C235.935 100.04 236.019 100.23 236.141 100.396C236.263 100.562 236.42 100.699 236.6 100.798C236.78 100.898 236.98 100.957 237.185 100.972C237.39 100.986 237.596 100.957 237.789 100.884C237.999 100.805 238.226 100.782 238.448 100.818C238.67 100.853 238.879 100.946 239.054 101.087C239.229 101.227 239.364 101.411 239.446 101.621C239.529 101.83 239.555 102.056 239.523 102.279L239.436 102.875L240.334 102.707C240.559 102.665 240.79 102.684 241.006 102.761C241.221 102.837 241.412 102.97 241.559 103.144C241.706 103.319 241.805 103.53 241.844 103.755C241.884 103.98 241.863 104.211 241.784 104.426L241.53 105.111C241.716 105.113 241.899 105.152 242.069 105.227C242.239 105.301 242.392 105.41 242.518 105.547C242.7 105.742 242.814 105.99 242.845 106.255C242.875 106.52 242.82 106.788 242.688 107.019C241.685 108.734 240.261 110.166 238.552 111.18C237.618 111.742 236.596 112.144 235.53 112.369C228.607 113.862 221.47 114.077 214.471 113.002C214.885 114.382 215.045 115.827 214.942 117.265C214.717 119.062 213.662 120.546 212.252 121.044C211.932 121.148 211.603 121.227 211.27 121.281C210.951 121.33 210.637 121.407 210.332 121.509C209.878 121.675 209.477 121.958 209.168 122.329C208.859 122.701 208.653 123.147 208.572 123.623C208.49 124.099 208.536 124.588 208.704 125.04C208.871 125.493 209.156 125.894 209.528 126.201L210.223 125.477L209.997 126.398C209.95 126.577 209.865 126.745 209.749 126.889C209.633 127.034 209.488 127.152 209.323 127.237C209.052 127.381 208.75 127.456 208.443 127.455Z" fill="#2F2E41"/>
<path d="M435.605 374.02L436.265 359.165C443.153 355.483 450.834 353.539 458.644 353.5C447.896 362.287 449.239 379.226 441.952 391.043C439.651 394.711 436.554 397.814 432.891 400.123C429.228 402.432 425.092 403.886 420.79 404.379L411.795 409.886C410.561 403.006 410.833 395.94 412.593 389.175C414.353 382.41 417.558 376.106 421.988 370.699C424.503 367.691 427.388 365.011 430.573 362.723C432.727 368.403 435.605 374.02 435.605 374.02Z" fill="#F2F2F2"/>
<path d="M500 410.25C500 410.34 499.983 410.43 499.948 410.513C499.914 410.597 499.863 410.673 499.799 410.736C499.735 410.8 499.66 410.851 499.576 410.885C499.493 410.92 499.403 410.937 499.313 410.937H0.68733C0.505039 410.937 0.330221 410.865 0.201322 410.736C0.0724227 410.607 0 410.432 0 410.25C0 410.068 0.0724227 409.893 0.201322 409.764C0.330221 409.635 0.505039 409.563 0.68733 409.563H499.313C499.403 409.562 499.493 409.58 499.576 409.614C499.66 409.649 499.735 409.699 499.799 409.763C499.863 409.827 499.914 409.903 499.948 409.986C499.983 410.07 500 410.159 500 410.25Z" fill="#CCCCCC"/>
</g>
<defs>
<clipPath id="clip0_769_5424">
<rect width="500" height="410.937" fill="white"/>
</clipPath>
</defs>
</svg>
