<svg width="500" height="436" viewBox="0 0 500 436" fill="none" xmlns="http://www.w3.org/2000/svg">
<g clip-path="url(#clip0_769_5422)">
<path d="M233.995 428.39C234.173 428.398 234.35 428.351 234.501 428.256C234.651 428.16 234.769 428.021 234.838 427.856C234.907 427.691 234.924 427.509 234.886 427.335C234.848 427.16 234.757 427.002 234.626 426.88L234.566 426.643L234.59 426.586C234.77 426.162 235.071 425.8 235.456 425.546C235.84 425.292 236.292 425.157 236.753 425.159C237.214 425.161 237.664 425.299 238.047 425.555C238.429 425.812 238.728 426.176 238.905 426.602C239.61 428.302 240.509 430.004 240.73 431.801C240.827 432.595 240.786 433.401 240.608 434.181C242.266 430.566 243.126 426.636 243.132 422.659C243.132 421.661 243.077 420.663 242.966 419.672C242.874 418.858 242.747 418.051 242.584 417.25C241.696 412.901 239.788 408.824 237.019 405.356C235.678 404.624 234.594 403.499 233.913 402.133C233.666 401.642 233.491 401.117 233.395 400.576C233.688 399.801 233.843 398.98 233.851 398.152C234.061 397.832 234.439 397.673 234.669 397.361C235.813 395.809 237.39 396.08 238.214 398.189C239.972 399.076 239.989 400.549 238.91 401.964C238.224 402.865 238.129 404.084 237.527 405.048C237.589 405.127 237.653 405.204 237.715 405.284C238.848 406.74 239.836 408.305 240.663 409.954C240.462 408.106 240.702 406.237 241.364 404.5C242.035 402.882 243.293 401.518 244.401 400.119C244.693 399.743 245.091 399.463 245.544 399.313C245.996 399.163 246.483 399.15 246.942 399.277C247.401 399.404 247.813 399.664 248.125 400.024C248.436 400.385 248.634 400.83 248.693 401.302L248.7 401.364C248.535 401.457 248.374 401.556 248.217 401.66C248.019 401.792 247.865 401.981 247.777 402.202C247.688 402.423 247.668 402.665 247.72 402.898C247.771 403.13 247.892 403.342 248.065 403.504C248.239 403.667 248.458 403.774 248.693 403.81L248.717 403.814C248.658 404.406 248.555 404.994 248.407 405.571C249.828 411.066 246.761 413.067 242.381 413.157C242.284 413.206 242.19 413.256 242.093 413.303C242.925 415.66 243.447 418.115 243.645 420.606C243.757 422.076 243.751 423.552 243.625 425.021L243.633 424.969C243.95 423.336 244.821 421.862 246.099 420.797C247.997 419.238 250.679 418.664 252.727 417.41C252.945 417.27 253.198 417.196 253.456 417.195C253.715 417.195 253.968 417.268 254.187 417.407C254.405 417.545 254.579 417.743 254.688 417.978C254.798 418.212 254.838 418.473 254.804 418.729L254.795 418.784C254.49 418.908 254.193 419.052 253.906 419.213C253.741 419.306 253.58 419.404 253.422 419.508C253.225 419.641 253.071 419.83 252.982 420.051C252.894 420.271 252.874 420.514 252.925 420.746C252.977 420.979 253.097 421.19 253.271 421.353C253.445 421.516 253.664 421.622 253.899 421.658L253.923 421.662L253.972 421.67C253.451 422.915 252.719 424.061 251.808 425.058C250.92 429.855 247.104 430.31 243.023 428.913H243.02C242.573 430.859 241.924 432.753 241.084 434.565H234.168C234.143 434.488 234.121 434.409 234.099 434.332C234.739 434.372 235.381 434.334 236.012 434.218C235.499 433.588 234.986 432.954 234.473 432.324C234.461 432.312 234.451 432.3 234.441 432.287C234.18 431.965 233.918 431.645 233.657 431.323C233.643 430.335 233.757 429.349 233.995 428.39Z" fill="#F2F2F2"/>
<path d="M61.6685 428.39C61.4901 428.398 61.3135 428.351 61.1626 428.256C61.0117 428.16 60.8939 428.021 60.825 427.856C60.7561 427.691 60.7395 427.509 60.7775 427.335C60.8155 427.16 60.9062 427.002 61.0373 426.88L61.097 426.643L61.0733 426.586C60.8935 426.162 60.5924 425.8 60.2076 425.546C59.8229 425.292 59.3716 425.157 58.9107 425.159C58.4497 425.161 57.9995 425.299 57.6166 425.555C57.2337 425.812 56.9353 426.176 56.7587 426.602C56.0531 428.302 55.1546 430.004 54.9334 431.801C54.836 432.595 54.8771 433.401 55.0549 434.181C53.3975 430.566 52.5368 426.636 52.5313 422.659C52.5309 421.661 52.5864 420.663 52.6974 419.672C52.7891 418.858 52.9164 418.051 53.0792 417.25C53.9675 412.901 55.8748 408.824 58.6445 405.356C59.9849 404.624 61.069 403.499 61.7506 402.133C61.9975 401.642 62.172 401.117 62.2687 400.576C61.975 399.801 61.8205 398.98 61.8126 398.152C61.6018 397.832 61.2247 397.673 60.9945 397.361C59.8499 395.809 58.2728 396.08 57.4496 398.189C55.6909 399.076 55.6738 400.549 56.753 401.964C57.4395 402.865 57.5339 404.084 58.1363 405.048C58.0743 405.127 58.0098 405.204 57.9479 405.284C56.815 406.74 55.8276 408.305 54.9998 409.954C55.2011 408.106 54.9608 406.237 54.2988 404.5C53.6278 402.882 52.3702 401.518 51.2627 400.119C50.9698 399.743 50.572 399.463 50.1196 399.313C49.6672 399.163 49.1806 399.15 48.7212 399.277C48.2618 399.404 47.8502 399.664 47.5386 400.024C47.2269 400.385 47.0291 400.83 46.9702 401.302L46.9635 401.364C47.128 401.457 47.289 401.556 47.4466 401.66C47.6445 401.792 47.7979 401.981 47.8866 402.202C47.9753 402.423 47.9952 402.665 47.9437 402.898C47.8922 403.13 47.7717 403.342 47.598 403.504C47.4243 403.667 47.2055 403.774 46.9703 403.81L46.9462 403.814C47.0048 404.406 47.1084 404.994 47.2561 405.571C45.8353 411.066 48.9026 413.067 53.2824 413.157C53.3791 413.206 53.4733 413.256 53.57 413.303C52.7383 415.66 52.2167 418.115 52.0182 420.606C51.9058 422.076 51.9124 423.552 52.038 425.021L52.0306 424.969C51.7132 423.336 50.842 421.862 49.564 420.797C47.6658 419.238 44.984 418.664 42.9363 417.41C42.7186 417.27 42.4656 417.196 42.207 417.195C41.9483 417.195 41.6949 417.268 41.4766 417.407C41.2583 417.545 41.0842 417.743 40.9749 417.978C40.8655 418.212 40.8254 418.473 40.8594 418.729L40.8678 418.784C41.1731 418.908 41.4703 419.052 41.7577 419.213C41.9222 419.306 42.0833 419.404 42.2408 419.508C42.4387 419.641 42.5921 419.83 42.6808 420.051C42.7695 420.271 42.7894 420.514 42.7379 420.746C42.6864 420.979 42.5659 421.19 42.3922 421.353C42.2185 421.516 41.9997 421.622 41.7645 421.658L41.7404 421.662L41.6908 421.67C42.2124 422.915 42.9444 424.061 43.8549 425.058C44.7433 429.855 48.5589 430.31 52.6404 428.913H52.6429C53.0907 430.859 53.7395 432.753 54.579 434.565H61.4953C61.5201 434.488 61.5424 434.409 61.5647 434.332C60.9245 434.372 60.2818 434.334 59.6509 434.218C60.1641 433.588 60.6772 432.954 61.1904 432.324C61.2018 432.312 61.2126 432.3 61.2226 432.287C61.4829 431.965 61.7457 431.645 62.006 431.323C62.0198 430.335 61.9063 429.349 61.6685 428.39Z" fill="#F2F2F2"/>
<path d="M166.198 56.7586C167.597 53.9413 169.834 51.6023 171.202 48.7696C172.57 45.9371 172.836 42.1459 170.556 39.9778C168.621 38.1368 165.59 38.1111 163.276 36.7776C157.38 33.3804 157.387 22.5902 150.646 21.6578C147.368 21.2044 144.402 23.6625 142.421 26.3128C140.44 28.9631 138.862 32.0557 136.114 33.8996C133.004 35.987 128.983 36.0778 125.529 37.5276C118.907 40.3073 115.436 47.4551 112.533 54.024C110.663 58.2557 108.75 62.82 109.618 67.3644C107.732 68.5378 108.572 71.6941 110.455 72.873C112.337 74.0519 114.701 74.0257 116.863 74.5364C121.406 75.6096 125.126 79.2263 126.89 83.5486C128.265 86.9175 128.546 90.6164 128.811 94.2453C129.271 100.542 129.731 106.839 130.191 113.136C130.396 115.937 130.665 118.914 132.37 121.146C134.075 123.378 137.768 124.314 139.685 122.261C141.516 120.298 140.691 117.192 140.654 114.508C140.617 111.824 143.044 108.481 145.331 109.885L146.138 108.055C151.364 106.184 155.94 102.846 159.318 98.442C162.696 94.0378 164.734 88.7533 165.187 83.2212C165.771 74.3105 162.225 64.7562 166.198 56.7586Z" fill="#E6E6E6"/>
<path d="M171.538 113.262C172.043 112.786 172.401 112.176 172.57 111.504C172.74 110.831 172.713 110.124 172.494 109.466C172.274 108.808 171.871 108.226 171.332 107.79C170.793 107.353 170.141 107.08 169.452 107.002L169.46 107.304C168.477 107.879 167.355 108.173 166.216 108.157C165.081 108.139 163.952 108.318 162.878 108.686C162.345 108.88 161.882 109.231 161.552 109.693C161.221 110.155 161.038 110.706 161.027 111.274C161.09 111.71 161.256 112.123 161.513 112.48C161.769 112.838 162.108 113.128 162.501 113.326C163.289 113.714 164.135 113.971 165.006 114.087C167.25 114.509 169.876 114.828 171.538 113.262Z" fill="#E6E6E6"/>
<path d="M215.3 56.9071C216.24 56.2679 217.038 55.4415 217.644 54.4799C217.938 53.9933 218.078 53.4292 218.045 52.8618C218.012 52.2944 217.809 51.7501 217.461 51.3004C216.754 50.6864 215.843 50.3575 214.907 50.3774C212.363 50.1875 209.807 50.489 207.377 51.2653C209.872 53.4754 212.367 55.6856 214.861 57.8957L215.3 56.9071Z" fill="#E6E6E6"/>
<path d="M202.825 62.6558C203.833 63.7687 203.512 65.4951 203.226 66.9695C202.941 68.4439 202.904 70.2863 204.173 71.0907C205.272 71.7878 206.814 71.2189 207.618 70.1952C208.337 69.1035 208.775 67.8511 208.893 66.5493C209.288 64.6573 209.467 62.7266 209.425 60.7943C209.377 58.8475 208.691 56.9705 207.471 55.4527C206.605 54.4656 205.452 53.7742 204.173 53.4755C202.895 53.1768 201.555 53.2857 200.341 53.787L201.5 53.7298C200.657 54.8116 200.018 56.0377 199.614 57.348C199.421 58.0063 199.407 58.7044 199.575 59.3698C199.742 60.0352 200.085 60.6436 200.567 61.1318C201.255 61.7301 202.213 61.9803 202.825 62.6558Z" fill="#E6E6E6"/>
<path d="M259.692 43.9901L259.898 43.3555C259.036 43.8541 258.372 44.6335 258.016 45.5634C257.661 46.4933 257.635 47.5172 257.944 48.4637C258.607 47.9409 259.118 47.2507 259.426 46.4643C259.733 45.678 259.825 44.8239 259.692 43.9901Z" fill="#E6E6E6"/>
<path d="M248.49 53.0746C249.587 52.4532 250.524 51.5833 251.224 50.5347C251.925 49.4861 252.37 48.2879 252.524 47.0362C252.643 46.258 252.553 45.4621 252.263 44.7301C252.114 44.3667 251.878 44.0457 251.575 43.7957C251.272 43.5456 250.913 43.3743 250.528 43.2969L250.058 44.0356C249.385 43.4564 248.254 44.0521 247.971 44.8939C247.789 45.7679 247.864 46.6762 248.19 47.5077C248.514 48.3443 248.499 49.2745 248.149 50.1004C247.77 50.5861 247.345 51.0331 246.878 51.4349C246.65 51.6424 246.501 51.9225 246.457 52.2276C246.413 52.5326 246.476 52.8435 246.636 53.1072C247.077 53.6117 247.904 53.4 248.49 53.0746Z" fill="#E6E6E6"/>
<path d="M243.714 48.9464C244.115 48.2234 244.305 47.4017 244.26 46.5758L243.234 46.2539C242.578 46.5199 241.996 46.9408 241.538 47.4806C241.399 47.6201 241.292 47.7885 241.226 47.974C241.16 48.1594 241.135 48.3573 241.154 48.5533C241.173 48.7493 241.235 48.9387 241.336 49.1079C241.437 49.277 241.574 49.4218 241.737 49.5319C241.901 49.6419 242.086 49.7145 242.281 49.7444C242.476 49.7743 242.675 49.7608 242.863 49.7048C243.052 49.6489 243.226 49.5519 243.373 49.4208C243.52 49.2897 243.637 49.1277 243.714 48.9464Z" fill="#E6E6E6"/>
<path d="M293.884 43.752C293.977 43.8297 294.069 43.9096 294.162 43.988C294.244 43.9709 294.321 43.94 294.405 43.9298L293.884 43.752Z" fill="#E6E6E6"/>
<path d="M292.239 52.7604C293.181 51.9981 294.123 51.2358 295.066 50.4734C295.566 50.1192 295.993 49.6706 296.322 49.1529C296.547 48.6628 296.644 48.1237 296.604 47.586C296.564 47.0483 296.389 46.5294 296.094 46.0777C295.573 45.2771 294.919 44.5706 294.162 43.9883C293.329 44.1853 292.598 44.6806 292.107 45.3806C291.615 46.0805 291.397 46.9364 291.494 47.7862C291.665 48.867 292.343 50.0229 291.789 50.9665C291.574 51.3339 291.203 51.584 290.954 51.93C290.705 52.2759 290.624 52.8269 290.966 53.0813C291.346 53.3637 291.871 53.058 292.239 52.7604Z" fill="#E6E6E6"/>
<path d="M294.3 57.4269C294.65 57.4457 295 57.3889 295.327 57.2604C295.653 57.1319 295.949 56.9346 296.192 56.682C297.452 55.6498 298.554 54.4389 299.463 53.0879C297.343 53.7596 295.223 54.4312 293.102 55.1028L293.763 55.8759C293.176 56.2591 293.611 57.295 294.3 57.4269Z" fill="#E6E6E6"/>
<path d="M300.243 61.7925C300.372 62.1232 300.606 62.4024 300.909 62.5874C301.212 62.7725 301.568 62.8532 301.921 62.8172C302.273 62.7703 302.61 62.6468 302.909 62.4555C303.208 62.2641 303.461 62.0095 303.651 61.7096C303.974 61.2343 304.163 60.6816 304.2 60.1085C304.237 59.5354 304.121 58.9628 303.862 58.4499C303.604 57.9371 303.213 57.5026 302.73 57.1913C302.248 56.8801 301.691 56.7035 301.117 56.6797L301.702 57.5741C301.851 59.1009 299.776 60.3312 300.243 61.7925Z" fill="#E6E6E6"/>
<path d="M341.424 78.5141C341.998 78.9421 342.695 79.1725 343.41 79.1708C344.125 79.1691 344.821 78.9353 345.392 78.5047C345.763 78.1882 346.064 77.7986 346.277 77.3604C346.49 76.9221 346.61 76.4446 346.63 75.9577C346.65 75.4708 346.569 74.9851 346.393 74.5309C346.216 74.0768 345.948 73.664 345.604 73.3184L344.521 73.923C343.92 73.537 343.193 73.399 342.493 73.5381C341.793 73.6772 341.174 74.0826 340.766 74.6689C340.401 75.2834 340.266 76.008 340.387 76.7127C340.507 77.4175 340.875 78.0562 341.424 78.5141Z" fill="#E6E6E6"/>
<path d="M354.018 79.9399C354.545 79.7868 355.024 79.5008 355.41 79.1094C355.795 78.718 356.073 78.2343 356.218 77.7045L354.113 77.4278C353.527 76.9855 352.845 76.6877 352.123 76.5586C351.761 76.5044 351.391 76.5763 351.075 76.7622C350.759 76.9482 350.517 77.2369 350.389 77.5801C350.344 77.872 350.375 78.1706 350.478 78.4473C350.582 78.724 350.754 78.9697 350.979 79.1609C351.377 79.5399 351.865 79.8106 352.397 79.947C352.929 80.0834 353.487 80.081 354.018 79.9399Z" fill="#E6E6E6"/>
<path d="M345.323 84.1491C345.36 84.4916 345.494 84.8165 345.709 85.0858C345.924 85.355 346.211 85.5576 346.537 85.6698C346.893 85.8386 347.291 85.8966 347.68 85.8364C348.069 85.7761 348.432 85.6003 348.72 85.3317C348.847 85.1882 348.938 85.0164 348.985 84.8306C349.033 84.6449 349.035 84.4505 348.992 84.2636C348.95 84.0767 348.863 83.9027 348.739 83.7561C348.616 83.6094 348.459 83.4944 348.282 83.4205L346.703 83.1333C346.093 82.8175 345.313 83.4622 345.323 84.1491Z" fill="#E6E6E6"/>
<path d="M253.711 95.2507L252.489 94.1348C252.814 94.5878 253.23 94.9679 253.711 95.2507Z" fill="#E6E6E6"/>
<path d="M244.377 88.6787C245.129 92.1725 248.893 95.0188 252.309 93.9689L252.489 94.1335C251.401 92.6449 251.217 90.4423 251.471 88.5268C251.942 85.2445 253.233 82.1338 255.223 79.4817C257.214 76.8296 259.84 74.7215 262.86 73.3519C263.687 73.0937 264.427 72.6118 264.998 71.9594C265.484 71.2475 265.303 70.0265 264.464 69.8254C264.008 69.7733 263.548 69.8798 263.162 70.1269L256.813 73.2515C253.607 74.8297 250.336 76.4531 247.817 78.9887C245.299 81.5243 243.625 85.1848 244.377 88.6787Z" fill="#E6E6E6"/>
<path d="M141.896 208.819C135.981 204.584 129.502 201.198 122.648 198.76C118.436 197.262 113.909 196.12 109.52 196.97C107.113 197.468 104.857 198.527 102.936 200.06C101.015 201.594 99.4832 203.559 98.4643 205.796C97.4827 208.049 97.0211 210.494 97.1137 212.95C97.2063 215.405 97.8507 217.809 98.9992 219.982C101.023 223.775 104.528 226.795 105.7 230.932C106.49 233.721 106.116 236.69 105.736 239.563C104.959 245.435 104.181 251.307 103.404 257.178C102.697 262.524 102.008 268.088 103.7 273.208C105.393 278.328 110.223 282.841 115.588 282.298L116.651 282.218C113.102 279.804 112.107 274.808 113.164 270.648C114.221 266.489 116.903 262.961 119.521 259.561C127.292 249.47 135.063 239.379 142.834 229.289C145.979 225.206 149.304 220.16 147.627 215.287C146.674 212.517 144.278 210.524 141.896 208.819Z" fill="#E6E6E6"/>
<path d="M88.9372 183.309C88.1501 183.042 87.3189 183.635 86.8561 184.325C86.4821 185.067 86.0427 185.773 85.5431 186.436C84.3325 187.684 82.1265 187.436 80.8209 186.288C79.5152 185.14 78.9496 183.365 78.6962 181.645C78.3922 179.581 78.5234 177.279 79.8854 175.699C81.2876 174.072 83.5921 173.636 85.7128 173.298C87.9033 172.949 90.3575 172.658 92.1521 173.962C93.2825 174.783 93.9413 176.108 94.9885 177.033C96.0356 177.958 97.8982 178.308 98.6863 177.155C98.8926 176.746 98.9968 176.293 98.9903 175.835C98.9837 175.377 98.8664 174.928 98.6485 174.525C98.2055 173.722 97.939 172.834 97.8668 171.921C97.9195 170.652 98.938 169.645 99.9799 168.92C101.022 168.195 102.199 167.569 102.882 166.5C103.723 165.184 103.634 163.49 104.155 162.018C105.418 158.457 109.923 156.872 111.236 153.329C111.552 152.583 111.588 151.748 111.336 150.979C110.787 149.568 109.302 149.845 109.211 148.119C109.124 146.469 110.5 144.851 111.899 144.162C113.827 143.211 116.075 143.288 118.224 143.231C120.373 143.173 122.689 142.887 124.266 141.426C124.776 140.9 125.17 140.272 125.421 139.583C125.672 138.895 125.774 138.16 125.722 137.429C125.67 136.698 125.464 135.986 125.117 135.34C124.771 134.694 124.292 134.128 123.712 133.68C122.537 132.868 121.051 132.586 119.908 131.73C118.483 130.665 117.809 128.89 116.7 127.499C115.777 126.44 114.721 125.505 113.558 124.717C112.607 124.011 111.655 123.305 110.703 122.598C108.982 121.322 107.192 120.012 105.098 119.557C103.004 119.103 100.51 119.746 99.4618 121.615C99.0483 122.448 98.8224 123.361 98.8001 124.291C98.7046 126.479 98.7959 128.672 99.073 130.845C99.2458 132.594 99.4186 134.343 99.5914 136.093C99.7463 137.661 99.58 139.728 98.0578 140.135C94.6808 141.038 95.8203 136.045 95.0714 134.515C93.925 132.174 88.6577 131.049 86.4059 130.074C84.9996 129.464 83.5155 128.791 82.6664 127.515C81.6095 125.927 81.8264 123.766 82.6552 122.048C83.484 120.33 84.8343 118.931 86.061 117.471C87.3115 115.982 88.4502 114.403 89.5875 112.826C90.9066 110.996 92.2257 109.167 93.5449 107.338C95.2367 104.992 97.0152 102.129 96.0542 99.4006C95.8459 99.0356 95.5346 98.7402 95.1592 98.5514C94.7838 98.3625 94.3611 98.2886 93.9439 98.3389C93.5267 98.3892 93.1336 98.5615 92.8139 98.8342C92.4942 99.1068 92.262 99.4678 92.1464 99.8718C91.7252 101.345 92.8489 103.225 91.774 104.316C91.4058 104.613 90.945 104.771 90.4723 104.762C89.9996 104.753 89.545 104.578 89.1882 104.268C88.492 103.625 87.9618 102.823 87.6427 101.931C86.3404 99.037 85.0716 96.1251 83.7349 93.2469C83.3123 92.337 82.8712 90.7791 81.5906 90.9324C80.4788 91.0656 79.8784 92.6857 79.917 93.6263C79.9732 94.9949 80.7297 96.2177 81.3078 97.4594C81.8859 98.7011 82.2902 100.192 81.6554 101.406C80.8517 102.943 78.8162 103.288 77.0827 103.237C73.8152 103.138 70.6136 102.293 67.7227 100.767C67.6471 102.373 67.5716 103.979 67.496 105.585C65.1951 104.622 62.8942 103.659 60.5933 102.696C60.1464 102.509 59.6996 102.322 59.2527 102.135C57.3117 101.323 55.3684 100.509 53.3703 99.8497C52.236 99.4753 51.0859 99.1511 49.9362 98.827C49.2373 98.63 48.5384 98.4331 47.8395 98.2361C46.4604 97.7474 44.9977 97.5387 43.537 97.6223C42.0023 97.8151 40.6335 98.6393 39.2141 99.2555C36.0475 100.63 31.9518 99.2472 28.5584 99.2228C27.2124 97.2577 25.3951 95.6614 23.2729 94.58C21.1506 93.4986 18.7911 92.9666 16.4101 93.0325C14.0291 93.0985 11.7027 93.7604 9.64357 94.9576C7.58446 96.1549 5.85838 97.8493 4.62322 99.8859C4.0266 100.918 3.49529 101.986 3.0324 103.084C2.57198 104.116 2.11155 105.148 1.6511 106.18C0.975662 107.694 0.285319 109.288 0.41808 110.941C0.550842 112.593 1.81742 114.281 3.47486 114.266C-0.433517 116.035 -1.2468 122.227 2.07206 124.945C2.99106 125.698 4.118 126.191 4.94501 127.044C5.57007 127.688 5.98824 128.505 6.14586 129.389C6.30348 130.273 6.19335 131.184 5.82962 132.005C5.46588 132.826 4.86512 133.519 4.10446 133.996C3.34379 134.473 2.45791 134.712 1.56051 134.682C3.87597 135.577 6.42645 135.66 8.79533 134.918C11.1642 134.176 13.2115 132.653 14.6027 130.597C16.0216 128.375 16.6383 125.6 18.5685 123.805C21.1249 121.427 25.3473 121.612 28.2957 123.481C31.244 125.351 33.1092 128.534 34.3922 131.78C36.0734 136.035 37.1494 140.897 40.7313 143.743C42.4632 145.119 44.6565 145.893 46.1873 147.49C48.3673 149.764 48.7445 153.196 48.6953 156.346C48.6462 159.496 48.3069 162.764 49.4543 165.698C50.6017 168.632 53.8911 171.045 56.8408 169.939C55.9958 172.446 56.0217 175.165 56.9144 177.655C57.807 180.146 59.5141 182.262 61.7592 183.662C61.2219 180.329 60.6845 176.996 60.1471 173.662C62.8255 174.416 64.5615 177.014 65.5641 179.61C66.5667 182.205 67.0964 185.013 68.5496 187.385C70.838 191.122 74.982 192.732 79.1976 192.718C83.7516 192.702 85.4805 190.531 88.4816 187.333C89.0845 186.788 89.5422 186.101 89.8132 185.334C89.9357 184.948 89.9145 184.53 89.7536 184.158C89.5926 183.786 89.3027 183.484 88.9372 183.309Z" fill="#E6E6E6"/>
<path d="M101.832 183.144C99.2867 182.744 96.7413 182.343 94.1958 181.943C95.5302 182.746 96.8646 183.548 98.199 184.35C99.3117 185.091 100.522 185.673 101.794 186.082C102.432 186.283 103.105 186.35 103.77 186.28C104.436 186.21 105.079 186.004 105.662 185.675L105.336 185.052C104.823 183.754 103.211 183.36 101.832 183.144Z" fill="#E6E6E6"/>
<path d="M100.103 197.292L100.12 197.248C99.9662 196.993 99.7395 196.789 99.469 196.664C99.1986 196.539 98.8968 196.497 98.6025 196.544C98.0161 196.649 97.4167 196.659 96.8272 196.573C96.4528 196.427 96.1189 196.193 95.8533 195.891C95.5878 195.589 95.3984 195.228 95.3009 194.838C95.0479 194.077 94.973 193.263 94.6849 192.514C94.4767 191.922 94.1092 191.399 93.6228 191.002C93.1365 190.605 92.5501 190.35 91.9282 190.265C91.3042 190.215 90.6855 190.413 90.206 190.815C89.7265 191.218 89.4246 191.793 89.3657 192.416C89.4147 193.058 89.6186 193.678 89.9599 194.224C90.2345 194.752 90.509 195.28 90.7836 195.808C91.015 196.281 91.2812 196.737 91.5799 197.171C92.066 197.84 92.7014 198.387 93.4359 198.768C94.1703 199.149 94.9835 199.354 95.8109 199.366C96.6382 199.378 97.4569 199.196 98.2019 198.836C98.9469 198.476 99.5977 197.948 100.103 197.292Z" fill="#E6E6E6"/>
<path d="M85.2367 61.8348C87.175 62.9775 89.6021 63.765 90.5231 65.8179L91.0544 65.9895C90.4748 66.7097 89.8953 67.4297 89.3158 68.1498C88.5996 69.0397 87.8466 70.0313 87.8633 71.1734C87.8864 72.7464 89.3995 73.9331 90.9284 74.304C92.5598 74.6397 94.2578 74.3572 95.6928 73.5114C97.1277 72.6656 98.1972 71.3169 98.6937 69.727C98.8755 69.0639 98.9505 68.3761 99.11 67.7073C99.5747 66.1211 100.276 64.614 101.191 63.2372C106.337 54.5783 111.484 45.9195 116.631 37.2606C117.272 36.1823 117.933 34.8923 117.451 33.7341C117.194 33.2442 116.796 32.8426 116.308 32.581C115.82 32.3194 115.266 32.2097 114.715 32.2662C113.617 32.3996 112.557 32.756 111.601 33.3134C111.177 32.5675 110.577 31.9358 109.855 31.4726C109.132 31.0093 108.308 30.7284 107.453 30.6538C105.743 30.5219 104.023 30.6717 102.362 31.0973C98.609 31.6635 94.9899 32.9068 91.681 34.7665C89.8709 35.6816 87.8788 36.8117 87.3537 38.7709C86.7077 41.1808 88.7896 43.6369 91.1865 44.3295C93.5834 45.0221 96.1419 44.4405 98.5679 43.8575C98.8421 45.0335 98.7278 46.2667 98.2421 47.3723C97.7565 48.4779 96.9256 49.3963 95.874 49.9899C94.8224 50.5835 93.6067 50.8203 92.4092 50.6649C91.2117 50.5094 90.0968 49.97 89.2316 49.1275C87.4927 47.4343 86.641 44.4949 84.2535 44.0579C81.8736 43.6223 79.9819 46.1607 79.4567 48.5224C78.9429 51.0662 79.2216 53.7063 80.2551 56.0867C81.2887 58.4672 83.0274 60.4734 85.2367 61.8348Z" fill="#E6E6E6"/>
<path d="M115.087 103.501C113.941 100.271 112.435 97.1794 110.597 94.2862C109.204 91.9985 107.484 89.9264 105.493 88.1353C103.673 86.5636 101.581 85.3381 99.3195 84.5191C97.1247 83.7254 94.6814 83.3334 92.4626 84.057C90.2438 84.7807 88.3562 86.8437 88.4012 89.177C88.4509 91.757 90.7083 93.7748 93.061 94.835C95.4136 95.8951 98.0307 96.3565 100.25 97.6725C101.76 98.5878 103.021 99.8598 103.923 101.377C104.826 102.894 105.342 104.609 105.426 106.372L105.985 107.296C104.718 107.716 103.537 108.359 102.498 109.195C101.983 109.62 101.589 110.173 101.356 110.799C101.124 111.425 101.061 112.101 101.173 112.759C101.561 114.322 103.156 115.218 104.599 115.932C107.264 117.253 109.929 118.573 112.595 119.893C111.238 115.846 115.681 112.08 115.927 107.819C115.936 106.338 115.651 104.87 115.087 103.501Z" fill="#E6E6E6"/>
<path d="M48.0675 92.5739C49.6844 93.8295 52.1703 93.2421 53.6516 91.8291C55.1328 90.416 55.8542 88.4051 56.5269 86.4716C56.2812 88.3853 56.3045 90.324 56.5961 92.2313C56.7479 93.1851 57.0961 94.0969 57.6186 94.9091C58.1412 95.7213 58.8266 96.4161 59.6316 96.9497C60.3625 97.3506 61.1503 97.6374 61.9679 97.8003C65.7685 98.6652 69.7404 98.3815 73.3794 96.985L73.4121 95.7406C71.5839 95.9492 70.2006 93.9442 70.0799 92.1082C69.9592 90.2722 70.6255 88.4716 70.6841 86.6326C70.7427 84.7936 69.8563 82.6449 68.0457 82.3177C68.3626 82.9542 68.4782 83.672 68.377 84.3758C68.2759 85.0796 67.9628 85.7358 67.4795 86.2573C66.9961 86.7787 66.3655 87.1406 65.6714 87.2948C64.9773 87.449 64.2527 87.3881 63.5941 87.1204C61.4983 86.2683 60.7369 83.7151 59.1173 82.1354C58.1166 81.2452 56.875 80.6707 55.5487 80.4842C54.2224 80.2976 52.8706 80.5073 51.6631 81.0869C50.471 81.6952 49.4251 82.5551 48.5979 83.6071C47.7706 84.6592 47.1816 85.8783 46.8716 87.1802C46.3797 89.0694 46.5257 91.3765 48.0675 92.5739Z" fill="#E6E6E6"/>
<path d="M97.9678 79.4712L98.0428 79.3494C97.5914 78.046 96.1923 77.2817 94.8267 77.0878C93.45 76.9969 92.0677 77.0426 90.7 77.2242C89.3198 77.4027 87.9204 77.0945 86.7429 76.3526C85.8029 75.6498 85.2673 74.5442 84.5158 73.6426C83.7643 72.741 82.548 71.9997 81.4563 72.4307C80.2745 72.8975 79.9592 74.5541 80.5327 75.688C81.2084 76.7762 82.2276 77.6082 83.4292 78.0521C87.9795 80.1408 93.0995 80.6405 97.9678 79.4712Z" fill="#E6E6E6"/>
<path d="M82.4358 83.3777C82.0578 83.6546 81.8016 84.0669 81.7206 84.5284C81.6397 84.99 81.7404 85.4649 82.0017 85.8539C82.2629 86.2429 82.6644 86.5158 83.1223 86.6155C83.5801 86.7152 84.0588 86.6339 84.4581 86.3888L84.8569 86.7824C85.3872 85.8328 85.6059 84.5605 84.9277 83.7101C84.6262 83.3576 84.2052 83.1287 83.7454 83.0673C83.2855 83.006 82.8192 83.1165 82.4358 83.3777Z" fill="#E6E6E6"/>
<path d="M77.7698 86.785C77.7756 86.4457 77.6786 86.1126 77.4915 85.8295C77.3044 85.5464 77.0359 85.3266 76.7215 85.1989C76.5075 85.1622 76.2882 85.1692 76.077 85.2195C75.8657 85.2698 75.6668 85.3623 75.4922 85.4914C75.3177 85.6206 75.1711 85.7838 75.0613 85.9711C74.9514 86.1585 74.8807 86.3661 74.8532 86.5816C74.8203 87.0204 74.878 87.4613 75.0227 87.8769C75.1673 88.2925 75.3959 88.674 75.6942 88.9975C75.8677 89.2582 76.0945 89.4791 76.3596 89.6456C76.6248 89.8122 76.9222 89.9207 77.2323 89.964C77.8572 89.9844 78.4944 89.331 78.241 88.7594L77.2868 88.7408C77.5808 88.1291 77.7452 87.4632 77.7698 86.785Z" fill="#E6E6E6"/>
<path d="M59.1105 77.0138C59.4609 77.2978 59.8113 77.5818 60.1618 77.8659C60.7687 78.3906 61.4244 78.8562 62.1199 79.2562C63.3364 79.9301 64.767 80.1052 66.1101 79.7447C66.7732 79.5556 67.378 79.2026 67.8687 78.7183C68.3595 78.234 68.7205 77.6339 68.9184 76.9734C69.3374 75.3946 68.6539 73.7553 67.9851 72.2651C67.8324 71.8386 67.5805 71.4546 67.2503 71.1447C67.081 70.9948 66.8651 70.9081 66.6393 70.8992C66.4134 70.8903 66.1914 70.9598 66.0109 71.096C65.88 71.259 65.793 71.4527 65.7581 71.6588C65.7232 71.8649 65.7415 72.0765 65.8114 72.2735C65.9552 72.6661 66.0209 73.083 66.0049 73.5007C65.9382 73.9128 65.5057 74.3023 65.1247 74.1319L65.064 75.5346C63.2446 74.6136 62.2823 72.1637 60.2574 71.9222C59.803 71.8679 59.3424 71.9396 58.9258 72.1292C58.5093 72.3189 58.1528 72.6193 57.8954 72.9977C57.6379 73.3761 57.4893 73.8179 57.4657 74.275C57.4422 74.732 57.5446 75.1868 57.7618 75.5896C58.1134 76.1484 58.5717 76.6324 59.1105 77.0138Z" fill="#E6E6E6"/>
<path d="M54.7769 70.9574C55.1978 70.6689 55.5308 70.2697 55.7392 69.8039C55.9477 69.3381 56.0234 68.8238 55.9582 68.3176C55.9078 68.0725 55.804 67.8415 55.6542 67.641C55.5044 67.4405 55.3123 67.2755 55.0915 67.1577C54.8707 67.0398 54.6267 66.9721 54.3768 66.9593C54.1268 66.9464 53.8772 66.9888 53.6455 67.0835C53.1256 67.4721 52.7605 68.0325 52.6149 68.665C52.1353 70.0177 51.6558 71.3703 51.1763 72.723L51.9822 72.1365C52.9793 71.9218 53.9273 71.5219 54.7769 70.9574Z" fill="#E6E6E6"/>
<path d="M64.1163 62.6568C64.2603 62.4753 64.3627 62.2643 64.4164 62.0389C64.4701 61.8135 64.4737 61.579 64.427 61.352C64.3803 61.125 64.2844 60.9111 64.1461 60.7251C64.0078 60.5392 63.8304 60.3858 63.6264 60.2759L62.6187 60.1816C62.3896 60.2397 62.1772 60.3506 61.9987 60.5055C61.8202 60.6604 61.6805 60.855 61.5907 61.0736C61.501 61.2923 61.4638 61.529 61.4821 61.7646C61.5003 62.0003 61.5736 62.2284 61.696 62.4306C61.8183 62.6328 61.9863 62.8035 62.1866 62.9291C62.3869 63.0546 62.6138 63.1315 62.8491 63.1535C63.0844 63.1755 63.3216 63.142 63.5417 63.0558C63.7618 62.9695 63.9586 62.8329 64.1163 62.6568Z" fill="#E6E6E6"/>
<path d="M73.3873 64.2121C74.3276 64.662 75.518 65.0907 76.3361 64.4447C76.5784 64.2254 76.7587 63.946 76.8587 63.6349C76.9586 63.3237 76.9749 62.9917 76.9057 62.6723C76.7588 62.035 76.4751 61.4374 76.0741 60.9208C74.823 59.1246 73.2335 57.5898 71.3947 56.4023L70.94 56.9931C70.3049 58.6421 69.6918 60.5672 70.5775 62.0963C71.1748 63.1271 72.3126 63.6979 73.3873 64.2121Z" fill="#E6E6E6"/>
<path d="M80.3931 65.6795L82.1515 66.4749C81.9791 66.1744 81.7165 65.9358 81.4008 65.793C81.0852 65.6503 80.7326 65.6105 80.3931 65.6795Z" fill="#E6E6E6"/>
<path d="M75.6542 71.2113L74.8233 71.485C74.1167 72.6461 74.4232 74.1308 74.7519 75.4497C74.9597 76.2835 75.4078 77.3094 76.2662 77.2715C77.1015 77.2346 77.4711 76.2217 77.6314 75.4012C77.8816 74.5097 77.9087 73.5705 77.7104 72.6661C77.5972 72.2184 77.3278 71.8258 76.9508 71.5591C76.5739 71.2923 76.1141 71.169 75.6542 71.2113Z" fill="#E6E6E6"/>
<path d="M62.4031 67.3036L63.0179 67.5512C63.162 67.5306 63.2954 67.463 63.3972 67.359C63.4991 67.255 63.5638 67.1202 63.5813 66.9757C63.5988 66.8311 63.5682 66.6848 63.4941 66.5595C63.42 66.4341 63.3066 66.3367 63.1716 66.2823C63.0365 66.2279 62.8873 66.2196 62.747 66.2586C62.6067 66.2976 62.4832 66.3819 62.3957 66.4982C62.3081 66.6146 62.2614 66.7565 62.2627 66.9022C62.2641 67.0478 62.3134 67.1889 62.4031 67.3036Z" fill="#E6E6E6"/>
<path d="M93.3997 114.316C93.1019 114.323 92.81 114.401 92.5483 114.543C92.2866 114.685 92.0627 114.888 91.8954 115.135C91.7281 115.381 91.6221 115.664 91.5863 115.96C91.5505 116.256 91.586 116.556 91.6897 116.835C92.2935 118.135 94.3729 118.141 95.297 117.045C95.5337 116.733 95.7032 116.376 95.795 115.996C95.8868 115.616 95.8988 115.221 95.8302 114.836C95.7616 114.451 95.614 114.084 95.3966 113.759C95.1792 113.434 94.8968 113.158 94.5672 112.947L93.3997 114.316Z" fill="#E6E6E6"/>
<path d="M123.348 145.115C123.106 145.179 122.88 145.291 122.682 145.445C122.485 145.598 122.32 145.79 122.198 146.008C122.076 146.226 121.998 146.467 121.971 146.715C121.943 146.964 121.965 147.215 122.036 147.455L123.763 147.575C124.347 147.282 124.932 146.988 125.516 146.695C125.481 146.447 125.396 146.209 125.267 145.995C125.139 145.78 124.968 145.594 124.766 145.447C124.564 145.299 124.334 145.194 124.091 145.137C123.847 145.08 123.595 145.073 123.348 145.115Z" fill="#E6E6E6"/>
<path d="M116.332 147.251C115.838 147.602 115.441 148.072 115.18 148.619C114.918 149.165 114.8 149.769 114.836 150.374C114.892 150.977 115.139 151.547 115.54 152C115.942 152.454 116.477 152.768 117.069 152.897C117.667 152.991 118.277 152.854 118.778 152.515C119.278 152.175 119.631 151.658 119.765 151.069C120.057 149.283 118.138 147.975 117.449 146.303L116.332 147.251Z" fill="#E6E6E6"/>
<path d="M183.379 135.458C183.561 136.799 182.353 137.973 182.308 139.325C182.255 140.929 184.001 142.177 185.598 142.02C186.391 141.882 187.141 141.563 187.79 141.086C188.438 140.61 188.967 139.99 189.336 139.274L189.37 139.124C188.592 138.245 187.814 137.365 187.036 136.486C186.081 135.406 185.068 134.177 185.105 132.735C185.124 132.025 185.404 131.336 185.388 130.625C185.351 130.114 185.237 129.612 185.05 129.134C184.839 128.506 184.552 127.797 183.924 127.585C183.138 127.319 182.344 128.016 181.969 128.756C181.631 129.439 181.467 130.195 181.491 130.956C181.515 131.717 181.726 132.461 182.106 133.121C182.56 133.893 183.258 134.571 183.379 135.458Z" fill="#E6E6E6"/>
<path d="M176.042 140.174C176.212 140.265 176.4 140.319 176.593 140.332C176.786 140.344 176.979 140.315 177.159 140.245C177.853 140.127 178.519 139.885 179.126 139.531C179.428 139.349 179.676 139.091 179.845 138.782C180.014 138.474 180.098 138.126 180.089 137.774C179.983 137.332 179.75 136.93 179.416 136.621C179.083 136.312 178.666 136.108 178.217 136.036C177.905 135.926 177.572 135.895 177.245 135.945C176.918 135.995 176.609 136.124 176.344 136.322C175.765 136.866 175.834 137.789 175.948 138.576L175.825 138.78C175.716 139.266 175.647 139.87 176.042 140.174Z" fill="#E6E6E6"/>
<path d="M298.503 197.459C298.335 197.04 298.166 196.622 297.998 196.203C297.767 196.771 297.853 197.353 298.503 197.459Z" fill="#E6E6E6"/>
<path d="M399.52 109.438C397.361 107.095 396.039 105.744 394.675 102.84C393.933 101.238 392.806 99.8452 391.394 98.7852C389.983 97.7252 388.33 97.0311 386.585 96.7651C382.105 96.027 377.527 97.1958 372.993 96.9616C365.73 96.5864 359.181 92.6908 352.225 90.566C348.331 89.4749 344.365 88.657 340.356 88.1182C338.047 87.7529 335.737 87.3877 333.427 87.0224C325.857 85.8251 318.237 84.6243 310.574 84.7833C308.364 84.8292 305.286 84.165 305.463 81.9619C305.683 79.2255 310.606 79.5848 311.553 77.0081C312.139 75.4142 310.737 73.7406 309.199 73.0199C307.661 72.2992 305.886 72.0825 304.491 71.1148C303.095 70.1472 302.331 67.9041 303.613 66.791C300.058 68.6134 296.503 70.4358 292.948 72.2583C289.993 73.7734 286.691 75.7447 286.169 79.0248C284.388 79.4954 282.829 80.5781 281.767 82.083C279.767 82.0934 278.195 84.0132 277.866 85.9855C277.536 87.9578 278.135 89.9539 278.728 91.8638C278.003 90.4745 277.232 89.0321 275.954 88.1255C274.675 87.219 272.729 87.0463 271.639 88.1725C270.521 89.3282 270.782 91.2671 271.573 92.6673C272.365 94.0675 273.58 95.1976 274.327 96.6221C276.659 101.071 272.433 107.335 267.435 106.839C267.77 102.245 268.105 97.6511 268.441 93.0569C268.653 91.6438 268.534 90.2006 268.093 88.8413C267.548 87.5261 266.152 86.446 264.763 86.7565C262.264 87.3149 262.478 90.9745 263.517 93.3139C264.556 95.6533 265.592 98.9067 263.471 100.339C262.101 101.265 260.243 100.693 258.764 99.9547C257.285 99.2162 255.703 98.3061 254.087 98.6511C252.47 98.9962 251.453 101.467 252.882 102.3C250.513 101.888 248.144 101.476 245.775 101.065C245.658 101.762 245.395 102.427 245.005 103.017C244.615 103.606 244.105 104.107 243.509 104.488C242.913 104.868 242.244 105.119 241.544 105.224C240.845 105.33 240.132 105.288 239.45 105.1C239.217 104.136 238.985 103.173 238.752 102.209C238.406 102.112 238.059 102.016 237.712 101.919C238.8 102.222 237.098 106.811 235.572 110.317C233.52 110.076 230.522 110.03 230.18 109.442C228.541 106.626 228.736 99.9201 225.889 98.3361C224.462 97.5418 222.998 96.818 221.498 96.1647C220.71 95.7897 219.877 95.5163 219.02 95.3512C217.272 95.0757 215.51 95.6179 213.823 96.1536C211.83 96.7865 209.79 97.4433 208.14 98.7278C206.731 99.9501 205.523 101.387 204.56 102.985C201.302 107.807 198.044 112.63 194.785 117.452C193.815 118.74 193.051 120.171 192.521 121.694C192.272 122.452 192.189 123.254 192.278 124.047C192.367 124.839 192.626 125.603 193.037 126.287C193.471 126.957 194.117 127.461 194.872 127.719C195.627 127.977 196.446 127.973 197.199 127.709C198.143 127.3 199.089 126.374 200.025 126.802C200.734 127.126 200.911 128.057 200.837 128.833C200.657 129.593 200.642 130.382 200.795 131.148C201.221 132.355 202.86 132.775 204.029 132.253C205.166 131.633 206.018 130.596 206.405 129.36C207.532 126.471 207.417 123.274 207.698 120.186C207.978 117.098 208.822 113.795 211.257 111.875C211.986 111.3 213.057 110.885 213.807 111.432C214.088 111.687 214.282 112.024 214.362 112.395C214.443 112.766 214.405 113.153 214.255 113.501C213.941 114.191 213.532 114.834 213.04 115.41C212.208 116.58 211.626 117.909 211.33 119.314C211.034 120.72 211.03 122.17 211.319 123.577L211.816 123.885C213.715 123.393 216.256 124.274 218.776 125.12C216.947 125.664 215.336 126.772 214.173 128.286C211.26 132.373 209.151 136.242 203.388 136.193C202.02 136.182 200.665 135.911 199.298 135.908C197.918 135.823 196.558 136.276 195.505 137.172C194.468 138.186 194.148 139.732 193.261 140.88C192.095 142.39 190.146 143.003 188.366 143.689C187.065 144.19 185.694 144.866 185.096 146.125C184.72 147.158 184.634 148.274 184.846 149.352C185.046 151.259 185.401 153.428 187.019 154.458C187.624 154.773 188.285 154.966 188.965 155.023C189.645 155.081 190.33 155.002 190.98 154.793C192.662 154.383 194.308 153.613 196.036 153.728C198.75 153.909 200.984 156.513 201.012 159.233C201.026 160.609 200.624 162.188 201.537 163.219C202.394 164.187 204.094 164.015 204.983 163.074C205.395 162.574 205.68 161.98 205.81 161.345C205.941 160.71 205.913 160.052 205.731 159.429C205.354 158.19 204.774 157.021 204.014 155.971C204.917 155.737 205.874 155.823 206.72 156.214C207.567 156.606 208.252 157.278 208.659 158.118C209.262 159.457 209.067 161.002 209.259 162.458C209.452 163.914 210.338 165.532 211.804 165.616C212.283 165.629 212.752 165.474 213.129 165.178C213.507 164.882 213.768 164.463 213.869 163.994C213.885 163.256 213.844 162.517 213.749 161.784C213.799 161.063 214.123 160.388 214.655 159.898C215.187 159.408 215.886 159.14 216.609 159.149C216.163 159.973 216.018 160.927 216.198 161.846C216.378 162.766 216.873 163.594 217.598 164.188C218.713 165.051 220.188 165.244 221.578 165.486C222.968 165.727 224.45 166.108 225.347 167.197C226.842 169.011 225.013 169.828 224.729 171.363C224.379 173.249 225.954 176.033 226.559 177.837C229.339 181.726 232.119 185.615 234.899 189.504C235.519 190.45 236.251 191.317 237.079 192.088C239.823 194.445 244.347 194.213 246.979 191.731C248.255 190.44 249.083 188.774 249.342 186.978C249.602 185.181 249.279 183.349 248.42 181.75C246.794 178.789 243.571 176.956 241.98 173.977C244.629 176.169 247.88 177.506 251.305 177.812C257.364 179.043 263.121 181.457 268.247 184.917C268.487 190.271 270.542 195.384 274.072 199.417C274.707 194.848 276.838 190.617 280.131 187.386C282.273 185.297 285.199 183.613 288.137 184.175C291.076 184.736 293.305 188.483 291.527 190.89C293.017 191 294.506 191.111 295.995 191.222C296.663 192.882 297.331 194.543 297.998 196.203C298.117 195.854 298.345 195.553 298.648 195.342C298.95 195.132 299.313 195.025 299.681 195.035C301.075 195.246 302.053 196.543 303.379 197.022C305.879 197.924 308.551 195.424 308.874 192.786C309.197 190.148 307.942 187.601 306.723 185.24C309.417 185.738 312.197 185.441 314.724 184.384C317.25 183.327 319.414 181.556 320.95 179.288C322.486 177.02 323.327 174.354 323.371 171.615C323.415 168.876 322.659 166.184 321.196 163.868C324.094 160.825 327.505 158.314 331.272 156.451C334.758 154.728 338.572 153.546 341.619 151.13C344.665 148.714 346.802 144.519 345.337 140.917C344.301 138.373 341.705 136.646 340.928 134.011C339.803 130.197 343.22 126.252 347.081 125.299C350.941 124.346 354.973 125.517 358.776 126.679C358.192 122.766 362.727 119.098 366.432 120.487C367.983 119.859 369.535 119.231 371.086 118.603C369.288 122.568 365.391 125.091 362.525 128.369C359.659 131.647 357.953 136.985 360.946 140.147C365.237 136.258 369.528 132.369 373.818 128.48C378.306 124.412 382.795 120.344 387.283 116.276C387.068 115.647 386.854 115.017 386.64 114.388C390.886 112.775 395.459 111.441 399.52 109.438Z" fill="#E6E6E6"/>
<path d="M176.657 161.779C176.484 162.029 176.392 162.326 176.393 162.63C176.395 162.934 176.49 163.23 176.666 163.478C176.896 163.673 177.188 163.783 177.49 163.787C177.792 163.791 178.087 163.689 178.322 163.5C178.783 163.106 179.143 162.608 179.372 162.047C179.595 162.478 179.945 162.83 180.375 163.056C180.805 163.281 181.294 163.368 181.775 163.306C182.736 163.161 183.647 162.781 184.427 162.2C185.045 161.838 185.591 161.364 186.037 160.803C186.258 160.521 186.409 160.19 186.479 159.839C186.549 159.487 186.537 159.124 186.442 158.779C186.21 158.249 185.851 157.784 185.395 157.428C184.26 156.379 183.124 155.33 181.989 154.282L181.604 154.166C181.404 153.953 181.163 153.783 180.895 153.665C180.627 153.548 180.339 153.486 180.046 153.483C179.754 153.479 179.464 153.535 179.194 153.647C178.924 153.759 178.679 153.924 178.474 154.133C177.769 154.922 177.766 156.101 177.874 157.154C177.981 158.207 178.149 159.328 177.68 160.277C177.412 160.821 176.956 161.252 176.657 161.779Z" fill="#E6E6E6"/>
<path d="M242.53 197.603C238.118 196.62 234.079 194.396 230.891 191.191C227.703 187.987 225.499 183.937 224.539 179.52C224.121 177.435 223.931 175.158 222.545 173.546C221.202 171.986 219.009 171.423 216.951 171.423C214.893 171.423 212.864 171.897 210.809 172.025C207.218 172.249 203.412 171.3 200.844 168.78C199.628 167.586 198.707 166.07 197.286 165.129C195.377 163.864 192.846 163.865 190.671 164.582C188.248 165.38 186.309 167.565 183.66 167.264C180.905 166.952 177.711 165.978 176.631 169.606C176.32 170.65 176.426 171.796 176.032 172.812C175.425 174.378 173.814 175.261 172.539 176.355C169.972 178.559 168.607 181.907 168.147 185.259C167.688 188.611 168.043 192.016 168.399 195.38C168.591 197.195 168.844 199.148 170.091 200.481C171.828 202.339 174.744 202.267 177.28 202.058C180.225 201.815 183.171 201.572 186.116 201.328C187.704 201.197 189.513 201.142 190.644 202.264C191.321 202.937 191.608 203.91 192.203 204.657C192.738 205.291 193.472 205.726 194.286 205.89C195.1 206.054 195.945 205.938 196.684 205.56C196.086 206.627 195.761 207.825 195.737 209.047C195.713 210.27 195.99 211.48 196.545 212.57C197.1 213.659 197.915 214.595 198.918 215.295C199.921 215.995 201.081 216.436 202.295 216.581L202.522 216.724C200.637 219.953 198.68 223.579 199.462 227.236C200.133 230.372 202.729 232.885 203.154 236.064C203.544 238.98 202.022 241.962 202.695 244.825C203.377 247.726 206.306 249.747 209.277 249.963C212.248 250.179 215.167 248.861 217.469 246.969C219.771 245.078 221.55 242.642 223.304 240.233C224.387 238.746 225.497 237.199 225.869 235.397C226.264 233.48 225.806 231.355 226.738 229.634C227.813 227.649 230.365 226.905 231.653 225.052C233.321 222.651 232.338 219.382 232.707 216.482C233.619 209.306 242.737 204.834 242.53 197.603Z" fill="#E6E6E6"/>
<path d="M241.213 222.101C240.964 223.222 239.915 223.96 238.915 224.524C237.915 225.088 236.816 225.657 236.306 226.685C235.784 227.739 236.023 228.994 236.296 230.138C236.864 232.517 237.532 234.869 238.302 237.193C239.794 234.374 241.097 231.459 242.201 228.467C242.669 227.353 242.958 226.172 243.057 224.968C243.103 224.366 243.021 223.76 242.819 223.191C242.616 222.621 242.296 222.1 241.88 221.662L241.213 222.101Z" fill="#E6E6E6"/>
<path d="M302.571 209.62C301.318 208.173 300.065 206.727 298.812 205.281C297.955 204.292 296.978 203.235 295.68 203.07L295.146 203.412C296.232 205.998 297.318 208.585 298.404 211.171C298.789 212.353 299.466 213.417 300.372 214.267C301.345 215.031 302.921 215.177 303.732 214.244C303.994 213.894 304.159 213.481 304.21 213.047C304.262 212.614 304.199 212.174 304.027 211.772C303.673 210.974 303.18 210.245 302.571 209.62Z" fill="#E6E6E6"/>
<path d="M314.71 212.39C315.184 212.225 315.618 211.964 315.985 211.622C316.351 211.28 316.643 210.865 316.84 210.405C317.228 209.481 317.485 208.508 317.602 207.514C317.816 206.219 318.03 204.923 318.244 203.628L317.964 203.556C317.692 203.426 317.382 203.398 317.091 203.479C316.8 203.56 316.548 203.743 316.382 203.995C316.067 204.509 315.828 205.067 315.674 205.65C315.594 205.942 315.45 206.212 315.252 206.439C315.054 206.667 314.806 206.848 314.529 206.967C313.523 207.27 312.571 206.204 311.521 206.246C311.097 206.3 310.704 206.496 310.405 206.802C310.107 207.108 309.921 207.507 309.878 207.932C309.817 208.791 310.061 209.643 310.566 210.341C311.461 211.73 313.122 212.847 314.71 212.39Z" fill="#E6E6E6"/>
<path d="M321.637 214.845L324.524 207.24C323.355 208.089 322.458 209.26 321.945 210.611C321.432 211.962 321.325 213.434 321.637 214.845Z" fill="#E6E6E6"/>
<path d="M336.372 208.715L335.788 208.74C335.527 209.256 335.389 209.825 335.383 210.403C335.377 210.982 335.505 211.553 335.756 212.074C336.269 213.113 337.014 214.019 337.934 214.722C339.361 215.9 340.989 216.809 342.74 217.406C345.307 218.154 347.962 218.563 350.636 218.622C352.164 218.722 353.693 218.822 355.221 218.922C355.949 218.969 356.891 218.877 357.093 218.176C357.261 217.597 356.767 217.053 356.307 216.664C352.263 213.261 347.36 211.036 342.136 210.233C340.155 209.931 338.052 209.807 336.372 208.715Z" fill="#E6E6E6"/>
<path d="M352.687 228.897C351.588 227.831 350.489 226.765 349.39 225.7C348.321 224.663 346.719 223.564 345.494 224.411C344.79 224.897 344.572 225.846 343.976 226.46C343.612 226.785 343.173 227.015 342.698 227.128C342.223 227.241 341.728 227.234 341.257 227.107C340.318 226.843 339.43 226.422 338.631 225.863L335.904 224.17C334.963 223.586 334.021 223.002 333.08 222.418L330.956 224.482C331.048 223.466 329.694 222.806 328.756 223.208C328.31 223.458 327.927 223.805 327.634 224.224C327.341 224.643 327.146 225.122 327.064 225.626C326.908 226.635 326.636 227.621 326.252 228.567C325.174 230.632 322.555 231.243 320.252 231.589C317.948 231.935 315.338 232.422 314.105 234.399C313.078 236.045 313.386 238.158 313.729 240.068L315.027 247.293C315.088 248.168 315.44 248.998 316.025 249.652C317.166 250.659 318.932 250.047 320.324 249.433C323.234 248.033 326.357 247.128 329.564 246.755C332.8 246.392 336.056 247.226 338.719 249.099C340.37 250.356 341.629 252.097 343.378 253.213C344.583 253.938 345.937 254.378 347.338 254.5C348.739 254.623 350.149 254.424 351.462 253.919C354.092 252.871 356.269 250.93 357.609 248.436C358.8 246.237 359.397 243.766 359.343 241.267C359.288 238.767 358.584 236.324 357.299 234.179C355.987 232.234 354.438 230.46 352.687 228.897Z" fill="#E6E6E6"/>
<path d="M349.446 258.333C349.182 258.653 349.028 259.049 349.006 259.464C348.984 259.878 349.095 260.288 349.323 260.635C349.802 261.322 350.532 261.792 351.355 261.943C352.17 262.089 353.001 262.127 353.826 262.057L353.851 261.44C353.632 260.358 353.133 259.353 352.404 258.523C351.608 257.766 350.201 257.534 349.446 258.333Z" fill="#E6E6E6"/>
<path d="M377.753 258.992L377.359 258.848C376.421 260.261 375.483 261.675 374.545 263.089C374.04 263.85 373.514 264.763 373.821 265.622C374.186 266.64 375.533 266.938 376.58 266.669C377.378 266.452 378.098 266.012 378.656 265.4C379.213 264.788 379.584 264.03 379.726 263.215C379.842 262.396 379.716 261.56 379.366 260.811C379.016 260.061 378.455 259.429 377.753 258.992Z" fill="#E6E6E6"/>
<path d="M384.904 254.504L382.314 252.445C382.28 253.4 382.245 254.355 382.21 255.31L382.113 255.312C382.71 255.836 383.274 256.396 383.801 256.991C384.407 257.506 385.424 257.742 385.942 257.138C386.097 256.922 386.185 256.665 386.195 256.399C386.205 256.133 386.137 255.87 385.998 255.643C385.713 255.194 385.341 254.807 384.904 254.504Z" fill="#E6E6E6"/>
<path d="M338.122 164.942C337.035 164.908 335.832 164.842 334.99 165.53C334.713 165.778 334.47 166.061 334.268 166.372L333.971 166.788C333.527 167.37 333.139 167.993 332.814 168.648C332.644 168.956 332.542 169.296 332.515 169.646C332.488 169.996 332.536 170.348 332.657 170.677C332.726 170.835 332.83 170.976 332.96 171.089C333.09 171.202 333.243 171.285 333.408 171.333C333.574 171.381 333.748 171.391 333.918 171.364C334.088 171.337 334.251 171.273 334.393 171.176C334.858 170.746 334.749 169.965 335.1 169.439C335.255 169.24 335.453 169.081 335.68 168.972C335.907 168.864 336.156 168.809 336.408 168.813C336.909 168.826 337.409 168.883 337.901 168.982C339.263 169.169 340.65 168.962 341.898 168.385C343.146 167.809 344.204 166.887 344.945 165.729C345.686 164.571 346.081 163.226 346.081 161.851C346.082 160.476 345.69 159.129 344.95 157.97L344.863 157.704C344.11 157.675 343.372 157.911 342.776 158.37C342.179 158.83 341.763 159.484 341.599 160.219C341.356 161.485 341.872 162.956 341.104 163.992C340.457 164.865 339.208 164.976 338.122 164.942Z" fill="#E6E6E6"/>
<path d="M347.848 151.52L347.683 151.506C346.711 151.683 345.778 152.031 344.927 152.533C344.648 152.662 344.425 152.888 344.299 153.169C344.262 153.319 344.263 153.474 344.301 153.623C344.339 153.772 344.414 153.909 344.519 154.022C344.729 154.245 344.976 154.431 345.249 154.572C345.655 154.843 346.104 155.044 346.577 155.166C346.814 155.224 347.062 155.223 347.299 155.162C347.536 155.101 347.753 154.982 347.933 154.815C348.101 154.584 348.216 154.319 348.271 154.039C348.326 153.759 348.319 153.47 348.251 153.192C348.173 152.623 348.038 152.063 347.848 151.52Z" fill="#E6E6E6"/>
<path d="M331.1 165.266C331.36 164.85 331.545 164.391 331.646 163.911C331.747 163.538 331.848 163.166 331.95 162.793L330.867 162.135C330.349 162.404 329.872 162.744 329.449 163.146C329.238 163.348 329.072 163.591 328.96 163.861C328.848 164.13 328.793 164.42 328.798 164.712C328.813 165.004 328.926 165.282 329.119 165.501C329.312 165.72 329.574 165.867 329.861 165.919C330.107 165.926 330.35 165.87 330.567 165.756C330.784 165.641 330.968 165.472 331.1 165.266Z" fill="#E6E6E6"/>
<path d="M213.107 64.5437C212.679 64.8107 212.8 65.4561 212.974 65.93C213.173 66.474 213.373 67.018 213.572 67.562L213.851 66.506C214.096 66.0964 214.204 65.6193 214.16 65.1441C214.063 64.6799 213.509 64.293 213.107 64.5437Z" fill="#E6E6E6"/>
<path d="M483.531 162.541H302.373C298.006 162.537 293.82 160.8 290.733 157.712C287.645 154.625 285.909 150.439 285.904 146.072V16.469C285.909 12.1026 287.645 7.91658 290.733 4.82913C293.82 1.74168 298.006 0.00496721 302.373 0H483.531C487.898 0.00496532 492.084 1.74168 495.171 4.82913C498.259 7.91658 499.995 12.1026 500 16.469V146.072C499.995 150.439 498.259 154.625 495.171 157.712C492.084 160.8 487.898 162.537 483.531 162.541Z" fill="white"/>
<path d="M483.531 162.541H302.373C298.006 162.537 293.82 160.8 290.733 157.712C287.645 154.625 285.909 150.439 285.904 146.072V16.469C285.909 12.1026 287.645 7.91658 290.733 4.82913C293.82 1.74168 298.006 0.00496721 302.373 0H483.531C487.898 0.00496532 492.084 1.74168 495.171 4.82913C498.259 7.91658 499.995 12.1026 500 16.469V146.072C499.995 150.439 498.259 154.625 495.171 157.712C492.084 160.8 487.898 162.537 483.531 162.541ZM302.373 1.43208C298.386 1.43655 294.564 3.02223 291.745 5.84122C288.926 8.66021 287.34 12.4823 287.336 16.469V146.072C287.34 150.059 288.926 153.881 291.745 156.7C294.564 159.519 298.386 161.105 302.373 161.109H483.531C487.518 161.105 491.34 159.519 494.159 156.7C496.978 153.881 498.564 150.059 498.568 146.072V16.469C498.564 12.4823 496.978 8.66021 494.159 5.84122C491.34 3.02223 487.518 1.43655 483.531 1.43208H302.373Z" fill="#3F3D56"/>
<path d="M351.661 19.7342H323.019C322.26 19.7342 321.531 19.4324 320.994 18.8953C320.457 18.3582 320.155 17.6296 320.155 16.87C320.155 16.1104 320.457 15.3819 320.994 14.8448C321.531 14.3076 322.26 14.0059 323.019 14.0059H351.661C352.421 14.0059 353.149 14.3076 353.686 14.8448C354.223 15.3819 354.525 16.1104 354.525 16.87C354.525 17.6296 354.223 18.3582 353.686 18.8953C353.149 19.4324 352.421 19.7342 351.661 19.7342Z" fill="#CCCCCC"/>
<path d="M413.957 84.1776H323.019C322.26 84.1776 321.531 83.8758 320.994 83.3387C320.457 82.8015 320.155 82.073 320.155 81.3134C320.155 80.5538 320.457 79.8252 320.994 79.2881C321.531 78.751 322.26 78.4492 323.019 78.4492H413.957C414.716 78.4492 415.445 78.751 415.982 79.2881C416.519 79.8252 416.821 80.5538 416.821 81.3134C416.821 82.073 416.519 82.8015 415.982 83.3387C415.445 83.8758 414.716 84.1776 413.957 84.1776Z" fill="#CCCCCC"/>
<path d="M339.127 66.0963C349.733 66.0963 358.331 57.4987 358.331 46.8929C358.331 36.2871 349.733 27.6895 339.127 27.6895C328.521 27.6895 319.924 36.2871 319.924 46.8929C319.924 57.4987 328.521 66.0963 339.127 66.0963Z" fill="#0A2647"/>
<path d="M324.452 138.873H320.155V140.305H324.452V138.873Z" fill="#3F3D56"/>
<path d="M450.596 140.305H441.585V138.873H450.596V140.305ZM432.575 140.305H423.565V138.873H432.575V140.305ZM414.554 140.305H405.544V138.873H414.554V140.305ZM396.534 140.305H387.524V138.873H396.534L396.534 140.305ZM378.513 140.305H369.503V138.873H378.513V140.305ZM360.493 140.305H351.483V138.873H360.493L360.493 140.305ZM342.472 140.305H333.462V138.873H342.472V140.305Z" fill="#3F3D56"/>
<path d="M463.902 138.873H459.606V140.305H463.902V138.873Z" fill="#3F3D56"/>
<path d="M393.076 113.535H389.496V137.881H393.076V113.535Z" fill="#0A2647"/>
<path d="M429.594 113.535H426.014V137.881H429.594V113.535Z" fill="#0A2647"/>
<path d="M447.495 127.141H443.915V137.881H447.495V127.141Z" fill="#0A2647"/>
<path d="M410.977 102.795H407.396V137.881H410.977V102.795Z" fill="#0A2647"/>
<path d="M64.4129 162.225C66.7857 162.225 68.7092 160.302 68.7092 157.929C68.7092 155.556 66.7857 153.633 64.4129 153.633C62.0402 153.633 60.1167 155.556 60.1167 157.929C60.1167 160.302 62.0402 162.225 64.4129 162.225Z" fill="#0A2647"/>
<path d="M75.8695 141.46C78.2422 141.46 80.1657 139.536 80.1657 137.163C80.1657 134.791 78.2422 132.867 75.8695 132.867C73.4967 132.867 71.5732 134.791 71.5732 137.163C71.5732 139.536 73.4967 141.46 75.8695 141.46Z" fill="#0A2647"/>
<path d="M201.893 124.991C204.266 124.991 206.189 123.067 206.189 120.695C206.189 118.322 204.266 116.398 201.893 116.398C199.52 116.398 197.597 118.322 197.597 120.695C197.597 123.067 199.52 124.991 201.893 124.991Z" fill="#0A2647"/>
<path d="M103.275 427.812L109.756 427.811L112.838 402.816L103.274 402.817L103.275 427.812Z" fill="#FFB6B6"/>
<path d="M103.047 434.571L122.974 434.57V434.318C122.974 432.261 122.157 430.289 120.702 428.834C119.248 427.379 117.275 426.562 115.218 426.562L111.578 423.801L104.786 426.563L103.047 426.563L103.047 434.571Z" fill="#2F2E41"/>
<path d="M151.966 427.812L158.446 427.811L161.529 402.816L151.965 402.817L151.966 427.812Z" fill="#FFB6B6"/>
<path d="M151.738 434.571L171.665 434.57V434.318C171.665 432.261 170.848 430.289 169.393 428.834C167.939 427.379 165.966 426.562 163.909 426.562L160.269 423.801L153.477 426.563L151.738 426.563L151.738 434.571Z" fill="#2F2E41"/>
<path d="M103.023 224.483L114.524 222.836C118.413 229.34 119.795 246.65 119.795 246.65L131.05 273.4C131.795 273.907 132.394 274.6 132.786 275.412C133.178 276.223 133.349 277.123 133.283 278.022C133.217 278.92 132.915 279.786 132.407 280.53C131.9 281.275 131.206 281.873 130.394 282.264C129.582 282.655 128.682 282.826 127.783 282.758C126.885 282.69 126.02 282.387 125.276 281.879C124.532 281.371 123.935 280.676 123.545 279.864C123.154 279.052 122.985 278.151 123.054 277.253L104.575 246.117L103.023 224.483Z" fill="#FFB6B6"/>
<path d="M109.256 192.556C107.476 192.832 105.779 193.497 104.285 194.503C102.791 195.509 101.537 196.832 100.613 198.378C99.6882 199.924 99.1158 201.655 98.9361 203.447C98.7565 205.239 98.974 207.049 99.5733 208.747L102.014 215.665C102.014 215.665 98.9396 236.492 104.006 242.371L119.552 240.964C119.552 240.964 116.71 230.456 118.892 225.372C120.228 222.259 120.154 211.505 118.837 202.757C117.832 196.077 115.932 191.523 109.256 192.556Z" fill="#3F3D56"/>
<path d="M162.869 255.311C162.869 255.311 174.851 266.997 172.292 269.696C169.733 272.395 163.88 276.176 169.313 276.792C174.746 277.408 177 278.742 172.292 279.865C167.585 280.988 168.313 283.871 168.313 283.871C168.313 283.871 175.399 317.606 170.029 339.803C170.029 339.803 167.04 400.432 165.165 405.154C163.289 409.875 162.573 407.011 163.289 409.875C164.005 412.739 165.437 407.727 164.005 412.739C163.224 415.358 162.605 418.022 162.152 420.716L148.145 418.568C148.145 418.568 145.89 411.46 148.145 409.593C150.4 407.727 152.423 408.877 149.98 404.722C147.536 400.567 146.82 406.295 147.536 400.567C148.252 394.838 145.263 363.857 149.98 347.484L141.263 301.541L127.424 349.112C127.424 349.112 120.084 407.212 117.699 409.26C115.314 411.307 111.734 407.727 115.314 411.307C118.894 414.888 118.832 414.272 118.894 414.888C119.561 421.455 99.0613 414.272 99.0613 414.272C99.1753 412.603 99.1753 410.928 99.0613 409.26C98.8453 407.727 101.425 407.237 99.0613 405.692C96.6972 404.147 100.215 405.679 100.215 405.679C100.215 405.679 105.501 362.817 109.523 349.828L114.178 286.575C114.178 286.575 114.473 287.837 114.178 284.77C113.882 281.704 111.734 283.852 113.882 281.704C116.03 279.556 117.462 278.461 116.03 276.86C114.598 275.259 110.648 272.021 112.981 270.06C115.314 268.099 119.906 255.311 119.906 255.311L164.659 255.669" fill="#2F2E41"/>
<path d="M146.042 184.299L137.973 175.213L125.222 176.63L117.059 188.054C112.714 189.053 108.917 191.679 106.449 195.393C103.981 199.106 103.03 203.624 103.792 208.017C106.96 226.258 117.725 243.95 114.171 252.95C108.775 266.612 108.445 272.184 121.362 270.269C134.279 268.353 177.553 263.938 169.163 255.548C160.773 247.158 158.93 233.138 158.93 233.138L158.594 201.064C158.95 199.129 158.903 197.142 158.454 195.227C158.005 193.311 157.165 191.51 155.986 189.935C154.807 188.36 153.315 187.047 151.604 186.077C149.892 185.107 147.999 184.501 146.042 184.299Z" fill="#3F3D56"/>
<path d="M143.838 219.471L155.338 217.824C159.227 224.328 160.61 241.639 160.61 241.639L171.864 268.389C172.61 268.895 173.208 269.589 173.6 270.4C173.993 271.211 174.164 272.111 174.097 273.01C174.031 273.909 173.729 274.774 173.222 275.519C172.715 276.263 172.02 276.861 171.209 277.252C170.397 277.643 169.496 277.814 168.598 277.746C167.699 277.679 166.835 277.376 166.09 276.868C165.346 276.36 164.749 275.665 164.359 274.852C163.969 274.04 163.8 273.139 163.868 272.241L145.389 241.105L143.838 219.471Z" fill="#FFB6B6"/>
<path d="M150.071 187.545C148.291 187.82 146.593 188.485 145.099 189.491C143.606 190.497 142.352 191.821 141.427 193.366C140.503 194.912 139.93 196.643 139.751 198.435C139.571 200.227 139.788 202.037 140.388 203.736L142.828 210.653C142.828 210.653 139.754 231.48 144.82 237.36L160.366 235.952C160.366 235.952 157.524 225.444 159.706 220.36C161.043 217.247 160.968 206.493 159.652 197.745C158.646 191.065 156.746 186.511 150.071 187.545Z" fill="#3F3D56"/>
<path d="M128.091 174.43C136.603 174.43 143.503 167.53 143.503 159.019C143.503 150.507 136.603 143.607 128.091 143.607C119.58 143.607 112.68 150.507 112.68 159.019C112.68 167.53 119.58 174.43 128.091 174.43Z" fill="#FFB6B6"/>
<path d="M125.257 174.105C129.549 173.03 129.695 171.803 133.988 170.728C135.354 170.386 136.938 169.846 137.343 168.497C137.439 168.003 137.419 167.494 137.286 167.009C137.152 166.525 136.907 166.078 136.571 165.704C135.895 164.963 135.261 164.184 134.674 163.371C134.284 162.719 134.06 161.981 134.02 161.222C133.979 160.463 134.125 159.705 134.443 159.015C134.761 158.325 135.242 157.722 135.845 157.26C136.449 156.797 137.155 156.488 137.905 156.36C139.232 156.133 140.601 156.485 141.938 156.315C143.77 156.081 146.466 149.282 145.291 147.856C144.147 146.468 142.27 145.64 141.64 143.956C141.227 142.854 141.453 141.623 141.269 140.461C140.997 138.738 137.511 143.508 137.975 141.827C139.113 137.703 119.856 137.053 117.852 142.344C117.102 144.321 115.074 144.635 113.514 146.063C112.491 146.998 110.045 149.992 109.691 151.605C109.397 153.236 109.454 154.911 109.857 156.519C111.456 164.056 114.099 170.736 121.135 173.876" fill="#2F2E41"/>
<path d="M3.72468 435.547L282.784 435.767C282.897 435.767 283.008 435.746 283.111 435.703C283.215 435.66 283.309 435.597 283.389 435.518C283.468 435.439 283.531 435.345 283.574 435.241C283.617 435.138 283.639 435.027 283.639 434.914C283.639 434.802 283.617 434.691 283.574 434.588C283.531 434.484 283.468 434.39 283.389 434.311C283.309 434.231 283.215 434.169 283.111 434.126C283.008 434.083 282.897 434.062 282.784 434.062L3.72468 433.842C3.61251 433.841 3.50138 433.863 3.39766 433.906C3.29393 433.949 3.19965 434.011 3.12022 434.091C3.04078 434.17 2.97777 434.264 2.93477 434.368C2.89177 434.471 2.86963 434.582 2.86963 434.694C2.86963 434.807 2.89177 434.918 2.93477 435.021C2.97777 435.125 3.04078 435.219 3.12022 435.298C3.19965 435.377 3.29393 435.44 3.39766 435.483C3.50138 435.525 3.61251 435.547 3.72468 435.547Z" fill="#CACACA"/>
</g>
<defs>
<clipPath id="clip0_769_5422">
<rect width="500" height="435.768" fill="white"/>
</clipPath>
</defs>
</svg>
