<svg width="400" height="478" viewBox="0 0 400 478" fill="none" xmlns="http://www.w3.org/2000/svg">
<g clip-path="url(#clip0_769_5421)">
<path d="M104.132 288.671C103.553 287.695 101.047 288.74 100.587 287.854C100.128 286.971 102.456 285.625 103.786 282.551C104.026 281.996 105.537 278.503 104.418 277.425C102.297 275.382 92.591 283.814 89.1942 281.054C88.4488 280.449 87.928 279.24 85.6718 277.277C84.7743 276.496 84.2315 276.144 83.7063 276.275C82.961 276.461 82.9019 277.458 82.1027 279.42C80.9042 282.361 80.1953 282.183 79.497 284.53C78.9786 286.272 79.097 287.285 78.487 287.482C77.6237 287.762 76.8292 285.914 75.7352 286.079C74.6188 286.248 73.9439 288.4 73.7307 290.01C73.3307 293.033 74.4408 295.028 75.0561 297.125C75.7247 299.405 76.1216 302.871 74.5774 307.778L59.2939 350.839C62.6681 342.003 72.4378 317.781 76.543 308.78C77.7281 306.182 79.0366 303.546 81.7234 302.506C84.3101 301.505 87.8627 302.103 92.3918 301.011C92.9207 300.884 94.3886 300.511 94.5733 299.647C94.7261 298.933 93.8627 298.535 93.9953 297.867C94.1733 296.97 95.8711 296.959 97.9576 295.924C99.4288 295.195 100.345 294.327 101.134 293.581C101.371 293.356 104.904 289.971 104.132 288.671Z" fill="#F2F2F2"/>
<path d="M44.0028 311.341C43.3563 311.344 43.1466 312.875 42.5786 312.846C42.0127 312.816 42.024 311.285 40.899 309.745C40.6961 309.468 39.4175 307.718 38.5656 307.956C36.9507 308.407 38.2887 315.604 35.9543 316.475C35.442 316.666 34.6984 316.573 33.084 317.114C32.4418 317.329 32.1122 317.494 32.025 317.79C31.9013 318.209 32.3738 318.526 33.1059 319.484C34.2037 320.921 33.9119 321.218 34.8622 322.238C35.5677 322.995 36.0989 323.229 36.0198 323.585C35.9078 324.089 34.7716 323.946 34.5371 324.531C34.2979 325.127 35.1591 326.079 35.8882 326.649C37.2564 327.717 38.5557 327.748 39.7626 328.051C41.0743 328.381 42.8901 329.186 44.853 331.36L61.578 351.286C58.2148 347.08 49.1453 335.296 45.912 330.684C44.9787 329.353 44.0626 327.95 44.3274 326.331C44.5822 324.773 45.9007 323.202 46.672 320.664C46.762 320.368 47.0023 319.539 46.6318 319.2C46.3256 318.919 45.8809 319.228 45.5911 318.97C45.2024 318.623 45.6868 317.787 45.7811 316.464C45.8475 315.532 45.6862 314.832 45.5474 314.23C45.5056 314.048 44.8635 311.338 44.0028 311.341Z" fill="#F2F2F2"/>
<path d="M56.9003 314.235L56.5107 310.758L56.6887 310.495C57.5122 309.276 57.932 308.085 57.937 306.955C57.9378 306.776 57.9294 306.596 57.921 306.413C57.8875 305.688 57.8455 304.786 58.3156 303.735C58.5792 303.149 59.3196 301.793 60.4327 301.961C60.7324 302.003 60.9591 302.14 61.1312 302.301C61.1563 302.261 61.1824 302.221 61.2101 302.177C61.5568 301.648 61.8313 301.422 62.0957 301.203C62.2988 301.035 62.5087 300.863 62.8378 300.453C62.9822 300.273 63.0947 300.115 63.1895 299.983C63.4775 299.582 63.8535 299.103 64.5167 299.111C65.2252 299.145 65.5963 299.731 65.8422 300.119C66.2813 300.811 66.4802 301.309 66.612 301.64C66.6599 301.761 66.7144 301.897 66.7421 301.939C66.9705 302.275 68.8266 301.961 69.5258 301.846C71.0964 301.584 72.4555 301.358 73.0155 302.348C73.4168 303.057 73.1187 303.994 72.103 305.208C71.7865 305.585 71.4499 305.872 71.151 306.097C71.3986 306.245 71.6202 306.472 71.7101 306.828C71.9217 307.671 71.1972 308.515 69.5577 309.341C69.1506 309.548 68.6024 309.823 67.8343 309.956C67.4725 310.018 67.1468 310.033 66.8681 310.041C66.8622 310.202 66.8244 310.377 66.7262 310.557C66.4383 311.086 65.8389 311.337 64.9356 311.277C63.9417 311.225 63.1232 311.035 62.4013 310.869C61.7709 310.725 61.2277 310.602 60.8013 310.631C60.0105 310.694 59.401 311.327 58.6858 312.148L56.9003 314.235Z" fill="#F2F2F2"/>
<path d="M58.707 293.534L55.4424 294.793L55.1423 294.687C53.7544 294.2 52.4965 294.096 51.4022 294.378C51.2282 294.422 51.0566 294.476 50.8817 294.531C50.1887 294.747 49.3272 295.016 48.1913 294.828C47.5577 294.722 46.0577 294.35 45.9377 293.23C45.9023 292.93 45.978 292.676 46.0903 292.468C46.0449 292.454 45.9993 292.439 45.9501 292.424C45.3506 292.222 45.0617 292.014 44.7835 291.814C44.5695 291.66 44.349 291.501 43.8693 291.286C43.6589 291.192 43.4777 291.124 43.3254 291.065C42.8642 290.889 42.306 290.646 42.1459 290.003C41.9986 289.309 42.4713 288.801 42.7841 288.465C43.3418 287.865 43.7737 287.546 44.0602 287.335C44.165 287.258 44.2827 287.17 44.3162 287.133C44.5831 286.827 43.8087 285.111 43.5209 284.464C42.8691 283.011 42.3051 281.754 43.1213 280.961C43.7049 280.393 44.6866 280.444 46.1185 281.118C46.5642 281.329 46.9272 281.581 47.2207 281.813C47.3008 281.536 47.4638 281.264 47.7853 281.087C48.5469 280.669 49.5476 281.155 50.7624 282.532C51.0655 282.873 51.4709 283.334 51.794 284.043C51.9458 284.377 52.0431 284.688 52.1219 284.956C52.2793 284.921 52.4578 284.913 52.6565 284.962C53.2411 285.107 53.6367 285.623 53.8073 286.512C54.0091 287.486 54.0332 288.326 54.0555 289.067C54.0758 289.713 54.095 290.27 54.2308 290.675C54.4931 291.424 55.2599 291.852 56.2355 292.336L58.707 293.534Z" fill="#F2F2F2"/>
<path d="M56.9003 283.29L56.5107 279.813L56.6887 279.549C57.5122 278.33 57.932 277.14 57.937 276.01C57.9378 275.83 57.9294 275.651 57.921 275.468C57.8875 274.742 57.8455 273.841 58.3156 272.79C58.5792 272.204 59.3196 270.847 60.4327 271.015C60.7324 271.057 60.9591 271.195 61.1312 271.356C61.1563 271.316 61.1824 271.276 61.2101 271.232C61.5568 270.703 61.8313 270.476 62.0957 270.258C62.2988 270.09 62.5087 269.917 62.8378 269.508C62.9822 269.328 63.0947 269.17 63.1895 269.037C63.4775 268.636 63.8535 268.158 64.5167 268.166C65.2252 268.2 65.5963 268.786 65.8422 269.173C66.2813 269.865 66.4802 270.364 66.612 270.695C66.6599 270.815 66.7144 270.951 66.7421 270.993C66.9705 271.329 68.8266 271.015 69.5258 270.901C71.0964 270.639 72.4555 270.413 73.0155 271.403C73.4168 272.112 73.1187 273.048 72.103 274.262C71.7865 274.64 71.4499 274.927 71.151 275.152C71.3986 275.3 71.6202 275.527 71.7101 275.882C71.9217 276.725 71.1972 277.57 69.5577 278.396C69.1506 278.602 68.6024 278.878 67.8343 279.01C67.4725 279.072 67.1468 279.088 66.8681 279.096C66.8622 279.257 66.8244 279.432 66.7262 279.611C66.4383 280.14 65.8389 280.392 64.9356 280.332C63.9417 280.28 63.1232 280.09 62.4013 279.924C61.7709 279.779 61.2277 279.657 60.8013 279.685C60.0105 279.749 59.401 280.382 58.6858 281.203L56.9003 283.29Z" fill="#F2F2F2"/>
<path d="M60.4578 350.783L59.7291 350.327L58.8796 350.424C58.8661 350.345 58.82 350.164 58.7503 349.88C58.37 348.325 57.2107 343.594 56.2436 336.143C55.5687 330.942 55.1868 325.594 55.1078 320.247C55.0289 314.891 55.2825 310.836 55.4856 307.578C55.6392 305.12 55.8256 302.779 56.0086 300.499C56.4955 294.408 56.9547 288.654 56.613 282.285C56.5374 280.863 56.3788 277.903 54.6495 274.753C53.6463 272.926 52.2646 271.304 50.542 269.934L51.6131 268.588C53.5145 270.102 55.0432 271.899 56.1572 273.927C58.0745 277.419 58.2474 280.644 58.3305 282.194C58.6781 288.676 58.2139 294.485 57.7219 300.635C57.5406 302.907 57.3542 305.237 57.2015 307.685C57 310.914 56.749 314.933 56.8271 320.22C56.9043 325.504 57.282 330.786 57.9477 335.921C58.9031 343.278 60.0456 347.939 60.4208 349.47C60.6206 350.288 60.6626 350.459 60.4578 350.783Z" fill="#F2F2F2"/>
<path d="M47.3893 272.665C47.3187 272.665 47.2474 272.663 47.1752 272.658C45.7112 272.579 44.3554 271.703 43.1449 270.054C42.5775 269.279 42.287 268.394 41.7078 266.629C41.6179 266.357 41.1814 264.977 40.9161 263.078C40.7424 261.838 40.7642 261.319 41.0102 260.861C41.283 260.35 41.7245 259.994 42.2215 259.754C42.1997 259.59 42.2173 259.42 42.2887 259.247C42.5816 258.53 43.3607 258.624 43.7821 258.67C43.9953 258.696 44.2614 258.732 44.5485 258.717C45.0001 258.695 45.2428 258.56 45.6104 258.359C45.9622 258.166 46.3995 257.926 47.0484 257.793C48.3278 257.526 49.3998 257.889 49.7532 258.008C51.6126 258.628 52.5293 260.073 53.5904 261.747C53.8019 262.083 54.5281 263.305 55.0074 264.981C55.3532 266.189 55.3046 266.727 55.2005 267.126C54.9889 267.947 54.4894 268.417 53.221 269.455C51.8963 270.541 51.2315 271.085 50.6606 271.416C49.3318 272.183 48.4973 272.665 47.3893 272.665Z" fill="#F2F2F2"/>
<path d="M230.721 350.58H120.737C104.241 350.58 90.8203 337.16 90.8203 320.663V29.9169C90.8203 13.4208 104.241 0 120.737 0H230.721C247.217 0 260.638 13.4208 260.638 29.9169C262.685 146.672 266.176 277.419 260.638 320.663C260.638 337.16 247.217 350.58 230.721 350.58Z" fill="#3F3D56"/>
<path d="M262.171 106.945C261.473 106.945 260.905 107.513 260.905 108.211V148.711C260.905 149.409 261.473 149.977 262.171 149.977C262.869 149.977 263.437 149.409 263.437 148.711V108.211C263.437 107.513 262.869 106.945 262.171 106.945Z" fill="#3F3D56"/>
<path d="M250.298 33.5677L257.79 320.659C257.79 335.017 246.614 346.762 232.484 347.673H232.477C232.268 347.686 232.06 347.699 231.844 347.705C231.471 347.724 231.098 347.73 230.718 347.73C230.718 347.73 229.326 347.629 226.782 347.439C224.213 347.249 220.473 346.965 215.809 346.591C214.41 346.484 212.936 346.364 211.379 346.237C208.278 345.984 204.874 345.705 201.222 345.389C199.767 345.269 198.261 345.136 196.723 345.003C188.864 344.326 180.061 343.535 170.778 342.636C169.208 342.491 167.626 342.339 166.032 342.181C165.614 342.136 93.668 324.05 93.668 320.659V29.9176C93.668 14.9641 105.786 2.8457 120.74 2.8457H136.902C139.484 2.8457 141.559 4.85805 141.781 7.43362C141.8 7.60449 141.819 7.77533 141.851 7.9462C142.319 10.5344 144.692 12.3379 147.324 12.3379H204.133C206.766 12.3379 209.139 10.5344 209.607 7.9462C209.639 7.77533 209.658 7.6045 209.677 7.43362C209.898 4.85806 211.974 2.8457 214.556 2.8457H230.718C245.671 2.8457 250.298 18.6142 250.298 33.5677Z" fill="white"/>
<path d="M90.1875 76.5703C89.4895 76.5703 88.9219 77.1379 88.9219 77.836V87.961C88.9219 88.659 89.4895 89.2266 90.1875 89.2266C90.8855 89.2266 91.4531 88.659 91.4531 87.961V77.836C91.4531 77.1379 90.8855 76.5703 90.1875 76.5703Z" fill="#3F3D56"/>
<path d="M90.1875 106.945C89.4895 106.945 88.9219 107.513 88.9219 108.211V127.828C88.9219 128.526 89.4895 129.094 90.1875 129.094C90.8855 129.094 91.4531 128.526 91.4531 127.828V108.211C91.4531 107.513 90.8855 106.945 90.1875 106.945Z" fill="#3F3D56"/>
<path d="M90.1875 134.789C89.4895 134.789 88.9219 135.357 88.9219 136.055V155.672C88.9219 156.37 89.4895 156.938 90.1875 156.938C90.8855 156.938 91.4531 156.37 91.4531 155.672V136.055C91.4531 135.357 90.8855 134.789 90.1875 134.789Z" fill="#3F3D56"/>
<path d="M136.487 7.27734H112.232C112.115 7.27734 112.02 7.37263 112.02 7.49017V10.2286C112.02 10.3461 112.115 10.4414 112.232 10.4414H136.487C136.604 10.4414 136.699 10.3461 136.699 10.2286V7.49017C136.699 7.37263 136.604 7.27734 136.487 7.27734Z" fill="#E6E6E6"/>
<path d="M218.556 10.4414C219.954 10.4414 221.087 9.30815 221.087 7.91017C221.087 6.51219 219.954 5.37891 218.556 5.37891C217.158 5.37891 216.024 6.51219 216.024 7.91017C216.024 9.30815 217.158 10.4414 218.556 10.4414Z" fill="#E6E6E6"/>
<path d="M225.517 10.4414C226.915 10.4414 228.048 9.30815 228.048 7.91017C228.048 6.51219 226.915 5.37891 225.517 5.37891C224.119 5.37891 222.985 6.51219 222.985 7.91017C222.985 9.30815 224.119 10.4414 225.517 10.4414Z" fill="#E6E6E6"/>
<path d="M232.478 10.4414C233.876 10.4414 235.009 9.30815 235.009 7.91017C235.009 6.51219 233.876 5.37891 232.478 5.37891C231.08 5.37891 229.946 6.51219 229.946 7.91017C229.946 9.30815 231.08 10.4414 232.478 10.4414Z" fill="#E6E6E6"/>
<path d="M400 350.686C400 351.004 399.742 351.262 399.424 351.262H0V350.109H399.424C399.742 350.109 400 350.367 400 350.686Z" fill="#E6E6E6"/>
<path d="M314.642 418.359L328.204 422.691L310.842 462.752L301.652 459.818L314.642 418.359Z" fill="#A0616A"/>
<path d="M316.931 450.316L311.517 450.651L310.452 453.446C310.452 453.446 310.58 449.787 304.883 446.793L303.132 449.228C303.132 449.228 299.798 450.997 298.353 455.954L294.937 469.405L299.477 471.027L303.638 462.352C303.638 462.352 305.657 460.796 307.664 472.641C307.664 472.641 313.347 476.639 324.341 477.108C325.852 477.173 327.262 476.28 327.786 474.861C328.075 474.078 328.046 473.241 327.168 472.608C324.933 470.996 322.185 470.899 321.34 468.297C320.495 465.696 316.931 450.316 316.931 450.316Z" fill="#2F2E41"/>
<path d="M220.615 411.369L206.822 414.898L221.803 455.909L231.15 453.518L220.615 411.369Z" fill="#A0616A"/>
<path d="M216.454 443.136L221.84 443.788L222.739 446.641C222.739 446.641 222.826 442.981 228.689 440.326L230.294 442.86C230.294 442.86 233.518 444.821 234.67 449.855L237.291 463.483L232.664 464.836L229.019 455.931C229.019 455.931 227.095 454.259 224.395 465.966C224.395 465.966 218.488 469.624 207.485 469.448C205.973 469.424 204.619 468.449 204.179 467.002C203.936 466.204 204.013 465.37 204.927 464.789C207.253 463.312 210.002 463.375 210.998 460.828C211.994 458.281 216.454 443.136 216.454 443.136Z" fill="#2F2E41"/>
<path d="M254.581 246.869H291.415V192.443H254.581V246.869Z" fill="#2F2E41"/>
<path d="M285.093 285.078L283.993 314.215L247.709 311.466L252.107 282.879L285.093 285.078Z" fill="#A0616A"/>
<path d="M244.961 301.021L297.188 302.671L310.223 321.117L304.176 353.553C304.176 353.553 277.947 346.102 234.516 354.898L237.264 324.661L245.649 316.276L244.961 301.021Z" fill="#2F2E41"/>
<path d="M301.586 323.012L315.88 329.059C315.88 329.059 342.818 341.154 344.467 357.647C346.116 374.139 326.493 435.713 326.493 435.713L304.957 437C304.957 437 311.358 441.454 311.358 410.899C311.358 389.631 320.828 369.192 320.828 369.192C320.828 369.192 307.084 343.903 271.899 349.95C271.899 349.95 233.452 348.704 215.31 371.794C215.31 371.794 224.914 392.375 225.601 404.724L228.44 431.455L210.298 433.105C210.298 433.105 183.937 362.594 195.482 348.301C207.027 334.007 231.766 325.761 231.766 325.761L301.586 323.012Z" fill="#2F2E41"/>
<path d="M283.147 230.274L281.857 214.686H264.706L260.903 231.201L283.147 230.274Z" fill="#A0616A"/>
<path opacity="0.1" d="M283.147 230.274L281.857 214.686H264.706L260.903 231.201L283.147 230.274Z" fill="black"/>
<path d="M289.329 200.899C289.329 211.253 280.935 219.647 270.581 219.647C260.227 219.647 251.833 211.253 251.833 200.899C251.833 190.544 260.227 182.15 270.581 182.15C280.935 182.15 289.329 190.544 289.329 200.899Z" fill="#A0616A"/>
<path d="M260.903 227.902H282.894L285.643 233.95L288.391 294.973C288.391 294.973 267.5 290.025 249.358 290.575L253.756 235.049L259.254 231.751L260.903 227.902Z" fill="#0A2647"/>
<path d="M281.794 352.148C281.794 352.148 292.79 327.409 297.188 326.859C301.586 326.309 311.51 326.859 311.51 326.859L309.282 323.011C309.282 323.011 308.733 315.314 303.235 315.314C297.737 315.314 299.936 236.149 299.936 236.149L284.537 231.518C284.537 231.518 275.747 258.689 275.747 284.528C275.747 310.366 274.647 338.954 274.647 338.954L281.794 352.148Z" fill="#2F2E41"/>
<path d="M259.887 230.275L240.563 235.601L242.762 311.468L230.117 326.861C230.117 326.861 246.61 326.861 250.458 340.605C250.458 340.605 255.023 348.12 259.887 347.386C264.752 346.652 261.453 331.259 261.453 331.259L256.506 312.017L257.055 279.581L259.887 230.275Z" fill="#2F2E41"/>
<path d="M265.852 181.174C265.852 181.174 265.852 173.477 272.998 175.126C280.145 176.775 282.344 179.524 282.344 179.524C282.344 179.524 285.093 183.922 289.491 184.472C293.889 185.022 297.738 197.666 297.188 200.415C296.638 203.164 293.889 210.311 297.738 213.609C301.586 216.908 307.084 221.856 305.434 226.804C303.785 231.751 298.837 244.396 298.837 244.396C298.837 244.396 312.637 246.413 311.51 255.025C311.51 255.025 304.885 249.894 296.088 249.894C287.292 249.894 288.392 233.935 288.392 233.935C288.392 233.935 287.842 224.055 286.193 221.306C284.543 218.557 286.742 203.164 278.496 194.918C270.25 186.671 265.852 181.174 265.852 181.174Z" fill="#2F2E41"/>
<path d="M268.05 179.523C268.05 179.523 257.605 181.722 253.757 192.168C249.908 202.613 251.852 204.557 251.852 204.557C251.852 204.557 251.001 210.847 246.332 213.052C241.662 215.258 245.51 224.604 245.51 224.604C245.51 224.604 244.411 233.95 229.567 237.248C214.724 240.547 218.022 259.788 218.022 259.788C218.022 259.788 230.117 242.746 245.51 242.196C260.904 241.646 258.155 224.604 258.155 224.604L256.505 206.462C256.505 206.462 259.804 185.571 269.7 182.822C279.595 180.073 268.05 179.523 268.05 179.523Z" fill="#2F2E41"/>
<path d="M282.964 353.48C282.529 358.595 284.815 362.965 288.07 363.242C291.325 363.519 294.316 359.597 294.751 354.481C294.953 352.439 294.663 350.379 293.905 348.473L295.478 326.779L285.281 326.258L284.814 347.7C283.744 349.451 283.11 351.433 282.964 353.48Z" fill="#A0616A"/>
<path d="M243.381 354.031C242.946 359.146 245.232 363.516 248.487 363.793C251.742 364.07 254.733 360.148 255.168 355.032C255.37 352.99 255.08 350.93 254.322 349.024L255.895 327.329L245.698 326.809L245.231 348.251C244.161 350.002 243.527 351.984 243.381 354.031Z" fill="#A0616A"/>
<path d="M295.813 236.424C295.813 236.424 309.557 232.576 312.306 241.372C315.055 250.168 306.534 298.547 306.534 298.547L298.562 349.125L281.52 345.826L292.515 278.206L295.813 236.424Z" fill="#2F2E41"/>
<path d="M254.419 235.704C254.419 235.704 241.1 230.575 237.533 239.072C233.965 247.57 237.879 296.537 237.879 296.537L241.038 347.642L258.316 345.968L253.756 277.611L254.419 235.704Z" fill="#2F2E41"/>
<path d="M170.046 204.396H57.4998C52.9691 204.396 49.2832 200.71 49.2832 196.18V111.076C49.2832 106.546 52.9691 102.859 57.4998 102.859H170.046C174.576 102.859 178.262 106.546 178.262 111.076V196.18C178.262 200.71 174.576 204.396 170.046 204.396Z" fill="white"/>
<path d="M170.046 204.396H57.4998C52.9691 204.396 49.2832 200.71 49.2832 196.18V111.076C49.2832 106.546 52.9691 102.859 57.4998 102.859H170.046C174.576 102.859 178.262 106.546 178.262 111.076V196.18C178.262 200.71 174.576 204.396 170.046 204.396ZM57.4998 104.231C53.7258 104.231 50.6553 107.302 50.6553 111.076V196.18C50.6553 199.954 53.7258 203.024 57.4998 203.024H170.046C173.82 203.024 176.89 199.954 176.89 196.18V111.076C176.89 107.302 173.82 104.231 170.046 104.231H57.4998Z" fill="#3F3D56"/>
<path d="M157.68 113.15C158.817 113.15 159.738 112.228 159.738 111.091C159.738 109.955 158.817 109.033 157.68 109.033C156.544 109.033 155.622 109.955 155.622 111.091C155.622 112.228 156.544 113.15 157.68 113.15Z" fill="#3F3D56"/>
<path d="M163.17 113.15C164.306 113.15 165.228 112.228 165.228 111.091C165.228 109.955 164.306 109.033 163.17 109.033C162.033 109.033 161.111 109.955 161.111 111.091C161.111 112.228 162.033 113.15 163.17 113.15Z" fill="#3F3D56"/>
<path d="M168.658 113.15C169.794 113.15 170.716 112.228 170.716 111.091C170.716 109.955 169.794 109.033 168.658 109.033C167.521 109.033 166.6 109.955 166.6 111.091C166.6 112.228 167.521 113.15 168.658 113.15Z" fill="#3F3D56"/>
<path d="M60.9461 144.365C60.3786 144.365 59.917 144.827 59.917 145.394C59.917 145.671 60.0239 145.927 60.2178 146.116C60.4135 146.316 60.6697 146.423 60.9461 146.423H167.285C167.853 146.423 168.314 145.962 168.314 145.394C168.314 145.118 168.207 144.862 168.014 144.673C167.818 144.472 167.562 144.365 167.285 144.365H60.9461Z" fill="#E6E6E6"/>
<path d="M148.076 144.023V146.768H60.9463C60.569 146.768 60.226 146.617 59.979 146.363C59.7251 146.116 59.5742 145.773 59.5742 145.396C59.5742 144.641 60.1917 144.023 60.9463 144.023H148.076Z" fill="#0A2647"/>
<path d="M165.57 138.877H151.849C150.336 138.877 149.104 137.646 149.104 136.133C149.104 134.619 150.336 133.389 151.849 133.389H165.57C167.083 133.389 168.314 134.619 168.314 136.133C168.314 137.646 167.083 138.877 165.57 138.877Z" fill="#E6E6E6"/>
<path d="M75.6969 124.471H61.9757C60.4625 124.471 59.2314 123.24 59.2314 121.727C59.2314 120.213 60.4625 118.982 61.9757 118.982H75.6969C77.21 118.982 78.4411 120.213 78.4411 121.727C78.4411 123.24 77.21 124.471 75.6969 124.471Z" fill="#E6E6E6"/>
<path d="M60.9461 175.238C60.3786 175.238 59.917 175.7 59.917 176.267C59.917 176.544 60.0239 176.8 60.2178 176.989C60.4135 177.189 60.6697 177.296 60.9461 177.296H167.285C167.853 177.296 168.314 176.835 168.314 176.267C168.314 175.991 168.207 175.735 168.014 175.546C167.818 175.345 167.562 175.238 167.285 175.238H60.9461Z" fill="#E6E6E6"/>
<path d="M95.2493 174.896V177.641H60.9463C60.569 177.641 60.226 177.49 59.979 177.236C59.7251 176.989 59.5742 176.646 59.5742 176.269C59.5742 175.514 60.1917 174.896 60.9463 174.896H95.2493Z" fill="#0A2647"/>
<path d="M165.57 169.75H151.849C150.336 169.75 149.104 168.519 149.104 167.006C149.104 165.492 150.336 164.262 151.849 164.262H165.57C167.083 164.262 168.314 165.492 168.314 167.006C168.314 168.519 167.083 169.75 165.57 169.75Z" fill="#E6E6E6"/>
</g>
<defs>
<clipPath id="clip0_769_5421">
<rect width="400" height="477.113" fill="white"/>
</clipPath>
</defs>
</svg>
