<svg width="500" height="370" viewBox="0 0 500 370" fill="none" xmlns="http://www.w3.org/2000/svg">
<g clip-path="url(#clip0_769_5418)">
<path d="M424.521 369.641H403.379C403.066 369.073 402.775 368.49 402.505 367.9C400.072 362.691 399.044 356.877 398.061 351.18L396.465 341.928C401.565 345.636 406.662 349.342 411.757 353.045C413.418 354.255 415.116 355.515 416.711 356.877C420.07 359.726 422.97 363.019 424.106 367.201C424.164 367.434 424.223 367.667 424.266 367.9C424.387 368.475 424.472 369.056 424.521 369.641Z" fill="#F0F0F0"/>
<path d="M427.487 367.899C427.488 367.936 427.485 367.972 427.479 368.008C427.409 368.565 427.277 369.112 427.086 369.64H417.593C417.295 369.081 417.041 368.499 416.836 367.899C416.547 367.099 416.34 366.271 416.216 365.429C415.901 362.571 416.068 359.679 416.712 356.876C416.894 355.966 417.09 355.048 417.287 354.144L418.409 348.986L424.026 358.013C425.906 361.036 427.858 364.366 427.487 367.899Z" fill="#F0F0F0"/>
<path d="M499.276 26.6298H0.723487C0.530144 26.6255 0.34617 26.5457 0.210948 26.4075C0.0757254 26.2692 0 26.0835 0 25.8901C0 25.6967 0.0757254 25.511 0.210948 25.3728C0.34617 25.2345 0.530144 25.1547 0.723487 25.1504H499.276C499.47 25.1547 499.654 25.2345 499.789 25.3728C499.924 25.511 500 25.6967 500 25.8901C500 26.0835 499.924 26.2692 499.789 26.4075C499.654 26.5457 499.47 26.6255 499.276 26.6298Z" fill="#CACACA"/>
<path d="M17.0103 16.2737C21.4062 16.2737 24.9697 12.6307 24.9697 8.13686C24.9697 3.64299 21.4062 0 17.0103 0C12.6144 0 9.05078 3.64299 9.05078 8.13686C9.05078 12.6307 12.6144 16.2737 17.0103 16.2737Z" fill="#3F3D56"/>
<path d="M44.5064 16.2737C48.9023 16.2737 52.4658 12.6307 52.4658 8.13686C52.4658 3.64299 48.9023 0 44.5064 0C40.1105 0 36.5469 3.64299 36.5469 8.13686C36.5469 12.6307 40.1105 16.2737 44.5064 16.2737Z" fill="#3F3D56"/>
<path d="M72.0029 16.2737C76.3988 16.2737 79.9624 12.6307 79.9624 8.13686C79.9624 3.64299 76.3988 0 72.0029 0C67.607 0 64.0435 3.64299 64.0435 8.13686C64.0435 12.6307 67.607 16.2737 72.0029 16.2737Z" fill="#3F3D56"/>
<path d="M482.802 4.97645H463.265C462.878 4.96791 462.51 4.80829 462.24 4.53177C461.969 4.25526 461.818 3.88382 461.818 3.49701C461.818 3.1102 461.969 2.73877 462.24 2.46225C462.51 2.18573 462.878 2.02612 463.265 2.01758H482.802C483.189 2.02612 483.557 2.18573 483.827 2.46225C484.098 2.73877 484.249 3.1102 484.249 3.49701C484.249 3.88382 484.098 4.25526 483.827 4.53177C483.557 4.80829 483.189 4.96791 482.802 4.97645Z" fill="#3F3D56"/>
<path d="M482.802 10.5253H463.265C462.878 10.5167 462.51 10.3571 462.24 10.0806C461.969 9.80407 461.818 9.43264 461.818 9.04583C461.818 8.65902 461.969 8.2876 462.24 8.01108C462.51 7.73456 462.878 7.57495 463.265 7.56641H482.802C483.189 7.57495 483.557 7.73456 483.827 8.01108C484.098 8.2876 484.249 8.65902 484.249 9.04583C484.249 9.43264 484.098 9.80407 483.827 10.0806C483.557 10.3571 483.189 10.5167 482.802 10.5253Z" fill="#3F3D56"/>
<path d="M482.802 16.0721H463.265C462.878 16.0636 462.51 15.904 462.24 15.6275C461.969 15.3509 461.818 14.9795 461.818 14.5927C461.818 14.2059 461.969 13.8345 462.24 13.558C462.51 13.2814 462.878 13.1218 463.265 13.1133H482.802C483.189 13.1218 483.557 13.2814 483.827 13.558C484.098 13.8345 484.249 14.2059 484.249 14.5927C484.249 14.9795 484.098 15.3509 483.827 15.6275C483.557 15.904 483.189 16.0636 482.802 16.0721Z" fill="#3F3D56"/>
<path d="M425.77 278.283H47.2323C43.2329 278.278 39.3987 276.688 36.5707 273.86C33.7427 271.031 32.1519 267.197 32.1475 263.198V74.8074C32.152 70.808 33.7428 66.9738 36.5708 64.1458C39.3988 61.3179 43.233 59.7272 47.2323 59.7227H425.77C429.769 59.7272 433.604 61.3179 436.432 64.1458C439.26 66.9738 440.85 70.808 440.855 74.8074V263.198C440.851 267.197 439.26 271.031 436.432 273.86C433.604 276.688 429.77 278.278 425.77 278.283Z" fill="#F0F0F0"/>
<path d="M467.322 329.683H88.7841C84.7847 329.679 80.9504 328.088 78.1224 325.26C75.2945 322.432 73.7037 318.598 73.6992 314.598V126.208C73.7038 122.208 75.2946 118.374 78.1225 115.546C80.9505 112.718 84.7848 111.128 88.7841 111.123H467.322C471.321 111.128 475.155 112.718 477.983 115.546C480.811 118.374 482.402 122.208 482.407 126.208V314.598C482.402 318.598 480.812 322.432 477.984 325.26C475.156 328.088 471.321 329.679 467.322 329.683Z" fill="white"/>
<path d="M467.322 329.683H88.7841C84.7847 329.679 80.9504 328.088 78.1224 325.26C75.2945 322.432 73.7037 318.598 73.6992 314.598V126.208C73.7038 122.208 75.2946 118.374 78.1225 115.546C80.9505 112.718 84.7848 111.128 88.7841 111.123H467.322C471.321 111.128 475.155 112.718 477.983 115.546C480.811 118.374 482.402 122.208 482.407 126.208V314.598C482.402 318.598 480.812 322.432 477.984 325.26C475.156 328.088 471.321 329.679 467.322 329.683ZM88.7841 113.309C85.3642 113.313 82.0855 114.673 79.6673 117.091C77.249 119.509 75.8887 122.788 75.8848 126.208V314.598C75.8887 318.018 77.2489 321.297 79.6672 323.715C82.0854 326.133 85.3642 327.494 88.7841 327.498H467.322C470.742 327.494 474.021 326.133 476.439 323.715C478.857 321.297 480.217 318.018 480.221 314.598V126.208C480.217 122.788 478.857 119.509 476.439 117.091C474.02 114.673 470.742 113.313 467.322 113.309H88.7841Z" fill="#E4E4E4"/>
<path d="M117.853 296.7H420.545V244.82C420.499 239.349 419.36 233.943 417.197 228.918C415.033 223.894 411.888 219.352 407.945 215.559L407.863 215.479C402.456 210.054 384.389 196.287 365.695 197.455C355.82 198.069 347.366 202.828 340.567 211.6C319.406 238.912 291.608 229.693 276.922 221.766C263.979 214.779 250.76 211.5 237.632 212.022C219.245 212.741 193.365 219.515 174.491 247.702C167.283 258.459 151.606 273.061 117.853 281.642L117.853 296.7Z" fill="#0A2647"/>
<path d="M437.671 297.906H118.436C118.171 297.906 117.917 297.801 117.729 297.613C117.542 297.426 117.437 297.172 117.437 296.907V143.898C117.437 143.633 117.542 143.378 117.729 143.191C117.916 143.004 118.171 142.898 118.436 142.898C118.701 142.898 118.955 143.004 119.142 143.191C119.329 143.378 119.435 143.633 119.435 143.898V295.908H437.671C437.936 295.908 438.19 296.013 438.377 296.201C438.565 296.388 438.67 296.642 438.67 296.907C438.67 297.172 438.565 297.426 438.377 297.613C438.19 297.801 437.936 297.906 437.671 297.906Z" fill="#3F3D56"/>
<path d="M236.964 219.588C240.275 219.588 242.958 216.905 242.958 213.594C242.958 210.283 240.275 207.6 236.964 207.6C233.654 207.6 230.97 210.283 230.97 213.594C230.97 216.905 233.654 219.588 236.964 219.588Z" fill="#3F3D56"/>
<path d="M354.533 203.913C357.844 203.913 360.527 201.229 360.527 197.918C360.527 194.608 357.844 191.924 354.533 191.924C351.222 191.924 348.539 194.608 348.539 197.918C348.539 201.229 351.222 203.913 354.533 203.913Z" fill="#3F3D56"/>
<path d="M295.748 236.245C299.059 236.245 301.743 233.561 301.743 230.25C301.743 226.94 299.059 224.256 295.748 224.256C292.438 224.256 289.754 226.94 289.754 230.25C289.754 233.561 292.438 236.245 295.748 236.245Z" fill="#3F3D56"/>
<path d="M178.179 245.061C181.49 245.061 184.174 242.377 184.174 239.067C184.174 235.756 181.49 233.072 178.179 233.072C174.869 233.072 172.185 235.756 172.185 239.067C172.185 242.377 174.869 245.061 178.179 245.061Z" fill="#3F3D56"/>
<path d="M413.317 225.467C416.628 225.467 419.312 222.783 419.312 219.473C419.312 216.162 416.628 213.479 413.317 213.479C410.007 213.479 407.323 216.162 407.323 219.473C407.323 222.783 410.007 225.467 413.317 225.467Z" fill="#3F3D56"/>
<path d="M482.761 238.328C482.099 237.69 481.585 236.915 481.255 236.058C480.925 235.2 480.787 234.28 480.851 233.363C480.915 232.447 481.179 231.555 481.625 230.751C482.071 229.948 482.688 229.252 483.432 228.712L476.969 207.328L488.094 210.642L492.526 230.441C493.349 231.75 493.664 233.317 493.41 234.843C493.156 236.369 492.35 237.749 491.147 238.722C489.943 239.694 488.424 240.191 486.879 240.118C485.333 240.046 483.868 239.409 482.761 238.328Z" fill="#9E616A"/>
<path d="M377.856 111.165C377.738 112.076 377.822 113.003 378.1 113.878C378.379 114.754 378.846 115.558 379.469 116.234C380.092 116.909 380.856 117.44 381.706 117.788C382.557 118.137 383.473 118.295 384.391 118.251L392.715 138.981L399.327 129.44L390.409 111.216C390.233 109.679 389.499 108.26 388.346 107.228C387.194 106.195 385.703 105.622 384.155 105.615C382.608 105.609 381.112 106.17 379.951 107.193C378.79 108.216 378.045 109.629 377.856 111.165Z" fill="#9E616A"/>
<path d="M471.705 360.488H464.041L460.396 330.926L471.707 330.927L471.705 360.488Z" fill="#9E616A"/>
<path d="M473.66 367.916L448.948 367.915V367.603C448.948 365.052 449.961 362.606 451.765 360.802C453.569 358.998 456.015 357.985 458.566 357.984L473.66 357.985L473.66 367.916Z" fill="#2F2E41"/>
<path d="M446.626 360.244L439.319 357.931L444.765 328.646L455.549 332.061L446.626 360.244Z" fill="#9E616A"/>
<path d="M446.247 367.916L422.688 360.457L422.782 360.159C423.552 357.727 425.256 355.7 427.521 354.525C429.785 353.35 432.423 353.122 434.855 353.892L449.245 358.448L446.247 367.916Z" fill="#2F2E41"/>
<path d="M437.548 216.007C437.548 216.007 426.177 233.862 430.195 249.799C434.213 265.735 438.589 296.367 438.589 296.367L460.377 348.218L476.618 347.555L460.489 286.421L461.127 245.546C461.127 245.546 472.337 226.01 470.154 219.929C467.971 213.848 437.548 216.007 437.548 216.007Z" fill="#2F2E41"/>
<path d="M474.699 222.39C474.699 222.39 476.098 240.104 471.722 247.605C467.346 255.107 462.684 283.659 462.684 283.659L455.246 340.763L439.84 335.75L452.977 271.772L463.302 221.445L474.699 222.39Z" fill="#2F2E41"/>
<path d="M480.161 136.643L468.141 128.381L449.85 127.85L443.48 134.095L433.759 139.059L432.858 219.929C432.858 219.929 461.968 233.882 477.629 227.147L485.163 164.149C488.288 151.646 480.161 136.643 480.161 136.643Z" fill="#3F3D56"/>
<path d="M436.2 160.671H404.138L383.073 124.412L396.77 118.986L408.37 139.621L425.159 138.101L435.643 137.594C437.322 137.513 439 137.8 440.557 138.435C442.115 139.069 443.515 140.037 444.66 141.269C445.804 142.502 446.666 143.969 447.184 145.569C447.702 147.169 447.864 148.863 447.659 150.533C447.313 153.329 445.957 155.902 443.847 157.769C441.737 159.636 439.018 160.668 436.2 160.671Z" fill="#3F3D56"/>
<path d="M460.487 121.19C469.246 121.19 476.347 114.09 476.347 105.331C476.347 96.5714 469.246 89.4707 460.487 89.4707C451.728 89.4707 444.627 96.5714 444.627 105.331C444.627 114.09 451.728 121.19 460.487 121.19Z" fill="#9E616A"/>
<path d="M479.597 101.723C479.11 98.2414 476.751 94.9353 473.398 93.8805C472.065 90.0118 468.537 87.1635 464.638 85.9219C461.027 84.7707 457.137 84.8506 453.577 86.1491C450.017 87.4476 446.988 89.8911 444.967 93.0964C444.668 93.5656 443.751 94.718 443.776 95.2779C443.809 95.9889 444.897 96.723 445.443 97.1712C446.797 98.2179 448.258 99.1193 449.801 99.8607C455.504 102.817 453.605 107.464 453.528 112.729C453.49 115.288 454.344 117.473 456.526 118.935C459.675 121.044 464.182 120.205 467.608 119.358C471.496 118.397 474.728 114.982 476.945 111.689C478.909 108.773 480.084 105.205 479.597 101.723Z" fill="#2F2E41"/>
<path d="M479.439 156.982L492.887 223.612L473.061 224.697L479.439 156.982Z" fill="#3F3D56"/>
<path d="M493.324 368.765C493.325 368.88 493.303 368.993 493.259 369.099C493.216 369.205 493.152 369.301 493.072 369.382C492.991 369.463 492.896 369.528 492.79 369.572C492.685 369.616 492.572 369.639 492.457 369.64H389.516C389.285 369.64 389.063 369.548 388.9 369.385C388.737 369.221 388.645 369 388.645 368.769C388.645 368.538 388.737 368.317 388.9 368.153C389.063 367.99 389.285 367.898 389.516 367.898H492.457C492.687 367.899 492.907 367.99 493.07 368.153C493.232 368.315 493.324 368.536 493.324 368.765Z" fill="#CACACA"/>
</g>
<defs>
<clipPath id="clip0_769_5418">
<rect width="500" height="369.64" fill="white"/>
</clipPath>
</defs>
</svg>
