<svg width="500" height="305" viewBox="0 0 500 305" fill="none" xmlns="http://www.w3.org/2000/svg">
<g clip-path="url(#clip0_636_8584)">
<path d="M21.1248 278.018C23.2295 278.758 25.4893 278.943 27.6864 278.556C29.8835 278.169 31.9439 277.223 33.6692 275.808C38.0628 272.12 39.4406 266.047 40.5612 260.421L43.8765 243.781L36.9357 248.56C31.9439 251.997 26.84 255.545 23.3841 260.523C19.9282 265.501 18.4204 272.297 21.1964 277.684" fill="#E6E6E6"/>
<path d="M22.1965 299.322C21.3229 292.957 20.4241 286.511 21.0384 280.078C21.5827 274.364 23.3258 268.785 26.8744 264.209C28.758 261.785 31.0499 259.708 33.6473 258.071C34.3244 257.644 34.9477 258.717 34.2735 259.143C29.7793 261.983 26.3031 266.177 24.3462 271.12C22.185 276.617 21.8379 282.609 22.2102 288.448C22.4352 291.98 22.9134 295.488 23.3936 298.992C23.4315 299.15 23.4079 299.317 23.3274 299.459C23.2469 299.6 23.1157 299.706 22.9601 299.755C22.8015 299.798 22.6324 299.776 22.4895 299.695C22.3466 299.614 22.2415 299.479 22.197 299.321L22.1965 299.322Z" fill="#F2F2F2"/>
<path d="M28.4849 289.111C29.3874 290.483 30.6281 291.599 32.0875 292.353C33.5469 293.106 35.1758 293.471 36.8172 293.412C41.0363 293.212 44.5522 290.269 47.7169 287.473L57.0796 279.207L50.8833 278.91C46.4272 278.697 41.8561 278.497 37.6118 279.872C33.3674 281.248 29.4532 284.554 28.6772 288.947" fill="#E6E6E6"/>
<path d="M19.7271 302.981C23.933 295.539 28.811 287.268 37.528 284.625C39.9515 283.892 42.4927 283.63 45.0148 283.852C45.8098 283.92 45.6113 285.146 44.8179 285.077C40.5902 284.726 36.3707 285.843 32.8696 288.238C29.5005 290.532 26.8773 293.72 24.6573 297.101C23.2972 299.172 22.0791 301.33 20.8609 303.486C20.4717 304.175 19.3333 303.678 19.7271 302.981Z" fill="#F2F2F2"/>
<path d="M431.909 23.6895H103.966V161.399H431.909V23.6895Z" fill="white"/>
<path d="M441.855 9.53711H94.0195V174.591H441.855V9.53711Z" fill="#E6E6E6"/>
<path d="M441.707 0H93.8711V14.7771H441.707V0Z" fill="#0A2647"/>
<path d="M104.852 9.57346C106.365 9.57346 107.591 8.34722 107.591 6.83458C107.591 5.32194 106.365 4.0957 104.852 4.0957C103.34 4.0957 102.113 5.32194 102.113 6.83458C102.113 8.34722 103.34 9.57346 104.852 9.57346Z" fill="white"/>
<path d="M115.248 9.57346C116.761 9.57346 117.987 8.34722 117.987 6.83458C117.987 5.32194 116.761 4.0957 115.248 4.0957C113.736 4.0957 112.509 5.32194 112.509 6.83458C112.509 8.34722 113.736 9.57346 115.248 9.57346Z" fill="white"/>
<path d="M125.645 9.57346C127.157 9.57346 128.384 8.34722 128.384 6.83458C128.384 5.32194 127.157 4.0957 125.645 4.0957C124.132 4.0957 122.906 5.32194 122.906 6.83458C122.906 8.34722 124.132 9.57346 125.645 9.57346Z" fill="white"/>
<path d="M181.42 129.179H347.166V100.771C347.141 97.7756 346.518 94.8153 345.333 92.0639C344.148 89.3125 342.426 86.8255 340.267 84.7488L340.222 84.7048C337.261 81.7345 327.368 74.196 317.132 74.8351C311.725 75.1717 307.095 77.7777 303.373 82.5806C291.785 97.5363 276.564 92.4879 268.522 88.1476C261.435 84.3218 254.197 82.5261 247.008 82.8119C236.94 83.2056 222.768 86.9146 212.434 102.349C208.486 108.239 199.902 116.235 181.42 120.934V129.179Z" fill="#E4E4E4"/>
<path d="M356.544 129.839H181.739C181.594 129.839 181.455 129.781 181.352 129.679C181.25 129.576 181.192 129.437 181.192 129.292V45.508C181.192 45.3629 181.25 45.2238 181.352 45.1212C181.455 45.0186 181.594 44.9609 181.739 44.9609C181.884 44.9609 182.023 45.0186 182.126 45.1212C182.228 45.2238 182.286 45.3629 182.286 45.508V128.745H356.544C356.689 128.745 356.828 128.803 356.931 128.905C357.033 129.008 357.091 129.147 357.091 129.292C357.091 129.437 357.033 129.576 356.931 129.679C356.828 129.781 356.689 129.839 356.544 129.839Z" fill="#3F3D56"/>
<path d="M214.99 97.6211H213.917V129.07H214.99V97.6211Z" fill="#3F3D56"/>
<path d="M247.113 82.9316H246.04V129.069H247.113V82.9316Z" fill="#3F3D56"/>
<path d="M279.301 92.5898H278.229V129.071H279.301V92.5898Z" fill="#3F3D56"/>
<path d="M311.49 74.8848H310.417V129.069H311.49V74.8848Z" fill="#3F3D56"/>
<path d="M343.679 87.2246H342.606V129.07H343.679V87.2246Z" fill="#3F3D56"/>
<path d="M246.642 86.9554C248.455 86.9554 249.925 85.4858 249.925 83.673C249.925 81.8602 248.455 80.3906 246.642 80.3906C244.829 80.3906 243.36 81.8602 243.36 83.673C243.36 85.4858 244.829 86.9554 246.642 86.9554Z" fill="#0A2647"/>
<path d="M311.02 78.3714C312.833 78.3714 314.303 76.9018 314.303 75.089C314.303 73.2762 312.833 71.8066 311.02 71.8066C309.207 71.8066 307.738 73.2762 307.738 75.089C307.738 76.9018 309.207 78.3714 311.02 78.3714Z" fill="#0A2647"/>
<path d="M278.831 96.0745C280.644 96.0745 282.114 94.6049 282.114 92.7921C282.114 90.9793 280.644 89.5098 278.831 89.5098C277.018 89.5098 275.549 90.9793 275.549 92.7921C275.549 94.6049 277.018 96.0745 278.831 96.0745Z" fill="#0A2647"/>
<path d="M214.454 100.903C216.267 100.903 217.736 99.433 217.736 97.6202C217.736 95.8075 216.267 94.3379 214.454 94.3379C212.641 94.3379 211.171 95.8075 211.171 97.6202C211.171 99.433 212.641 100.903 214.454 100.903Z" fill="#0A2647"/>
<path d="M343.209 90.1741C345.022 90.1741 346.491 88.7045 346.491 86.8917C346.491 85.0789 345.022 83.6094 343.209 83.6094C341.396 83.6094 339.927 85.0789 339.927 86.8917C339.927 88.7045 341.396 90.1741 343.209 90.1741Z" fill="#0A2647"/>
<path d="M73.4513 297.998H80.0285L83.1573 272.629L73.4502 272.629L73.4513 297.998Z" fill="#FFB6B6"/>
<path d="M71.7734 295.852L84.7262 295.852C86.9154 295.852 89.0155 296.721 90.5635 298.269C92.1115 299.817 92.9812 301.917 92.9813 304.106V304.374L71.7738 304.375L71.7734 295.852Z" fill="#2F2E41"/>
<path d="M104.567 297.998H111.144L114.273 272.629L104.566 272.629L104.567 297.998Z" fill="#FFB6B6"/>
<path d="M102.889 295.852L115.842 295.852C118.031 295.852 120.131 296.721 121.679 298.269C123.227 299.817 124.097 301.917 124.097 304.106V304.374L102.89 304.375L102.889 295.852Z" fill="#2F2E41"/>
<path d="M116.842 182.019C117.398 181.386 117.808 180.639 118.044 179.83C118.28 179.021 118.335 178.17 118.207 177.338C118.078 176.505 117.769 175.711 117.3 175.01C116.831 174.31 116.215 173.722 115.494 173.285L104.79 121.896L93.1294 126.491L107.317 175.56C106.665 176.819 106.497 178.275 106.846 179.65C107.195 181.025 108.036 182.224 109.21 183.02C110.384 183.816 111.81 184.154 113.216 183.97C114.623 183.785 115.913 183.091 116.842 182.019Z" fill="#FFB6B6"/>
<path d="M66.3972 172.123L61.5493 177.044C61.5493 177.044 56.3517 196.091 66.2977 219.581L72.95 287.687L84.9189 288.589L88.4919 209.353L104.978 235.654L102.098 288.307L115.329 288.003L121.308 229.659L104.978 168.777L66.3972 172.123Z" fill="#2F2E41"/>
<path d="M83.3482 178.752C76.0481 178.701 68.7575 178.22 61.5142 177.31L61.2227 177.271L68.4472 145.519L65.9595 104.666L89.4507 103.861C91.5773 103.784 93.6574 104.495 95.2917 105.858C96.9259 107.221 97.9992 109.139 98.3054 111.245L103.113 143.839L107.561 172.757L107.501 172.844C104.305 177.53 93.6192 178.752 83.3482 178.752Z" fill="#0A2647"/>
<path d="M87.3135 110.618L92.0865 104.634C92.0865 104.634 100.454 98.9122 103.102 111.174C105.75 123.436 110.67 143.342 110.67 143.342L94.3088 144.667L87.3135 110.618Z" fill="#0A2647"/>
<path d="M42.0834 182.556C41.5275 181.923 41.1171 181.176 40.8813 180.367C40.6454 179.558 40.5898 178.707 40.7183 177.875C40.8468 177.042 41.1563 176.248 41.6251 175.548C42.0938 174.847 42.7103 174.259 43.4312 173.823L54.1348 122.434L65.7957 127.028L51.6077 176.097C52.26 177.357 52.4276 178.812 52.0787 180.187C51.7298 181.562 50.8887 182.761 49.7147 183.557C48.5407 184.353 47.1154 184.691 45.7089 184.507C44.3024 184.322 43.0124 183.628 42.0834 182.556Z" fill="#FFB6B6"/>
<path d="M71.6118 111.155L66.8389 105.171C66.8389 105.171 58.4714 99.4493 55.8232 111.711C53.1751 123.973 48.2549 143.879 48.2549 143.879L64.6165 145.204L71.6118 111.155Z" fill="#0A2647"/>
<path d="M91.7263 97.8862H60.6105C59.9704 97.8855 59.3568 97.6309 58.9042 97.1783C58.4516 96.7257 58.197 96.1121 58.1963 95.472V82.06C58.1963 77.2935 60.0898 72.7222 63.4602 69.3518C66.8306 65.9814 71.4019 64.0879 76.1684 64.0879C80.9349 64.0879 85.5062 65.9814 88.8766 69.3518C92.247 72.7222 94.1405 77.2935 94.1405 82.06V95.472C94.1398 96.1121 93.8852 96.7257 93.4326 97.1783C92.98 97.6309 92.3664 97.8855 91.7263 97.8862Z" fill="#2F2E41"/>
<path d="M79.6043 97.0796C86.8814 97.0796 92.7808 91.1803 92.7808 83.9031C92.7808 76.6259 86.8814 70.7266 79.6043 70.7266C72.3271 70.7266 66.4277 76.6259 66.4277 83.9031C66.4277 91.1803 72.3271 97.0796 79.6043 97.0796Z" fill="#FFB6B6"/>
<path d="M98.3922 83.4029H79.3656L79.1705 80.6713L78.195 83.4029H75.2653L74.8786 77.9889L72.9452 83.4029H67.2764V83.1347C67.2806 79.3655 68.7798 75.7519 71.445 73.0867C74.1102 70.4214 77.7238 68.9222 81.493 68.918H84.1755C87.9447 68.9222 91.5583 70.4214 94.2236 73.0867C96.8888 75.7519 98.388 79.3655 98.3922 83.1347V83.4029Z" fill="#2F2E41"/>
<path d="M79.21 100.391C79.0667 100.391 78.9238 100.378 78.7827 100.353L64.8506 97.8949V74.8691H80.1872L79.8075 75.3118C74.5247 81.473 78.5046 91.4634 81.3472 96.8701C81.5568 97.2661 81.6502 97.7132 81.6167 98.1599C81.5833 98.6067 81.4244 99.0349 81.1582 99.3953C80.9354 99.7035 80.6426 99.9544 80.3039 100.127C79.9652 100.301 79.5903 100.391 79.21 100.391Z" fill="#2F2E41"/>
<path d="M463.693 297.998H457.116L453.987 272.629L463.694 272.629L463.693 297.998Z" fill="#9E616A"/>
<path d="M465.37 304.375L444.163 304.374V304.106C444.163 301.917 445.032 299.817 446.58 298.269C448.128 296.721 450.228 295.852 452.417 295.852L465.37 295.852L465.37 304.375Z" fill="#2F2E41"/>
<path d="M440.087 297.998H433.511L430.381 272.629L440.089 272.629L440.087 297.998Z" fill="#9E616A"/>
<path d="M441.765 304.375L420.558 304.374V304.106C420.558 301.917 421.427 299.817 422.975 298.269C424.523 296.721 426.623 295.852 428.812 295.852L441.765 295.852L441.765 304.375Z" fill="#2F2E41"/>
<path d="M363.486 120.232C364.012 120.955 364.689 121.553 365.472 121.986C366.254 122.419 367.121 122.675 368.013 122.736C368.905 122.797 369.799 122.662 370.633 122.34C371.467 122.018 372.22 121.517 372.839 120.873L385.853 125.955L390.871 118.799L372.391 111.88C371.24 110.912 369.773 110.399 368.268 110.44C366.764 110.48 365.327 111.071 364.229 112.101C363.132 113.13 362.45 114.526 362.313 116.025C362.176 117.524 362.593 119.02 363.486 120.232Z" fill="#9E616A"/>
<path d="M440.005 163.586L422.87 169.176L428.594 290.525L441.818 290.853L448.586 205.275L450.123 290.515L466.474 291.416L472.502 163.586H440.005Z" fill="#2F2E41"/>
<path d="M428.443 92.0533L472.421 82.498L477.312 120.366L473.239 138.459L474.87 165.956C474.87 165.956 440.097 183.263 422.87 169.177C422.87 169.177 436.716 132.809 428.69 115.784L428.443 92.0533Z" fill="#3F3D56"/>
<path d="M436.06 97.4081L428.443 92.0519C428.443 92.0519 427.993 91.4289 421.646 98.8488C415.299 106.269 402.424 118.071 402.424 118.071L380.965 110.024L377.055 124.469L401.995 136.091L437.304 112.51L436.06 97.4081Z" fill="#3F3D56"/>
<path d="M474.878 180.151C475.687 179.769 476.401 179.214 476.972 178.527C477.543 177.839 477.956 177.034 478.182 176.169C478.408 175.305 478.442 174.401 478.281 173.522C478.12 172.642 477.768 171.809 477.251 171.081L484.668 159.241L478.573 152.979L468.332 169.845C467.166 170.796 466.389 172.142 466.149 173.628C465.908 175.113 466.221 176.635 467.028 177.906C467.835 179.176 469.08 180.106 470.527 180.52C471.974 180.933 473.522 180.802 474.878 180.151Z" fill="#9E616A"/>
<path d="M465.562 89.958L472.421 82.4983C472.421 82.4983 480.064 79.8367 486.308 93.59C492.552 107.343 499.527 135.24 499.527 135.24L483.22 166.65L470.557 160.991L483.22 135.018L469.82 115.784L465.562 89.958Z" fill="#3F3D56"/>
<path d="M453.93 79.3921C460.848 75.6104 463.391 66.9367 459.609 60.0189C455.827 53.101 447.154 50.5586 440.236 54.3402C433.318 58.1219 430.776 66.7955 434.557 73.7134C438.339 80.6313 447.013 83.1737 453.93 79.3921Z" fill="#9E616A"/>
<path d="M460.51 55.4537L461.202 54.0608L457.719 52.3307C457.719 52.3307 453.878 46.0801 446.927 47.8367C439.975 49.5932 436.848 50.6445 436.848 50.6445L433.374 52.3922L435.118 54.1267L431.99 55.178L434.079 56.2161L431.648 57.6134L432.957 64.7764C432.957 64.7764 435.131 59.3435 439.309 61.4197C443.488 63.4959 451.132 60.3465 451.132 60.3465L457.772 73.1979C457.772 73.1979 459.142 68.6928 461.585 69.8941C461.585 69.8941 467.825 59.9565 460.51 55.4537Z" fill="#2F2E41"/>
<path d="M160.944 304.499H0.536481C0.394197 304.499 0.257741 304.442 0.157131 304.342C0.0565215 304.241 0 304.105 0 303.962C0 303.82 0.0565215 303.684 0.157131 303.583C0.257741 303.482 0.394197 303.426 0.536481 303.426H160.944C161.086 303.426 161.223 303.482 161.324 303.583C161.424 303.684 161.481 303.82 161.481 303.962C161.481 304.105 161.424 304.241 161.324 304.342C161.223 304.442 161.086 304.499 160.944 304.499Z" fill="#CACACA"/>
<path d="M499.463 304.499H376.609C376.467 304.499 376.331 304.442 376.23 304.342C376.129 304.241 376.073 304.105 376.073 303.962C376.073 303.82 376.129 303.684 376.23 303.583C376.331 303.482 376.467 303.426 376.609 303.426H499.463C499.606 303.426 499.742 303.482 499.843 303.583C499.943 303.684 500 303.82 500 303.962C500 304.105 499.943 304.241 499.843 304.342C499.742 304.442 499.606 304.499 499.463 304.499Z" fill="#CACACA"/>
</g>
<defs>
<clipPath id="clip0_636_8584">
<rect width="500" height="304.499" fill="white"/>
</clipPath>
</defs>
</svg>
