<svg width="500" height="335" viewBox="0 0 500 335" fill="none" xmlns="http://www.w3.org/2000/svg">
<g clip-path="url(#clip0_769_5415)">
<path d="M368.154 0.208984H0.157227V235.891H368.154V0.208984Z" fill="#E6E6E6"/>
<path d="M357.631 29.7695H10.6797V119.613H357.631V29.7695Z" fill="white"/>
<path d="M170.353 42.7461H96.981V46.958H170.353V42.7461Z" fill="#E6E6E6"/>
<path d="M210.284 58.1094H96.981V62.3212H210.284V58.1094Z" fill="#0A2647"/>
<path d="M189.32 72.5859H96.981V76.7978H189.32V72.5859Z" fill="#E6E6E6"/>
<path d="M150.887 87.0059H96.981V91.2177H150.887V87.0059Z" fill="#E6E6E6"/>
<path d="M178.34 101.426H96.981V105.638H178.34V101.426Z" fill="#E6E6E6"/>
<path d="M72.5234 41.25H63.5391V50.2344H72.5234V41.25Z" fill="#E6E6E6"/>
<path d="M72.5234 55.7246H63.5391V64.709H72.5234V55.7246Z" fill="#0A2647"/>
<path d="M72.5234 70.1992H63.5391V79.1836H72.5234V70.1992Z" fill="#E6E6E6"/>
<path d="M72.5234 84.6738H63.5391V93.6582H72.5234V84.6738Z" fill="#E6E6E6"/>
<path d="M72.5234 99.1484H63.5391V108.133H72.5234V99.1484Z" fill="#E6E6E6"/>
<path d="M309.112 61.7129H279.164V91.6608H309.112V61.7129Z" fill="#E6E6E6"/>
<path d="M357.631 132.092H10.6797V221.936H357.631V132.092Z" fill="white"/>
<path d="M87.9966 140.076H79.0122V149.061H87.9966V140.076Z" fill="#E6E6E6"/>
<path d="M72.5234 140.076H63.5391V149.061H72.5234V140.076Z" fill="#0A2647"/>
<path d="M215.87 159.722C213.132 155.086 209.333 151.167 204.784 148.285C200.236 145.404 195.068 143.643 189.707 143.148C184.345 142.652 178.943 143.437 173.944 145.436C168.944 147.436 164.491 150.593 160.95 154.649L158.76 152.736C162.603 148.332 167.437 144.904 172.863 142.733C178.29 140.563 184.154 139.711 189.974 140.248C195.794 140.786 201.403 142.697 206.34 145.825C211.277 148.953 215.401 153.209 218.373 158.241L215.87 159.722Z" fill="#E6E6E6"/>
<path d="M217.241 197.601L214.828 195.978C218.402 190.648 220.396 184.416 220.58 178.001C220.765 171.586 219.132 165.25 215.87 159.723L218.373 158.242C221.914 164.242 223.687 171.121 223.487 178.085C223.286 185.049 221.121 191.815 217.241 197.601Z" fill="#0A2647"/>
<path d="M159.063 201.651C153.053 194.939 149.705 186.261 149.649 177.251C149.593 168.242 152.834 159.523 158.76 152.736L160.95 154.65C155.49 160.901 152.505 168.934 152.557 177.233C152.608 185.533 155.693 193.528 161.229 199.712L159.063 201.651Z" fill="#0A2647"/>
<path d="M186.575 213.95C181.383 213.947 176.25 212.849 171.51 210.73C166.77 208.611 162.529 205.518 159.063 201.652L161.229 199.712C164.686 203.574 168.98 206.595 173.783 208.545C178.586 210.495 183.771 211.321 188.942 210.961C194.113 210.6 199.133 209.063 203.62 206.467C208.106 203.87 211.94 200.283 214.828 195.979L217.241 197.601C213.865 202.635 209.301 206.76 203.953 209.611C198.605 212.463 192.636 213.953 186.575 213.95Z" fill="#0A2647"/>
<path d="M309.112 159.543H279.164V189.491H309.112V159.543Z" fill="#E6E6E6"/>
<path d="M92.239 179.01H62.291V208.958H92.239V179.01Z" fill="#E6E6E6"/>
<path d="M367.997 0H0V15.6339H367.997V0Z" fill="#0A2647"/>
<path d="M11.6178 10.8909C13.2181 10.8909 14.5154 9.59363 14.5154 7.99332C14.5154 6.39301 13.2181 5.0957 11.6178 5.0957C10.0175 5.0957 8.72021 6.39301 8.72021 7.99332C8.72021 9.59363 10.0175 10.8909 11.6178 10.8909Z" fill="white"/>
<path d="M22.6164 10.8909C24.2167 10.8909 25.514 9.59363 25.514 7.99332C25.514 6.39301 24.2167 5.0957 22.6164 5.0957C21.0161 5.0957 19.7188 6.39301 19.7188 7.99332C19.7188 9.59363 21.0161 10.8909 22.6164 10.8909Z" fill="white"/>
<path d="M33.6149 10.8909C35.2152 10.8909 36.5125 9.59363 36.5125 7.99332C36.5125 6.39301 35.2152 5.0957 33.6149 5.0957C32.0146 5.0957 30.7173 6.39301 30.7173 7.99332C30.7173 9.59363 32.0146 10.8909 33.6149 10.8909Z" fill="white"/>
<path d="M427.41 326.222H434.86L438.405 297.486L427.409 297.487L427.41 326.222Z" fill="#FFB8B8"/>
<path d="M425.51 323.79L440.181 323.789H440.182C442.662 323.789 445.04 324.774 446.793 326.528C448.547 328.281 449.532 330.659 449.532 333.139V333.443L425.51 333.444L425.51 323.79Z" fill="#2F2E41"/>
<path d="M408.856 298.01L414.354 303.038L436.363 284.225L428.249 276.805L408.856 298.01Z" fill="#FFB8B8"/>
<path d="M409.095 294.932L419.922 304.833L419.922 304.833C421.752 306.507 422.842 308.839 422.953 311.316C423.063 313.793 422.185 316.213 420.512 318.043L420.307 318.267L402.58 302.056L409.095 294.932Z" fill="#2F2E41"/>
<path d="M439.12 225.31L437.008 267.54L442.287 313.465L426.451 315.577L416.421 257.511L413.254 217.92L439.12 225.31Z" fill="#2F2E41"/>
<path d="M463.93 210.002C463.93 210.002 470.264 251.704 457.067 265.429C443.871 279.154 425.923 303.436 425.923 303.436L413.254 287.6L445.454 253.288L439.12 230.061L413.254 217.92L417.477 188.887L455.484 188.359L463.93 210.002Z" fill="#2F2E41"/>
<path d="M434.862 113.401C442.002 113.401 447.79 107.613 447.79 100.473C447.79 93.3331 442.002 87.5449 434.862 87.5449C427.722 87.5449 421.934 93.3331 421.934 100.473C421.934 107.613 427.722 113.401 434.862 113.401Z" fill="#FFB8B8"/>
<path d="M445.585 118.848L447.565 121.848L452.844 136.628L448.621 194.166L423.811 194.695L420.644 128.71L427.279 120.417L445.585 118.848Z" fill="#CCCCCC"/>
<path d="M410.614 130.293L406.391 129.766C406.391 129.766 405.336 130.294 404.808 133.989C404.28 137.684 397.945 170.412 397.945 170.412L406.391 210.53L415.893 197.861L410.086 175.691L415.893 153.52L410.614 130.293Z" fill="#2F2E41"/>
<path d="M464.458 129.766H467.625L475.543 172.523L468.153 205.779L460.762 193.638L462.874 180.441L461.818 168.828L458.123 161.965L464.458 129.766Z" fill="#2F2E41"/>
<path d="M442.502 100.474L440.151 99.8859C440.151 99.8859 438.388 89.896 434.275 91.0712C430.161 92.2465 419.583 93.4218 419.583 88.7207C419.583 84.0195 429.573 79.906 435.45 80.4936C441.326 81.0813 448.831 83.0308 450.729 91.6589C453.77 105.49 444.454 108.984 444.454 108.984L444.609 108.48C445.039 107.082 445.07 105.591 444.698 104.176C444.325 102.761 443.565 101.479 442.502 100.474Z" fill="#2F2E41"/>
<path d="M406.919 129.765L423.811 122.903L427.77 120L439.648 172.523L447.566 148.769L445.19 118.416L467.097 129.765L459.707 165.661L458.651 179.385L461.818 190.471C461.818 190.471 472.904 198.389 469.209 206.835C465.513 215.281 461.29 215.809 461.29 215.809C461.29 215.809 443.343 198.917 442.287 194.694C441.231 190.471 439.648 183.081 439.648 183.081C439.648 183.081 430.674 216.864 420.116 216.337C409.559 215.809 409.559 204.723 409.559 204.723L412.198 193.11L416.421 180.969L414.31 160.91L406.919 129.765Z" fill="#2F2E41"/>
<path d="M499.477 334.339H359.303C359.164 334.339 359.031 334.284 358.933 334.186C358.835 334.088 358.78 333.955 358.78 333.816C358.78 333.677 358.835 333.544 358.933 333.446C359.031 333.348 359.164 333.293 359.303 333.293H499.477C499.616 333.293 499.749 333.348 499.847 333.446C499.945 333.544 500 333.677 500 333.816C500 333.955 499.945 334.088 499.847 334.186C499.749 334.284 499.616 334.339 499.477 334.339Z" fill="#CCCCCC"/>
</g>
<defs>
<clipPath id="clip0_769_5415">
<rect width="500" height="334.339" fill="white"/>
</clipPath>
</defs>
</svg>
