<svg width="500" height="299" viewBox="0 0 500 299" fill="none" xmlns="http://www.w3.org/2000/svg">
<g clip-path="url(#clip0_769_5414)">
<path d="M57.7759 18.8281H18.186V45.2214H57.7759V18.8281Z" fill="#0A2647"/>
<path d="M97.0362 18.8281H57.4463V45.2214H97.0362V18.8281Z" fill="#E6E6E6"/>
<path opacity="0.8" d="M136.296 18.8281H96.7061V45.2214H136.296V18.8281Z" fill="#0A2647"/>
<path d="M175.556 18.8281H135.966V45.2214H175.556V18.8281Z" fill="#0A2647"/>
<path opacity="0.8" d="M214.816 18.8281H175.226V45.2214H214.816V18.8281Z" fill="#0A2647"/>
<path d="M254.076 18.8281H214.486V45.2214H254.076V18.8281Z" fill="#E6E6E6"/>
<path d="M332.596 18.8281H293.006V45.2214H332.596V18.8281Z" fill="#E6E6E6"/>
<path opacity="0.8" d="M57.7759 43.9023H18.186V70.2956H57.7759V43.9023Z" fill="#0A2647"/>
<path d="M97.0362 43.9023H57.4463V70.2956H97.0362V43.9023Z" fill="#0A2647"/>
<path opacity="0.8" d="M175.556 43.9023H135.966V70.2956H175.556V43.9023Z" fill="#0A2647"/>
<path d="M214.816 43.9023H175.226V70.2956H214.816V43.9023Z" fill="#0A2647"/>
<path opacity="0.8" d="M254.076 43.9023H214.486V70.2956H254.076V43.9023Z" fill="#0A2647"/>
<path d="M332.596 43.9023H293.006V70.2956H332.596V43.9023Z" fill="#0A2647"/>
<path d="M57.7759 68.9746H18.186V95.3679H57.7759V68.9746Z" fill="#E6E6E6"/>
<path opacity="0.8" d="M97.0362 68.9746H57.4463V95.3679H97.0362V68.9746Z" fill="#0A2647"/>
<path d="M136.296 68.9746H96.7061V95.3679H136.296V68.9746Z" fill="#E6E6E6"/>
<path d="M175.556 68.9746H135.966V95.3679H175.556V68.9746Z" fill="#0A2647"/>
<path opacity="0.8" d="M214.816 68.9746H175.226V95.3679H214.816V68.9746Z" fill="#0A2647"/>
<path d="M254.076 68.9746H214.486V95.3679H254.076V68.9746Z" fill="#E6E6E6"/>
<path d="M293.336 68.9746H253.746V95.3679H293.336V68.9746Z" fill="#0A2647"/>
<path d="M57.7759 94.0488H18.186V120.442H57.7759V94.0488Z" fill="#0A2647"/>
<path d="M97.0362 94.0488H57.4463V120.442H97.0362V94.0488Z" fill="#E6E6E6"/>
<path opacity="0.8" d="M254.076 94.0488H214.486V120.442H254.076V94.0488Z" fill="#0A2647"/>
<path opacity="0.8" d="M57.7759 119.123H18.186V145.516H57.7759V119.123Z" fill="#0A2647"/>
<path d="M97.0362 119.123H57.4463V145.516H97.0362V119.123Z" fill="#0A2647"/>
<path d="M136.296 119.123H96.7061V145.516H136.296V119.123Z" fill="#E6E6E6"/>
<path opacity="0.8" d="M175.556 119.123H135.966V145.516H175.556V119.123Z" fill="#0A2647"/>
<path opacity="0.8" d="M214.816 119.123H175.226V145.516H214.816V119.123Z" fill="#0A2647"/>
<path d="M57.7759 144.195H18.186V170.589H57.7759V144.195Z" fill="#0A2647"/>
<path d="M97.0362 144.195H57.4463V170.589H97.0362V144.195Z" fill="#E6E6E6"/>
<path opacity="0.8" d="M136.296 144.195H96.7061V170.589H136.296V144.195Z" fill="#0A2647"/>
<path d="M175.556 144.195H135.966V170.589H175.556V144.195Z" fill="#0A2647"/>
<path d="M57.7759 170.125H18.186V196.518H57.7759V170.125Z" fill="#E6E6E6"/>
<path opacity="0.8" d="M97.0362 170.125H57.4463V196.518H97.0362V170.125Z" fill="#0A2647"/>
<path d="M136.296 170.125H96.7061V196.518H136.296V170.125Z" fill="#E6E6E6"/>
<path d="M136.296 43.9023H96.7061V70.2956H136.296V43.9023Z" fill="#0A2647"/>
<path d="M293.336 18.8281H253.746V45.2214H293.336V18.8281Z" fill="#0A2647"/>
<path d="M214.816 94.0488H175.226V120.442H214.816V94.0488Z" fill="#0A2647"/>
<path d="M175.556 94.0488H135.966V120.442H175.556V94.0488Z" fill="#E6E6E6"/>
<path opacity="0.8" d="M136.296 94.0488H96.7061V120.442H136.296V94.0488Z" fill="#0A2647"/>
<path d="M5.99077 38.0851C9.29939 38.0851 11.9815 35.4029 11.9815 32.0943C11.9815 28.7857 9.29939 26.1035 5.99077 26.1035C2.68216 26.1035 0 28.7857 0 32.0943C0 35.4029 2.68216 38.0851 5.99077 38.0851Z" fill="#3F3D56"/>
<path d="M37.981 11.9815C41.2896 11.9815 43.9718 9.29939 43.9718 5.99077C43.9718 2.68216 41.2896 0 37.981 0C34.6724 0 31.9902 2.68216 31.9902 5.99077C31.9902 9.29939 34.6724 11.9815 37.981 11.9815Z" fill="#E6E6E6"/>
<path d="M77.2413 11.9815C80.5499 11.9815 83.232 9.29939 83.232 5.99077C83.232 2.68216 80.5499 0 77.2413 0C73.9326 0 71.2505 2.68216 71.2505 5.99077C71.2505 9.29939 73.9326 11.9815 77.2413 11.9815Z" fill="#E6E6E6"/>
<path d="M116.501 11.9815C119.81 11.9815 122.492 9.29939 122.492 5.99077C122.492 2.68216 119.81 0 116.501 0C113.192 0 110.51 2.68216 110.51 5.99077C110.51 9.29939 113.192 11.9815 116.501 11.9815Z" fill="#E6E6E6"/>
<path d="M155.761 11.9815C159.07 11.9815 161.752 9.29939 161.752 5.99077C161.752 2.68216 159.07 0 155.761 0C152.453 0 149.771 2.68216 149.771 5.99077C149.771 9.29939 152.453 11.9815 155.761 11.9815Z" fill="#E6E6E6"/>
<path d="M195.021 11.9815C198.33 11.9815 201.012 9.29939 201.012 5.99077C201.012 2.68216 198.33 0 195.021 0C191.712 0 189.03 2.68216 189.03 5.99077C189.03 9.29939 191.712 11.9815 195.021 11.9815Z" fill="#E6E6E6"/>
<path d="M234.281 11.9815C237.589 11.9815 240.272 9.29939 240.272 5.99077C240.272 2.68216 237.589 0 234.281 0C230.972 0 228.29 2.68216 228.29 5.99077C228.29 9.29939 230.972 11.9815 234.281 11.9815Z" fill="#E6E6E6"/>
<path d="M273.541 11.9815C276.85 11.9815 279.532 9.29939 279.532 5.99077C279.532 2.68216 276.85 0 273.541 0C270.232 0 267.55 2.68216 267.55 5.99077C267.55 9.29939 270.232 11.9815 273.541 11.9815Z" fill="#E6E6E6"/>
<path d="M312.801 11.9815C316.109 11.9815 318.792 9.29939 318.792 5.99077C318.792 2.68216 316.109 0 312.801 0C309.492 0 306.81 2.68216 306.81 5.99077C306.81 9.29939 309.492 11.9815 312.801 11.9815Z" fill="#E6E6E6"/>
<path d="M352.061 11.9815C355.369 11.9815 358.051 9.29939 358.051 5.99077C358.051 2.68216 355.369 0 352.061 0C348.752 0 346.07 2.68216 346.07 5.99077C346.07 9.29939 348.752 11.9815 352.061 11.9815Z" fill="#E6E6E6"/>
<path d="M5.99077 63.089C9.29939 63.089 11.9815 60.4068 11.9815 57.0982C11.9815 53.7896 9.29939 51.1074 5.99077 51.1074C2.68216 51.1074 0 53.7896 0 57.0982C0 60.4068 2.68216 63.089 5.99077 63.089Z" fill="#3F3D56"/>
<path d="M5.99077 88.1632C9.29939 88.1632 11.9815 85.481 11.9815 82.1724C11.9815 78.8638 9.29939 76.1816 5.99077 76.1816C2.68216 76.1816 0 78.8638 0 82.1724C0 85.481 2.68216 88.1632 5.99077 88.1632Z" fill="#3F3D56"/>
<path d="M5.99077 113.235C9.29939 113.235 11.9815 110.553 11.9815 107.245C11.9815 103.936 9.29939 101.254 5.99077 101.254C2.68216 101.254 0 103.936 0 107.245C0 110.553 2.68216 113.235 5.99077 113.235Z" fill="#3F3D56"/>
<path d="M5.99077 138.31C9.29939 138.31 11.9815 135.628 11.9815 132.319C11.9815 129.01 9.29939 126.328 5.99077 126.328C2.68216 126.328 0 129.01 0 132.319C0 135.628 2.68216 138.31 5.99077 138.31Z" fill="#3F3D56"/>
<path d="M5.99077 163.384C9.29939 163.384 11.9815 160.702 11.9815 157.393C11.9815 154.085 9.29939 151.402 5.99077 151.402C2.68216 151.402 0 154.085 0 157.393C0 160.702 2.68216 163.384 5.99077 163.384Z" fill="#3F3D56"/>
<path d="M5.99077 189.314C9.29939 189.314 11.9815 186.631 11.9815 183.323C11.9815 180.014 9.29939 177.332 5.99077 177.332C2.68216 177.332 0 180.014 0 183.323C0 186.631 2.68216 189.314 5.99077 189.314Z" fill="#3F3D56"/>
<path d="M293.336 43.9023H253.746V70.2956H293.336V43.9023Z" fill="#E6E6E6"/>
<path opacity="0.8" d="M371.856 18.8281H332.266V45.2214H371.856V18.8281Z" fill="#0A2647"/>
<path d="M499.795 290.687H361.877V289.561H500L499.795 290.687Z" fill="#3F3D56"/>
<path d="M408.288 287.889L415.512 287.087V274.244L407.753 274.512L408.288 287.889Z" fill="#FFB8B8"/>
<path d="M445.745 287.889L437.986 287.087L439.324 274.512L448.153 274.244L445.745 287.889Z" fill="#FFB8B8"/>
<path d="M404.81 276.384L416.405 276.06C423.671 238.082 430.756 202.956 442.267 173.643L437.451 275.849H449.759L468.488 161.336L425.679 157.055C411.341 194.942 404.835 234.833 404.81 276.384Z" fill="#2F2E41"/>
<path d="M401.572 298.287C402.831 298.767 404.208 298.844 405.514 298.507C406.819 298.171 407.987 297.438 408.858 296.409L411.766 292.972L417.117 290.296L416.264 281.337C416.249 281.177 416.183 281.026 416.078 280.905C415.972 280.784 415.831 280.699 415.674 280.663C415.518 280.626 415.354 280.64 415.205 280.702C415.057 280.764 414.932 280.871 414.848 281.008L411.766 286.015C410.629 281.92 408.666 279.791 405.591 280.309C404.638 280.489 403.739 280.884 402.961 281.463C402.183 282.042 401.547 282.79 401.102 283.651L398.158 289.119C397.719 289.934 397.459 290.833 397.395 291.757C397.332 292.681 397.466 293.608 397.789 294.476C398.112 295.343 398.617 296.132 399.269 296.79C399.921 297.447 400.706 297.957 401.572 298.287Z" fill="#2F2E41"/>
<path d="M451.927 298.287C450.667 298.767 449.29 298.844 447.985 298.507C446.68 298.171 445.511 297.438 444.641 296.409L441.732 292.972L436.381 290.296L437.235 281.337C437.25 281.177 437.315 281.026 437.421 280.905C437.527 280.784 437.668 280.699 437.824 280.663C437.981 280.626 438.145 280.64 438.293 280.702C438.441 280.764 438.567 280.871 438.651 281.008L441.732 286.015C442.869 281.92 444.832 279.791 447.908 280.309C448.86 280.489 449.76 280.884 450.537 281.463C451.315 282.042 451.951 282.79 452.397 283.651L455.341 289.119C455.78 289.934 456.039 290.833 456.103 291.757C456.167 292.681 456.032 293.608 455.709 294.476C455.386 295.343 454.882 296.132 454.229 296.79C453.577 297.447 452.792 297.957 451.927 298.287Z" fill="#2F2E41"/>
<path d="M447.351 66.8883C454.444 66.8883 460.194 61.1385 460.194 54.0457C460.194 46.953 454.444 41.2031 447.351 41.2031C440.258 41.2031 434.508 46.953 434.508 54.0457C434.508 61.1385 440.258 66.8883 447.351 66.8883Z" fill="#FFB8B8"/>
<path d="M439.057 77.8574H455.11V60.7339H439.057V77.8574Z" fill="#FFB8B8"/>
<path d="M427.552 157.322C440.998 160.473 455.217 165.035 464.475 160.533L464.207 77.3235C460.276 75.8823 457.03 73.0177 455.11 69.2968L448.689 74.6479L439.057 68.7617C435.709 72.8074 431.211 77.0633 425.947 78.6612L427.552 157.322Z" fill="#E6E6E6"/>
<path d="M449.224 143.142C446.92 165.946 457.673 164.439 471.699 164.011C465.865 134.922 466.06 107.366 473.304 81.6043C465.985 78.0951 459.558 74.0377 455.11 68.7617C455.329 69.339 454.649 68.9897 454.843 69.5644C459.384 83.0704 457.861 96.7723 449.224 108.895V143.142Z" fill="#2F2E41"/>
<path d="M475.177 165.884L471.48 173.276C471.092 174.053 470.885 174.908 470.875 175.776C470.865 176.644 471.052 177.503 471.422 178.289C471.792 179.075 472.335 179.766 473.011 180.311C473.687 180.856 474.478 181.241 475.324 181.436C476.15 181.627 477.009 181.632 477.838 181.451C478.667 181.27 479.445 180.908 480.117 180.39C480.789 179.873 481.338 179.213 481.724 178.457C482.111 177.702 482.325 176.871 482.351 176.023L482.668 165.884V157.857H475.177L475.177 165.884Z" fill="#FFB8B8"/>
<path d="M450.294 143.677C449.767 161.092 447.986 163.719 422.469 162.941C428.302 133.852 428.107 106.296 420.863 80.534C428.182 77.0248 434.61 72.9673 439.057 67.6914C438.755 68.4901 439.553 68.7643 439.325 69.5643C435.51 82.9342 441.798 96.9699 450.294 108.895V143.677Z" fill="#2F2E41"/>
<path d="M418.455 163.743L422.151 171.136C422.539 171.912 422.746 172.767 422.757 173.635C422.767 174.504 422.58 175.363 422.21 176.148C421.84 176.934 421.297 177.625 420.621 178.17C419.945 178.716 419.154 179.1 418.308 179.296C417.481 179.486 416.623 179.491 415.794 179.311C414.965 179.13 414.187 178.768 413.514 178.25C412.842 177.732 412.294 177.072 411.907 176.317C411.521 175.561 411.307 174.73 411.28 173.882L410.963 163.743V155.717H418.455V163.743Z" fill="#FFB8B8"/>
<path d="M448.057 32.1228C450.239 32.223 452.363 32.8486 454.251 33.9465C454.685 34.1991 454.485 35.1101 454.886 35.4073C455.391 35.7815 456.488 35.5542 456.935 35.9925C458.38 37.4024 459.492 39.1164 460.191 41.0099C460.889 42.9034 461.158 44.9288 460.976 46.939L460.263 54.022L458.583 52.1841C455.57 48.843 451.386 46.7894 446.9 46.4488C446.71 46.4358 446.519 46.4256 446.328 46.4182L447.62 44.1557L445.373 46.4027C444.348 46.4139 443.325 46.4972 442.312 46.6519L444.031 43.643L440.732 46.942C439.383 47.2387 438.122 47.8483 437.052 48.7214C435.981 49.5946 435.131 50.7069 434.569 51.9689L434.203 52.7811L433.792 46.0237C433.752 44.156 434.096 42.3 434.803 40.5709C435.51 38.8419 436.566 37.2768 437.904 35.973C439.242 34.6693 440.833 33.6546 442.58 32.9923C444.327 32.3299 446.191 32.034 448.057 32.1228Z" fill="#2F2E41"/>
<path d="M459.926 55.9469C460.492 55.9469 460.951 54.8565 460.951 53.5115C460.951 52.1665 460.492 51.0762 459.926 51.0762C459.36 51.0762 458.9 52.1665 458.9 53.5115C458.9 54.8565 459.36 55.9469 459.926 55.9469Z" fill="#FFB8B8"/>
<path d="M434.291 55.1774C434.857 55.1774 435.316 54.087 435.316 52.742C435.316 51.397 434.857 50.3066 434.291 50.3066C433.724 50.3066 433.265 51.397 433.265 52.742C433.265 54.087 433.724 55.1774 434.291 55.1774Z" fill="#FFB8B8"/>
<path d="M420.06 160.532L407.485 161.334L413.907 90.7659C413.907 88.1262 414.767 85.5583 416.356 83.4509C417.946 81.3435 420.179 79.8112 422.717 79.0861L425.144 78.3926C428.633 107.39 424.725 135.153 420.06 160.532Z" fill="#2F2E41"/>
<path d="M474.106 162.137L483.738 162.672L480.26 91.8363C480.26 89.1965 479.4 86.6286 477.811 84.5212C476.221 82.4138 473.988 80.8816 471.45 80.1564L469.023 79.4629C465.534 108.46 469.441 136.759 474.106 162.137Z" fill="#2F2E41"/>
</g>
<defs>
<clipPath id="clip0_769_5414">
<rect width="500" height="298.714" fill="white"/>
</clipPath>
</defs>
</svg>
