<svg width="500" height="328" viewBox="0 0 500 328" fill="none" xmlns="http://www.w3.org/2000/svg">
<g clip-path="url(#clip0_636_8675)">
<path d="M179.034 284.002C180.842 269.458 189.856 255.128 203.727 250.395C198.257 265.365 198.258 281.787 203.73 296.756C205.862 302.522 208.833 308.712 206.828 314.523C205.58 318.139 202.529 320.905 199.118 322.634C195.706 324.364 191.92 325.188 188.182 325.996L187.446 326.605C181.512 313.204 177.225 298.546 179.034 284.002Z" fill="#F0F0F0"/>
<path d="M203.865 250.669C195.787 259.72 190.766 271.086 189.516 283.153C189.201 285.746 189.296 288.372 189.799 290.935C190.369 293.416 191.593 295.699 193.344 297.547C194.942 299.303 196.78 300.914 197.924 303.028C198.493 304.118 198.825 305.317 198.899 306.545C198.972 307.773 198.785 309.003 198.35 310.153C197.341 313.049 195.351 315.409 193.325 317.649C191.076 320.137 188.7 322.685 187.744 325.982C187.628 326.382 187.014 326.179 187.13 325.78C188.794 320.042 194.363 316.783 197.019 311.616C198.259 309.205 198.779 306.405 197.617 303.86C196.601 301.634 194.707 299.971 193.074 298.207C191.339 296.43 190.066 294.254 189.366 291.871C188.735 289.342 188.538 286.724 188.785 284.128C189.248 278.277 190.628 272.535 192.875 267.112C195.405 260.908 198.977 255.184 203.437 250.185C203.713 249.876 204.139 250.362 203.865 250.669Z" fill="white"/>
<path d="M189.69 279.243C187.694 278.759 185.935 277.58 184.728 275.919C183.52 274.257 182.943 272.22 183.099 270.172C183.132 269.758 183.777 269.79 183.744 270.204C183.596 272.111 184.134 274.009 185.261 275.554C186.389 277.099 188.031 278.19 189.893 278.63C190.297 278.726 190.092 279.339 189.69 279.243Z" fill="white"/>
<path d="M192.417 296.763C196.022 294.61 198.683 291.178 199.87 287.15C199.987 286.751 200.6 286.954 200.483 287.353C199.24 291.542 196.464 295.108 192.707 297.339C192.349 297.552 192.06 296.974 192.417 296.763Z" fill="white"/>
<path d="M196.004 261.52C196.737 261.868 197.546 262.029 198.356 261.988C199.167 261.947 199.955 261.705 200.649 261.284C201.005 261.067 201.293 261.646 200.94 261.861C200.171 262.323 199.3 262.589 198.405 262.636C197.509 262.684 196.615 262.511 195.802 262.133C195.722 262.104 195.656 262.046 195.618 261.97C195.58 261.894 195.572 261.807 195.596 261.725C195.623 261.644 195.682 261.577 195.758 261.539C195.834 261.5 195.923 261.494 196.004 261.52Z" fill="white"/>
<path d="M246.007 276.371C245.789 276.512 245.571 276.654 245.353 276.801C242.432 278.722 239.671 280.877 237.099 283.245C236.897 283.425 236.696 283.611 236.499 283.796C230.363 289.567 225.352 296.427 221.72 304.027C220.277 307.053 219.067 310.184 218.1 313.393C216.764 317.826 215.668 322.738 213.024 326.363C212.753 326.745 212.458 327.109 212.141 327.454H188.246C188.192 327.426 188.137 327.404 188.082 327.377L187.128 327.421C187.167 327.252 187.21 327.077 187.248 326.908C187.27 326.81 187.297 326.712 187.319 326.614C187.336 326.549 187.352 326.483 187.363 326.423C187.368 326.401 187.374 326.38 187.379 326.363C187.39 326.303 187.407 326.249 187.418 326.194C187.657 325.218 187.904 324.242 188.159 323.267C188.159 323.261 188.159 323.261 188.164 323.256C190.122 315.825 192.716 308.492 196.342 301.787C196.451 301.585 196.56 301.378 196.68 301.176C198.331 298.163 200.225 295.289 202.344 292.584C203.509 291.107 204.749 289.689 206.057 288.337C209.444 284.85 213.359 281.918 217.658 279.647C226.228 275.122 236.15 273.389 245.31 276.153C245.544 276.224 245.773 276.294 246.007 276.371Z" fill="#F0F0F0"/>
<path d="M245.953 276.675C234.055 279.038 223.203 285.09 214.94 293.972C213.127 295.852 211.622 298.007 210.48 300.356C209.441 302.68 209.044 305.24 209.33 307.77C209.549 310.134 210.046 312.527 209.687 314.903C209.485 316.116 209.028 317.273 208.347 318.298C207.667 319.323 206.777 320.192 205.737 320.849C203.188 322.553 200.178 323.24 197.212 323.809C193.918 324.44 190.487 325.044 187.738 327.102C187.405 327.351 187.038 326.82 187.37 326.571C192.153 322.991 198.562 323.742 203.794 321.216C206.235 320.036 208.336 318.114 208.941 315.383C209.47 312.994 208.959 310.526 208.716 308.134C208.402 305.67 208.695 303.167 209.571 300.843C210.589 298.443 212.009 296.234 213.769 294.311C217.661 289.917 222.22 286.163 227.279 283.186C233.034 279.756 239.333 277.336 245.904 276.03C246.31 275.95 246.357 276.594 245.953 276.675Z" fill="white"/>
<path d="M217.432 290.956C216.13 289.368 215.435 287.368 215.472 285.314C215.508 283.261 216.273 281.287 217.63 279.745C217.906 279.434 218.402 279.848 218.126 280.159C216.86 281.593 216.147 283.431 216.117 285.344C216.087 287.256 216.742 289.116 217.963 290.589C218.228 290.909 217.696 291.275 217.432 290.956Z" fill="white"/>
<path d="M209.061 306.586C213.235 307.038 217.427 305.9 220.799 303.398C221.133 303.15 221.501 303.682 221.167 303.929C217.653 306.526 213.288 307.701 208.945 307.222C208.532 307.176 208.649 306.54 209.061 306.586Z" fill="white"/>
<path d="M233.144 280.605C233.52 281.325 234.068 281.94 234.74 282.395C235.413 282.851 236.187 283.132 236.995 283.214C237.409 283.254 237.291 283.89 236.879 283.849C235.988 283.755 235.132 283.443 234.389 282.942C233.645 282.44 233.035 281.764 232.613 280.973C232.567 280.902 232.55 280.816 232.565 280.732C232.58 280.649 232.626 280.574 232.695 280.524C232.765 280.475 232.852 280.457 232.936 280.472C233.02 280.487 233.095 280.535 233.144 280.605Z" fill="white"/>
<path d="M259.578 3.61328C258.566 3.61442 257.596 4.01685 256.881 4.73228C256.165 5.44771 255.763 6.41773 255.762 7.4295V168.801C255.763 169.813 256.165 170.783 256.881 171.498C257.596 172.214 258.566 172.616 259.578 172.617H496.184C497.195 172.616 498.165 172.214 498.881 171.498C499.596 170.783 499.999 169.813 500 168.801V7.4295C499.999 6.41774 499.596 5.44775 498.881 4.73233C498.165 4.0169 497.195 3.61446 496.184 3.61328H259.578Z" fill="#E6E6E6"/>
<path d="M265.03 9.06641C264.018 9.06754 263.048 9.46997 262.332 10.1854C261.617 10.9008 261.215 11.8709 261.213 12.8826V163.351C261.215 164.362 261.617 165.332 262.332 166.048C263.048 166.763 264.018 167.166 265.03 167.167H490.732C491.744 167.166 492.714 166.763 493.429 166.048C494.144 165.332 494.547 164.362 494.548 163.351V12.8826C494.547 11.8709 494.144 10.9009 493.429 10.1855C492.714 9.47003 491.744 9.06759 490.732 9.06641H265.03Z" fill="white"/>
<path opacity="0.1" d="M473.279 41.9688C468.089 39.9424 462.493 45.0245 461.277 50.462C460.061 55.8995 461.617 61.523 461.959 67.0843C462.302 72.6455 460.844 79.1033 455.883 81.6386C450.177 84.5539 443.485 80.7638 437.104 80.1865C433.918 79.9336 430.721 80.4925 427.81 81.8111C424.899 83.1296 422.371 85.1647 420.46 87.7261C415.198 94.9459 415.465 105.429 409.238 111.835C403.827 117.401 395.01 118.126 387.44 116.405C379.871 114.684 372.913 110.944 365.471 108.74C358.028 106.536 349.413 106.075 343.034 110.5C336.376 115.119 333.413 124.172 326.103 127.67C320.935 130.144 314.816 129.201 309.286 127.703C303.755 126.205 298.177 124.184 292.467 124.665C286.758 125.145 280.805 129.085 280.353 134.797L476.322 134.25C477.212 108.384 478.102 82.5176 478.993 56.6513C479.186 51.0322 478.517 44.0136 473.279 41.9688Z" fill="#0A2647"/>
<path d="M179.99 180.762C179.649 179.863 179.509 178.9 179.58 177.941C179.651 176.982 179.932 176.05 180.402 175.211C180.872 174.372 181.521 173.647 182.302 173.085C183.083 172.524 183.978 172.141 184.923 171.963L188.365 148.84L197.412 156.948L192.756 177.663C192.949 179.271 192.547 180.894 191.624 182.224C190.702 183.555 189.323 184.501 187.749 184.883C186.176 185.265 184.517 185.056 183.087 184.297C181.657 183.537 180.555 182.28 179.99 180.762Z" fill="#FFB6B6"/>
<path d="M116.863 184.272C117.45 183.511 117.864 182.63 118.074 181.691C118.284 180.753 118.286 179.78 118.079 178.84C117.873 177.901 117.463 177.018 116.878 176.255C116.293 175.491 115.549 174.865 114.696 174.42L118.111 151.293L107.101 156.428L105.546 177.602C104.894 179.085 104.808 180.754 105.305 182.296C105.802 183.837 106.847 185.142 108.242 185.964C109.637 186.786 111.285 187.068 112.874 186.756C114.463 186.444 115.882 185.56 116.863 184.272Z" fill="#FFB6B6"/>
<path d="M165.257 317.246L175.472 317.245L180.332 277.844L165.255 277.845L165.257 317.246Z" fill="#FFB6B6"/>
<path d="M162.651 313.911L182.769 313.91H182.77C186.17 313.91 189.43 315.261 191.835 317.665C194.239 320.069 195.59 323.33 195.59 326.73V327.147L162.652 327.148L162.651 313.911Z" fill="#2F2E41"/>
<path d="M110.739 317.246L120.954 317.245L125.814 277.844L110.738 277.845L110.739 317.246Z" fill="#FFB6B6"/>
<path d="M108.134 313.911L128.251 313.91H128.252C131.652 313.91 134.913 315.261 137.317 317.665C139.721 320.069 141.072 323.33 141.072 326.73V327.147L108.134 327.148L108.134 313.911Z" fill="#2F2E41"/>
<path d="M158.813 48.2946C169.004 48.2946 177.266 40.0329 177.266 29.8416C177.266 19.6503 169.004 11.3887 158.813 11.3887C148.622 11.3887 140.36 19.6503 140.36 29.8416C140.36 40.0329 148.622 48.2946 158.813 48.2946Z" fill="#FFB6B6"/>
<path d="M115.131 162.876C115.131 162.876 115.403 245.45 114.085 246.768C112.767 248.086 108.088 297.469 108.088 297.469H124.443C125.533 297.469 153.355 189.896 153.355 189.896C153.355 189.896 165.218 247.891 163.241 251.186C161.264 254.481 162.805 297.678 163.9 301.273C163.9 301.273 177.643 305.671 178.961 302.376C180.279 299.081 182.232 254.4 182.232 254.4L186.048 180.257L186.131 160.898L115.131 162.876Z" fill="#2F2E41"/>
<path d="M190.921 67.9746H198.263C198.803 67.9743 199.326 68.1577 199.748 68.4946C200.169 68.8314 200.463 69.3017 200.582 69.828C201.715 74.8452 204.635 89.067 204.101 100.267C203.442 114.107 202.124 135.855 202.124 137.832C202.124 139.809 195.534 170.125 195.534 170.125C195.534 170.125 191.003 162.678 186.019 164.095L186.966 137.173L188.284 125.97L186.307 106.199L190.921 67.9746Z" fill="#E4E4E4"/>
<path d="M144.129 55.9082C144.129 55.9082 120.733 63.6907 118.097 70.2811C115.461 76.8714 128.259 124.649 128.259 124.649C128.259 124.649 123.353 146.456 116.779 167.159C113.787 176.581 142.337 168.515 155.518 163.901C163.685 161.069 178.792 165.419 187.295 163.864C187.295 163.864 188.613 146.07 187.295 142.775C185.977 139.48 182.682 141.457 184.659 136.844C186.636 132.23 185.977 131.571 185.318 129.594C184.659 127.617 186.636 124.981 186.636 122.345C186.636 119.709 185.977 113.777 185.977 113.777C185.977 113.777 203.771 72.2582 199.817 68.304C195.863 64.3497 175.735 56.7307 175.735 56.7307C175.735 56.7307 176.234 57.047 144.129 55.9082Z" fill="#E4E4E4"/>
<path d="M122.381 67.9746L120.04 69.1449C119.129 69.6004 118.336 70.2606 117.722 71.0738C117.109 71.8871 116.692 72.8312 116.504 73.8324L107.223 123.334L105.246 170.125C105.246 170.125 116.449 166.83 119.744 170.125C119.744 170.125 116.449 160.24 118.426 156.944C120.403 153.649 120.403 149.036 120.403 149.036C120.403 149.036 119.085 149.036 122.381 145.741C125.676 142.446 126.335 141.127 125.676 140.468C125.017 139.809 124.358 133.878 124.358 133.219C124.358 132.56 130.948 88.4047 130.948 88.4047L122.381 67.9746Z" fill="#E4E4E4"/>
<path d="M279.415 134.161C279.126 134.161 278.849 134.046 278.644 133.841C278.44 133.637 278.325 133.36 278.325 133.07C278.325 132.781 278.44 132.504 278.644 132.299C278.849 132.095 279.126 131.98 279.415 131.98C329.797 131.98 377.846 121.892 414.711 103.574C449.279 86.3978 471.307 63.1054 475.147 39.6693C475.17 39.5278 475.22 39.3921 475.295 39.2701C475.371 39.1481 475.469 39.0421 475.585 38.9582C475.702 38.8743 475.833 38.8142 475.973 38.7812C476.112 38.7482 476.257 38.7431 476.398 38.766C476.54 38.789 476.675 38.8396 476.797 38.915C476.919 38.9904 477.025 39.0891 477.109 39.2055C477.192 39.3218 477.252 39.4535 477.285 39.5931C477.318 39.7326 477.323 39.8772 477.3 40.0187L477.299 40.0217C475.305 52.1958 468.83 64.1377 458.057 75.5161C447.431 86.7382 433.174 96.8357 415.682 105.527C378.521 123.992 330.127 134.161 279.415 134.161Z" fill="#0A2647"/>
<path d="M486.371 134.382H278.114V31.4922H279.205V133.292H486.371V134.382Z" fill="#E6E6E6"/>
<path d="M141.42 36.0573C140.577 33.9871 140.441 31.6963 141.034 29.5411C142.541 33.539 145.536 32.3186 147.062 30.4437C148.976 28.0926 148.425 22.6628 151.446 22.4198C154.468 22.1768 157.489 22.7487 160.467 23.3179C159.973 22.4732 159.48 21.6285 158.987 20.7838C161.141 20.9175 163.294 21.0511 165.448 21.1848C164.807 20.1297 164.166 19.0746 163.524 18.0195C166.452 19.0484 169.13 20.6826 171.384 22.8157C173.639 24.9488 175.418 27.533 176.607 30.3997C177.724 28.5915 178.42 26.5551 178.643 24.4414C178.866 22.3277 178.611 20.1908 177.896 18.1892C177.181 16.1875 176.025 14.3723 174.513 12.8781C173.002 11.3839 171.173 10.249 169.164 9.55735C170.013 8.44265 170.863 7.32797 171.712 6.21331L154.419 4.50682C154.376 3.67328 154.536 2.8418 154.887 2.08438C155.238 1.32696 155.768 0.666431 156.431 0.159976C154.167 -0.351397 151.765 0.415712 149.84 1.7143C147.916 3.01291 146.386 4.80367 144.881 6.57137C142.602 9.24791 140.297 11.9664 138.805 15.1491C137.275 18.5375 136.71 22.2822 137.171 25.9711C137.633 29.66 139.103 33.1501 141.42 36.0573ZM141.629 27.9369L141.629 27.9359L141.647 27.9328L141.629 27.9369Z" fill="#2F2E41"/>
<path d="M353.537 327.759H0.649206C0.477372 327.759 0.312749 327.69 0.19142 327.568C0.0700903 327.447 0.00195312 327.282 0.00195312 327.11C0.00195312 326.938 0.0700903 326.773 0.19142 326.652C0.312749 326.53 0.477372 326.461 0.649206 326.461H353.537C353.709 326.461 353.874 326.53 353.995 326.652C354.117 326.773 354.185 326.938 354.185 327.11C354.185 327.282 354.117 327.447 353.995 327.568C353.874 327.69 353.709 327.759 353.537 327.759Z" fill="#CACACA"/>
</g>
<defs>
<clipPath id="clip0_636_8675">
<rect width="500" height="327.76" fill="white"/>
</clipPath>
</defs>
</svg>
