<svg width="500" height="273" viewBox="0 0 500 273" fill="none" xmlns="http://www.w3.org/2000/svg">
<g clip-path="url(#clip0_769_5409)">
<path d="M434.033 271.04C434.081 270.897 438.714 256.561 430.514 243.77L429.677 244.306C437.614 256.689 433.136 270.587 433.09 270.726L434.033 271.04Z" fill="#E4E4E4"/>
<path d="M424.65 245.609C424.827 246.447 425.167 247.242 425.651 247.948C426.135 248.655 426.753 249.259 427.47 249.727C428.188 250.194 428.99 250.516 429.832 250.673C430.673 250.83 431.538 250.821 432.376 250.644C433.214 250.467 434.008 250.127 434.715 249.643C435.421 249.159 436.025 248.541 436.493 247.824C436.96 247.106 437.282 246.304 437.439 245.462C437.597 244.621 437.587 243.756 437.41 242.918C436.667 239.395 430.367 230.626 426.844 231.369C423.32 232.112 423.907 242.086 424.65 245.609Z" fill="#E4E4E4"/>
<path d="M425.838 262.09C428.983 265.488 434.609 265.396 434.609 265.396C434.609 265.396 435.136 259.794 431.991 256.396C428.846 252.998 423.221 253.09 423.221 253.09C423.221 253.09 422.694 258.692 425.838 262.09Z" fill="#E4E4E4"/>
<path d="M473.501 272.036C473.614 271.698 484.548 237.868 465.196 207.68L463.221 208.946C481.953 238.168 471.383 270.967 471.275 271.295L473.501 272.036Z" fill="#E4E4E4"/>
<path d="M451.359 212.02C452.202 216.013 454.596 219.507 458.015 221.734C461.434 223.961 465.597 224.739 469.589 223.898C473.582 223.056 477.077 220.662 479.305 217.244C481.533 213.826 482.312 209.663 481.471 205.67C479.718 197.355 464.851 176.66 456.535 178.414C448.22 180.167 449.605 203.705 451.359 212.02Z" fill="#E4E4E4"/>
<path d="M454.163 250.911C461.584 258.931 474.86 258.713 474.86 258.713C474.86 258.713 476.104 245.494 468.683 237.474C461.262 229.455 447.986 229.672 447.986 229.672C447.986 229.672 446.741 242.892 454.163 250.911Z" fill="#E4E4E4"/>
<path d="M288.444 269.489L281.188 266.434L276.21 230.061H209.927L204.532 266.285L198.04 269.531C197.73 269.686 197.48 269.942 197.333 270.256C197.186 270.571 197.149 270.926 197.229 271.264C197.309 271.602 197.501 271.903 197.773 272.119C198.045 272.334 198.382 272.451 198.73 272.451H287.846C288.201 272.451 288.546 272.328 288.822 272.103C289.097 271.877 289.286 271.564 289.357 271.215C289.427 270.866 289.375 270.504 289.208 270.189C289.042 269.874 288.772 269.627 288.444 269.489Z" fill="#E6E6E6"/>
<path d="M406.234 234.898H80.6307C78.9223 234.895 77.2853 234.213 76.0786 233.004C74.872 231.795 74.1943 230.156 74.1943 228.448V182.533H412.67V228.448C412.67 230.156 411.993 231.794 410.786 233.004C409.58 234.213 407.942 234.894 406.234 234.898Z" fill="#CCCCCC"/>
<path d="M413.011 204.234H73.897V7.77629C73.8994 5.71457 74.7194 3.73798 76.1773 2.28016C77.6352 0.822327 79.6118 0.0023109 81.6735 0H405.234C407.296 0.00230954 409.272 0.822321 410.73 2.28015C412.188 3.73797 413.008 5.71456 413.011 7.77629V204.234Z" fill="#3F3D56"/>
<path d="M392.759 14.2578H94.1498C92.5604 14.2598 91.0368 14.8924 89.9135 16.0167C88.7901 17.141 88.1588 18.6651 88.1582 20.2545V183.979C88.1588 185.568 88.7901 187.092 89.9135 188.216C91.0368 189.341 92.5604 189.973 94.1498 189.975H392.759C394.348 189.973 395.871 189.34 396.994 188.216C398.117 187.091 398.749 185.568 398.751 183.979V20.2545C398.749 18.6653 398.117 17.1417 396.994 16.0176C395.871 14.8935 394.348 14.2606 392.759 14.2578Z" fill="white"/>
<path d="M147.08 14.2578V189.975H94.1498C92.5604 189.973 91.0368 189.341 89.9135 188.216C88.7901 187.092 88.1588 185.568 88.1582 183.979V20.2545C88.1588 18.6651 88.7901 17.141 89.9135 16.0167C91.0368 14.8924 92.5604 14.2598 94.1498 14.2578H147.08Z" fill="#F0F0F0"/>
<path d="M103.414 103.026C102.818 102.891 102.2 102.887 101.602 103.016C101.005 103.146 100.443 103.404 99.957 103.774C99.4704 104.143 99.0709 104.615 98.7865 105.156C98.5021 105.697 98.3397 106.294 98.3108 106.904L84.0635 111.104L89.9615 116.084L102.587 111.331C103.615 111.312 104.601 110.916 105.357 110.218C106.113 109.521 106.587 108.57 106.689 107.546C106.791 106.522 106.514 105.497 105.91 104.664C105.307 103.831 104.418 103.248 103.414 103.026Z" fill="#FFB6B6"/>
<path d="M45.8474 134.637C44.4389 134.635 43.0768 134.133 42.004 133.22C40.9312 132.308 40.2175 131.044 39.9901 129.654C39.7627 128.264 40.0364 126.838 40.7623 125.631C41.4883 124.424 42.6194 123.514 43.9538 123.063L72.8252 113.318L95.3462 105.113L98.1099 114.787L78.2285 127.887L47.09 134.506C46.6815 134.593 46.265 134.637 45.8474 134.637Z" fill="#0A2647"/>
<path d="M63.9151 267.905H67.9685L69.8973 252.27H63.9141L63.9151 267.905Z" fill="#FFB6B6"/>
<path d="M62.8809 266.582L70.8641 266.582C72.2133 266.582 73.5076 267.118 74.4617 268.072C75.4158 269.026 75.9518 270.32 75.9519 271.669V271.835L62.8811 271.835L62.8809 266.582Z" fill="#2F2E41"/>
<path d="M32.834 267.905H36.8874L38.8162 252.27H32.8335L32.834 267.905Z" fill="#FFB6B6"/>
<path d="M31.7998 266.582L39.783 266.582C41.1323 266.582 42.4266 267.118 43.3806 268.072C44.3347 269.026 44.8707 270.32 44.8708 271.669V271.835L31.8 271.835L31.7998 266.582Z" fill="#2F2E41"/>
<path d="M32.7935 174.119C30.9384 178.44 30.5324 183.246 31.6363 187.818L30.479 265.378H39.3818L44.3662 222.725L52.6325 194.619L61.56 216.442V261.925L70.1568 261.41L74.7859 213.136L69.4955 178.748L32.7935 174.119Z" fill="#2F2E41"/>
<path d="M65.3624 113.776L57.7575 111.462L55.7736 107.494H46.0051L43.5396 111.793C43.5396 111.793 33.6201 115.43 33.2895 132.954C32.9588 150.478 31.6362 178.584 31.6362 178.584L70.7491 184.16L65.3624 113.776Z" fill="#0A2647"/>
<path d="M76.5914 181.021C76.848 180.466 76.9798 179.862 76.9776 179.251C76.9754 178.64 76.8393 178.037 76.5788 177.484C76.3183 176.932 75.9398 176.443 75.4699 176.052C75.0001 175.661 74.4502 175.379 73.8592 175.223L72.7128 160.414L66.6162 165.148L68.6396 178.485C68.4447 179.496 68.6272 180.542 69.1524 181.427C69.6776 182.311 70.5091 182.973 71.4893 183.285C72.4694 183.598 73.5302 183.54 74.4706 183.123C75.4109 182.705 76.1655 181.958 76.5914 181.021Z" fill="#FFB6B6"/>
<path d="M66.1895 173.389L57.5088 151.218V119.384C57.5088 117.867 58.0884 116.408 59.129 115.306C60.1696 114.203 61.5925 113.539 63.1062 113.451C64.6199 113.363 66.1101 113.857 67.2714 114.832C68.4328 115.807 69.1776 117.189 69.3533 118.695L72.8837 148.962L76.2264 172.696L66.1895 173.389Z" fill="#0A2647"/>
<path d="M52.7634 102.346C58.1547 102.346 62.5253 97.9755 62.5253 92.5842C62.5253 87.1928 58.1547 82.8223 52.7634 82.8223C47.372 82.8223 43.0015 87.1928 43.0015 92.5842C43.0015 97.9755 47.372 102.346 52.7634 102.346Z" fill="#FFB9B9"/>
<path d="M53.4028 89.6173C52.946 90.2036 52.3199 90.7329 52.2194 91.4693C52.1448 92.0149 52.3832 92.5542 52.4059 93.1044C52.4078 93.6597 52.1978 94.1948 51.8188 94.6006C51.4398 95.0065 50.9203 95.2526 50.3662 95.2887C49.9802 94.803 49.4225 94.4841 48.8082 94.3978C48.5025 94.3631 48.1937 94.4275 47.9273 94.5814C47.6609 94.7353 47.4508 94.9707 47.3281 95.2528C47.0382 96.0718 47.7092 96.9036 47.8171 97.7656C47.8314 98.4032 47.7283 99.038 47.5128 99.6383C47.2655 100.627 47.1994 101.674 46.7654 102.596C46.3315 103.519 45.3665 104.312 44.3676 104.108C43.5277 103.937 42.9594 103.123 42.7245 102.299C42.4896 101.474 42.5001 100.6 42.3301 99.76C41.7777 97.0299 39.4277 95.0071 38.5057 92.3786C37.3243 89.0106 38.7435 85.1582 41.1896 82.5589C42.1785 81.4201 43.4694 80.5842 44.9132 80.148C46.4375 79.7599 48.049 80.0389 49.6132 79.8729C51.2859 79.6954 52.8581 79.0157 54.4838 78.5837C56.1094 78.1517 57.9252 77.989 59.4028 78.7926C60.4334 79.3532 61.1798 80.3197 62.1401 80.9937C63.2409 81.7606 64.5756 82.1179 65.9124 82.0034L64.3161 82.7012C64.9271 83.2619 65.665 83.666 66.4665 83.8789C65.8141 84.396 65.0072 84.6792 64.1748 84.6834C64.3484 84.9962 64.5843 85.2701 64.8679 85.4882C65.1515 85.7063 65.4769 85.8639 65.8238 85.9513C64.6117 86.5203 63.3248 87.1033 61.992 86.975C61.3391 86.9121 60.7151 86.6801 60.0702 86.5606C58.6956 86.306 57.2839 86.5699 55.9109 86.8333C55.1899 86.9716 54.305 87.1043 53.9409 87.7976C53.6377 88.3749 53.8696 89.0181 53.4028 89.6173Z" fill="#2F2E41"/>
<path d="M117.619 117.69C126.22 117.69 133.193 110.717 133.193 102.116C133.193 93.5154 126.22 86.543 117.619 86.543C109.018 86.543 102.046 93.5154 102.046 102.116C102.046 110.717 109.018 117.69 117.619 117.69Z" fill="#0A2647"/>
<path d="M126.963 102.117H118.554V93.707H116.685V102.117H108.275V103.985H116.685V112.395H118.554V103.985H126.963V102.117Z" fill="white"/>
<path d="M250.236 34.8105C249.755 34.8111 249.295 35.0021 248.955 35.3417C248.616 35.6813 248.425 36.1417 248.424 36.622V66.9523C248.425 67.4325 248.616 67.893 248.955 68.2327C249.295 68.5723 249.755 68.7633 250.236 68.7639H372.507C372.987 68.7633 373.448 68.5723 373.787 68.2327C374.127 67.893 374.318 67.4325 374.318 66.9523V36.622C374.318 36.1417 374.127 35.6813 373.787 35.3417C373.448 35.0021 372.987 34.8111 372.507 34.8105H250.236Z" fill="white"/>
<path d="M250.236 34.8105C249.755 34.8111 249.295 35.0021 248.955 35.3417C248.616 35.6813 248.425 36.1417 248.424 36.622V66.9523C248.425 67.4325 248.616 67.893 248.955 68.2327C249.295 68.5723 249.755 68.7633 250.236 68.7639H372.507C372.987 68.7633 373.448 68.5723 373.787 68.2327C374.127 67.893 374.318 67.4325 374.318 66.9523V36.622C374.318 36.1417 374.127 35.6813 373.787 35.3417C373.448 35.0021 372.987 34.8111 372.507 34.8105H250.236Z" fill="#E6E6E6"/>
<path d="M250.462 66.7251H372.281V36.8477H250.462V66.7251Z" fill="white"/>
<path d="M264.313 45.4473C263.892 45.4473 263.489 45.6143 263.192 45.9115C262.895 46.2087 262.728 46.6119 262.728 47.0323C262.728 47.4526 262.895 47.8558 263.192 48.153C263.489 48.4503 263.892 48.6173 264.313 48.6173H358.426C358.634 48.6173 358.84 48.5764 359.033 48.4969C359.225 48.4173 359.4 48.3006 359.547 48.1535C359.694 48.0064 359.811 47.8317 359.891 47.6394C359.97 47.4472 360.012 47.2411 360.012 47.0329C360.012 46.8248 359.971 46.6187 359.891 46.4263C359.812 46.234 359.695 46.0592 359.548 45.912C359.401 45.7647 359.226 45.6479 359.034 45.5682C358.842 45.4884 358.635 45.4474 358.427 45.4473H264.313Z" fill="#E4E4E4"/>
<path d="M264.313 54.957C263.893 54.9578 263.49 55.1251 263.194 55.4222C262.897 55.7194 262.73 56.1221 262.73 56.542C262.73 56.9619 262.897 57.3646 263.194 57.6618C263.49 57.959 263.893 58.1263 264.313 58.127H358.426C358.846 58.128 359.25 57.9619 359.548 57.6653C359.846 57.3687 360.014 56.9659 360.015 56.5456C360.016 56.1252 359.849 55.7217 359.553 55.4238C359.256 55.1259 358.853 54.958 358.433 54.957H264.313Z" fill="#E4E4E4"/>
<path d="M165.209 86.2734C164.729 86.274 164.268 86.465 163.929 86.8046C163.589 87.1442 163.398 87.6046 163.397 88.0849V118.415C163.398 118.895 163.589 119.356 163.929 119.696C164.268 120.035 164.729 120.226 165.209 120.227H287.48C287.96 120.226 288.421 120.035 288.76 119.696C289.1 119.356 289.291 118.895 289.291 118.415V88.0849C289.291 87.6046 289.1 87.1442 288.76 86.8046C288.421 86.465 287.96 86.2739 287.48 86.2734H165.209Z" fill="white"/>
<path d="M165.209 86.2734C164.729 86.274 164.268 86.465 163.929 86.8046C163.589 87.1442 163.398 87.6046 163.397 88.0849V118.415C163.398 118.895 163.589 119.356 163.929 119.696C164.268 120.035 164.729 120.226 165.209 120.227H287.48C287.96 120.226 288.421 120.035 288.76 119.696C289.1 119.356 289.291 118.895 289.291 118.415V88.0849C289.291 87.6046 289.1 87.1442 288.76 86.8046C288.421 86.465 287.96 86.2739 287.48 86.2734H165.209Z" fill="#E6E6E6"/>
<path d="M165.435 118.19H287.253V88.3125H165.435V118.19Z" fill="white"/>
<path d="M179.286 96.9102C178.865 96.9102 178.462 97.0771 178.165 97.3744C177.868 97.6716 177.701 98.0748 177.701 98.4952C177.701 98.9155 177.868 99.3187 178.165 99.6159C178.462 99.9132 178.865 100.08 179.286 100.08H273.399C273.607 100.08 273.813 100.039 274.006 99.9598C274.198 99.8802 274.373 99.7635 274.52 99.6164C274.667 99.4693 274.784 99.2946 274.864 99.1023C274.944 98.9101 274.985 98.704 274.985 98.4958C274.985 98.2877 274.944 98.0816 274.864 97.8892C274.785 97.6969 274.668 97.5221 274.521 97.3749C274.374 97.2276 274.199 97.1108 274.007 97.0311C273.815 96.9513 273.609 96.9102 273.4 96.9102H179.286Z" fill="#E4E4E4"/>
<path d="M179.285 106.422C178.865 106.423 178.463 106.59 178.166 106.887C177.87 107.184 177.703 107.587 177.703 108.007C177.703 108.427 177.87 108.829 178.166 109.127C178.463 109.424 178.865 109.591 179.285 109.592H273.399C273.819 109.593 274.223 109.427 274.521 109.13C274.818 108.834 274.986 108.431 274.987 108.01C274.988 107.59 274.822 107.187 274.525 106.889C274.229 106.591 273.826 106.423 273.406 106.422H179.285Z" fill="#E4E4E4"/>
<path d="M314.248 167.678C314.793 167.618 315.318 167.439 315.786 167.154C316.254 166.87 316.654 166.486 316.957 166.03C317.261 165.574 317.461 165.057 317.543 164.515C317.625 163.973 317.588 163.42 317.433 162.895L328.269 155.155L321.811 152.668L312.511 160.399C311.645 160.718 310.927 161.343 310.491 162.156C310.055 162.969 309.933 163.913 310.147 164.81C310.361 165.707 310.897 166.495 311.653 167.023C312.409 167.552 313.332 167.785 314.248 167.678Z" fill="#FFB7B7"/>
<path d="M320.264 162.581L316.669 156.441L316.746 156.354L331.25 139.841L342.511 120.637L352.29 121.883L352.435 124.839L352.405 124.883L336.869 148.238L336.852 148.252L320.264 162.581Z" fill="#3F3D56"/>
<path d="M368.185 266.474L362.656 266.473L360.024 245.143L368.187 245.143L368.185 266.474Z" fill="#FFB7B7"/>
<path d="M369.596 271.835L351.764 271.834V271.608C351.764 269.768 352.496 268.002 353.797 266.701C355.099 265.399 356.864 264.668 358.705 264.668L369.596 264.668L369.596 271.835Z" fill="#2F2E41"/>
<path d="M320.591 266.293L315.211 265.009L317.606 243.65L325.545 245.546L320.591 266.293Z" fill="#FFB7B7"/>
<path d="M320.718 271.836L303.374 267.695L303.426 267.475C303.853 265.685 304.975 264.138 306.543 263.174C308.111 262.21 309.998 261.909 311.788 262.336L322.382 264.866L320.718 271.836Z" fill="#2F2E41"/>
<path d="M342.083 110.884V101.575C342.083 98.2671 343.398 95.0943 345.737 92.755C348.076 90.4158 351.249 89.1016 354.557 89.1016C357.866 89.1016 361.038 90.4158 363.378 92.755C365.717 95.0943 367.031 98.2671 367.031 101.575V110.884C367.031 111.328 366.854 111.754 366.54 112.068C366.226 112.383 365.8 112.559 365.355 112.56H343.759C343.315 112.559 342.889 112.383 342.575 112.068C342.261 111.754 342.084 111.328 342.083 110.884Z" fill="#2F2E41"/>
<path d="M351.479 112.418C356.53 112.418 360.624 108.323 360.624 103.272C360.624 98.2215 356.53 94.127 351.479 94.127C346.428 94.127 342.333 98.2215 342.333 103.272C342.333 108.323 346.428 112.418 351.479 112.418Z" fill="#FFB7B7"/>
<path d="M339.132 102.32C339.135 99.7044 340.176 97.1963 342.026 95.3464C343.875 93.4966 346.384 92.4561 349 92.4531H350.861C353.478 92.4561 355.986 93.4966 357.835 95.3465C359.685 97.1963 360.726 99.7044 360.729 102.32V102.507H356.794L355.452 98.7489L355.184 102.507H353.151L352.473 100.611L352.338 102.507H339.132V102.32Z" fill="#2F2E41"/>
<path d="M356.813 151.542L333.528 150.655L332.226 135.422C331.222 132.633 331.206 130.239 332.178 128.306C333.014 126.718 334.418 125.505 336.11 124.907L341.205 118.754C341.861 117.962 342.684 117.327 343.615 116.893C344.547 116.459 345.563 116.237 346.59 116.244L359.828 116.334C360.148 116.142 362.083 115.158 365.9 116.813C370.041 118.608 369.079 124.842 369.069 124.905L369.06 124.963L369.014 125.002L360.208 132.418L356.813 151.542Z" fill="#3F3D56"/>
<path d="M333.713 149.018L322.699 169.099L314.349 260.459L323.784 263.341L340.484 191.873L359.866 261.313L371.176 261.596L363.475 181.462L356.746 150.437L333.713 149.018Z" fill="#2F2E41"/>
<path d="M262.428 134.133C261.971 133.985 261.474 134.025 261.046 134.243C260.619 134.461 260.295 134.841 260.146 135.297L250.793 164.149C250.646 164.606 250.685 165.103 250.904 165.531C251.122 165.959 251.501 166.283 251.958 166.431L368.27 204.136C368.727 204.284 369.224 204.244 369.652 204.026C370.08 203.807 370.404 203.428 370.552 202.971L379.905 174.119C380.053 173.662 380.013 173.165 379.795 172.737C379.576 172.31 379.197 171.986 378.741 171.837L262.428 134.133Z" fill="white"/>
<path d="M262.428 134.133C261.971 133.985 261.474 134.025 261.046 134.243C260.619 134.461 260.295 134.841 260.146 135.297L250.793 164.149C250.646 164.606 250.685 165.103 250.904 165.531C251.122 165.959 251.501 166.283 251.958 166.431L368.27 204.136C368.727 204.284 369.224 204.244 369.652 204.026C370.08 203.807 370.404 203.428 370.552 202.971L379.905 174.119C380.053 173.662 380.013 173.165 379.795 172.737C379.576 172.31 379.197 171.986 378.741 171.837L262.428 134.133Z" fill="#E6E6E6"/>
<path d="M252.802 164.562L368.683 202.127L377.897 173.706L262.015 136.141L252.802 164.562Z" fill="white"/>
<path d="M272.539 148.593C272.139 148.463 271.704 148.498 271.33 148.689C270.956 148.88 270.673 149.212 270.543 149.612C270.413 150.012 270.448 150.446 270.639 150.821C270.83 151.195 271.162 151.478 271.561 151.608L361.088 180.63C361.286 180.694 361.495 180.719 361.703 180.703C361.91 180.687 362.113 180.63 362.298 180.535C362.484 180.441 362.649 180.311 362.785 180.152C362.92 179.994 363.023 179.81 363.087 179.612C363.151 179.414 363.176 179.205 363.159 178.998C363.143 178.79 363.086 178.588 362.991 178.402C362.896 178.217 362.766 178.052 362.607 177.916C362.449 177.781 362.265 177.679 362.067 177.615L362.066 177.614L272.539 148.593Z" fill="#0A2647"/>
<path d="M269.606 157.639C269.207 157.51 268.772 157.545 268.399 157.736C268.025 157.928 267.742 158.259 267.613 158.659C267.483 159.058 267.518 159.492 267.708 159.867C267.899 160.241 268.23 160.524 268.629 160.654L358.156 189.676C358.555 189.806 358.99 189.773 359.365 189.583C359.74 189.392 360.024 189.061 360.154 188.661C360.285 188.262 360.251 187.827 360.061 187.452C359.871 187.077 359.54 186.793 359.14 186.663L359.133 186.66L269.606 157.639Z" fill="#0A2647"/>
<path d="M363.14 181.528C363.547 181.162 363.87 180.711 364.085 180.207C364.299 179.703 364.401 179.158 364.382 178.61C364.363 178.063 364.224 177.526 363.976 177.038C363.727 176.55 363.374 176.122 362.942 175.785L367.242 163.182L360.545 164.922L357.488 176.623C356.97 177.386 356.75 178.313 356.869 179.228C356.988 180.142 357.439 180.981 358.136 181.586C358.832 182.19 359.726 182.518 360.649 182.508C361.571 182.497 362.457 182.148 363.14 181.528Z" fill="#FFB7B7"/>
<path d="M365.061 173.879L358.562 170.983L360.746 148.997L358.714 126.827L367.389 122.145L369.228 124.463L369.23 124.516L370.204 152.55L370.199 152.571L365.061 173.879Z" fill="#3F3D56"/>
<path d="M499.241 272.831H159.407C159.235 272.834 159.067 272.781 158.929 272.679C158.79 272.577 158.689 272.432 158.642 272.267C158.612 272.155 158.609 272.037 158.632 271.923C158.655 271.809 158.704 271.702 158.775 271.61C158.845 271.517 158.937 271.443 159.041 271.391C159.145 271.34 159.26 271.313 159.376 271.313H499.179C499.36 271.307 499.538 271.362 499.684 271.47C499.83 271.577 499.935 271.731 499.982 271.907C500.007 272.018 500.006 272.133 499.98 272.243C499.955 272.354 499.904 272.458 499.833 272.546C499.762 272.635 499.672 272.707 499.569 272.756C499.467 272.805 499.355 272.831 499.241 272.831Z" fill="#CCCCCC"/>
<path d="M114.382 272.831H0.789433C0.617553 272.834 0.449293 272.781 0.310871 272.679C0.172448 272.577 0.0716359 272.432 0.0241431 272.267C-0.00550719 272.155 -0.0089583 272.037 0.0140521 271.923C0.0370626 271.809 0.0859195 271.702 0.15687 271.61C0.22782 271.517 0.318968 271.443 0.423301 271.391C0.527634 271.34 0.642372 271.313 0.758682 271.313H114.319C114.501 271.307 114.679 271.362 114.825 271.47C114.971 271.577 115.076 271.731 115.123 271.907C115.148 272.018 115.147 272.133 115.121 272.243C115.095 272.354 115.045 272.458 114.974 272.546C114.903 272.635 114.813 272.707 114.71 272.756C114.608 272.805 114.495 272.831 114.382 272.831Z" fill="#CCCCCC"/>
</g>
<defs>
<clipPath id="clip0_769_5409">
<rect width="500" height="272.83" fill="white"/>
</clipPath>
</defs>
</svg>
