<svg width="450" height="421" viewBox="0 0 450 421" fill="none" xmlns="http://www.w3.org/2000/svg">
<g clip-path="url(#clip0_769_5402)">
<path d="M415.981 321.986L436.169 325.14C443.002 316.867 447.713 307.05 449.891 296.543C435.13 308.626 412.682 302.205 394.783 308.802C389.216 310.902 384.193 314.228 380.086 318.533C375.98 322.839 372.895 328.013 371.06 333.673L361.194 344.287C370.124 347.823 379.715 349.38 389.306 348.852C398.896 348.324 408.258 345.723 416.746 341.229C421.483 338.66 425.878 335.505 429.827 331.839C422.763 327.391 415.981 321.986 415.981 321.986Z" fill="#F2F2F2"/>
<path d="M408.815 289.7L428.291 283.521C430.717 273.068 430.555 262.181 427.819 251.805C419.996 269.203 397.04 273.467 383.962 287.354C379.916 291.717 376.904 296.934 375.148 302.619C373.393 308.304 372.939 314.311 373.821 320.195L369.724 334.095C379.294 333.277 388.573 330.393 396.921 325.644C405.269 320.894 412.489 314.391 418.082 306.582C421.176 302.171 423.703 297.387 425.602 292.344C417.296 291.513 408.815 289.7 408.815 289.7Z" fill="#F2F2F2"/>
<path d="M450 350.716C450 350.821 449.98 350.924 449.94 351.02C449.901 351.116 449.842 351.204 449.769 351.278C449.695 351.351 449.607 351.409 449.511 351.449C449.415 351.489 449.312 351.509 449.207 351.509H0.792548C0.582352 351.509 0.380762 351.425 0.23213 351.277C0.0834991 351.128 0 350.927 0 350.716C0 350.506 0.0834991 350.305 0.23213 350.156C0.380762 350.007 0.582352 349.924 0.792548 349.924H449.207C449.312 349.924 449.415 349.944 449.511 349.984C449.607 350.023 449.695 350.082 449.769 350.155C449.842 350.229 449.901 350.316 449.94 350.413C449.98 350.509 450 350.612 450 350.716Z" fill="#CCCCCC"/>
<path d="M185.814 316.929C264.897 316.929 329.005 252.82 329.005 173.738C329.005 94.6558 264.897 30.5469 185.814 30.5469C106.732 30.5469 42.623 94.6558 42.623 173.738C42.623 252.82 106.732 316.929 185.814 316.929Z" fill="#E6E6E6"/>
<path d="M309.025 173.738C309.039 192.964 304.548 211.925 295.912 229.102C287.276 246.278 274.735 261.192 259.294 272.647C258.262 273.419 257.21 274.172 256.151 274.905C235.504 289.257 210.96 296.949 185.814 296.949C160.668 296.949 136.125 289.257 115.477 274.905C114.418 274.172 113.366 273.419 112.334 272.647C96.904 261.182 84.3706 246.266 75.7355 229.092C67.1003 211.918 62.603 192.961 62.603 173.738C62.603 154.515 67.1003 135.559 75.7355 118.385C84.3706 101.211 96.904 86.2948 112.334 74.8299C113.366 74.0573 114.418 73.3047 115.477 72.5721C136.125 58.2198 160.668 50.5273 185.814 50.5273C210.96 50.5273 235.503 58.2198 256.151 72.5721C257.21 73.3047 258.262 74.0573 259.294 74.8299C274.735 86.2848 287.276 101.198 295.912 118.375C304.548 135.552 309.04 154.513 309.025 173.738Z" fill="white"/>
<path d="M185.814 286.293C247.977 286.293 298.369 235.901 298.369 173.739C298.369 111.576 247.977 61.1836 185.814 61.1836C123.652 61.1836 73.2593 111.576 73.2593 173.739C73.2593 235.901 123.652 286.293 185.814 286.293Z" fill="#0A2647"/>
<path opacity="0.2" d="M186.107 61.498C184.401 61.498 182.705 61.5427 181.018 61.6178C209.465 64.1176 235.899 77.3375 254.964 98.5993C274.028 119.861 284.297 147.575 283.691 176.126C283.085 204.676 271.649 231.929 251.7 252.363C231.75 272.797 204.78 284.883 176.251 286.174C179.5 286.455 182.786 286.608 186.107 286.608C215.959 286.608 244.588 274.749 265.696 253.641C286.804 232.533 298.662 203.904 298.662 174.053C298.662 144.202 286.804 115.573 265.696 94.4646C244.588 73.3565 215.959 61.498 186.107 61.498Z" fill="black"/>
<path d="M186.147 53.1914C185.176 53.1931 184.245 53.5796 183.559 54.2662C182.872 54.9527 182.486 55.8835 182.484 56.8544V72.8386C182.484 73.8101 182.87 74.7418 183.557 75.4287C184.244 76.1157 185.175 76.5016 186.147 76.5016C187.118 76.5016 188.05 76.1157 188.737 75.4287C189.424 74.7418 189.81 73.8101 189.81 72.8386V56.8544C189.808 55.8835 189.422 54.9527 188.735 54.2662C188.049 53.5796 187.118 53.1931 186.147 53.1914Z" fill="white"/>
<path d="M259.294 74.83C258.262 74.0574 257.21 73.3048 256.151 72.5722C255.515 72.5308 254.88 72.6558 254.308 72.935C253.735 73.2141 253.246 73.6377 252.887 74.164L243.89 87.3708C243.343 88.1737 243.138 89.1608 243.319 90.115C243.5 91.0692 244.053 91.9124 244.855 92.4591C245.658 93.0058 246.645 93.2112 247.599 93.0301C248.554 92.849 249.397 92.2962 249.944 91.4934L258.941 78.2865C259.284 77.7855 259.495 77.2068 259.557 76.6031C259.619 75.9994 259.528 75.3899 259.294 74.83Z" fill="white"/>
<path d="M300.174 135.049C299.993 134.604 299.726 134.198 299.389 133.856C299.051 133.514 298.649 133.242 298.206 133.055C297.764 132.868 297.288 132.771 296.808 132.768C296.327 132.765 295.851 132.856 295.405 133.038L280.593 139.052C279.694 139.418 278.977 140.126 278.6 141.021C278.223 141.915 278.216 142.923 278.582 143.822C278.947 144.722 279.655 145.439 280.549 145.817C281.443 146.195 282.451 146.203 283.351 145.838L298.163 139.824C299.061 139.456 299.778 138.747 300.154 137.852C300.531 136.957 300.538 135.949 300.174 135.049Z" fill="white"/>
<path d="M127.738 87.3709L118.741 74.164C118.382 73.6377 117.893 73.2141 117.32 72.935C116.748 72.6558 116.113 72.5308 115.477 72.5722C114.418 73.3048 113.366 74.0574 112.334 74.83C112.1 75.3899 112.009 75.9994 112.071 76.6031C112.133 77.2068 112.344 77.7855 112.687 78.2865L121.684 91.4934C122.231 92.2962 123.074 92.849 124.029 93.0301C124.983 93.2112 125.97 93.0058 126.773 92.4591C127.576 91.9124 128.128 91.0692 128.309 90.115C128.49 89.1608 128.285 88.1737 127.738 87.3709Z" fill="white"/>
<path d="M91.0348 139.053L76.2228 133.039C75.3229 132.673 74.3147 132.68 73.4199 133.058C72.5251 133.436 71.8171 134.154 71.4515 135.054C71.0859 135.953 71.0927 136.962 71.4704 137.856C71.8481 138.751 72.5657 139.459 73.4655 139.825L88.2775 145.839C89.1772 146.204 90.1849 146.196 91.0791 145.818C91.9733 145.44 92.6809 144.723 93.0463 143.823C93.4117 142.924 93.4051 141.916 93.0279 141.022C92.6507 140.127 91.9338 139.419 91.0348 139.053Z" fill="white"/>
<path d="M186.147 270.975C185.176 270.976 184.245 271.363 183.559 272.049C182.872 272.736 182.486 273.667 182.484 274.638V290.622C182.484 291.593 182.87 292.525 183.557 293.212C184.244 293.899 185.175 294.285 186.147 294.285C187.118 294.285 188.05 293.899 188.737 293.212C189.424 292.525 189.81 291.593 189.81 290.622V274.638C189.808 273.667 189.422 272.736 188.735 272.049C188.049 271.363 187.118 270.976 186.147 270.975Z" fill="white"/>
<path d="M258.941 269.191L249.944 255.984C249.673 255.586 249.327 255.246 248.924 254.982C248.522 254.719 248.072 254.537 247.599 254.447C247.127 254.357 246.641 254.362 246.171 254.46C245.7 254.558 245.253 254.747 244.855 255.018C244.458 255.289 244.117 255.635 243.854 256.037C243.59 256.439 243.408 256.89 243.319 257.362C243.229 257.835 243.233 258.32 243.331 258.791C243.429 259.262 243.619 259.709 243.89 260.106L252.887 273.313C253.246 273.839 253.735 274.263 254.308 274.542C254.88 274.821 255.515 274.946 256.151 274.905C257.21 274.172 258.262 273.42 259.294 272.647C259.528 272.087 259.619 271.478 259.557 270.874C259.495 270.27 259.284 269.692 258.941 269.191Z" fill="white"/>
<path d="M298.163 207.65L283.351 201.636C282.451 201.271 281.443 201.278 280.548 201.656C279.653 202.034 278.945 202.751 278.579 203.651C278.214 204.551 278.221 205.559 278.598 206.454C278.976 207.349 279.694 208.057 280.593 208.423L295.405 214.437C296.305 214.801 297.313 214.794 298.207 214.416C299.101 214.038 299.809 213.32 300.174 212.421C300.54 211.522 300.533 210.514 300.156 209.619C299.779 208.725 299.062 208.017 298.163 207.65Z" fill="white"/>
<path d="M126.773 255.018C125.97 254.471 124.983 254.266 124.029 254.447C123.074 254.628 122.231 255.181 121.684 255.983L112.687 269.19C112.344 269.691 112.133 270.27 112.071 270.874C112.009 271.477 112.1 272.087 112.334 272.647C113.366 273.419 114.418 274.172 115.477 274.905C116.113 274.946 116.748 274.821 117.32 274.542C117.893 274.263 118.382 273.839 118.741 273.313L127.738 260.106C128.009 259.708 128.199 259.262 128.297 258.791C128.395 258.32 128.399 257.834 128.309 257.362C128.22 256.889 128.038 256.439 127.774 256.037C127.511 255.635 127.17 255.288 126.773 255.018Z" fill="white"/>
<path d="M93.0461 203.649C92.8652 203.203 92.5983 202.798 92.2607 202.456C91.9231 202.114 91.5214 201.842 91.0785 201.655C90.6357 201.468 90.1604 201.37 89.6797 201.367C89.1991 201.364 88.7226 201.456 88.2775 201.637L73.4655 207.651C72.5664 208.017 71.8495 208.726 71.4723 209.62C71.0951 210.515 71.0885 211.522 71.4539 212.422C71.8194 213.321 72.5269 214.039 73.4211 214.417C74.3153 214.795 75.323 214.802 76.2228 214.438L91.0347 208.424C91.9334 208.056 92.6496 207.347 93.0266 206.452C93.4035 205.557 93.4106 204.549 93.0461 203.649Z" fill="white"/>
<path d="M190.9 171.92C191.238 173.923 190.768 175.977 189.594 177.633C188.419 179.29 186.635 180.412 184.634 180.755L119.633 191.812C118.641 191.98 117.626 191.952 116.646 191.729C115.665 191.505 114.738 191.09 113.918 190.508C113.097 189.927 112.399 189.189 111.864 188.337C111.329 187.486 110.967 186.537 110.798 185.546C110.629 184.554 110.658 183.539 110.881 182.558C111.105 181.578 111.519 180.651 112.101 179.83C112.683 179.01 113.421 178.312 114.272 177.777C115.124 177.242 116.073 176.879 117.064 176.711L182.065 165.654C184.067 165.316 186.122 165.786 187.778 166.96C189.435 168.135 190.557 169.919 190.9 171.92Z" fill="#3F3D56"/>
<path d="M259.311 243.936C258.378 244.875 257.11 245.405 255.785 245.41C254.461 245.415 253.189 244.895 252.248 243.963L182.275 174.54C181.336 173.606 180.806 172.338 180.801 171.014C180.797 169.69 181.318 168.419 182.25 167.479C183.183 166.539 184.45 166.008 185.774 166.002C187.098 165.996 188.37 166.516 189.311 167.448L259.284 236.872C260.223 237.805 260.753 239.074 260.758 240.398C260.764 241.722 260.243 242.994 259.311 243.936Z" fill="#3F3D56"/>
<path d="M185.814 182.396C190.596 182.396 194.472 178.52 194.472 173.738C194.472 168.956 190.596 165.08 185.814 165.08C181.032 165.08 177.156 168.956 177.156 173.738C177.156 178.52 181.032 182.396 185.814 182.396Z" fill="#CCCCCC"/>
<path d="M126.178 23.6071C112.888 44.5013 92.6099 58.3677 67.6025 67.4771C67.1084 67.8472 66.5462 68.1164 65.948 68.2692C65.3498 68.422 64.7274 68.4555 64.1163 68.3678C63.5052 68.2801 62.9173 68.0729 62.3863 67.758C61.8552 67.4431 61.3914 67.0266 61.0213 66.5325C47.4376 48.3955 50.5048 22.4742 68.4325 8.6154C72.7668 5.27064 77.7224 2.82018 83.0114 1.40626C88.3005 -0.00765162 93.8178 -0.356856 99.2429 0.378932C104.668 1.11472 109.893 2.92084 114.614 5.69243C119.336 8.46403 123.46 12.1459 126.747 16.5243L127.122 17.0259C127.492 17.5201 127.761 18.0823 127.914 18.6804C128.067 19.2786 128.101 19.901 128.013 20.5121C127.925 21.1233 127.718 21.7111 127.403 22.2421C127.088 22.7732 126.672 23.237 126.178 23.6071Z" fill="#E6E6E6"/>
<path d="M244.882 16.5243C248.169 12.1459 252.293 8.46402 257.014 5.69243C261.735 2.92083 266.96 1.11472 272.386 0.378935C277.811 -0.356854 283.328 -0.00765892 288.617 1.40626C293.906 2.82017 298.862 5.27064 303.196 8.61539C321.124 22.4741 324.191 48.3955 310.607 66.5325C310.237 67.0266 309.773 67.4431 309.242 67.758C308.711 68.0729 308.123 68.2801 307.512 68.3678C306.901 68.4555 306.279 68.422 305.68 68.2692C305.082 68.1164 304.52 67.8472 304.026 67.4771C280.811 58.5891 261.773 43.2083 245.451 23.6071C244.453 22.8596 243.793 21.7463 243.616 20.5121C243.438 19.2779 243.759 18.0239 244.506 17.0259L244.882 16.5243Z" fill="#E6E6E6"/>
<path d="M239.056 297.794C238.21 298.27 237.587 299.062 237.323 299.996C237.059 300.931 237.176 301.931 237.649 302.78L258.789 340.557C259.264 341.405 260.055 342.029 260.99 342.293C261.925 342.557 262.926 342.439 263.774 341.964C264.622 341.49 265.246 340.698 265.51 339.763C265.774 338.829 265.656 337.827 265.182 336.98L244.042 299.202C243.566 298.356 242.774 297.732 241.84 297.468C240.906 297.204 239.905 297.322 239.056 297.794Z" fill="#E6E6E6"/>
<path d="M127.586 299.201L106.446 336.979C105.971 337.826 105.853 338.828 106.117 339.763C106.382 340.697 107.006 341.489 107.854 341.963C108.701 342.438 109.703 342.556 110.638 342.292C111.572 342.028 112.364 341.404 112.839 340.556L133.979 302.779C134.214 302.359 134.364 301.897 134.421 301.419C134.477 300.941 134.439 300.457 134.308 299.994C134.177 299.531 133.957 299.098 133.659 298.721C133.361 298.343 132.991 298.028 132.572 297.793C132.152 297.558 131.69 297.408 131.212 297.351C130.734 297.295 130.25 297.333 129.787 297.464C129.324 297.595 128.891 297.816 128.514 298.114C128.136 298.412 127.821 298.781 127.586 299.201Z" fill="#E6E6E6"/>
<path d="M263.071 350.23C269.324 350.23 274.393 345.161 274.393 338.908C274.393 332.655 269.324 327.586 263.071 327.586C256.818 327.586 251.749 332.655 251.749 338.908C251.749 345.161 256.818 350.23 263.071 350.23Z" fill="#E6E6E6"/>
<path d="M271.063 60.5172C277.316 60.5172 282.385 55.4482 282.385 49.1951C282.385 42.9421 277.316 37.873 271.063 37.873C264.81 37.873 259.741 42.9421 259.741 49.1951C259.741 55.4482 264.81 60.5172 271.063 60.5172Z" fill="#E6E6E6"/>
<path d="M185.148 33.8766C191.401 33.8766 196.47 28.8075 196.47 22.5545C196.47 16.3015 191.401 11.2324 185.148 11.2324C178.895 11.2324 173.826 16.3015 173.826 22.5545C173.826 28.8075 178.895 33.8766 185.148 33.8766Z" fill="#E6E6E6"/>
<path d="M103.229 59.1852C109.482 59.1852 114.551 54.1161 114.551 47.8631C114.551 41.6101 109.482 36.541 103.229 36.541C96.9763 36.541 91.9072 41.6101 91.9072 47.8631C91.9072 54.1161 96.9763 59.1852 103.229 59.1852Z" fill="#E6E6E6"/>
<path d="M110.555 350.23C116.809 350.23 121.878 345.161 121.878 338.908C121.878 332.655 116.809 327.586 110.555 327.586C104.302 327.586 99.2334 332.655 99.2334 338.908C99.2334 345.161 104.302 350.23 110.555 350.23Z" fill="#E6E6E6"/>
<path d="M254.189 237.569C254.636 238.267 255.23 238.86 255.93 239.304C256.63 239.749 257.419 240.034 258.241 240.141C259.064 240.247 259.899 240.172 260.689 239.921C261.479 239.669 262.205 239.248 262.814 238.685L280.581 248.205L279.628 237.774L262.903 230.334C261.891 229.372 260.561 228.815 259.166 228.769C257.771 228.722 256.407 229.189 255.333 230.081C254.259 230.973 253.549 232.228 253.338 233.608C253.128 234.988 253.43 236.397 254.189 237.569Z" fill="#FFB7B7"/>
<path d="M267.134 241.208L274.096 231.598L307.636 247.453L349.373 239.622C351.436 239.235 353.559 239.307 355.591 239.832C357.623 240.358 359.515 241.325 361.131 242.664C362.748 244.003 364.05 245.681 364.945 247.58C365.84 249.478 366.306 251.551 366.31 253.65C366.312 257.441 364.811 261.078 362.135 263.764C359.46 266.45 355.827 267.965 352.036 267.976L304.206 268.064L267.134 241.208Z" fill="#3F3D56"/>
<path d="M256.412 407.194L249.367 403.826L259.044 374.383L269.439 379.355L256.412 407.194Z" fill="#FFB7B7"/>
<path d="M303.635 402.448C303.123 402.769 302.611 403.084 302.093 403.4C301.064 404.031 300.024 404.652 298.984 405.262C298.461 405.568 297.934 405.873 297.411 406.173V406.189L297.38 406.194L297.37 406.199L296.573 406.396L295.429 403.374L294.902 401.982L294.157 400.011L292.791 396.405L285.599 377.416L296.78 374.658L297.199 376.371H297.204L297.411 377.219L301.317 393.062L302.114 396.301L302.14 396.399L302.621 398.335L303.035 400.011L303.496 401.884L303.635 402.448Z" fill="#FFB7B7"/>
<path d="M370.335 335.765C369.626 336.903 368.901 338.036 368.172 339.159C366.816 341.249 365.424 343.309 363.996 345.337C363.996 345.342 363.991 345.342 363.986 345.347C363.153 346.119 362.233 346.791 361.244 347.35C361.202 347.381 361.156 347.401 361.114 347.427C360.386 347.83 359.611 348.141 358.807 348.353C358.517 348.426 358.222 348.498 357.932 348.571C356.887 348.819 355.852 349.031 354.823 349.217C352.991 349.543 351.18 349.776 349.38 349.921C349.235 349.937 349.09 349.947 348.945 349.957C341.541 350.501 334.334 349.626 326.811 348.193C323.096 347.489 319.303 346.646 315.376 345.771C314.093 345.482 312.805 345.197 311.501 344.913C311.402 344.892 311.299 344.866 311.195 344.845C309.333 344.437 307.439 344.033 305.499 343.635C303.057 343.133 300.537 342.646 297.919 342.186L298.105 345.875C298.26 348.713 298.85 351.51 299.854 354.169C300.972 357.439 301.856 360.026 299.989 365.412L299.088 368.02C299.555 369.315 299.715 370.7 299.556 372.067C299.397 373.435 298.924 374.746 298.172 375.9L297.991 376.174L305.499 395.168L305.985 396.399H302.141L297.412 396.404H289.397L277.833 373.204L277.28 372.097V372.04L278.475 327.455C278.491 327.062 278.522 326.664 278.573 326.271C278.784 324.483 279.349 322.755 280.234 321.188C281.12 319.621 282.309 318.246 283.732 317.144C285.095 316.078 286.657 315.294 288.326 314.838C289.995 314.381 291.738 314.261 293.454 314.484L297.412 314.996L305.499 316.042L311.195 316.782L311.309 316.797L328.109 318.97L329.315 314.055L329.537 313.972L336.61 311.38L361.073 302.413L361.135 302.393L362.744 301.803L362.936 302.113C362.993 302.206 363.05 302.299 363.101 302.393C364.692 305.244 365.987 308.25 366.966 311.364C368.613 316.452 369.969 321.629 371.028 326.871C371.074 327.099 371.116 327.306 371.152 327.492L371.168 327.549C371.183 327.637 371.193 327.694 371.199 327.709C371.763 330.058 371.369 332.924 370.335 335.765Z" fill="#2F2E41"/>
<path d="M371.367 319.335C371.289 319.004 371.191 318.667 371.088 318.341C370.266 315.873 369.309 313.451 368.221 311.087C367 308.397 365.536 305.515 363.792 302.395C362.949 300.884 362.042 299.313 361.071 297.682C360.584 296.864 360.079 296.031 359.555 295.182C359.534 295.143 359.512 295.105 359.488 295.069L359.338 294.82L335.133 298.059L326.12 299.265L325.582 303.756L325.453 304.868C325.448 304.868 325.448 304.868 325.453 304.873L325.091 307.905V307.911L324.61 311.915L324.568 311.91L311.193 310.177L297.41 308.392L290.006 307.435C288.29 307.211 286.547 307.331 284.878 307.788C283.208 308.244 281.647 309.028 280.284 310.094C278.861 311.197 277.673 312.572 276.787 314.139C275.901 315.706 275.336 317.434 275.125 319.221C275.079 319.583 275.048 319.956 275.032 320.323L268.047 336.875C263.867 346.774 261.206 357.246 260.152 367.94L255.029 384.315L255.759 384.383L266.614 385.392L269.48 385.661L275.793 376.446C276.512 375.395 277.195 374.314 277.831 373.207C278.879 371.398 279.81 369.525 280.62 367.598L294.274 335.105C295.33 335.286 296.375 335.459 297.41 335.623C302.196 336.399 306.79 337.032 311.193 337.522C325.51 339.12 337.907 339.244 348.943 337.889C352.042 337.511 355.038 337.014 357.93 336.399C358.991 336.176 360.038 335.937 361.071 335.68C361.314 335.623 361.552 335.566 361.79 335.504C363.928 334.952 365.894 333.873 367.508 332.365C369.121 330.858 370.331 328.969 371.026 326.873C371.855 324.444 371.974 321.829 371.367 319.335Z" fill="#2F2E41"/>
<path d="M258.661 402.387L251.04 398.734L249.845 398.16L247.936 402.848L234.607 405.781C233.948 405.926 233.353 406.277 232.908 406.784C232.463 407.291 232.191 407.928 232.134 408.6C232.076 409.272 232.235 409.945 232.587 410.521C232.939 411.096 233.465 411.544 234.09 411.799L247.113 417.113L251.247 413.392L250.233 418.385L255.138 420.388L260.514 403.277L258.661 402.387Z" fill="#2F2E41"/>
<path d="M305.499 395.168L305.985 396.399H305.499V395.168Z" fill="#2F2E41"/>
<path d="M302.845 396.663L294.859 399.43L293.605 399.863L295.547 404.537L288.141 416C287.774 416.566 287.598 417.235 287.639 417.908C287.679 418.582 287.934 419.225 288.366 419.743C288.798 420.261 289.384 420.628 290.039 420.789C290.694 420.951 291.384 420.898 292.007 420.64L305 415.252L305.32 409.7L308.112 413.961L313.006 411.933L304.787 395.992L302.845 396.663Z" fill="#2F2E41"/>
<path d="M369.376 326.83C368.901 326.829 368.434 326.713 368.015 326.492L325.874 304.472L325.387 302.479L324.469 296.171L324.482 296.111L328.49 277.634C328.416 277.476 328.263 277.216 328.089 276.922C326.3 273.89 320.855 264.664 331.247 251.959L349.493 230.687L365.152 230.014L365.33 230.239C369.518 235.494 372.341 241.703 373.551 248.313C374.761 254.923 374.318 261.729 372.264 268.127L370.633 297.575L372.382 303.523C373.404 307.018 373.235 310.753 371.901 314.142L372.302 323.771C372.318 324.166 372.254 324.56 372.114 324.929C371.974 325.299 371.761 325.636 371.488 325.922C371.215 326.207 370.887 326.435 370.524 326.591C370.161 326.747 369.771 326.828 369.376 326.83Z" fill="#3F3D56"/>
<path d="M332.821 351.116C333.535 350.695 334.148 350.122 334.616 349.437C335.085 348.753 335.398 347.975 335.533 347.157C335.668 346.338 335.622 345.501 335.398 344.702C335.174 343.904 334.778 343.164 334.237 342.536L344.369 325.111L333.912 325.701L325.894 342.157C324.898 343.135 324.295 344.444 324.2 345.837C324.105 347.23 324.524 348.609 325.378 349.714C326.232 350.818 327.461 351.571 328.833 351.829C330.205 352.088 331.624 351.834 332.821 351.116Z" fill="#FFB7B7"/>
<path d="M336.91 338.306L327.547 331.013L344.56 298.045L338.185 256.061C337.87 253.986 338.016 251.867 338.612 249.854C339.208 247.842 340.24 245.985 341.634 244.416C343.028 242.847 344.751 241.604 346.68 240.776C348.608 239.948 350.696 239.554 352.794 239.623C356.583 239.752 360.166 241.379 362.757 244.146C365.348 246.914 366.735 250.597 366.614 254.386L365.039 302.19L336.91 338.306Z" fill="#3F3D56"/>
<path d="M339.448 221.849V206.354C339.444 200.847 341.628 195.564 345.52 191.667C349.411 187.771 354.692 185.58 360.198 185.576C365.705 185.573 370.988 187.757 374.885 191.648C378.781 195.54 380.972 200.82 380.976 206.327V206.354C384.636 213.98 382.346 217.605 380.976 221.849C380.975 222.588 380.681 223.297 380.158 223.819C379.635 224.342 378.927 224.636 378.188 224.637H342.237C341.498 224.637 340.789 224.343 340.266 223.82C339.743 223.297 339.449 222.589 339.448 221.849Z" fill="#2F2E41"/>
<path d="M353.404 223.63C361.988 223.63 368.947 216.672 368.947 208.088C368.947 199.504 361.988 192.545 353.404 192.545C344.82 192.545 337.861 199.504 337.861 208.088C337.861 216.672 344.82 223.63 353.404 223.63Z" fill="#FFB7B7"/>
<path d="M369.67 212.163C369.529 212.141 369.388 212.111 369.248 212.089C366.823 211.659 364.399 211.236 361.982 210.799L361.759 205.32L358.831 210.228C352.15 212.445 345.9 211.192 340.021 208.426C338.082 207.506 336.2 206.468 334.386 205.32C334.88 202.289 336.045 199.408 337.796 196.886C339.547 194.364 341.84 192.265 344.507 190.744C344.729 190.617 344.944 190.506 345.166 190.395L345.169 190.394L345.172 190.393L345.173 190.39L345.174 190.388C345.552 190.21 345.937 190.039 346.323 189.883C349.341 188.704 352.632 188.405 355.814 189.022C358.995 189.639 361.936 191.146 364.295 193.368C369.04 197.898 371.175 205.379 369.67 212.163Z" fill="#2F2E41"/>
</g>
<defs>
<clipPath id="clip0_769_5402">
<rect width="450" height="420.88" fill="white"/>
</clipPath>
</defs>
</svg>
