<svg width="500" height="341" viewBox="0 0 500 341" fill="none" xmlns="http://www.w3.org/2000/svg">
<g clip-path="url(#clip0_636_8351)">
<path d="M113.565 8.85527C116.011 8.85527 117.993 6.87295 117.993 4.42764C117.993 1.98232 116.011 0 113.565 0C111.12 0 109.138 1.98232 109.138 4.42764C109.138 6.87295 111.12 8.85527 113.565 8.85527Z" fill="#E6E6E6"/>
<path d="M135.978 8.85527C138.423 8.85527 140.406 6.87295 140.406 4.42764C140.406 1.98232 138.423 0 135.978 0C133.533 0 131.55 1.98232 131.55 4.42764C131.55 6.87295 133.533 8.85527 135.978 8.85527Z" fill="#E6E6E6"/>
<path d="M158.391 8.85527C160.836 8.85527 162.818 6.87295 162.818 4.42764C162.818 1.98232 160.836 0 158.391 0C155.945 0 153.963 1.98232 153.963 4.42764C153.963 6.87295 155.945 8.85527 158.391 8.85527Z" fill="#E6E6E6"/>
<path d="M180.803 8.85527C183.248 8.85527 185.231 6.87295 185.231 4.42764C185.231 1.98232 183.248 0 180.803 0C178.358 0 176.375 1.98232 176.375 4.42764C176.375 6.87295 178.358 8.85527 180.803 8.85527Z" fill="#E6E6E6"/>
<path d="M203.216 8.85527C205.661 8.85527 207.643 6.87295 207.643 4.42764C207.643 1.98232 205.661 0 203.216 0C200.77 0 198.788 1.98232 198.788 4.42764C198.788 6.87295 200.77 8.85527 203.216 8.85527Z" fill="#E6E6E6"/>
<path d="M113.565 31.5486C116.011 31.5486 117.993 29.5663 117.993 27.121C117.993 24.6757 116.011 22.6934 113.565 22.6934C111.12 22.6934 109.138 24.6757 109.138 27.121C109.138 29.5663 111.12 31.5486 113.565 31.5486Z" fill="#E6E6E6"/>
<path d="M135.978 31.5486C138.423 31.5486 140.406 29.5663 140.406 27.121C140.406 24.6757 138.423 22.6934 135.978 22.6934C133.533 22.6934 131.55 24.6757 131.55 27.121C131.55 29.5663 133.533 31.5486 135.978 31.5486Z" fill="#E6E6E6"/>
<path d="M158.391 31.5486C160.836 31.5486 162.818 29.5663 162.818 27.121C162.818 24.6757 160.836 22.6934 158.391 22.6934C155.945 22.6934 153.963 24.6757 153.963 27.121C153.963 29.5663 155.945 31.5486 158.391 31.5486Z" fill="#E6E6E6"/>
<path d="M180.803 31.5486C183.248 31.5486 185.231 29.5663 185.231 27.121C185.231 24.6757 183.248 22.6934 180.803 22.6934C178.358 22.6934 176.375 24.6757 176.375 27.121C176.375 29.5663 178.358 31.5486 180.803 31.5486Z" fill="#0A2647"/>
<path d="M203.216 31.5486C205.661 31.5486 207.643 29.5663 207.643 27.121C207.643 24.6757 205.661 22.6934 203.216 22.6934C200.77 22.6934 198.788 24.6757 198.788 27.121C198.788 29.5663 200.77 31.5486 203.216 31.5486Z" fill="#E6E6E6"/>
<path d="M248.041 31.5486C250.486 31.5486 252.469 29.5663 252.469 27.121C252.469 24.6757 250.486 22.6934 248.041 22.6934C245.596 22.6934 243.613 24.6757 243.613 27.121C243.613 29.5663 245.596 31.5486 248.041 31.5486Z" fill="#E6E6E6"/>
<path d="M113.565 54.2439C116.011 54.2439 117.993 52.2616 117.993 49.8163C117.993 47.371 116.011 45.3887 113.565 45.3887C111.12 45.3887 109.138 47.371 109.138 49.8163C109.138 52.2616 111.12 54.2439 113.565 54.2439Z" fill="#E6E6E6"/>
<path d="M135.978 54.2439C138.423 54.2439 140.406 52.2616 140.406 49.8163C140.406 47.371 138.423 45.3887 135.978 45.3887C133.533 45.3887 131.55 47.371 131.55 49.8163C131.55 52.2616 133.533 54.2439 135.978 54.2439Z" fill="#E6E6E6"/>
<path d="M158.391 54.2439C160.836 54.2439 162.818 52.2616 162.818 49.8163C162.818 47.371 160.836 45.3887 158.391 45.3887C155.945 45.3887 153.963 47.371 153.963 49.8163C153.963 52.2616 155.945 54.2439 158.391 54.2439Z" fill="#E6E6E6"/>
<path d="M180.803 54.2439C183.248 54.2439 185.231 52.2616 185.231 49.8163C185.231 47.371 183.248 45.3887 180.803 45.3887C178.358 45.3887 176.375 47.371 176.375 49.8163C176.375 52.2616 178.358 54.2439 180.803 54.2439Z" fill="#E6E6E6"/>
<path d="M203.216 54.2439C205.661 54.2439 207.643 52.2616 207.643 49.8163C207.643 47.371 205.661 45.3887 203.216 45.3887C200.77 45.3887 198.788 47.371 198.788 49.8163C198.788 52.2616 200.77 54.2439 203.216 54.2439Z" fill="#E6E6E6"/>
<path d="M113.565 76.9373C116.011 76.9373 117.993 74.955 117.993 72.5097C117.993 70.0644 116.011 68.082 113.565 68.082C111.12 68.082 109.138 70.0644 109.138 72.5097C109.138 74.955 111.12 76.9373 113.565 76.9373Z" fill="#E6E6E6"/>
<path d="M135.978 76.9373C138.423 76.9373 140.406 74.955 140.406 72.5097C140.406 70.0644 138.423 68.082 135.978 68.082C133.533 68.082 131.55 70.0644 131.55 72.5097C131.55 74.955 133.533 76.9373 135.978 76.9373Z" fill="#E6E6E6"/>
<path d="M158.391 76.9373C160.836 76.9373 162.818 74.955 162.818 72.5097C162.818 70.0644 160.836 68.082 158.391 68.082C155.945 68.082 153.963 70.0644 153.963 72.5097C153.963 74.955 155.945 76.9373 158.391 76.9373Z" fill="#E6E6E6"/>
<path d="M180.803 76.9373C183.248 76.9373 185.231 74.955 185.231 72.5097C185.231 70.0644 183.248 68.082 180.803 68.082C178.358 68.082 176.375 70.0644 176.375 72.5097C176.375 74.955 178.358 76.9373 180.803 76.9373Z" fill="#E6E6E6"/>
<path d="M203.216 76.9373C205.661 76.9373 207.643 74.955 207.643 72.5097C207.643 70.0644 205.661 68.082 203.216 68.082C200.77 68.082 198.788 70.0644 198.788 72.5097C198.788 74.955 200.77 76.9373 203.216 76.9373Z" fill="#E6E6E6"/>
<path d="M225.628 76.9373C228.074 76.9373 230.056 74.955 230.056 72.5097C230.056 70.0644 228.074 68.082 225.628 68.082C223.183 68.082 221.201 70.0644 221.201 72.5097C221.201 74.955 223.183 76.9373 225.628 76.9373Z" fill="#E6E6E6"/>
<path d="M248.041 76.9373C250.486 76.9373 252.469 74.955 252.469 72.5097C252.469 70.0644 250.486 68.082 248.041 68.082C245.596 68.082 243.613 70.0644 243.613 72.5097C243.613 74.955 245.596 76.9373 248.041 76.9373Z" fill="#E6E6E6"/>
<path d="M270.454 76.9373C272.899 76.9373 274.881 74.955 274.881 72.5097C274.881 70.0644 272.899 68.082 270.454 68.082C268.008 68.082 266.026 70.0644 266.026 72.5097C266.026 74.955 268.008 76.9373 270.454 76.9373Z" fill="#E6E6E6"/>
<path d="M292.866 76.9373C295.311 76.9373 297.294 74.955 297.294 72.5097C297.294 70.0644 295.311 68.082 292.866 68.082C290.421 68.082 288.438 70.0644 288.438 72.5097C288.438 74.955 290.421 76.9373 292.866 76.9373Z" fill="#E6E6E6"/>
<path d="M315.279 76.9373C317.724 76.9373 319.706 74.955 319.706 72.5097C319.706 70.0644 317.724 68.082 315.279 68.082C312.833 68.082 310.851 70.0644 310.851 72.5097C310.851 74.955 312.833 76.9373 315.279 76.9373Z" fill="#E6E6E6"/>
<path d="M203.216 99.6307C205.661 99.6307 207.643 97.6483 207.643 95.203C207.643 92.7577 205.661 90.7754 203.216 90.7754C200.77 90.7754 198.788 92.7577 198.788 95.203C198.788 97.6483 200.77 99.6307 203.216 99.6307Z" fill="#E6E6E6"/>
<path d="M225.628 99.6307C228.074 99.6307 230.056 97.6483 230.056 95.203C230.056 92.7577 228.074 90.7754 225.628 90.7754C223.183 90.7754 221.201 92.7577 221.201 95.203C221.201 97.6483 223.183 99.6307 225.628 99.6307Z" fill="#0A2647"/>
<path d="M248.041 99.6307C250.486 99.6307 252.469 97.6483 252.469 95.203C252.469 92.7577 250.486 90.7754 248.041 90.7754C245.596 90.7754 243.613 92.7577 243.613 95.203C243.613 97.6483 245.596 99.6307 248.041 99.6307Z" fill="#E6E6E6"/>
<path d="M270.454 99.6307C272.899 99.6307 274.881 97.6483 274.881 95.203C274.881 92.7577 272.899 90.7754 270.454 90.7754C268.008 90.7754 266.026 92.7577 266.026 95.203C266.026 97.6483 268.008 99.6307 270.454 99.6307Z" fill="#E6E6E6"/>
<path d="M292.866 99.6307C295.311 99.6307 297.294 97.6483 297.294 95.203C297.294 92.7577 295.311 90.7754 292.866 90.7754C290.421 90.7754 288.438 92.7577 288.438 95.203C288.438 97.6483 290.421 99.6307 292.866 99.6307Z" fill="#E6E6E6"/>
<path d="M315.279 99.6307C317.724 99.6307 319.706 97.6483 319.706 95.203C319.706 92.7577 317.724 90.7754 315.279 90.7754C312.833 90.7754 310.851 92.7577 310.851 95.203C310.851 97.6483 312.833 99.6307 315.279 99.6307Z" fill="#E6E6E6"/>
<path d="M203.216 122.324C205.661 122.324 207.643 120.342 207.643 117.896C207.643 115.451 205.661 113.469 203.216 113.469C200.77 113.469 198.788 115.451 198.788 117.896C198.788 120.342 200.77 122.324 203.216 122.324Z" fill="#E6E6E6"/>
<path d="M225.628 122.324C228.074 122.324 230.056 120.342 230.056 117.896C230.056 115.451 228.074 113.469 225.628 113.469C223.183 113.469 221.201 115.451 221.201 117.896C221.201 120.342 223.183 122.324 225.628 122.324Z" fill="#E6E6E6"/>
<path d="M248.041 122.324C250.486 122.324 252.469 120.342 252.469 117.896C252.469 115.451 250.486 113.469 248.041 113.469C245.596 113.469 243.613 115.451 243.613 117.896C243.613 120.342 245.596 122.324 248.041 122.324Z" fill="#E6E6E6"/>
<path d="M270.454 122.324C272.899 122.324 274.881 120.342 274.881 117.896C274.881 115.451 272.899 113.469 270.454 113.469C268.008 113.469 266.026 115.451 266.026 117.896C266.026 120.342 268.008 122.324 270.454 122.324Z" fill="#E6E6E6"/>
<path d="M292.866 122.324C295.311 122.324 297.294 120.342 297.294 117.896C297.294 115.451 295.311 113.469 292.866 113.469C290.421 113.469 288.438 115.451 288.438 117.896C288.438 120.342 290.421 122.324 292.866 122.324Z" fill="#0A2647"/>
<path d="M315.279 122.324C317.724 122.324 319.706 120.342 319.706 117.896C319.706 115.451 317.724 113.469 315.279 113.469C312.833 113.469 310.851 115.451 310.851 117.896C310.851 120.342 312.833 122.324 315.279 122.324Z" fill="#E6E6E6"/>
<path d="M203.216 145.019C205.661 145.019 207.643 143.037 207.643 140.592C207.643 138.146 205.661 136.164 203.216 136.164C200.77 136.164 198.788 138.146 198.788 140.592C198.788 143.037 200.77 145.019 203.216 145.019Z" fill="#E6E6E6"/>
<path d="M225.628 145.019C228.074 145.019 230.056 143.037 230.056 140.592C230.056 138.146 228.074 136.164 225.628 136.164C223.183 136.164 221.201 138.146 221.201 140.592C221.201 143.037 223.183 145.019 225.628 145.019Z" fill="#E6E6E6"/>
<path d="M248.041 145.019C250.486 145.019 252.469 143.037 252.469 140.592C252.469 138.146 250.486 136.164 248.041 136.164C245.596 136.164 243.613 138.146 243.613 140.592C243.613 143.037 245.596 145.019 248.041 145.019Z" fill="#E6E6E6"/>
<path d="M270.454 145.019C272.899 145.019 274.881 143.037 274.881 140.592C274.881 138.146 272.899 136.164 270.454 136.164C268.008 136.164 266.026 138.146 266.026 140.592C266.026 143.037 268.008 145.019 270.454 145.019Z" fill="#E6E6E6"/>
<path d="M292.866 145.019C295.311 145.019 297.294 143.037 297.294 140.592C297.294 138.146 295.311 136.164 292.866 136.164C290.421 136.164 288.438 138.146 288.438 140.592C288.438 143.037 290.421 145.019 292.866 145.019Z" fill="#E6E6E6"/>
<path d="M315.279 145.019C317.724 145.019 319.706 143.037 319.706 140.592C319.706 138.146 317.724 136.164 315.279 136.164C312.833 136.164 310.851 138.146 310.851 140.592C310.851 143.037 312.833 145.019 315.279 145.019Z" fill="#E6E6E6"/>
<path d="M113.565 167.713C116.011 167.713 117.993 165.73 117.993 163.285C117.993 160.84 116.011 158.857 113.565 158.857C111.12 158.857 109.138 160.84 109.138 163.285C109.138 165.73 111.12 167.713 113.565 167.713Z" fill="#E6E6E6"/>
<path d="M135.978 167.713C138.423 167.713 140.406 165.73 140.406 163.285C140.406 160.84 138.423 158.857 135.978 158.857C133.533 158.857 131.55 160.84 131.55 163.285C131.55 165.73 133.533 167.713 135.978 167.713Z" fill="#E6E6E6"/>
<path d="M158.391 167.713C160.836 167.713 162.818 165.73 162.818 163.285C162.818 160.84 160.836 158.857 158.391 158.857C155.945 158.857 153.963 160.84 153.963 163.285C153.963 165.73 155.945 167.713 158.391 167.713Z" fill="#E6E6E6"/>
<path d="M180.803 167.713C183.248 167.713 185.231 165.73 185.231 163.285C185.231 160.84 183.248 158.857 180.803 158.857C178.358 158.857 176.375 160.84 176.375 163.285C176.375 165.73 178.358 167.713 180.803 167.713Z" fill="#E6E6E6"/>
<path d="M203.216 167.713C205.661 167.713 207.643 165.73 207.643 163.285C207.643 160.84 205.661 158.857 203.216 158.857C200.77 158.857 198.788 160.84 198.788 163.285C198.788 165.73 200.77 167.713 203.216 167.713Z" fill="#E6E6E6"/>
<path d="M225.628 167.713C228.074 167.713 230.056 165.73 230.056 163.285C230.056 160.84 228.074 158.857 225.628 158.857C223.183 158.857 221.201 160.84 221.201 163.285C221.201 165.73 223.183 167.713 225.628 167.713Z" fill="#E6E6E6"/>
<path d="M248.041 167.713C250.486 167.713 252.469 165.73 252.469 163.285C252.469 160.84 250.486 158.857 248.041 158.857C245.596 158.857 243.613 160.84 243.613 163.285C243.613 165.73 245.596 167.713 248.041 167.713Z" fill="#E6E6E6"/>
<path d="M270.454 167.713C272.899 167.713 274.881 165.73 274.881 163.285C274.881 160.84 272.899 158.857 270.454 158.857C268.008 158.857 266.026 160.84 266.026 163.285C266.026 165.73 268.008 167.713 270.454 167.713Z" fill="#E6E6E6"/>
<path d="M292.866 167.713C295.311 167.713 297.294 165.73 297.294 163.285C297.294 160.84 295.311 158.857 292.866 158.857C290.421 158.857 288.438 160.84 288.438 163.285C288.438 165.73 290.421 167.713 292.866 167.713Z" fill="#E6E6E6"/>
<path d="M315.279 167.713C317.724 167.713 319.706 165.73 319.706 163.285C319.706 160.84 317.724 158.857 315.279 158.857C312.833 158.857 310.851 160.84 310.851 163.285C310.851 165.73 312.833 167.713 315.279 167.713Z" fill="#E6E6E6"/>
<path d="M113.563 190.406C116.008 190.406 117.991 188.424 117.991 185.978C117.991 183.533 116.008 181.551 113.563 181.551C111.118 181.551 109.135 183.533 109.135 185.978C109.135 188.424 111.118 190.406 113.563 190.406Z" fill="#E6E6E6"/>
<path d="M135.978 190.406C138.423 190.406 140.406 188.424 140.406 185.978C140.406 183.533 138.423 181.551 135.978 181.551C133.533 181.551 131.55 183.533 131.55 185.978C131.55 188.424 133.533 190.406 135.978 190.406Z" fill="#E6E6E6"/>
<path d="M113.563 213.099C116.008 213.099 117.991 211.117 117.991 208.672C117.991 206.226 116.008 204.244 113.563 204.244C111.118 204.244 109.135 206.226 109.135 208.672C109.135 211.117 111.118 213.099 113.563 213.099Z" fill="#E6E6E6"/>
<path d="M135.978 213.101C138.423 213.101 140.406 211.119 140.406 208.674C140.406 206.228 138.423 204.246 135.978 204.246C133.533 204.246 131.55 206.228 131.55 208.674C131.55 211.119 133.533 213.101 135.978 213.101Z" fill="#E6E6E6"/>
<path d="M180.803 213.101C183.248 213.101 185.231 211.119 185.231 208.674C185.231 206.228 183.248 204.246 180.803 204.246C178.358 204.246 176.375 206.228 176.375 208.674C176.375 211.119 178.358 213.101 180.803 213.101Z" fill="#E6E6E6"/>
<path d="M404.205 52.2372H228.746C227.885 52.2362 227.059 51.8935 226.45 51.2844C225.841 50.6753 225.498 49.8494 225.497 48.988V5.46408C225.498 4.60264 225.841 3.77677 226.45 3.16764C227.059 2.55851 227.885 2.21585 228.746 2.21484H404.205C405.067 2.21585 405.893 2.55851 406.502 3.16764C407.111 3.77677 407.454 4.60264 407.455 5.46408V48.988C407.454 49.8494 407.111 50.6753 406.502 51.2844C405.893 51.8935 405.067 52.2362 404.205 52.2372ZM228.746 3.51454C228.229 3.5151 227.734 3.72068 227.368 4.08617C227.003 4.45166 226.797 4.9472 226.797 5.46408V48.988C226.797 49.5049 227.003 50.0004 227.368 50.3659C227.734 50.7314 228.229 50.937 228.746 50.9375H404.205C404.722 50.937 405.218 50.7314 405.583 50.3659C405.949 50.0004 406.154 49.5049 406.155 48.988V5.46408C406.154 4.9472 405.949 4.45166 405.583 4.08617C405.218 3.72068 404.722 3.5151 404.205 3.51454H228.746Z" fill="#E6E6E6"/>
<path d="M251.491 40.8737C259.028 40.8737 265.138 34.7638 265.138 27.2269C265.138 19.69 259.028 13.5801 251.491 13.5801C243.954 13.5801 237.844 19.69 237.844 27.2269C237.844 34.7638 243.954 40.8737 251.491 40.8737Z" fill="#0A2647"/>
<path d="M283.008 18.1289C282.405 18.1289 281.827 18.3685 281.4 18.7951C280.974 19.2216 280.734 19.8001 280.734 20.4034C280.734 21.0066 280.974 21.5851 281.4 22.0117C281.827 22.4382 282.405 22.6778 283.008 22.6778H343.444C344.047 22.6778 344.626 22.4382 345.052 22.0117C345.479 21.5851 345.719 21.0066 345.719 20.4034C345.719 19.8001 345.479 19.2216 345.052 18.7951C344.626 18.3685 344.047 18.1289 343.444 18.1289H283.008Z" fill="#E6E6E6"/>
<path d="M283.008 31.7754C282.405 31.7754 281.827 32.015 281.4 32.4416C280.974 32.8681 280.734 33.4466 280.734 34.0499C280.734 34.6531 280.974 35.2316 281.4 35.6581C281.827 36.0847 282.405 36.3243 283.008 36.3243H390.233C390.836 36.3243 391.415 36.0847 391.842 35.6581C392.268 35.2316 392.508 34.6531 392.508 34.0499C392.508 33.4466 392.268 32.8681 391.842 32.4416C391.415 32.015 390.836 31.7754 390.233 31.7754H283.008Z" fill="#E6E6E6"/>
<path d="M178.708 140.616H3.24924C2.3878 140.615 1.56193 140.272 0.952797 139.663C0.343666 139.054 0.00100956 138.228 0 137.367V93.843C0.00100956 92.9815 0.343666 92.1557 0.952797 91.5465C1.56193 90.9374 2.3878 90.5948 3.24924 90.5938H178.708C179.57 90.5948 180.396 90.9374 181.005 91.5465C181.614 92.1557 181.957 92.9815 181.958 93.843V137.367C181.957 138.228 181.614 139.054 181.005 139.663C180.396 140.272 179.57 140.615 178.708 140.616ZM3.24924 91.8934C2.73236 91.894 2.23681 92.0996 1.87133 92.4651C1.50584 92.8306 1.30026 93.3261 1.29969 93.843V137.367C1.30026 137.884 1.50584 138.379 1.87133 138.745C2.23681 139.11 2.73236 139.316 3.24924 139.316H178.708C179.225 139.316 179.721 139.11 180.086 138.745C180.452 138.379 180.657 137.884 180.658 137.367V93.843C180.657 93.3261 180.452 92.8306 180.086 92.4651C179.721 92.0996 179.225 91.894 178.708 91.8934H3.24924Z" fill="#E6E6E6"/>
<path d="M25.994 129.253C33.5309 129.253 39.6408 123.143 39.6408 115.606C39.6408 108.069 33.5309 101.959 25.994 101.959C18.457 101.959 12.3472 108.069 12.3472 115.606C12.3472 123.143 18.457 129.253 25.994 129.253Z" fill="#0A2647"/>
<path d="M57.5113 106.508C56.9081 106.508 56.3295 106.747 55.903 107.174C55.4764 107.601 55.2368 108.179 55.2368 108.782C55.2368 109.386 55.4764 109.964 55.903 110.391C56.3295 110.817 56.9081 111.057 57.5113 111.057H120.546C121.15 111.057 121.728 110.817 122.155 110.391C122.581 109.964 122.821 109.386 122.821 108.782C122.821 108.179 122.581 107.601 122.155 107.174C121.728 106.747 121.15 106.508 120.546 106.508H57.5113Z" fill="#E6E6E6"/>
<path d="M57.5113 120.154C56.9081 120.154 56.3295 120.394 55.903 120.82C55.4764 121.247 55.2368 121.826 55.2368 122.429C55.2368 123.032 55.4764 123.611 55.903 124.037C56.3295 124.464 56.9081 124.703 57.5113 124.703H164.736C165.339 124.703 165.918 124.464 166.344 124.037C166.771 123.611 167.011 123.032 167.011 122.429C167.011 121.826 166.771 121.247 166.344 120.82C165.918 120.394 165.339 120.154 164.736 120.154H57.5113Z" fill="#E6E6E6"/>
<path d="M337.271 236.143H161.812C160.951 236.142 160.125 235.8 159.516 235.191C158.907 234.582 158.564 233.756 158.563 232.894V189.37C158.564 188.509 158.907 187.683 159.516 187.074C160.125 186.465 160.951 186.122 161.812 186.121H337.271C338.133 186.122 338.959 186.465 339.568 187.074C340.177 187.683 340.52 188.509 340.521 189.37V232.894C340.52 233.756 340.177 234.582 339.568 235.191C338.959 235.8 338.133 236.142 337.271 236.143ZM161.812 187.421C161.295 187.421 160.8 187.627 160.434 187.992C160.069 188.358 159.863 188.853 159.863 189.37V232.894C159.863 233.411 160.069 233.907 160.434 234.272C160.8 234.638 161.295 234.843 161.812 234.844H337.271C337.788 234.843 338.284 234.638 338.649 234.272C339.015 233.907 339.22 233.411 339.221 232.894V189.37C339.22 188.853 339.015 188.358 338.649 187.992C338.284 187.627 337.788 187.421 337.271 187.421H161.812Z" fill="#3F3D56"/>
<path d="M184.556 224.78C192.093 224.78 198.203 218.67 198.203 211.133C198.203 203.596 192.093 197.486 184.556 197.486C177.02 197.486 170.91 203.596 170.91 211.133C170.91 218.67 177.02 224.78 184.556 224.78Z" fill="#0A2647"/>
<path d="M216.074 202.035C215.471 202.035 214.893 202.275 214.466 202.701C214.039 203.128 213.8 203.706 213.8 204.31C213.8 204.913 214.039 205.491 214.466 205.918C214.893 206.344 215.471 206.584 216.074 206.584H273.911C274.514 206.584 275.092 206.344 275.519 205.918C275.946 205.491 276.185 204.913 276.185 204.31C276.185 203.706 275.946 203.128 275.519 202.701C275.092 202.275 274.514 202.035 273.911 202.035H216.074Z" fill="#E6E6E6"/>
<path d="M216.074 215.682C215.471 215.682 214.893 215.921 214.466 216.348C214.039 216.774 213.8 217.353 213.8 217.956C213.8 218.559 214.039 219.138 214.466 219.564C214.893 219.991 215.471 220.231 216.074 220.231H323.299C323.902 220.231 324.481 219.991 324.907 219.564C325.334 219.138 325.574 218.559 325.574 217.956C325.574 217.353 325.334 216.774 324.907 216.348C324.481 215.921 323.902 215.682 323.299 215.682H216.074Z" fill="#E6E6E6"/>
<path d="M431.661 225.105C424.041 247.965 392.868 223.719 392.868 223.719L401.181 137.129C413.65 127.431 426.812 135.744 426.812 135.744L431.661 225.105Z" fill="#E6E6E6"/>
<path d="M430.024 301.826L440.646 301.938L437.993 332.555L430.026 332.556L430.024 301.826Z" fill="#FFB8B8"/>
<path d="M427.993 329.955H443.683C446.334 329.958 448.876 331.012 450.75 332.887C452.625 334.762 453.679 337.303 453.682 339.954V340.279H427.993V329.955Z" fill="#2F2E41"/>
<path d="M401.23 301.827L389.471 301.826L393.261 332.556L401.228 332.557L401.23 301.827Z" fill="#FFB8B8"/>
<path d="M377.571 340.279V339.954C377.571 337.302 378.624 334.759 380.5 332.883C382.375 331.008 384.918 329.955 387.57 329.955L403.26 329.956L403.26 340.28L377.571 340.279Z" fill="#2F2E41"/>
<path d="M429.307 327.252L415.392 246.136L402.499 326.207L389.437 326.932L385.954 219.652L386.216 219.593C388.376 219.109 439.203 207.946 447.535 223.916L447.577 223.997L440.623 327.617L429.307 327.252Z" fill="#2F2E41"/>
<path d="M414.56 126.982C423.375 126.982 430.52 119.836 430.52 111.021C430.52 102.206 423.375 95.0605 414.56 95.0605C405.745 95.0605 398.599 102.206 398.599 111.021C398.599 119.836 405.745 126.982 414.56 126.982Z" fill="#FFB8B8"/>
<path d="M427.968 231.947C426.098 231.429 424.749 229.28 423.726 225.185C423.549 224.479 406.978 153.889 420.992 141.1L424.222 132.127L428.643 135.074C430.207 135.089 446.202 135.494 447.569 145.746C448.907 155.782 452.55 223.022 448.889 227.204C448.817 227.296 448.726 227.371 448.621 227.424C448.517 227.477 448.403 227.506 448.286 227.509C444.575 227.509 443.449 223.391 443.184 222.079C442.301 222.445 439.673 223.787 435.354 228.107C432.679 230.782 430.581 232.064 428.848 232.064C428.551 232.065 428.255 232.026 427.968 231.947Z" fill="#2F2E41"/>
<path d="M393.331 228.107C389.011 223.786 386.382 222.444 385.501 222.079C385.237 223.391 384.11 227.509 380.399 227.509C380.282 227.506 380.168 227.477 380.064 227.424C379.96 227.371 379.868 227.296 379.797 227.204C376.135 223.022 379.778 155.783 381.116 145.746C382.483 135.494 398.478 135.089 400.043 135.074L404.463 132.127L407.693 141.1C421.707 153.888 405.136 224.479 404.96 225.185C403.936 229.28 402.588 231.429 400.717 231.947C400.43 232.026 400.135 232.065 399.838 232.064C398.104 232.064 396.006 230.782 393.331 228.107Z" fill="#2F2E41"/>
<path d="M427.737 120.139C430.437 118.197 432.482 115.479 433.599 112.346C434.717 109.213 434.854 105.815 433.993 102.602C433.132 99.3894 431.313 96.5151 428.778 94.3614C426.244 92.2077 423.113 90.8766 419.804 90.5454C418.335 90.3983 416.752 90.4202 415.534 89.5857C414.452 88.8444 413.869 87.5587 412.874 86.7033C412.242 86.2145 411.517 85.8615 410.742 85.6662C409.968 85.471 409.161 85.4378 408.373 85.5686C406.8 85.8398 405.276 86.3407 403.849 87.0552C400.31 88.6331 396.547 90.5751 394.937 94.0995C393.542 97.1523 394.158 100.917 396.132 103.631C398.209 106.317 401.236 108.105 404.591 108.625C407.926 109.124 411.332 108.817 414.524 107.731C416.63 107.068 418.71 106.165 420.917 106.091C422.64 106.034 424.341 106.49 425.803 107.402C427.266 108.313 428.424 109.64 429.131 111.212C429.838 112.784 430.061 114.53 429.773 116.23C429.484 117.929 428.696 119.504 427.51 120.754" fill="#2F2E41"/>
<path d="M340.742 215.087C341.663 215.065 342.571 214.863 343.415 214.49C344.258 214.118 345.019 213.583 345.656 212.916C346.292 212.25 346.791 211.464 347.124 210.605C347.457 209.745 347.618 208.828 347.596 207.907L356.904 192.203L349.712 185.609L339.908 201.083C338.099 201.256 336.427 202.125 335.246 203.506C334.064 204.887 333.464 206.673 333.572 208.487C333.681 210.301 334.488 212.003 335.825 213.234C337.162 214.465 338.925 215.129 340.742 215.087Z" fill="#FFB8B8"/>
<path d="M448.729 232.291C449.501 231.788 450.166 231.137 450.687 230.377C451.208 229.616 451.574 228.761 451.764 227.859C451.954 226.957 451.964 226.026 451.795 225.12C451.625 224.214 451.279 223.35 450.775 222.578L450.419 204.326L440.834 202.508L440.646 220.825C439.199 221.925 438.236 223.544 437.959 225.34C437.681 227.136 438.112 228.97 439.159 230.455C440.206 231.941 441.788 232.962 443.573 233.305C445.358 233.647 447.206 233.284 448.729 232.291Z" fill="#FFB8B8"/>
<path d="M343.573 189.835L343.465 189.662L343.572 189.49C357.533 167.071 386.839 139.066 387.133 138.785L387.226 138.697L390.845 138.66L394.758 148.408C393.54 150.751 360.709 196.568 356.373 199.607C356.028 199.846 355.637 200.009 355.224 200.087C354.812 200.165 354.387 200.155 353.979 200.058C353.257 199.891 352.569 199.599 351.948 199.193C347.948 196.715 343.778 190.159 343.573 189.835Z" fill="#2F2E41"/>
<path d="M439.009 215.418C438.62 215.285 438.263 215.073 437.96 214.795C437.658 214.517 437.416 214.18 437.25 213.804C435.16 208.927 444.119 147.323 444.501 144.703L444.573 144.207L447.602 146.126L447.632 146.257C447.721 146.65 456.543 185.896 454.152 211.973L454.134 212.16L453.965 212.239C453.6 212.407 446.252 215.782 441.355 215.782C440.557 215.803 439.763 215.68 439.009 215.418Z" fill="#2F2E41"/>
<path d="M499.35 340.765H326.491C326.318 340.765 326.153 340.696 326.031 340.574C325.909 340.452 325.841 340.287 325.841 340.115C325.841 339.942 325.909 339.777 326.031 339.655C326.153 339.533 326.318 339.465 326.491 339.465H499.35C499.522 339.465 499.688 339.533 499.81 339.655C499.931 339.777 500 339.942 500 340.115C500 340.287 499.931 340.452 499.81 340.574C499.688 340.696 499.522 340.765 499.35 340.765Z" fill="#3F3D56"/>
</g>
<defs>
<clipPath id="clip0_636_8351">
<rect width="500" height="340.764" fill="white"/>
</clipPath>
</defs>
</svg>
