<svg width="500" height="308" viewBox="0 0 500 308" fill="none" xmlns="http://www.w3.org/2000/svg">
<g clip-path="url(#clip0_769_5404)">
<path d="M417.341 291.736H398.973V307.944H417.341V291.736Z" fill="#F0F0F0"/>
<path d="M500 136.144C500.008 160.583 493.436 184.574 480.974 205.597C468.513 226.621 450.621 243.902 429.178 255.626C427.962 256.291 426.731 256.939 425.493 257.566C420.905 259.905 416.184 261.976 411.355 263.768C409.432 264.492 407.489 265.165 405.526 265.788C405.337 265.853 405.142 265.918 404.953 265.972C385.729 272.076 365.387 273.823 345.403 271.087C325.42 268.35 306.296 261.2 289.42 250.154C287.156 248.673 284.939 247.128 282.769 245.518C281.543 244.605 280.333 243.676 279.139 242.72C275.762 240.04 272.521 237.2 269.414 234.2C256.207 221.514 245.704 206.287 238.538 189.436C231.371 172.584 227.688 154.456 227.712 136.144C227.712 60.9514 288.663 0 363.856 0C439.048 0 500 60.9514 500 136.144Z" fill="#F2F2F2"/>
<path d="M396.369 199.677L393.3 211.282L404.953 265.971C373.629 275.838 339.799 274.099 309.652 261.071L318.75 222.924L319.053 202.232L320.041 134.004L320.29 133.874C320.305 133.865 320.322 133.857 320.339 133.852L343.516 121.951L383.505 120.951L413.343 135.484L413.116 136.332L396.369 199.677Z" fill="#3F3D56"/>
<path d="M412.719 299.377C411.8 298.284 411.133 297.003 410.763 295.624C410.394 294.245 410.331 292.801 410.58 291.395C410.828 289.989 411.382 288.655 412.202 287.486C413.022 286.318 414.088 285.343 415.326 284.631L408.835 250.537L425.482 257.475L429.094 288.787C430.152 290.945 430.382 293.417 429.74 295.733C429.098 298.05 427.629 300.05 425.61 301.356C423.592 302.661 421.165 303.181 418.789 302.816C416.413 302.452 414.253 301.228 412.719 299.377Z" fill="#9E616A"/>
<path d="M407.328 136.546L411.6 135.156C411.6 135.156 425.15 143.852 423.861 164.877C423.861 164.877 424.368 175.756 423.884 182.997C423.327 191.302 430.782 273.829 430.782 273.829H406.637L396.289 199.093L407.328 136.546Z" fill="#3F3D56"/>
<path d="M393.323 83.6468C393.323 89.1295 391.697 94.4891 388.651 99.0477C385.605 103.606 381.276 107.159 376.211 109.258C371.145 111.356 365.572 111.905 360.194 110.835C354.817 109.765 349.877 107.125 346.001 103.248C342.124 99.3717 339.484 94.4323 338.414 89.0549C337.344 83.6776 337.893 78.1038 339.991 73.0385C342.09 67.9731 345.643 63.6437 350.201 60.5977C354.76 57.5517 360.12 55.9259 365.602 55.9259C369.234 55.9168 372.831 56.6231 376.189 58.0043C379.548 59.3856 382.601 61.4148 385.175 63.9761C387.75 66.5374 389.794 69.5806 391.192 72.932C392.59 76.2835 393.314 79.8774 393.323 83.5087C393.323 83.5547 393.323 83.6008 393.323 83.6468Z" fill="#9E616A"/>
<path d="M337.974 46.4133C341.221 39.4303 347.505 40.8109 353.001 43.1779C359.961 41.6341 366.581 37.0122 374.08 39.7456C381.466 50.4892 406.267 47.3282 400.991 64.8188C400.984 69.0099 408.877 66.5704 407.499 73.4345C411.68 86.6444 392.406 111.662 381.341 106.394C384.078 101.378 390.329 89.987 380.848 88.8571C360.452 107.835 378.743 52.7194 353.116 68.7478C344.631 76.5132 333.014 54.1806 337.974 46.4133Z" fill="#2F2E41"/>
<path d="M380.394 268.779L336.144 260.015L347.49 202.727C363.147 208.649 377.897 211.57 391.74 211.491C379.643 229.233 374.147 248.284 380.394 268.779Z" fill="#E4E4E4"/>
<path d="M373.96 272.144L329.71 263.38C326.077 237.426 329.379 217.886 341.056 206.092C356.713 212.014 371.463 214.935 385.306 214.856C377.993 233.08 374.145 252.508 373.96 272.144Z" fill="#0A2647"/>
<path d="M344.642 256.187C344.466 254.77 343.982 253.408 343.224 252.199C342.465 250.989 341.451 249.96 340.252 249.185C339.053 248.41 337.699 247.907 336.284 247.712C334.87 247.517 333.43 247.634 332.066 248.055L311.515 220.088L305.262 237.004L325.736 260.969C326.596 263.214 328.249 265.065 330.383 266.172C332.517 267.279 334.982 267.565 337.313 266.975C339.643 266.386 341.677 264.962 343.027 262.973C344.378 260.985 344.952 258.57 344.642 256.187Z" fill="#9E616A"/>
<path d="M326.216 135.479L322.493 132.965C322.493 132.965 300.343 135.027 295.784 155.592C295.784 155.592 292.453 167.948 290.922 175.041C290.135 178.69 279.639 213.939 279.639 213.939L315.233 252.838L324.958 238.251L315.233 213.939L326.216 135.479Z" fill="#3F3D56"/>
<path d="M18.3686 68.3516H0V84.5592H18.3686V68.3516Z" fill="#0A2647"/>
<path d="M57.8071 133.184H39.4385V149.391H57.8071V133.184Z" fill="#0A2647"/>
<path d="M86.4404 243.936H68.0718V260.143H86.4404V243.936Z" fill="#0A2647"/>
<path d="M68.2054 31.1445C67.6609 31.1445 67.1387 31.3608 66.7536 31.7459C66.3686 32.1309 66.1523 32.6531 66.1523 33.1976C66.1523 33.742 66.3686 34.2642 66.7536 34.6493C67.1387 35.0343 67.6609 35.2506 68.2054 35.2506H218.1C218.644 35.2493 219.165 35.0325 219.549 34.6476C219.933 34.2627 220.148 33.7412 220.148 33.1976C220.148 32.6539 219.933 32.1324 219.549 31.7475C219.165 31.3626 218.644 31.1458 218.1 31.1445H68.2054Z" fill="#E4E4E4"/>
<path d="M68.2052 43.4629C67.9355 43.4621 67.6682 43.5144 67.4186 43.617C67.1691 43.7195 66.9423 43.8702 66.751 44.0605C66.5598 44.2508 66.4079 44.4768 66.3041 44.7258C66.2003 44.9748 66.1466 45.2418 66.146 45.5116C66.1454 45.7814 66.198 46.0486 66.3008 46.298C66.4036 46.5474 66.5545 46.7742 66.7449 46.9652C66.9354 47.1563 67.1616 47.308 67.4107 47.4115C67.6598 47.5151 67.9268 47.5686 68.1966 47.5689H162.962C163.506 47.5689 164.028 47.3526 164.413 46.9676C164.798 46.5826 165.015 46.0604 165.015 45.5159C165.015 44.9714 164.798 44.4492 164.413 44.0642C164.028 43.6792 163.506 43.4629 162.962 43.4629H68.2052Z" fill="#E4E4E4"/>
<path d="M48.7561 178.635C48.2117 178.635 47.6895 178.851 47.3044 179.236C46.9194 179.621 46.7031 180.143 46.7031 180.688C46.7031 181.232 46.9194 181.754 47.3044 182.14C47.6895 182.525 48.2117 182.741 48.7561 182.741H198.651C199.195 182.74 199.716 182.523 200.1 182.138C200.484 181.753 200.699 181.231 200.699 180.688C200.699 180.144 200.484 179.623 200.1 179.238C199.716 178.853 199.195 178.636 198.651 178.635H48.7561Z" fill="#E4E4E4"/>
<path d="M48.756 190.953C48.4862 190.952 48.219 191.005 47.9694 191.107C47.7199 191.21 47.4931 191.36 47.3018 191.551C47.1106 191.741 46.9587 191.967 46.8549 192.216C46.7511 192.465 46.6973 192.732 46.6968 193.002C46.6962 193.272 46.7488 193.539 46.8516 193.788C46.9543 194.038 47.1053 194.264 47.2957 194.455C47.4861 194.647 47.7124 194.798 47.9615 194.902C48.2105 195.005 48.4776 195.059 48.7474 195.059H143.512C144.057 195.059 144.579 194.843 144.964 194.458C145.349 194.073 145.565 193.551 145.565 193.006C145.565 192.462 145.349 191.939 144.964 191.554C144.579 191.169 144.057 190.953 143.512 190.953H48.756Z" fill="#E4E4E4"/>
<path d="M134.116 283.984C133.572 283.984 133.05 284.201 132.665 284.586C132.28 284.971 132.063 285.493 132.063 286.037C132.063 286.582 132.28 287.104 132.665 287.489C133.05 287.874 133.572 288.09 134.116 288.09H284.011C284.555 288.089 285.076 287.872 285.46 287.487C285.844 287.103 286.06 286.581 286.06 286.037C286.06 285.494 285.844 284.972 285.46 284.587C285.076 284.202 284.555 283.986 284.011 283.984H134.116Z" fill="#E4E4E4"/>
<path d="M134.116 296.301C133.847 296.3 133.579 296.352 133.33 296.455C133.08 296.557 132.853 296.708 132.662 296.898C132.471 297.089 132.319 297.315 132.215 297.564C132.111 297.813 132.058 298.08 132.057 298.349C132.057 298.619 132.109 298.886 132.212 299.136C132.315 299.385 132.466 299.612 132.656 299.803C132.846 299.994 133.073 300.146 133.322 300.249C133.571 300.353 133.838 300.407 134.108 300.407H228.873C229.417 300.407 229.939 300.191 230.324 299.806C230.709 299.42 230.926 298.898 230.926 298.354C230.926 297.809 230.709 297.287 230.324 296.902C229.939 296.517 229.417 296.301 228.873 296.301H134.116Z" fill="#E4E4E4"/>
<path d="M8.63758 76.5303C13.0381 75.5639 17.2009 73.7275 20.8814 71.1289C24.5618 68.5303 27.6855 65.222 30.0688 61.3986C31.4218 59.2249 32.5123 56.8983 33.3174 54.4677C33.3783 54.2665 33.3586 54.0494 33.2626 53.8624C33.1665 53.6754 33.0016 53.533 32.8026 53.4652C32.6036 53.3974 32.386 53.4095 32.1958 53.499C32.0055 53.5885 31.8575 53.7484 31.7828 53.945C30.4014 58.0075 28.2209 61.7524 25.3698 64.9593C22.5188 68.1662 19.0549 70.7701 15.182 72.6176C12.9998 73.6604 10.7011 74.4393 8.33453 74.9381C7.3137 75.1534 7.61459 76.7461 8.63758 76.5303Z" fill="#3F3D56"/>
<path d="M24.4288 57.571C27.3504 55.9257 30.272 54.2803 33.1936 52.6349C33.3289 52.5591 33.7078 52.2721 33.8494 52.3064C33.7359 52.2789 33.8389 52.3629 33.8422 52.4656C33.8468 52.6037 33.8642 52.744 33.8694 52.8831C33.9011 53.7363 33.9166 54.5905 33.9402 55.4439L34.0761 60.3522C34.1047 61.3853 35.7222 61.5081 35.6933 60.4629L35.5339 54.701C35.4973 53.3806 35.8276 50.4517 33.6881 50.7049C32.9161 50.7962 32.2023 51.3371 31.5438 51.708L28.8763 53.2102L23.7318 56.1075C22.8258 56.6177 23.519 58.0834 24.4288 57.571Z" fill="#3F3D56"/>
<path d="M48.789 141.229C44.4332 142.373 40.3498 144.375 36.7788 147.119C33.2079 149.863 30.2214 153.292 27.9948 157.207C26.7308 159.432 25.7354 161.799 25.0295 164.258C24.9807 164.463 25.0132 164.678 25.1201 164.859C25.2271 165.04 25.4002 165.173 25.6028 165.229C25.8055 165.285 26.022 165.26 26.2066 165.159C26.3912 165.058 26.5295 164.89 26.5924 164.689C27.8155 160.573 29.8502 156.744 32.5765 153.426C35.3028 150.109 38.6656 147.371 42.4666 145.373C44.6071 144.248 46.8742 143.381 49.2198 142.792C50.2305 142.537 49.8023 140.974 48.789 141.229Z" fill="#3F3D56"/>
<path d="M33.7606 160.807L25.2911 166.029C25.146 166.118 25.0033 166.216 24.8522 166.296C24.7023 166.375 24.548 166.372 24.645 166.467C24.5142 166.339 24.5476 165.863 24.5378 165.718L24.3728 163.268L24.0429 158.369C23.9732 157.334 22.3519 157.326 22.4221 158.369L22.8095 164.12C22.8976 165.43 22.6537 168.14 24.6585 168.03C25.5511 167.981 26.4015 167.248 27.133 166.797L29.5528 165.305L34.5787 162.207C35.465 161.66 34.6519 160.258 33.7606 160.807Z" fill="#3F3D56"/>
<path d="M76.659 251.384C80.813 252.471 84.7072 254.379 88.1121 256.996C91.5171 259.612 94.3638 262.883 96.4846 266.617C97.6802 268.719 98.6208 270.956 99.2865 273.281C99.3494 273.482 99.4877 273.65 99.6723 273.751C99.8569 273.851 100.073 273.876 100.276 273.82C100.479 273.764 100.652 273.632 100.759 273.451C100.866 273.27 100.898 273.055 100.849 272.85C99.5708 268.532 97.442 264.513 94.588 261.03C91.734 257.546 88.2124 254.669 84.2303 252.566C81.9672 251.371 79.5703 250.45 77.0899 249.821C76.0783 249.566 75.6467 251.128 76.659 251.384Z" fill="#3F3D56"/>
<path d="M91.2999 270.799L96.3258 273.897L98.7457 275.389C99.479 275.841 100.326 276.573 101.22 276.622C103.224 276.732 102.981 274.022 103.069 272.712L103.456 266.961C103.527 265.92 101.906 265.924 101.836 266.961L101.506 271.86L101.348 274.203C101.336 274.382 101.383 274.91 101.234 275.059C101.34 274.953 101.229 275.004 101.11 274.931C100.937 274.826 100.76 274.727 100.587 274.621L92.118 269.399C91.2276 268.85 90.4127 270.252 91.2999 270.799Z" fill="#3F3D56"/>
<path d="M36.7374 46.2013C40.9146 46.2013 44.3009 42.815 44.3009 38.6378C44.3009 34.4605 40.9146 31.0742 36.7374 31.0742C32.5601 31.0742 29.1738 34.4605 29.1738 38.6378C29.1738 42.815 32.5601 46.2013 36.7374 46.2013Z" fill="#0A2647"/>
<path d="M23.7711 194.41C27.9483 194.41 31.3346 191.024 31.3346 186.847C31.3346 182.67 27.9483 179.283 23.7711 179.283C19.5938 179.283 16.2075 182.67 16.2075 186.847C16.2075 191.024 19.5938 194.41 23.7711 194.41Z" fill="#0A2647"/>
<path d="M105.349 299.58C109.526 299.58 112.913 296.194 112.913 292.017C112.913 287.839 109.526 284.453 105.349 284.453C101.172 284.453 97.7856 287.839 97.7856 292.017C97.7856 296.194 101.172 299.58 105.349 299.58Z" fill="#0A2647"/>
</g>
<defs>
<clipPath id="clip0_769_5404">
<rect width="500" height="307.944" fill="white"/>
</clipPath>
</defs>
</svg>
